<?xml version="1.0" encoding="UTF-8"?>
<svg width="79px" height="65px" viewBox="0 0 79 65" version="1.1" xmlns="http://www.w3.org/2000/svg" xmlns:xlink="http://www.w3.org/1999/xlink">
    <!-- Generator: Sketch 53.2 (72643) - https://sketchapp.com -->
    <title>Group 8</title>
    <desc>Created with Sketch.</desc>
    <g id="Page-1" stroke="none" stroke-width="1" fill="none" fill-rule="evenodd">
        <g id="Group-8">
            <rect id="Rectangle" fill="#FFFFFF" x="35" y="0" width="44" height="65"></rect>
            <ellipse id="Oval" stroke="#FFFFFF" fill="#FFFFFF" cx="35" cy="32.5" rx="34.5" ry="32"></ellipse>
            <path d="M26.232,30.192 C26.5946685,31.0133374 26.776,31.8933286 26.776,32.832 C26.776,34.0586728 26.4666698,35.1919948 25.848,36.232 C25.2293302,37.2720052 24.3920053,38.095997 23.336,38.704 C22.2799947,39.312003 21.1280062,39.616 19.88,39.616 C18.6319938,39.616 17.4826719,39.312003 16.432,38.704 C15.3813281,38.095997 14.5466698,37.2773385 13.928,36.248 C13.3093302,35.2186615 13,34.0906728 13,32.864 C13,32.1173296 13.1013323,31.4346698 13.304,30.816 C13.5280011,30.1439966 13.8213315,29.5466693 14.184,29.024 C14.5573352,28.490664 15.0026641,28.0133354 15.52,27.592 C16.0373359,27.1706646 16.599997,26.8320013 17.208,26.576 C18.082671,26.2239982 18.9733288,26.048 19.88,26.048 C20.5733368,26.048 21.2559966,26.1493323 21.928,26.352 C22.5573365,26.5546677 23.1599971,26.8373315 23.736,27.2 C24.877339,27.9680038 25.7093307,28.9653272 26.232,30.192 Z M19.88,36.368 C20.5413366,36.368 21.1519972,36.2106682 21.712,35.896 C22.2720028,35.5813318 22.7173317,35.1520027 23.048,34.608 C23.3786683,34.0639973 23.544,33.4720032 23.544,32.832 C23.544,32.490665 23.4853339,32.1440018 23.368,31.792 C23.2719995,31.4719984 23.1226677,31.1680014 22.92,30.88 C22.5359981,30.2933304 22.0026701,29.8613347 21.32,29.584 C20.8506643,29.391999 20.3706691,29.296 19.88,29.296 C19.5279982,29.296 19.1653352,29.3493328 18.792,29.456 C18.4293315,29.5733339 18.1093347,29.7226658 17.832,29.904 C17.2346637,30.3200021 16.7973347,30.8426635 16.52,31.472 C16.327999,31.930669 16.232,32.3839978 16.232,32.832 C16.232,33.4720032 16.394665,34.0639973 16.72,34.608 C17.045335,35.1520027 17.4879972,35.5813318 18.048,35.896 C18.6080028,36.2106682 19.2186634,36.368 19.88,36.368 Z M40.792,26.32 C41.2400022,26.32 41.6213318,26.4799984 41.936,26.8 C42.2506682,27.1200016 42.408,27.5039978 42.408,27.952 L42.408,42.496 C42.408,42.7520013 42.3493339,42.9973322 42.232,43.232 C42.0933326,43.498668 41.8960013,43.7146658 41.64,43.88 C41.3839987,44.0453342 41.1013349,44.128 40.792,44.128 C40.3439978,44.128 39.9600016,43.9680016 39.64,43.648 C39.3199984,43.3279984 39.16,42.9440022 39.16,42.496 L39.16,38.464 C38.1573283,39.072003 37.0533394,39.376 35.848,39.376 L35.832,39.376 C34.9466622,39.376 34.1066706,39.205335 33.312,38.864 C32.5173294,38.522665 31.8133364,38.0426698 31.2,37.424 C30.5866636,36.8053302 30.1146683,36.0906707 29.784,35.28 C29.442665,34.4586626 29.272,33.6000045 29.272,32.704 C29.272,31.5306608 29.5573305,30.4293385 30.128,29.4 C30.6986695,28.3706615 31.4853283,27.5466698 32.488,26.928 C33.4906717,26.3093302 34.6053272,26 35.832,26 L35.848,26 C36.4880032,26 37.1386634,26.1013323 37.8,26.304 C38.3440027,26.4640008 38.882664,26.7199982 39.416,27.072 C39.5653341,26.8479989 39.7599988,26.6666674 40,26.528 C40.2400012,26.3893326 40.5039986,26.32 40.792,26.32 Z M35.848,36.144 C36.4453363,36.144 36.9973308,35.9893349 37.504,35.68 C38.0106692,35.3706651 38.4133318,34.9520026 38.712,34.424 C39.0106682,33.8959974 39.16,33.3173365 39.16,32.688 C39.16,32.3253315 39.1120005,31.9786683 39.016,31.648 C38.9199995,31.3173317 38.776001,31.018668 38.584,30.752 C38.2319982,30.1973306 37.7466698,29.7813347 37.128,29.504 C36.7013312,29.3333325 36.2746688,29.248 35.848,29.248 C35.1653299,29.248 34.5466694,29.4399981 33.992,29.824 C33.5013309,30.165335 33.1333346,30.5839975 32.888,31.08 C32.6426654,31.5760025 32.52,32.1013306 32.52,32.656 C32.52,33.2533363 32.6559986,33.818664 32.928,34.352 C33.2000014,34.885336 33.5893308,35.3173317 34.096,35.648 C34.6026692,35.9786683 35.1866634,36.144 35.848,36.144 Z M56.744,37.744 C56.744,38.1920022 56.5866682,38.5733318 56.272,38.888 C55.9573318,39.2026682 55.5760022,39.36 55.128,39.36 C54.8399986,39.36 54.5733346,39.2880007 54.328,39.144 C54.0826654,38.9999993 53.8853341,38.8106678 53.736,38.576 C52.8079954,39.0773358 51.8426717,39.328 50.84,39.328 C49.8053282,39.328 48.8320046,39.0773358 47.92,38.576 C47.0079954,38.0746642 46.2773361,37.3813378 45.728,36.496 C45.1786639,35.6106622 44.904,34.6186722 44.904,33.52 L44.904,27.584 C44.9360002,27.1679979 45.1066651,26.8160014 45.416,26.528 C45.7253349,26.2399986 46.0933312,26.096 46.52,26.096 C46.9466688,26.096 47.3146651,26.2399986 47.624,26.528 C47.9333349,26.8160014 48.1039998,27.1679979 48.136,27.584 L48.136,33.52 C48.136,33.7653346 48.1786662,34.0159987 48.264,34.272 C48.4453342,34.8586696 48.765331,35.3039985 49.224,35.608 C49.682669,35.9120015 50.1946638,36.064 50.76,36.064 C51.2293357,36.064 51.6719979,35.9626677 52.088,35.76 C52.5040021,35.5573323 52.8426654,35.2640019 53.104,34.88 C53.3653346,34.4959981 53.496,34.0426693 53.496,33.52 L53.496,27.728 C53.496,27.2799978 53.6559984,26.8960016 53.976,26.576 C54.2960016,26.2559984 54.6799978,26.096 55.128,26.096 C55.5760022,26.096 55.9573318,26.2559984 56.272,26.576 C56.5866682,26.8960016 56.744,27.2799978 56.744,27.728 L56.744,37.744 Z M24,31 L32,31 L32,34 L24,34 L24,31 Z" id="oqu" fill="#007EFF" fill-rule="nonzero"></path>
        </g>
    </g>
</svg>