<svg id="Capa_1" enable-background="new 0 0 512 512" height="512" viewBox="0 0 512 512" width="512" xmlns="http://www.w3.org/2000/svg" xmlns:xlink="http://www.w3.org/1999/xlink"><linearGradient id="SVGID_1_" gradientUnits="userSpaceOnUse" x1="256" x2="256" y1="512" y2="0"><stop offset="0" stop-color="#fd5900"/><stop offset="1" stop-color="#ffde00"/></linearGradient><linearGradient id="SVGID_2_" gradientUnits="userSpaceOnUse" x1="256" x2="256" y1="452" y2="0"><stop offset="0" stop-color="#ffe59a"/><stop offset="1" stop-color="#ffffd5"/></linearGradient><g><g><g><path d="m497 362h-79.276l-41.724-17-41.724 17h-36.553l-45.723-17-37.724 17h-36.553l-42.723-17-40.724 17h-79.276c-8.284 0-15 6.716-15 15v120c0 8.284 6.716 15 15 15h482c8.284 0 15-6.716 15-15v-120c0-8.284-6.716-15-15-15zm-436-135c0 41.355 33.645 75 75 75h240c41.355 0 75-33.645 75-75v-137l9-15-9-15v-45c0-8.284-6.716-15-15-15h-105l-27 18h-147l-36-18h-45c-8.284 0-15 6.716-15 15v45l-8 15 8 15z" fill="url(#SVGID_1_)"/></g></g><g><g><path d="m136 302c-3.979 0-7.794 1.58-10.606 4.394-15.288 15.287-26.063 34.679-31.118 55.606h83.447c-5.054-20.927-15.83-40.319-31.117-55.606-2.812-2.814-6.627-4.394-10.606-4.394zm120 0c-3.979 0-7.794 1.58-10.606 4.394-15.287 15.288-26.063 34.679-31.117 55.606h83.447c-5.054-20.927-15.83-40.319-31.117-55.606-2.813-2.814-6.628-4.394-10.607-4.394zm120 0c-3.979 0-7.794 1.58-10.606 4.394-15.287 15.288-26.063 34.679-31.117 55.606h83.447c-5.054-20.927-15.83-40.319-31.117-55.606-2.813-2.814-6.628-4.394-10.607-4.394zm-120 120c-8.284 0-15 6.716-15 15s6.716 15 15 15 15-6.716 15-15-6.716-15-15-15zm60 0c-8.284 0-15 6.716-15 15s6.716 15 15 15 15-6.716 15-15-6.716-15-15-15zm-120 0c-8.284 0-15 6.716-15 15s6.716 15 15 15 15-6.716 15-15-6.716-15-15-15zm-165-347c0 8.284 6.716 15 15 15h15v-30h-15c-8.284 0-15 6.716-15 15zm435-15h-15v30h15c8.284 0 15-6.716 15-15s-6.716-15-15-15zm-345 45c0 24.813 20.187 45 45 45s45-20.187 45-45c0-8.271 6.729-15 15-15s15 6.729 15 15v30c0 24.813 20.187 45 45 45s45-20.187 45-45v-135h-210z" fill="url(#SVGID_2_)"/></g></g></g></svg>