<svg id="Capa_1" enable-background="new 0 0 512 512" height="512" viewBox="0 0 512 512" width="512" xmlns="http://www.w3.org/2000/svg" xmlns:xlink="http://www.w3.org/1999/xlink"><linearGradient id="SVGID_1_" gradientUnits="userSpaceOnUse" x1="241" x2="241" y1="482" y2="0"><stop offset="0" stop-color="#00b59c"/><stop offset="1" stop-color="#9cffac"/></linearGradient><linearGradient id="SVGID_2_" gradientUnits="userSpaceOnUse" x1="286.5" x2="286.5" y1="391.733" y2="61"><stop offset="0" stop-color="#c3ffe8"/><stop offset=".9973" stop-color="#f0fff4"/></linearGradient><g><g><g><path d="m316 181c8.291 0 15-6.709 15-15v-151c0-8.291-6.709-15-15-15h-301c-8.291 0-15 6.709-15 15v421c0 8.291 6.709 15 15 15h241c8.291 0 15-6.709 15-15v46h211v-301z" fill="url(#SVGID_1_)"/></g></g><g><g><path d="m497 151h-241c-8.401 0-15 6.599-15 15v331c0 8.399 6.599 15 15 15h241c8.401 0 15-6.601 15-15v-331c0-8.401-6.599-15-15-15zm-181 300c-8.401 0-15-6.601-15-15 0-8.401 6.599-15 15-15s15 6.599 15 15c0 8.399-6.599 15-15 15zm0-60c-8.401 0-15-6.601-15-15 0-8.401 6.599-15 15-15s15 6.599 15 15c0 8.399-6.599 15-15 15zm60 60c-8.401 0-15-6.601-15-15 0-8.401 6.599-15 15-15s15 6.599 15 15c0 8.399-6.599 15-15 15zm0-60c-8.401 0-15-6.601-15-15 0-8.401 6.599-15 15-15s15 6.599 15 15c0 8.399-6.599 15-15 15zm75 45c0 8.399-6.599 15-15 15s-15-6.601-15-15v-60c0-8.401 6.599-15 15-15s15 6.599 15 15zm0-120c0 8.399-6.599 15-15 15h-120c-8.401 0-15-6.601-15-15v-90c0-8.401 6.599-15 15-15h120c8.401 0 15 6.599 15 15zm-255-15h-120c-8.291 0-15 6.709-15 15s6.709 15 15 15h120c8.291 0 15-6.709 15-15s-6.709-15-15-15zm0 60h-120c-8.291 0-15 6.709-15 15s6.709 15 15 15h120c8.291 0 15-6.709 15-15s-6.709-15-15-15zm15-285c0-8.291-6.709-15-15-15s-15 6.709-15 15c0 5.219-1.011 10.162-2.43 15h-85.14c-1.419-4.838-2.43-9.781-2.43-15 0-8.291-6.709-15-15-15s-15 6.709-15 15c0 37.181 25.149 65.511 52.365 90-27.28 24.547-52.365 52.804-52.365 90 0 8.291 6.709 15 15 15s15-6.709 15-15c0-5.219 1.011-10.162 2.43-15h85.14c1.419 4.838 2.43 9.781 2.43 15 0 8.291 6.709 15 15 15s15-6.709 15-15c0-37.181-25.149-65.511-52.365-90 27.28-24.547 52.365-52.804 52.365-90zm-49.825 135h-50.35c7.28-8.513 15.906-16.758 25.175-25.01 9.269 8.252 17.895 16.497 25.175 25.01zm-25.175-64.99c-9.269-8.253-17.895-16.498-25.175-25.01h50.35c-7.28 8.513-15.906 16.758-25.175 25.01z" fill="url(#SVGID_2_)"/></g></g></g></svg>