<svg id="Capa_1" enable-background="new 0 0 512 512" height="512" viewBox="0 0 512 512" width="512" xmlns="http://www.w3.org/2000/svg" xmlns:xlink="http://www.w3.org/1999/xlink"><linearGradient id="SVGID_1_" gradientUnits="userSpaceOnUse" x1="256" x2="256" y1="512" y2="106"><stop offset="0" stop-color="#ffbef9"/><stop offset="1" stop-color="#fff1ff"/></linearGradient><linearGradient id="SVGID_2_" gradientUnits="userSpaceOnUse" x1="256" x2="256" y1="451" y2="0"><stop offset="0" stop-color="#a93aff"/><stop offset="1" stop-color="#ff81ff"/></linearGradient><g><g><g><path d="m346 316c0-49.629-40.371-90-90-90s-90 40.371-90 90 40.371 90 90 90 90-40.371 90-90zm0 105h-180c-8.291 0-15 6.709-15 15v61c0 8.291 6.709 15 15 15h180c8.291 0 15-6.709 15-15v-61c0-8.291-6.709-15-15-15zm-90-315-105 30v60c0 8.399 6.599 15 15 15h180c8.401 0 15-6.601 15-15v-60z" fill="url(#SVGID_1_)"/></g></g><g><g><path d="m376 181h-240c-8.401 0-15 6.599-15 15v240c0 8.399 6.599 15 15 15h240c8.401 0 15-6.601 15-15v-240c0-8.401-6.599-15-15-15zm-120 210c-41.4 0-75-33.6-75-75s33.6-75 75-75 75 33.6 75 75-33.6 75-75 75zm100.499-265.501-85.499-85.499v-25c0-8.291-6.709-15-15-15s-15 6.709-15 15v25l-85.499 85.5c-3 2.7-4.501 6.6-4.501 10.5h210c0-3.9-1.501-7.8-4.501-10.501z" fill="url(#SVGID_2_)"/></g></g></g></svg>