<svg id="Capa_1" enable-background="new 0 0 512 512" height="512" viewBox="0 0 512 512" width="512" xmlns="http://www.w3.org/2000/svg" xmlns:xlink="http://www.w3.org/1999/xlink"><linearGradient id="SVGID_1_" gradientUnits="userSpaceOnUse" x1="256" x2="256" y1="512" y2="0"><stop offset="0" stop-color="#fd3a84"/><stop offset="1" stop-color="#ffa68d"/></linearGradient><linearGradient id="SVGID_2_" gradientUnits="userSpaceOnUse" x1="256" x2="256" y1="451" y2="61"><stop offset="0" stop-color="#ffc2cc"/><stop offset="1" stop-color="#fff2f4"/></linearGradient><g id="Microorganism_2_"><g><g><circle cx="256" cy="256" fill="url(#SVGID_1_)" r="256"/></g></g><g><g><path d="m256 61c-107.402 0-195 87.599-195 195 0 107.399 87.598 195 195 195s195-87.601 195-195c0-107.401-87.598-195-195-195zm60 90c8.401 0 15 6.599 15 15 0 8.399-6.599 15-15 15s-15-6.601-15-15c0-8.401 6.599-15 15-15zm-180 165c-8.401 0-15-6.601-15-15 0-8.401 6.599-15 15-15s15 6.599 15 15c0 8.399-6.599 15-15 15zm15-90c0-7.2 1.802-14.101 5.098-20.7-3.296-7.5-5.098-15.901-5.098-24.3 0-33.001 27.001-60 60-60s60 26.999 60 60c0 21.899-12.001 41.7-30.601 52.2-3.299 21.3-21.899 37.8-44.399 37.8-24.902 0-45-20.101-45-45zm75 165c-24.902 0-45-20.101-45-45 0-24.901 20.098-45 45-45s45 20.099 45 45c0 24.899-20.098 45-45 45zm165-105c0 32.999-27.001 60-60 60s-60-27.001-60-60c0-21.901 12.001-41.7 30.601-52.2 3.299-21.3 21.899-37.8 44.399-37.8 24.902 0 45 20.099 45 45 0 7.2-1.802 14.099-5.098 20.7 3.296 7.5 5.098 15.899 5.098 24.3z" fill="url(#SVGID_2_)"/></g></g></g></svg>