<svg id="Capa_1" enable-background="new 0 0 512 512" height="512" viewBox="0 0 512 512" width="512" xmlns="http://www.w3.org/2000/svg" xmlns:xlink="http://www.w3.org/1999/xlink"><linearGradient id="SVGID_1_" gradientUnits="userSpaceOnUse" x1="256" x2="256" y1="512" y2="0"><stop offset="0" stop-color="#00b59c"/><stop offset="1" stop-color="#9cffac"/></linearGradient><linearGradient id="SVGID_2_" gradientUnits="userSpaceOnUse" x1="256" x2="256" y1="211" y2="91"><stop offset="0" stop-color="#c3ffe8"/><stop offset=".9973" stop-color="#f0fff4"/></linearGradient><g><g><g><path d="m466 0h-180c-8.284 0-15 6.716-15 15v241c0 8.284 6.716 15 15 15 25.769 0 51.084-8.633 69.583-17.009-11.115 27.531-38.117 47.009-69.583 47.009-8.284 0-15 6.716-15 15v120c0 4.822 2.318 9.349 6.229 12.168 3.947 2.845 8.983 3.573 13.514 2.062 113.799-37.933 190.257-144.013 190.257-263.966v-171.264c0-8.284-6.716-15-15-15zm-240 60h-180c-8.284 0-15 6.716-15 15v171.264c0 120.17 76.82 227.153 190.256 264.966 4.633 1.544 9.656.72 13.514-2.062 3.912-2.819 6.23-7.346 6.23-12.168v-181c0-8.284-6.716-15-15-15-25.769 0-51.084 8.633-69.583 17.009 11.115-27.533 38.117-47.012 69.583-47.012 8.284 0 15-6.716 15-15v-180.997c0-8.284-6.716-15-15-15z" fill="url(#SVGID_1_)"/></g></g><g><g><path d="m166 151c-24.813 0-45 20.187-45 45 0 8.284 6.716 15 15 15s15-6.716 15-15c0-8.271 6.729-15 15-15 8.284 0 15-6.716 15-15s-6.716-15-15-15zm210-30c-8.271 0-15-6.729-15-15 0-8.284-6.716-15-15-15s-15 6.716-15 15c0 24.813 20.187 45 45 45 8.284 0 15-6.716 15-15s-6.716-15-15-15z" fill="url(#SVGID_2_)"/></g></g></g></svg>