<svg id="Capa_1" enable-background="new 0 0 512 512" height="512" viewBox="0 0 512 512" width="512" xmlns="http://www.w3.org/2000/svg" xmlns:xlink="http://www.w3.org/1999/xlink"><linearGradient id="SVGID_1_" gradientUnits="userSpaceOnUse" x1="300.345" x2="300.345" y1="378.311" y2="45"><stop offset="0" stop-color="#ffbef9"/><stop offset="1" stop-color="#fff1ff"/></linearGradient><linearGradient id="SVGID_2_" gradientUnits="userSpaceOnUse" x1="256" x2="256" y1="512" y2="0"><stop offset="0" stop-color="#a93aff"/><stop offset="1" stop-color="#ff81ff"/></linearGradient><g><g><g><path d="m317 45c-82.705 0-150 67.295-150 150s67.295 150 150 150 150-67.295 150-150-67.295-150-150-150zm-137.871 266.675-41.045 41.03c-5.859 5.859-5.859 15.352 0 21.211 5.86 5.86 15.352 5.859 21.211 0l41.045-41.03c5.859-5.859 5.859-15.352 0-21.211s-15.352-5.86-21.211 0z" fill="url(#SVGID_1_)"/></g></g><g><g><path d="m317 0c-107.401 0-195 87.599-195 195s87.599 195 195 195 195-87.599 195-195-87.599-195-195-195zm-64.501 229.501c6 5.7 6 15.298 0 20.999-5.396 6-15.6 6.002-20.999 0l-45-45c-6-5.7-6-15.298 0-20.999l45-45c5.7-6 15.298-6 20.999 0 6 5.7 6 15.298 0 20.999l-34.198 34.5zm108.6-119.702-60 180c-2.818 8.462-11.986 12.068-18.898 9.3-7.8-2.399-12.001-11.1-9.3-18.898l60-180c2.399-7.8 11.1-12.001 18.898-9.3 7.8 2.399 12.001 11.1 9.3 18.898zm86.4 95.7-45 45c-5.396 6-15.6 6.002-20.999 0-6-5.7-6-15.298 0-20.999l34.199-34.5-34.199-34.501c-6-5.7-6-15.298 0-20.999 5.7-6 15.298-6 20.999 0l45 45c6.001 5.701 6.001 15.299 0 20.999zm-309.415 125.995c-5.859-5.859-15.352-5.859-21.211 0l-112.478 112.479c-5.859 5.859-5.859 15.352 0 21.211l42.422 42.422c5.86 5.859 15.352 5.859 21.211 0l112.479-112.479c5.859-5.859 5.859-15.352 0-21.211z" fill="url(#SVGID_2_)"/></g></g></g></svg>