<svg id="Capa_1" enable-background="new 0 0 512 512" height="512" viewBox="0 0 512 512" width="512" xmlns="http://www.w3.org/2000/svg" xmlns:xlink="http://www.w3.org/1999/xlink"><linearGradient id="SVGID_1_" gradientUnits="userSpaceOnUse" x1="256" x2="256" y1="512" y2="0"><stop offset="0" stop-color="#ffbef9"/><stop offset="1" stop-color="#fff1ff"/></linearGradient><linearGradient id="SVGID_2_" gradientUnits="userSpaceOnUse" x1="256" x2="256" y1="512" y2="0"><stop offset="0" stop-color="#a93aff"/><stop offset="1" stop-color="#ff81ff"/></linearGradient><g><g><g><path d="m282.88 388.319c-8.115 1.641-13.374 9.551-11.733 17.681 1.663 8.246 9.715 13.35 17.681 11.733 76.581-15.468 132.172-83.496 132.172-161.733 0-90.981-74.019-165-165-165s-165 74.019-165 165c0 78.237 55.591 146.265 132.173 161.733 8.203 1.582 16.04-3.618 17.681-11.733 1.641-8.13-3.618-16.04-11.733-17.681-62.652-12.641-108.121-68.305-108.121-132.319 0-74.443 60.557-135 135-135s135 60.557 135 135c0 64.014-45.469 119.678-108.12 132.319zm-26.88-388.319c-52.881 0-103.608 17.04-146.704 47.406-6.768 4.775-8.394 14.121-3.618 20.903 4.775 6.753 14.106 8.364 20.903 3.618 38.013-26.777 82.764-41.927 129.419-41.927 124.072 0 226 101.928 226 226s-101.928 226-226 226-226-101.928-226-226c0-46.655 15.15-91.406 41.928-129.419 4.775-6.782 3.149-16.128-3.618-20.903-6.812-4.746-16.143-3.135-20.903 3.618-30.367 43.096-47.407 93.823-47.407 146.704 0 140.61 115.39 256 256 256s256-115.39 256-256-115.39-256-256-256z" fill="url(#SVGID_1_)"/></g></g><g><g><path d="m256 181c-41.353 0-75 33.647-75 75s33.647 75 75 75 75-33.647 75-75-33.647-75-75-75zm0 180c-24.814 0-45 20.186-45 45s20.186 45 45 45 45-20.186 45-45-20.186-45-45-45zm-180-345c-33.091 0-60 26.909-60 60s26.909 60 60 60 60-26.909 60-60-26.909-60-60-60zm-61 406c-8.284 0-15 6.716-15 15s6.716 15 15 15 15-6.716 15-15-6.716-15-15-15zm60 60c-8.284 0-15 6.716-15 15s6.716 15 15 15 15-6.716 15-15-6.716-15-15-15zm391-31c-8.284 0-15 6.716-15 15s6.716 15 15 15 15-6.716 15-15-6.716-15-15-15zm31-391c-8.284 0-15 6.716-15 15s6.716 15 15 15 15-6.716 15-15-6.716-15-15-15zm-60-60c-8.284 0-15 6.716-15 15s6.716 15 15 15 15-6.716 15-15-6.716-15-15-15z" fill="url(#SVGID_2_)"/></g></g></g></svg>