<svg id="Capa_1" enable-background="new 0 0 512 512" height="512" viewBox="0 0 512 512" width="512" xmlns="http://www.w3.org/2000/svg" xmlns:xlink="http://www.w3.org/1999/xlink"><linearGradient id="SVGID_1_" gradientUnits="userSpaceOnUse" x1="256" x2="256" y1="330" y2="0"><stop offset="0" stop-color="#addcff"/><stop offset=".5028" stop-color="#eaf6ff"/><stop offset="1" stop-color="#eaf6ff"/></linearGradient><linearGradient id="SVGID_2_" gradientUnits="userSpaceOnUse" x1="256" x2="256" y1="512" y2="300"><stop offset="0" stop-color="#5558ff"/><stop offset="1" stop-color="#00c0ff"/></linearGradient><g><g><g><path d="m331 0c-25.155 0-50.984 8.952-75 23.699-24.016-14.747-49.845-23.699-75-23.699-28.154 0-120 14.063-120 195v120c0 8.291 6.709 15 15 15s15-6.709 15-15v-120c0-103.315 33.633-165 90-165 15.839 0 32.325 4.92 48.353 13.162-44.993 38.34-78.353 96.613-78.353 151.838 0 57.891 47.109 105 105 105s105-47.109 105-105c0-55.225-33.36-113.498-78.353-151.838 16.028-8.242 32.514-13.162 48.353-13.162 56.367 0 90 61.685 90 165v120c0 8.291 6.709 15 15 15s15-6.709 15-15v-120c0-180.937-91.846-195-120-195zm0 195c0 41.353-33.633 75-75 75s-75-33.647-75-75c0-48.232 33.168-102.017 75-134.687 41.832 32.67 75 86.455 75 134.687z" fill="url(#SVGID_1_)"/></g></g><g><g><path d="m136 300h-121c-8.291 0-15 6.709-15 15s6.709 15 15 15h16v50.6c0 16.199-4.501 32.401-11.4 51-2.401 6-3.6 12.9-3.6 20.4 0 32.999 27.001 60 60 60s60-27.001 60-60c0-7.5-1.199-14.399-3.6-20.099-6.899-18.901-11.4-35.102-11.4-51.301v-50.6h15c8.291 0 15-6.709 15-15s-6.709-15-15-15zm361 0h-121c-8.291 0-15 6.709-15 15s6.709 15 15 15h15v50.6c0 16.199-4.501 32.401-11.4 51-2.401 6-3.6 12.9-3.6 20.4 0 32.999 27.001 60 60 60s60-27.001 60-60c0-7.5-1.199-14.399-3.6-20.099-6.899-18.901-11.4-35.102-11.4-51.301v-50.6h16c8.291 0 15-6.709 15-15s-6.709-15-15-15z" fill="url(#SVGID_2_)"/></g></g></g></svg>