<svg id="Capa_1" enable-background="new 0 0 512 512" height="512" viewBox="0 0 512 512" width="512" xmlns="http://www.w3.org/2000/svg" xmlns:xlink="http://www.w3.org/1999/xlink"><linearGradient id="SVGID_1_" gradientUnits="userSpaceOnUse" x1="212.893" x2="446.099" y1="299.107" y2="65.901"><stop offset="0" stop-color="#fd5900"/><stop offset="1" stop-color="#ffde00"/></linearGradient><linearGradient id="SVGID_2_" gradientUnits="userSpaceOnUse" x1="212.893" x2="255.18" y1="299.107" y2="256.82"><stop offset="0" stop-color="#ffe59a"/><stop offset="1" stop-color="#ffffd5"/></linearGradient><g><g><g><path d="m456.382 373.122c35.972-41.019 55.618-93.063 55.618-148.122 0-60.1-23.404-116.602-65.901-159.098-42.497-42.498-98.999-65.902-159.099-65.902-.003 0 .003 0 0 0-55.056 0-107.106 19.648-148.122 55.618l-49.607-49.84c-2.811-2.823-6.629-4.413-10.614-4.418h-.017c-3.978 0-7.793 1.58-10.606 4.394l-63.64 63.64c-5.858 5.858-5.858 15.355 0 21.213l70.614 70.614 22.893-1.68-1.68 22.893 42.427 42.427 22.893-1.68-1.68 22.893 42.427 42.427 22.893-1.68-1.68 22.893 42.427 42.427 22.893-1.68-1.68 22.893 42.427 42.427 22.893-1.68-1.68 22.893 70.614 70.614c2.927 2.928 6.766 4.392 10.605 4.392s7.678-1.464 10.606-4.394l63.64-63.64c2.817-2.817 4.398-6.64 4.394-10.624-.005-3.984-1.594-7.803-4.418-10.614zm-85.285-85.238-146.981-146.981c41.095-30.772 99.792-27.487 137.13 9.851 37.339 37.339 40.622 96.035 9.851 137.13z" fill="url(#SVGID_1_)"/></g></g><g><g><path d="m106.688 129.541-31.68 31.68 21.213 21.213 31.68-31.68c5.858-5.857 5.858-15.355 0-21.213-5.858-5.857-15.356-5.858-21.213 0zm63.64 63.639-31.68 31.68 21.213 21.213 31.68-31.68c5.858-5.858 5.858-15.355 0-21.213s-15.356-5.858-21.213 0zm63.639 63.64-31.68 31.68 21.213 21.213 31.68-31.68c5.858-5.858 5.858-15.355 0-21.213-5.857-5.859-15.355-5.859-21.213 0zm63.64 63.639-31.68 31.68 21.213 21.213 31.68-31.68c5.858-5.858 5.858-15.355 0-21.213s-15.356-5.858-21.213 0zm84.852 63.64c-5.857-5.858-15.355-5.858-21.213 0l-31.68 31.68 21.213 21.213 31.68-31.68c5.858-5.858 5.858-15.355 0-21.213z" fill="url(#SVGID_2_)"/></g></g></g></svg>