<svg id="Capa_1" enable-background="new 0 0 512 512" height="512" viewBox="0 0 512 512" width="512" xmlns="http://www.w3.org/2000/svg" xmlns:xlink="http://www.w3.org/1999/xlink"><linearGradient id="SVGID_1_" gradientUnits="userSpaceOnUse" x1="256" x2="256" y1="451" y2="121"><stop offset="0" stop-color="#fd5900"/><stop offset="1" stop-color="#ffde00"/></linearGradient><linearGradient id="SVGID_2_" gradientUnits="userSpaceOnUse" x1="256" x2="256" y1="451" y2="61"><stop offset="0" stop-color="#ffe59a"/><stop offset="1" stop-color="#ffffd5"/></linearGradient><g><g><g><path d="m316 271h-15l-30-60h-181l-15.158-15-14.842 15h-45c-8.291 0-15 6.709-15 15v60c0 41.353 33.647 75 75 75l15 15h181l15-15c24.814 0 45-20.186 45-45v-30c0-8.291-6.709-15-15-15zm151-150h-131.005c-3.252 0-6.401 1.055-8.994 3.003l-53.394 40.049 21.387 66.445 66.006-49.497h106zm15 210-30 30h-30v-15c0-8.291-6.709-15-15-15s-15 6.709-15 15v30c0 41.422 33.578 75 75 75h30c8.284 0 15-6.716 15-15v-75z" fill="url(#SVGID_1_)"/></g></g><g><g><path d="m60 286c0 8.291 6.709 15 15 15h30c8.291 0 15-6.709 15-15s-6.709-15-15-15h-30c-8.291 0-15 6.709-15 15zm166-15h75v-75c0-41.421-33.579-75-75-75h-60c-8.284 0-15 6.716-15 15v60c0 41.421 33.579 75 75 75zm60 90h-241c-24.853 0-45 20.147-45 45s20.147 45 45 45h241c24.853 0 45-20.147 45-45s-20.147-45-45-45zm181-300c-8.284 0-15 6.716-15 15v285h60v-255c0-24.853-20.147-45-45-45zm-422 120h15v30h30v-45c0-8.291-6.709-15-15-15h-30c-8.291 0-15 6.709-15 15s6.709 15 15 15z" fill="url(#SVGID_2_)"/></g></g></g></svg>