<svg id="Capa_1" enable-background="new 0 0 512 512" height="512" viewBox="0 0 512 512" width="512" xmlns="http://www.w3.org/2000/svg" xmlns:xlink="http://www.w3.org/1999/xlink"><linearGradient id="SVGID_1_" gradientUnits="userSpaceOnUse" x1="256" x2="256" y1="482" y2="30"><stop offset="0" stop-color="#ffe59a"/><stop offset="1" stop-color="#ffffd5"/></linearGradient><linearGradient id="SVGID_2_" gradientUnits="userSpaceOnUse" x1="256" x2="256" y1="512" y2="0"><stop offset="0" stop-color="#fd5900"/><stop offset="1" stop-color="#ffde00"/></linearGradient><g><g><g><path d="m148.066 363.934c-5.61-18.457-22.793-31.934-43.066-31.934s-37.456 13.477-43.066 31.934c-18.457 5.61-31.934 22.793-31.934 43.066s13.477 37.456 31.934 43.066c5.61 18.457 22.793 31.934 43.066 31.934s37.456-13.477 43.066-31.934c18.457-5.61 31.934-22.793 31.934-43.066s-13.477-37.456-31.934-43.066zm-73.066-213.934h60c24.814 0 45-20.186 45-45s-20.186-45-45-45h-60c-24.814 0-45 20.186-45 45s20.186 45 45 45zm288.934-1.934c5.61 18.457 22.793 31.934 43.066 31.934s37.456-13.477 43.066-31.934c18.457-5.61 31.934-22.793 31.934-43.066s-13.477-37.456-31.934-43.066c-5.61-18.457-22.793-31.934-43.066-31.934s-37.456 13.477-43.066 31.934c-18.457 5.61-31.934 22.793-31.934 43.066s13.477 37.456 31.934 43.066zm73.066 213.934h-60c-24.814 0-45 20.186-45 45s20.186 45 45 45h60c24.814 0 45-20.186 45-45s-20.186-45-45-45zm-83.013-8.013c5.859-5.859 5.859-15.352 0-21.211l-76.776-76.776 76.776-76.776c5.859-5.859 5.859-15.352 0-21.211s-15.352-5.859-21.211 0l-76.776 76.776-76.791-76.791c-5.859-5.859-15.352-5.859-21.211 0s-5.859 15.352 0 21.211l76.791 76.791-76.791 76.791c-5.859 5.859-5.859 15.352 0 21.211s15.351 5.859 21.211 0l76.791-76.791 76.776 76.776c5.86 5.859 15.352 5.86 21.211 0z" fill="url(#SVGID_1_)"/></g></g><g><g><path d="m167.701 323.301c-17.401-13.501-39.3-21.301-62.701-21.301-57.9 0-105 47.1-105 105s47.1 105 105 105 105-47.1 105-105c0-23.401-7.8-45.3-21.301-62.701-5.7-8.099-12.899-15.298-20.998-20.998zm-32.701 98.699h-15v15c0 8.401-6.599 15-15 15s-15-6.599-15-15v-15h-15c-8.401 0-15-6.599-15-15s6.599-15 15-15h15v-15c0-8.401 6.599-15 15-15s15 6.599 15 15v15h15c8.401 0 15 6.599 15 15s-6.599 15-15 15zm-30-422c-57.9 0-105 47.1-105 105s47.1 105 105 105c23.401 0 45.3-7.8 62.701-21.301 8.099-5.7 15.298-12.9 20.999-20.999 13.5-17.4 21.3-39.299 21.3-62.7 0-57.9-47.1-105-105-105zm30 120h-60c-8.401 0-15-6.599-15-15s6.599-15 15-15h60c8.401 0 15 6.599 15 15s-6.599 15-15 15zm209.299 68.699c17.401 13.501 39.3 21.301 62.701 21.301 57.9 0 105-47.1 105-105s-47.1-105-105-105-105 47.1-105 105c0 23.401 7.8 45.3 21.301 62.701 5.7 8.099 12.899 15.298 20.998 20.998zm32.701-98.699h15v-15c0-8.401 6.599-15 15-15s15 6.599 15 15v15h15c8.401 0 15 6.599 15 15s-6.599 15-15 15h-15v15c0 8.401-6.599 15-15 15s-15-6.599-15-15v-15h-15c-8.401 0-15-6.599-15-15s6.599-15 15-15zm30 212c-23.401 0-45.3 7.8-62.701 21.301-8.099 5.7-15.298 12.9-20.999 20.999-13.5 17.4-21.3 39.299-21.3 62.7 0 57.9 47.1 105 105 105s105-47.1 105-105-47.1-105-105-105zm30 120h-60c-8.401 0-15-6.599-15-15s6.599-15 15-15h60c8.401 0 15 6.599 15 15s-6.599 15-15 15z" fill="url(#SVGID_2_)"/></g></g></g></svg>