<svg id="Capa_1" enable-background="new 0 0 512 512" height="512" viewBox="0 0 512 512" width="512" xmlns="http://www.w3.org/2000/svg" xmlns:xlink="http://www.w3.org/1999/xlink"><linearGradient id="SVGID_1_" gradientUnits="userSpaceOnUse" x1="271" x2="271" y1="511.81" y2="121.81"><stop offset="0" stop-color="#fd5900"/><stop offset="1" stop-color="#ffde00"/></linearGradient><linearGradient id="SVGID_2_" gradientUnits="userSpaceOnUse" x1="226" x2="226" y1="451.81" y2=".19"><stop offset="0" stop-color="#ffe59a"/><stop offset="1" stop-color="#ffffd5"/></linearGradient><g id="Painting_2_"><g><g><path d="m112.456 173.701c-4.658-2.681-10.371-2.622-15.044.059-13.301 7.793-31.523 7.793-44.824 0-4.658-2.71-10.371-2.769-15.044-.059-4.673 2.666-7.544 7.632-7.544 13.008v280.101c0 24.814 20.186 45 45 45s45-20.186 45-45v-280.101c0-5.376-2.871-10.342-7.544-13.008zm204.544-51.891c-61.436 0-119.985 29.517-156.65 78.97-2.563 3.472-3.516 7.881-2.607 12.1.908 4.233 3.604 7.852 7.382 9.946 28.916 16.069 46.875 46.332 46.875 78.984 0 37.91-23.965 71.895-59.619 84.565-4.102 1.465-7.368 4.629-8.95 8.687s-1.318 8.613.718 12.466c33.998 64.321 100.239 104.282 172.851 104.282 107.52 0 195-87.48 195-195s-87.48-195-195-195z" fill="url(#SVGID_1_)"/></g></g><g><g><path d="m62.651 6.299c-10.459 15.161-62.651 92.651-62.651 128.511 0 26.938 14.004 51.182 37.412 64.849 11.353 6.635 24.346 10.151 37.588 10.151s26.235-3.516 37.559-10.151c23.437-13.668 37.441-37.911 37.441-64.849 0-35.86-52.192-113.35-62.651-128.511-5.596-8.145-19.102-8.145-24.698 0zm254.349 355.511c-24.814 0-45 20.186-45 45s20.186 45 45 45 45-20.186 45-45-20.186-45-45-45zm90-90c-24.814 0-45 20.186-45 45s20.186 45 45 45 45-20.186 45-45-20.186-45-45-45zm-90 0c24.814 0 45-20.186 45-45s-20.186-45-45-45-45 20.186-45 45 20.186 45 45 45z" fill="url(#SVGID_2_)"/></g></g></g></svg>