<svg id="Capa_1" enable-background="new 0 0 512.002 512.002" height="512" viewBox="0 0 512.002 512.002" width="512" xmlns="http://www.w3.org/2000/svg" xmlns:xlink="http://www.w3.org/1999/xlink"><linearGradient id="SVGID_1_" gradientUnits="userSpaceOnUse" x1="256.001" x2="256.001" y1="389.992" y2="24.531"><stop offset="0" stop-color="#addcff"/><stop offset=".5028" stop-color="#eaf6ff"/><stop offset="1" stop-color="#eaf6ff"/></linearGradient><linearGradient id="SVGID_2_" gradientUnits="userSpaceOnUse" x1="273.032" x2="273.032" y1="511.992" y2=".01"><stop offset="0" stop-color="#5558ff"/><stop offset="1" stop-color="#00c0ff"/></linearGradient><g><g><g><path d="m271.982 297.291c17.401-6 30-22.8 30-42.299 0-3.3-.3-6.901-1.199-9.9l-9.901-49.799-108.9 29.7 32.401 43.501c3.9 13.499 14.399 24.3 27.599 28.799l15 32.701zm45.02 2.701c-8.291 0-15 6.709-15 15v15h-45c-8.291 0-15 6.709-15 15s6.709 15 15 15h45v15c0 8.291 6.709 15 15 15s15-6.709 15-15v-60c0-8.291-6.709-15-15-15zm190.469-225.937c-14.27-39.068-57.385-59.2-96.079-44.941-7.749 2.856-11.719 11.426-8.921 19.175l40.811 112.808c2.969 8.2 11.975 11.806 19.717 8.936 38.642-14.65 58.578-57.717 44.472-95.978zm-405.015 115.166c-2.842-7.764-11.44-11.689-19.233-8.921l-73.38 28.692c-7.866 2.899-11.752 11.551-8.921 19.263l20.684 56.396c2.227 6.064 7.969 9.829 14.077 9.829 5.245 0 2.608-.344 78.55-29.601 7.902-2.913 11.744-11.604 8.921-19.263z" fill="url(#SVGID_1_)"/></g></g><g><g><path d="m272.001 400.691v-103.4c-4.799 1.8-9.6 2.701-15 2.701s-10.201-.901-15-2.701v103.4l-85.499 85.8c-6 5.7-6 15.3 0 21 5.7 6 15.298 6 20.999 0l64.501-64.2v53.701c0 8.399 6.599 15 15 15s15-6.601 15-15v-53.701l64.501 64.2c5.398 6.002 15.603 6 20.999 0 6-5.7 6-15.3 0-21zm209.981-221.6-61.8-169.201c-2.942-7.646-11.57-12.474-20.4-8.399l-327.9 151.2c-7.2 3.001-10.501 11.4-7.8 18.6l41.1 112.8c2.356 6.733 9.518 11.423 17.999 9.3l91.201-24.898c-1.8-4.201-2.401-8.701-2.401-13.501 0-24.257 19.597-45 45-45 19.483 0 39.344 13.729 43.801 35.1l170.999-46.5c7.516-1.612 13.522-10.865 10.201-19.501z" fill="url(#SVGID_2_)"/></g></g></g></svg>