<svg id="Capa_1" enable-background="new 0 0 512 512" height="512" viewBox="0 0 512 512" width="512" xmlns="http://www.w3.org/2000/svg" xmlns:xlink="http://www.w3.org/1999/xlink"><linearGradient id="SVGID_1_" gradientUnits="userSpaceOnUse" x1="298.571" x2="298.571" y1="363.144" y2="84.986"><stop offset="0" stop-color="#ffbef9"/><stop offset="1" stop-color="#fff1ff"/></linearGradient><linearGradient id="SVGID_2_" gradientUnits="userSpaceOnUse" x1="256" x2="256" y1="512" y2="0"><stop offset="0" stop-color="#a93aff"/><stop offset="1" stop-color="#ff81ff"/></linearGradient><g id="Analytics"><g><g><path d="m191.419 239.931c-7.646-3.105-16.421.645-19.497 8.364l-37.705 94.277c-3.076 7.69.674 16.421 8.364 19.497 7.543 3.042 16.388-.571 19.497-8.364l37.705-94.277c3.076-7.691-.674-16.421-8.364-19.497zm37.397-3.326c-5.859-5.859-15.352-5.859-21.211 0s-5.859 15.352 0 21.211l47.578 47.578c5.86 5.859 15.352 5.859 21.211 0s5.859-15.352 0-21.211zm232.178-73.593-53.994-72.012c-4.98-6.65-14.385-7.983-20.991-3.003-3.339 2.499-5.336 6.122-5.865 9.949-1.582-3.52-4.508-6.433-8.403-7.898-7.808-2.9-16.406 1.011-19.321 8.774l-68.936 183.809c-2.9 7.764 1.025 16.406 8.774 19.321 7.882 2.914 16.449-1.109 19.321-8.774l68.936-183.809c.4-1.072.658-2.16.806-3.247.448.994 1.001 1.958 1.684 2.867l53.995 72.011c4.951 6.627 14.351 7.983 20.991 3.003 6.636-4.966 7.984-14.37 3.003-20.991z" fill="url(#SVGID_1_)"/></g></g><g><g><path d="m497 452h-437v-437c0-8.291-6.709-15-15-15h-30c-8.291 0-15 6.709-15 15s6.709 15 15 15h15v61h-15c-8.291 0-15 6.709-15 15s6.709 15 15 15h15v60h-15c-8.291 0-15 6.709-15 15s6.709 15 15 15h15v60h-15c-8.291 0-15 6.709-15 15s6.709 15 15 15h15v60h-15c-8.291 0-15 6.709-15 15s6.709 15 15 15h15v61h-15c-8.291 0-15 6.709-15 15s6.709 15 15 15h15v15c0 8.291 6.709 15 15 15s15-6.709 15-15v-15h61v15c0 8.291 6.709 15 15 15s15-6.709 15-15v-15h60v15c0 8.291 6.709 15 15 15s15-6.709 15-15v-15h60v15c0 8.291 6.709 15 15 15s15-6.709 15-15v-15h60v15c0 8.291 6.709 15 15 15s15-6.709 15-15v-15h61v15c0 8.291 6.709 15 15 15s15-6.709 15-15v-30c0-8.291-6.709-15-15-15zm-360-31c24.814 0 45-20.186 45-45s-20.186-45-45-45-45 20.186-45 45 20.186 45 45 45zm60-150c24.814 0 45-20.186 45-45s-20.186-45-45-45-45 20.186-45 45 20.186 45 45 45zm90 90c24.814 0 45-20.186 45-45s-20.186-45-45-45-45 20.186-45 45 20.186 45 45 45zm90-240c24.814 0 45-20.186 45-45s-20.186-45-45-45-45 20.186-45 45 20.186 45 45 45zm90 120c24.814 0 45-20.186 45-45s-20.186-45-45-45-45 20.186-45 45 20.186 45 45 45z" fill="url(#SVGID_2_)"/></g></g></g></svg>