<svg id="Capa_1" enable-background="new 0 0 512 512" height="512" viewBox="0 0 512 512" width="512" xmlns="http://www.w3.org/2000/svg" xmlns:xlink="http://www.w3.org/1999/xlink"><linearGradient id="SVGID_1_" gradientUnits="userSpaceOnUse" x1="256" x2="256" y1="512" y2="0"><stop offset="0" stop-color="#00b59c"/><stop offset="1" stop-color="#9cffac"/></linearGradient><linearGradient id="SVGID_2_" gradientUnits="userSpaceOnUse" x1="256" x2="256" y1="452" y2="182"><stop offset="0" stop-color="#c3ffe8"/><stop offset=".9973" stop-color="#f0fff4"/></linearGradient><g><g><g><path d="m331 200.105v-170.105h15c8.291 0 15-6.709 15-15s-6.709-15-15-15h-180c-8.291 0-15 6.709-15 15s6.709 15 15 15h15v170.105c-54.99 28.096-90 84.712-90 146.895 0 90.981 74.019 165 165 165s165-74.019 165-165c0-62.183-35.01-118.799-90-146.895z" fill="url(#SVGID_1_)"/></g></g><g><g><path d="m346 332c-16.679-1.178-46.653 4.886-83.291-13.418-43.129-21.55-79.005-15.578-91.187-16.582-6.343 0-12.012 3.999-14.136 9.976-4.291 12.085-6.386 23.54-6.386 35.024 0 57.891 47.109 105 105 105s105-47.109 105-105c0-8.291-6.709-15-15-15zm-60-30c8.284 0 15-6.716 15-15s-6.716-15-15-15-15 6.716-15 15 6.716 15 15 15zm-60-30c8.284 0 15-6.716 15-15s-6.716-15-15-15-15 6.716-15 15 6.716 15 15 15zm30-60c8.284 0 15-6.716 15-15s-6.716-15-15-15-15 6.716-15 15 6.716 15 15 15z" fill="url(#SVGID_2_)"/></g></g></g></svg>