<svg id="Capa_1" enable-background="new 0 0 512 512" height="512" viewBox="0 0 512 512" width="512" xmlns="http://www.w3.org/2000/svg" xmlns:xlink="http://www.w3.org/1999/xlink"><linearGradient id="SVGID_1_" gradientUnits="userSpaceOnUse" x1="260.8" x2="260.8" y1="420.963" y2="150.963"><stop offset="0" stop-color="#ffbef9"/><stop offset="1" stop-color="#fff1ff"/></linearGradient><linearGradient id="SVGID_2_" gradientUnits="userSpaceOnUse" x1="256" x2="256" y1="435.963" y2="76.037"><stop offset="0" stop-color="#a93aff"/><stop offset="1" stop-color="#ff81ff"/></linearGradient><g id="Mortarboard_1_"><g><g><path d="m241 210.963h30c16.816 0 30-13.184 30-30s-13.184-30-30-30h-30c-16.816 0-30 13.184-30 30s13.184 30 30 30zm195-32.139c-8.291 0-15 6.709-15 15v77.139c0 8.291 6.709 15 15 15s15-6.709 15-15v-77.139c0-8.291-6.709-15-15-15zm-70.499 48.038c-1.201-4.198-4.2-7.8-8.101-9.898-3.9-1.8-8.401-2.1-12.599-.3l-88.801 38.098-88.801-38.099c-4.198-1.8-8.699-1.5-12.599.3-3.9 2.098-6.899 5.7-8.101 9.898l-22.2 89.101-53.699 59.1 185.4 45.901 186.4-45.901-54.7-59.099z" fill="url(#SVGID_1_)"/></g></g><g><g><path d="m497 315.963h-109.3l2.699 11.4c2.1 7.2-2.1 15-9 17.699l-120 45c-1.8.601-3.6.901-5.4.901s-3.6-.3-5.4-.901l-120-45c-6.899-2.699-11.1-10.499-9-17.699l2.699-11.4h-109.298c-8.401 0-15 6.599-15 15v90c0 8.399 6.599 15 15 15h482c8.401 0 15-6.601 15-15v-90c0-8.401-6.599-15-15-15zm-457-121.201 210 90c2.1.901 3.9 1.201 6 1.201s3.9-.3 6-1.201l210-90c5.4-2.399 9-7.798 9-13.799s-3.6-11.4-9-13.801l-210-90c-3.9-1.5-8.101-1.5-12.001 0l-210 90c-5.4 2.401-9 7.8-9 13.801s3.601 11.4 9.001 13.799zm201-28.799h30c8.401 0 15 6.599 15 15 0 8.399-6.599 15-15 15h-30c-8.401 0-15-6.601-15-15 0-8.401 6.599-15 15-15z" fill="url(#SVGID_2_)"/></g></g></g></svg>