<svg id="Capa_1" enable-background="new 0 0 512 512" height="512" viewBox="0 0 512 512" width="512" xmlns="http://www.w3.org/2000/svg" xmlns:xlink="http://www.w3.org/1999/xlink"><linearGradient id="SVGID_1_" gradientUnits="userSpaceOnUse" x1="256" x2="256" y1="512" y2="121"><stop offset="0" stop-color="#ffbef9"/><stop offset="1" stop-color="#fff1ff"/></linearGradient><linearGradient id="SVGID_2_" gradientUnits="userSpaceOnUse" x1="256" x2="256" y1="512" y2="0"><stop offset="0" stop-color="#a93aff"/><stop offset="1" stop-color="#ff81ff"/></linearGradient><g><g><g><path d="m422 256h-46v-60h-45v-45l-30-30h-90l-30 30v45h-45v60h-45c-49.706 0-91 40.294-91 90v30c0 8.284 6.716 15 15 15h30c8.284 0 15-6.716 15-15v-30c0-16.569 14.431-30 31-30h45v60h15v121c0 8.291 6.709 15 15 15s15-6.709 15-15v-121h150v121c0 8.291 6.709 15 15 15s15-6.709 15-15v-121h15v-60h46c16.569 0 30 13.431 30 30v30c0 8.284 6.716 15 15 15h30c8.284 0 15-6.716 15-15v-30c0-49.706-40.294-90-90-90z" fill="url(#SVGID_1_)"/></g></g><g><g><path d="m376 181h-240c-8.291 0-15 6.709-15 15v180c0 8.291 6.709 15 15 15h240c8.291 0 15-6.709 15-15v-180c0-8.291-6.709-15-15-15zm-180 150c-8.284 0-15-6.716-15-15s6.716-15 15-15 15 6.716 15 15-6.716 15-15 15zm0-60c-8.284 0-15-6.716-15-15s6.716-15 15-15 15 6.716 15 15-6.716 15-15 15zm135 45c0 8.291-6.709 15-15 15h-60c-8.291 0-15-6.709-15-15v-60c0-8.291 6.709-15 15-15h60c8.291 0 15 6.709 15 15zm45 166h-60c-8.291 0-15 6.709-15 15s6.709 15 15 15h60c8.291 0 15-6.709 15-15s-6.709-15-15-15zm-180 0h-60c-8.291 0-15 6.709-15 15s6.709 15 15 15h60c8.291 0 15-6.709 15-15s-6.709-15-15-15zm180-482h-240c-8.291 0-15 6.709-15 15v61c0 3.984 1.582 7.793 4.395 10.605l55.605 64.395h150l55.605-64.395c2.813-2.812 4.395-6.621 4.395-10.605v-61c0-8.291-6.709-15-15-15z" fill="url(#SVGID_2_)"/></g></g></g></svg>