<svg id="Capa_1" enable-background="new 0 0 512 512" height="512" viewBox="0 0 512 512" width="512" xmlns="http://www.w3.org/2000/svg" xmlns:xlink="http://www.w3.org/1999/xlink"><linearGradient id="SVGID_1_" gradientUnits="userSpaceOnUse" x1="256" x2="256" y1="512" y2="74.947"><stop offset="0" stop-color="#c3ffe8"/><stop offset=".9973" stop-color="#f0fff4"/></linearGradient><linearGradient id="SVGID_2_" gradientUnits="userSpaceOnUse" x1="256" x2="256" y1="390" y2="0"><stop offset="0" stop-color="#00b59c"/><stop offset="1" stop-color="#9cffac"/></linearGradient><g><g><g><path d="m196 285h9.946l6.548 25.869c4.527 18.18 21.161 34.131 43.506 34.131 16.714 0 32.051-9.331 40.342-24.99l60.366-120.747c6.548-14.063 5.552-30.645-2.827-43.682-16.938-25.436-44-19.831-47.827-20.581l-6.548-25.869c-4.453-17.886-19.277-31.157-39.17-33.999-.1.025-29.474-4.061-44.678 24.858l-60.366 120.747c-6.548 14.063-5.552 30.645 2.827 43.682 8.584 12.891 22.735 20.581 37.881 20.581zm180 197h-25.994c-29.817-16.089-49.006-49.921-49.006-84.207v-27.891c0-4.878-2.358-9.434-6.343-12.246-3.955-2.813-9.097-3.56-13.667-1.89-15.879 5.625-34.102 5.625-49.98 0-4.6-1.67-9.683-.923-13.667 1.89s-6.343 7.368-6.343 12.246v27.891c0 34.286-19.189 68.118-49.006 84.207h-25.994c-8.291 0-15 6.709-15 15s6.709 15 15 15h240c8.291 0 15-6.709 15-15s-6.709-15-15-15z" fill="url(#SVGID_1_)"/></g></g><g><g><path d="m416.499 177.599c18.336-53.15-20.191-117.599-86.999-117.599-6.901-34.2-37.2-60-73.5-60s-66.599 25.8-73.5 60c-64.682-.376-106.208 61.917-86.999 117.599-21.901 20.102-34.501 48.002-34.501 77.401 0 64.78 58.326 113.623 120.601 103.801 11.1 11.1 24.3 19.799 39.3 25.199 11.4 3.9 23.099 6 35.1 6s23.699-2.1 35.1-6c15-5.7 28.2-14.099 39.3-25.199 62.231 9.815 120.599-38.971 120.599-103.801 0-29.399-12.6-57.299-34.501-77.401zm-86.999 9-60 120c-5.025 9.491-14.712 8.323-15 8.401-6.301-.901-11.4-5.4-12.9-11.4l-12.3-48.6h-33.3c-5.1 0-9.9-2.701-12.9-7.2-2.701-4.2-2.701-9.901-.601-14.399l60-120c3.001-5.7 8.701-9.001 15-8.401 6.301.901 11.4 5.4 12.9 11.4l12.301 48.6h33.3c5.1 0 9.9 2.701 12.9 7.2 2.701 4.2 2.701 9.9.6 14.399z" fill="url(#SVGID_2_)"/></g></g></g></svg>