<svg id="Capa_1" enable-background="new 0 0 512 512" height="512" viewBox="0 0 512 512" width="512" xmlns="http://www.w3.org/2000/svg" xmlns:xlink="http://www.w3.org/1999/xlink"><linearGradient id="SVGID_1_" gradientUnits="userSpaceOnUse" x1="256" x2="256" y1="481" y2="0"><stop offset="0" stop-color="#ffbef9"/><stop offset="1" stop-color="#fff1ff"/></linearGradient><linearGradient id="SVGID_2_" gradientUnits="userSpaceOnUse" x1="256" x2="256" y1="512" y2="61"><stop offset="0" stop-color="#a93aff"/><stop offset="1" stop-color="#ff81ff"/></linearGradient><g><g><g><path d="m451 286c0-24.814-20.186-45-45-45h-59.78l-6.445-14.883c-4.541-10.854-13.037-19.351-23.569-23.76l-15.206-6.577v-59.78c0-24.814-20.186-45-45-45s-45 20.186-45 45v21.05l-43.564-18.706c-15.968-6.71-34.642-4.1-50.054 10.459-12.349 13.228-15.894 32.314-8.95 48.838l18.618 43.359h-21.05c-24.814 0-45 20.186-45 45s20.186 45 45 45h59.78l6.445 14.883c4.541 10.854 13.037 19.351 23.569 23.76l15.206 6.577v59.78c0 24.814 20.186 45 45 45s45-20.186 45-45v-21.123l45.703 19.585c17.003 5.644 32.466 2.816 47.915-11.265 12.363-13.228 15.908-32.329 8.95-48.838l-18.618-43.359h21.05c24.814 0 45-20.186 45-45zm-150-240c0-24.814-20.186-46-45-46s-45 21.186-45 46 20.186 45 45 45 45-20.186 45-45zm-45 15c-8.276 0-15-6.724-15-15s6.724-15 15-15 15 6.724 15 15-6.724 15-15 15z" fill="url(#SVGID_1_)"/></g></g><g><g><path d="m256 271c-8.401 0-15 6.599-15 15 0 8.399 6.599 15 15 15s15-6.601 15-15c0-8.401-6.599-15-15-15zm0-210c-124.2 0-225 100.8-225 225s100.8 226 225 226 225-101.8 225-226-100.8-225-225-225zm150 240h-66.599l36.599 85.199c2.401 5.7.901 12.001-3.3 16.501-5.771 5.19-10.82 5.189-16.5 3.3l-85.2-36.601v66.601c0 8.399-6.599 15-15 15s-15-6.601-15-15v-79.501l-33.3-14.399c-3.6-1.5-6.301-4.2-7.8-7.8l-14.399-33.3h-79.501c-8.401 0-15-6.601-15-15 0-8.401 6.599-15 15-15h66.599l-36.599-85.201c-2.401-5.7-.901-11.999 3.3-16.5 4.501-4.2 10.8-5.7 16.5-3.3l85.2 36.6v-66.599c0-8.401 6.599-15 15-15s15 6.599 15 15v79.499l33.3 14.401c3.6 1.5 6.301 4.198 7.8 7.8l14.399 33.3h79.501c8.401 0 15 6.599 15 15 0 8.399-6.599 15-15 15z" fill="url(#SVGID_2_)"/></g></g></g></svg>