<svg id="Capa_1" enable-background="new 0 0 512 512" height="512" viewBox="0 0 512 512" width="512" xmlns="http://www.w3.org/2000/svg" xmlns:xlink="http://www.w3.org/1999/xlink"><linearGradient id="SVGID_1_" gradientUnits="userSpaceOnUse" x1="256" x2="256" y1="512" y2="0"><stop offset="0" stop-color="#fd3a84"/><stop offset="1" stop-color="#ffa68d"/></linearGradient><linearGradient id="SVGID_2_" gradientUnits="userSpaceOnUse" x1="195.5" x2="195.5" y1="512" y2="121"><stop offset="0" stop-color="#ffc2cc"/><stop offset="1" stop-color="#fff2f4"/></linearGradient><g id="Square_2_"><path d="m507.488 486.499-481.989-481.988c-4.198-4.499-10.499-5.7-16.199-3.3-5.7 2.401-9.3 7.801-9.3 13.801v105.988l15 15-15 15v60l15 15-15 15v60l15 15-15 15v60l15 15-15 15v76c0 8.399 6.599 15 15 15h76l14.694-11.724 15.306 11.724h60l15-11.49 15 11.49h60l15-11.49 15 11.49h60l14.681-11.245 15.319 11.245h105.989c6 0 11.4-3.6 13.801-9.3 2.398-5.7 1.199-12.001-3.302-16.201zm-214.889-74.799c-2.399 5.7-7.798 9.3-13.799 9.3h-172.8c-8.401 0-15-6.601-15-15v-172.8c0-6 3.6-11.4 9.3-13.801 5.4-2.398 12.001-.899 16.199 3.302l172.8 172.799c4.201 4.199 5.701 10.5 3.3 16.2z" fill="url(#SVGID_1_)"/><g><g><path d="m45 301h-45v30h45c8.401 0 15-6.601 15-15 0-8.401-6.599-15-15-15zm0 90h-45v30h45c8.401 0 15-6.601 15-15 0-8.401-6.599-15-15-15zm0-180h-45v30h45c8.401 0 15-6.601 15-15 0-8.401-6.599-15-15-15zm0-90h-45v30h45c8.401 0 15-6.601 15-15 0-8.401-6.599-15-15-15zm61 331c-8.401 0-15 6.599-15 15v45h30v-45c0-8.401-6.599-15-15-15zm90 0c-8.401 0-15 6.599-15 15v45h30v-45c0-8.401-6.599-15-15-15zm90 0c-8.401 0-15 6.599-15 15v45h30v-45c0-8.401-6.599-15-15-15zm90 0c-8.401 0-15 6.599-15 15v45h30v-45c0-8.401-6.599-15-15-15z" fill="url(#SVGID_2_)"/></g></g></g></svg>