<?xml version="1.0" encoding="UTF-8"?>
<svg width="256px" height="256px" viewBox="0 0 256 256" version="1.1" xmlns="http://www.w3.org/2000/svg" xmlns:xlink="http://www.w3.org/1999/xlink">
    <!-- Generator: Sketch 53.2 (72643) - https://sketchapp.com -->
    <title>GraphTheory</title>
    <desc>Created with Sketch.</desc>
    <defs>
        <linearGradient x1="50%" y1="100%" x2="50%" y2="0%" id="linearGradient-1">
            <stop stop-color="#ADDCFF" offset="0%"></stop>
            <stop stop-color="#EAF6FF" offset="50.28%"></stop>
            <stop stop-color="#EAF6FF" offset="100%"></stop>
        </linearGradient>
        <linearGradient x1="50%" y1="100%" x2="50%" y2="0%" id="linearGradient-2">
            <stop stop-color="#5558FF" offset="0%"></stop>
            <stop stop-color="#00C0FF" offset="100%"></stop>
        </linearGradient>
    </defs>
    <g id="Page-1" stroke="none" stroke-width="1" fill="none" fill-rule="evenodd">
        <g id="GraphTheory" fill-rule="nonzero">
            <path d="M128,30 C123.858,30 120.5,33.358 120.5,37.5 L120.5,98 C120.5,102.142 123.858,105.5 128,105.5 C132.142,105.5 135.5,102.142 135.5,98 L135.5,37.5 C135.5,33.358 132.142,30 128,30 Z M105.5,128 C105.5,123.858 102.142,120.5 98,120.5 L37.5,120.5 C33.358,120.5 30,123.858 30,128 C30,132.142 33.358,135.5 37.5,135.5 L98,135.5 C102.142,135.5 105.5,132.142 105.5,128 Z M128,150.5 C123.858,150.5 120.5,153.858 120.5,158 L120.5,218.5 C120.5,222.642 123.858,226 128,226 C132.142,226 135.5,222.642 135.5,218.5 L135.5,158 C135.5,153.858 132.142,150.5 128,150.5 Z M218.5,120.5 L158,120.5 C153.858,120.5 150.5,123.858 150.5,128 C150.5,132.142 153.858,135.5 158,135.5 L218.5,135.5 C222.642,135.5 226,132.142 226,128 C226,123.858 222.642,120.5 218.5,120.5 Z M69.6635,59.057 C66.7355,56.128 61.9865,56.128 59.057,59.057 C56.128,61.986 56.128,66.7345 59.057,69.6635 L101.4835,112.09 C102.948,113.5545 104.8675,114.2865 106.7865,114.2865 C108.7055,114.2865 110.6255,113.554 112.0895,112.09 C115.0185,109.161 115.0185,104.4125 112.0895,101.4835 L69.6635,59.057 Z M101.4835,143.91 L59.057,186.3365 C56.128,189.2655 56.128,194.014 59.057,196.943 C60.5215,198.4075 62.441,199.1395 64.36,199.1395 C66.279,199.1395 68.199,198.4075 69.663,196.943 L112.0895,154.5165 C115.0185,151.5875 115.0185,146.839 112.0895,143.91 C109.161,140.981 104.412,140.981 101.4835,143.91 Z M154.5165,143.91 C151.588,140.981 146.839,140.9815 143.91,143.91 C140.981,146.839 140.981,151.5875 143.91,154.5165 L186.3365,196.943 C187.801,198.4075 189.7205,199.1395 191.6395,199.1395 C193.5585,199.1395 195.4785,198.407 196.9425,196.943 C199.8715,194.014 199.8715,189.2655 196.9425,186.3365 L154.5165,143.91 Z M149.2135,114.2865 C151.133,114.2865 153.0525,113.554 154.5165,112.09 L196.943,69.6635 C199.872,66.7345 199.872,61.986 196.943,59.057 C194.0145,56.128 189.2655,56.128 186.3365,59.057 L143.91,101.4835 C140.981,104.4125 140.981,109.161 143.91,112.09 C145.3745,113.5545 147.294,114.2865 149.2135,114.2865 Z" id="Shape" fill="url(#linearGradient-1)"></path>
            <path d="M128,90.5 C107.3225,90.5 90.5,107.3225 90.5,128 C90.5,148.6775 107.3225,165.5 128,165.5 C148.6775,165.5 165.5,148.6775 165.5,128 C165.5,107.3225 148.6775,90.5 128,90.5 Z M128,45 C140.4065,45 150.5,34.9065 150.5,22.5 C150.5,10.0935 140.4065,0 128,0 C115.5935,0 105.5,10.0935 105.5,22.5 C105.5,34.9065 115.5935,45 128,45 Z M45,128 C45,115.5935 34.9065,105.5 22.5,105.5 C10.0935,105.5 0,115.5935 0,128 C0,140.4065 10.0935,150.5 22.5,150.5 C34.9065,150.5 45,140.4065 45,128 Z M233.5,105.5 C221.0935,105.5 211,115.5935 211,128 C211,140.4065 221.0935,150.5 233.5,150.5 C245.9065,150.5 256,140.4065 256,128 C256,115.5935 245.9065,105.5 233.5,105.5 Z M128,211 C115.5935,211 105.5,221.0935 105.5,233.5 C105.5,245.9065 115.5935,256 128,256 C140.4065,256 150.5,245.9065 150.5,233.5 C150.5,221.0935 140.4065,211 128,211 Z M37.8435,37.844 C29.0715,46.6165 29.0715,60.891 37.844,69.6635 C46.6175,78.4375 60.8925,78.435 69.664,69.6635 C78.459,60.8695 78.457,46.636 69.664,37.8435 C60.891,29.071 46.6165,29.0715 37.8435,37.844 L37.8435,37.844 Z M37.8435,186.3365 C29.0715,195.109 29.0715,209.3835 37.844,218.156 C46.6175,226.93 60.8925,226.9275 69.664,218.156 C78.459,209.362 78.457,195.1285 69.664,186.336 C60.891,177.563 46.6165,177.564 37.8435,186.3365 L37.8435,186.3365 Z M218.1565,69.6635 C226.9285,60.891 226.9285,46.6165 218.1565,37.844 C218.156,37.844 218.156,37.844 218.156,37.844 C209.384,29.072 195.109,29.071 186.336,37.844 C177.541,46.638 177.543,60.8715 186.336,69.664 C195.1095,78.4375 209.3845,78.4355 218.1565,69.6635 L218.1565,69.6635 Z M218.1565,186.3365 C209.3845,177.5645 195.1095,177.5635 186.3365,186.3365 C177.5415,195.1305 177.5435,209.364 186.3365,218.1565 C195.11,226.93 209.3845,226.928 218.157,218.1565 C226.9285,209.3835 226.9285,195.109 218.1565,186.3365 L218.1565,186.3365 Z" id="Shape" fill="url(#linearGradient-2)"></path>
        </g>
    </g>
</svg>