<svg id="Capa_1" enable-background="new 0 0 512 512" height="512" viewBox="0 0 512 512" width="512" xmlns="http://www.w3.org/2000/svg" xmlns:xlink="http://www.w3.org/1999/xlink"><linearGradient id="SVGID_1_" gradientUnits="userSpaceOnUse" x1="256.086" x2="256.086" y1="466.071" y2="15.929"><stop offset="0" stop-color="#fd5900"/><stop offset="1" stop-color="#ffde00"/></linearGradient><linearGradient id="SVGID_2_" gradientUnits="userSpaceOnUse" x1="256" x2="256" y1="286.071" y2="83.988"><stop offset="0" stop-color="#ffe59a"/><stop offset="1" stop-color="#ffffd5"/></linearGradient><g><g><g><path d="m220.3 19.671c-64.501 13.801-115.499 66.9-126.599 131.999-10.801 61.8 13.499 123.301 63.3 161.102 15.3 11.699 24 29.099 24 48.3l42.336 16.776-42.337 28.223v15c0 5.099.601 10.199 1.5 15l43.5 30 30-30 30 30 43.5-30c.899-4.801 1.5-9.901 1.5-15v-15l-42.037-28.024 42.037-16.976c0-19.2 8.699-36.601 24-48.3 41.4-31.201 66-80.402 66-131.7 0-103.13-94.159-183.728-200.7-161.4zm35.7 386.4-25.311-25.311 26.021 10.311 23.969-9.679z" fill="url(#SVGID_1_)"/></g></g><g><g><path d="m181 406.071h45c8.401 0 15 6.599 15 15 0 8.399-6.599 15-15 15h-43.5c6.901 34.2 37.2 60 73.5 60 38.542 0 67.604-28.562 73.5-60h-43.5c-8.401 0-15-6.601-15-15 0-8.401 6.599-15 15-15h45v-45h-150zm-127.456-167.27-28.198 10.269c-7.793 2.827-11.807 11.44-8.965 19.219 2.855 7.866 11.532 11.772 19.219 8.965l28.198-10.269c7.793-2.827 11.807-11.44 8.965-19.219s-11.499-11.807-19.219-8.965zm404.912-115.459 28.198-10.269c7.793-2.827 11.807-11.44 8.965-19.219-2.827-7.793-11.47-11.777-19.219-8.965l-28.198 10.269c-7.793 2.827-11.807 11.44-8.965 19.219 2.856 7.866 11.532 11.772 19.219 8.965zm-394.658-28.184-28.198-10.268c-7.764-2.798-16.392 1.172-19.219 8.965-2.842 7.778 1.172 16.392 8.965 19.219l28.198 10.269c7.675 2.803 16.36-1.088 19.219-8.965 2.841-7.779-1.172-16.393-8.965-19.22zm422.856 153.911-28.198-10.269c-7.749-2.827-16.392 1.187-19.219 8.965-2.842 7.778 1.172 16.392 8.965 19.219l28.198 10.269c7.675 2.803 16.36-1.088 19.219-8.965 2.842-7.778-1.172-16.392-8.965-19.219zm-425.654-67.998c0-8.291-6.709-15-15-15h-31c-8.291 0-15 6.709-15 15s6.709 15 15 15h31c8.291 0 15-6.709 15-15zm436-15h-31c-8.291 0-15 6.709-15 15s6.709 15 15 15h31c8.291 0 15-6.709 15-15s-6.709-15-15-15zm-178.158.952c-4.726-4.348-10.152-30.952-32.842-30.952-16.772 0-24.067 14.575-28.418 23.291-.469.938-1.011 2.036-1.582 3.12-.571-1.084-1.113-2.183-1.582-3.12-4.351-8.716-11.646-23.291-28.418-23.291-21.195 0-27.104 22.972-32.183 30.161-7.251 1.055-12.817 7.295-12.817 14.839 0 8.291 6.709 15 15 15 16.772 0 24.067-14.575 28.418-23.291.469-.938 1.011-2.036 1.582-3.12.571 1.084 1.113 2.183 1.582 3.12 2.703 5.416 6.874 12.772 13.418 17.811v80.48c0 8.291 6.709 15 15 15s15-6.709 15-15v-80.48c6.544-5.039 10.715-12.394 13.418-17.811.469-.938 1.011-2.036 1.582-3.12.571 1.084 1.113 2.183 1.582 3.12 4.351 8.716 11.646 23.291 28.418 23.291 8.291 0 16.421-6.24 16.421-14.517 0-8.29-5.288-14.531-13.579-14.531z" fill="url(#SVGID_2_)"/></g></g></g></svg>