<svg id="Capa_1" enable-background="new 0 0 512 512" height="512" viewBox="0 0 512 512" width="512" xmlns="http://www.w3.org/2000/svg" xmlns:xlink="http://www.w3.org/1999/xlink"><linearGradient id="SVGID_1_" gradientUnits="userSpaceOnUse" x1="256" x2="256" y1="406" y2="16"><stop offset="0" stop-color="#addcff"/><stop offset=".5028" stop-color="#eaf6ff"/><stop offset="1" stop-color="#eaf6ff"/></linearGradient><linearGradient id="SVGID_2_" gradientUnits="userSpaceOnUse" x1="256" x2="256" y1="496" y2="16"><stop offset="0" stop-color="#5558ff"/><stop offset="1" stop-color="#00c0ff"/></linearGradient><g><g><g><path d="m466 16c-8.291 0-15 6.709-15 15v15h-390v-15c0-8.291-6.709-15-15-15s-15 6.709-15 15v360c0 8.291 6.709 15 15 15s15-6.709 15-15v-75h390v75c0 8.291 6.709 15 15 15s15-6.709 15-15v-360c0-8.291-6.709-15-15-15zm-15 270h-390v-90h390zm0-120h-390v-90h390z" fill="url(#SVGID_1_)"/></g></g><g><g><path d="m136 346c24.814 0 45-20.186 45-45s-20.186-45-45-45-45 20.186-45 45 20.186 45 45 45zm90 0c24.814 0 45-20.186 45-45s-20.186-45-45-45-45 20.186-45 45 20.186 45 45 45zm150-120c24.814 0 45-20.186 45-45s-20.186-45-45-45-45 20.186-45 45 20.186 45 45 45zm-135-45c0 24.814 20.186 45 45 45s45-20.186 45-45-20.186-45-45-45-45 20.186-45 45zm15-75c24.814 0 45-20.186 45-45s-20.186-45-45-45-45 20.186-45 45 20.186 45 45 45zm-120 0c24.814 0 45-20.186 45-45s-20.186-45-45-45-45 20.186-45 45 20.186 45 45 45zm361 270h-482c-8.291 0-15 6.709-15 15v60c0 8.291 6.709 15 15 15h46v15c0 8.291 6.709 15 15 15h60c8.291 0 15-6.709 15-15v-15h210v15c0 8.291 6.709 15 15 15h60c8.291 0 15-6.709 15-15v-15h46c8.291 0 15-6.709 15-15v-60c0-8.291-6.709-15-15-15z" fill="url(#SVGID_2_)"/></g></g></g></svg>