<svg id="Capa_1" enable-background="new 0 0 512 512" height="512" viewBox="0 0 512 512" width="512" xmlns="http://www.w3.org/2000/svg" xmlns:xlink="http://www.w3.org/1999/xlink"><linearGradient id="SVGID_1_" gradientTransform="matrix(.707 -.707 .707 .707 -90.129 249.41)" gradientUnits="userSpaceOnUse" x1="114.786" x2="365.395" y1="437.544" y2="186.935"><stop offset="0" stop-color="#fd3a84"/><stop offset="1" stop-color="#ffa68d"/></linearGradient><linearGradient id="SVGID_2_" gradientTransform="matrix(.707 -.707 .707 .707 -90.129 249.41)" gradientUnits="userSpaceOnUse" x1="59.071" x2="421.11" y1="430.43" y2="68.391"><stop offset="0" stop-color="#ffc2cc"/><stop offset="1" stop-color="#fff2f4"/></linearGradient><g><g><g><path d="m473.238 452.025-84.853-84.853 22.698-22.698c-8.273-13.789-10.396-30.335-6.153-45.609l-16.546-16.545-31.82 10.606 10.607-31.82-21.213-21.213-31.82 10.606 10.607-31.82-21.213-21.213-31.82 10.607 10.607-31.82-31.82-31.82c-5.94-5.94-15.273-5.94-21.213 0l-10.607 10.606-10.607-10.606c-13.789-13.789-34.578-16.759-51.125-8.698l-33.727-12.515 12.515 33.729c-8.061 16.547-5.091 37.335 8.698 51.125l10.607 10.606-10.607 10.607c-5.94 5.94-5.94 15.272 0 21.213l154.431 154.432c15.274-4.243 31.82-2.121 45.609 6.152l22.698-22.698 84.853 84.853c5.863 5.863 15.351 5.863 21.213 0 5.864-5.864 5.864-15.352.001-21.214z" fill="url(#SVGID_1_)"/></g></g><g><g><path d="m4.455 4.455c-5.94 5.94-5.94 15.273 0 21.213l131.28 131.28c2.121-4.667 4.88-8.697 8.698-12.515s7.849-6.578 12.515-8.698l-131.279-131.28c-5.941-5.94-15.273-5.94-21.214 0zm299.077 193.011-21.213-21.213-53.033 53.033c-5.94 5.94-5.94 15.272 0 21.213 5.939 5.939 15.273 5.94 21.213 0zm-31.82 95.46c5.939 5.939 15.273 5.94 21.213 0l53.033-53.033-21.213-21.213-53.033 53.033c-5.94 5.94-5.94 15.273 0 21.213zm42.427 42.426c5.939 5.939 15.273 5.94 21.213 0l53.033-53.033-21.213-21.213-53.033 53.033c-5.94 5.94-5.94 15.273 0 21.213zm107.572 19.708c22.991 13.505 53.025 10.614 72.74-9.101 23.399-23.399 23.399-61.454 0-84.853-23.399-23.398-61.454-23.398-84.853 0-19.715 19.715-22.606 49.75-9.101 72.741l-66.651 66.651c-22.991-13.505-53.025-10.614-72.74 9.101-23.399 23.399-23.399 61.454 0 84.853 23.399 23.398 61.454 23.398 84.853 0 19.715-19.715 22.606-49.75 9.101-72.741zm9.1-72.741c11.694-11.694 30.732-11.694 42.426 0s11.694 30.732 0 42.426-30.732 11.694-42.426 0c-11.694-11.693-11.694-30.732 0-42.426zm-106.066 190.919c-11.694 11.694-30.732 11.694-42.426 0s-11.694-30.732 0-42.426 30.732-11.694 42.426 0c11.695 11.694 11.695 30.732 0 42.426zm159.099-53.033-63.64 63.64c-5.863 5.863-5.863 15.351 0 21.213s15.351 5.862 21.213 0l63.64-63.64c5.863-5.863 5.863-15.351 0-21.213-5.862-5.862-15.35-5.862-21.213 0z" fill="url(#SVGID_2_)"/></g></g></g></svg>