<svg id="Capa_1" enable-background="new 0 0 512.011 512.011" height="512" viewBox="0 0 512.011 512.011" width="512" xmlns="http://www.w3.org/2000/svg" xmlns:xlink="http://www.w3.org/1999/xlink"><linearGradient id="SVGID_1_" gradientUnits="userSpaceOnUse" x1="256.006" x2="256.006" y1="257.011" y2="152.011"><stop offset="0" stop-color="#ffc2cc"/><stop offset="1" stop-color="#fff2f4"/></linearGradient><linearGradient id="SVGID_2_" gradientUnits="userSpaceOnUse" x1="256.006" x2="256.006" y1="512.011" y2="0"><stop offset="0" stop-color="#fd3a84"/><stop offset="1" stop-color="#ffa68d"/></linearGradient><g><g><g><path d="m396.406 164.911c-1.199-7.5-7.5-12.9-14.7-12.9h-60.901c-9.171 0-15.962 8.246-14.7 17.1l8.401 57.9 41.174 30 49.725-30zm-205.2-12.9h-60.901c-7.2 0-13.5 5.4-14.7 12.9l-9 62.1 49.725 30 41.174-30 8.401-57.9c1.263-8.853-5.527-17.1-14.699-17.1z" fill="url(#SVGID_1_)"/></g></g><g><g><path d="m137.983 45.011h-1.978c-5.537 0-10.62 3.047-13.228 7.925s-2.314 10.796.747 15.396l30 45c4.52 6.792 13.782 8.813 20.801 4.16 6.899-4.6 8.76-13.901 4.16-20.801l-14.458-21.68h1.978c5.537 0 10.62-3.047 13.228-7.925s2.314-10.796-.747-15.396l-30-45c-4.585-6.899-13.916-8.774-20.801-4.16-6.899 4.6-8.76 13.901-4.16 20.801zm199.702 72.481c7.015 4.65 16.279 2.634 20.801-4.16l30-45c3.062-4.6 3.354-10.518.747-15.396s-7.69-7.925-13.228-7.925h-1.978l14.458-21.68c4.6-6.899 2.739-16.201-4.16-20.801-6.958-4.614-16.216-2.739-20.801 4.16l-30 45c-3.062 4.6-3.354 10.518-.747 15.396s7.69 7.925 13.228 7.925h1.978l-14.458 21.68c-4.599 6.899-2.739 16.201 4.16 20.801zm81.521 205.818-13.801-96.299h-90.899l15.899 109.2c.3 3.6.601 7.2.601 10.8 0 41.4-33.6 75-75 75s-75-33.6-75-75c0-3.6.3-7.2.601-10.8l15.899-109.2h-90.899l-14.101 96.599c-.899 7.5-1.5 15.601-1.5 23.401 0 90.899 74.099 165 165 165s165-74.101 165-165c0-7.8-.601-15.9-1.8-23.701z" fill="url(#SVGID_2_)"/></g></g></g></svg>