<svg id="Capa_1" enable-background="new 0 0 512 512" height="512" viewBox="0 0 512 512" width="512" xmlns="http://www.w3.org/2000/svg" xmlns:xlink="http://www.w3.org/1999/xlink"><linearGradient id="SVGID_1_" gradientUnits="userSpaceOnUse" x1="256" x2="256" y1="377.188" y2="44.812"><stop offset="0" stop-color="#ffe59a"/><stop offset="1" stop-color="#ffffd5"/></linearGradient><linearGradient id="SVGID_2_" gradientUnits="userSpaceOnUse" x1="201.87" x2="201.87" y1="467.188" y2="152.188"><stop offset="0" stop-color="#fd5900"/><stop offset="1" stop-color="#ffde00"/></linearGradient><g><g><g><path d="m344.37 289.888-15-32.701-15 32.701c-17.402 5.999-30 22.798-30 42.299 0 24.901 20.098 45 45 45s45-20.099 45-45c0-19.5-12.598-36.3-30-42.299zm158.855-236.302c-11.697-11.699-30.901-11.699-42.598 0l-113.855 113.602s-.901 0-2.402 0l-16.047 16.664-13.953-16.664h-60c-8.173 0-15-6.362-15-15 0-8.401 6.599-15 15-15h45c16.501 0 30-13.5 30-30s-13.499-30-30-30h-107.703c-15.897 0-31.198 6.301-42.297 17.701l-96.299 95.999 111.299 81.301 150-34.2 17.563-20.475 12.437 13.575c-.011.003-.002 0 .037-.008-.004.001-.01.002-.013.003.018-.004.03-.007.046-.01.029-.007.07-.016.121-.027-.012.003-.025.006-.037.008.132-.03.176-.039.17-.038 1.076-.241 5.324-1.192 19.774-4.428 6.002-.899 11.704-3.6 16.201-8.099l122.556-122.302c11.7-11.701 11.7-30.901 0-42.602zm-158.818 177.494c.031-.007.073-.016.117-.026-.023.005-.055.012-.084.019-.012.002-.024.005-.033.007zm-340.012 11.679c-5.859 5.859-5.859 15.352 0 21.211l84.844 84.858c5.86 5.86 15.355 5.856 21.211 0l50.281-50.281-106.065-106.063z" fill="url(#SVGID_1_)"/></g></g><g><g><path d="m80.581 160.977c-11.719-11.719-30.703-11.719-42.422 0s-11.719 30.703 0 42.422l105 105c11.719 11.719 30.703 11.718 42.422 0 11.719-11.719 11.719-30.703 0-42.422zm263.789 128.911v-122.7h-30v122.701c4.797-1.8 9.602-2.701 15-2.701s10.203.901 15 2.7zm-15 57.3c-24.814 0-45 20.186-45 45v60c0 8.291 6.709 15 15 15h60c8.291 0 15-6.709 15-15v-60c0-24.815-20.185-45-45-45z" fill="url(#SVGID_2_)"/></g></g></g></svg>