<?xml version="1.0" encoding="UTF-8"?>
<svg width="1058px" height="661px" viewBox="0 0 1058 661" version="1.1" xmlns="http://www.w3.org/2000/svg" xmlns:xlink="http://www.w3.org/1999/xlink">
    <!-- Generator: Sketch 53.2 (72643) - https://sketchapp.com -->
    <title>banner3</title>
    <desc>Created with Sketch.</desc>
    <g id="Page-1" stroke="none" stroke-width="1" fill="none" fill-rule="evenodd">
        <g id="banner3" fill-rule="nonzero">
            <path d="M44.9017065,598.937964 C63.2035076,610.552107 81.4853212,622.16625 99.5939106,634.086905 C81.5386209,628.71628 63.3434194,623.292349 46.7538728,614.370181 C30.1643262,605.454677 15.0871599,592.681119 6.6258316,575.849607 C-1.82884094,559.018095 -2.76158654,537.782137 7.15215995,521.763548 C21.1766562,499.101643 54.8087972,487.940605 78.667097,501.107298 C88.5808501,506.57121 98.13483,515.54002 109.33444,513.854204 C131.687021,510.475907 147.277198,487.833992 168.397223,480.137873 C191.209515,471.82873 216.653482,470.635998 240.092047,477.119395 C249.506115,479.724748 277.501807,490.259435 278.627764,471.475575 C278.960888,465.845081 276.489112,460.394496 276.335875,454.757339 C275.576354,427.584375 350.782298,452.951583 366.658961,439.811542 C379.870636,428.877056 382.928709,410.7462 395.187651,398.745585 C409.65187,384.586058 428.30012,375.444002 444.296707,363.223498 C463.57789,348.484264 482.925699,322.763901 473.378382,297.303407 C469.087752,285.86251 459.593734,275.12126 462.072173,263.153962 C463.531253,256.084194 468.94784,250.600292 474.111253,245.562833 C488.408911,231.596542 502.706568,217.636915 517.004225,203.670625 C520.25551,200.498891 524.179704,197.080615 528.690195,197.640333 C533.893583,198.286673 537.011618,204.20369 536.758445,209.441048 C536.505271,214.678407 533.893583,219.455998 531.881518,224.300222 C522.3342,247.275302 526.238407,275.561038 542.668054,294.424859 C552.61512,305.845766 567.066014,314.874546 570.297311,329.67375 C573.69517,345.225907 565.373747,366.728397 579.47153,374.111341 C586.800246,377.949405 596.021102,374.524466 603.882815,377.096502 C619.846089,382.327198 618.666832,405.035746 626.122135,420.094819 C635.955938,439.958135 661.03347,445.528659 679.68505,457.495958 C699.839018,470.422772 712.984068,491.57877 729.826788,508.596855 C751.459824,530.459163 779.768652,545.618185 809.956297,551.495222 C822.894811,554.013952 839.304471,553.241008 845.327343,541.520252 C851.643363,529.233115 842.18932,511.995141 850.997103,501.347177 C861.090743,489.153327 880.092103,499.767974 893.843438,507.604022 C914.810227,519.557994 939.314786,523.242802 963.093136,527.414032 C986.864824,531.585262 1011.36272,536.802631 1030.81047,551.095423 C1050.25821,565.394879 1063.25669,591.241845 1055.47492,614.090323 C1046.76708,639.670756 1017.26567,651.211603 990.642443,655.822611 C891.478262,672.993952 791.467947,638.737893 691.284408,629.196038 C588.865611,619.447621 486.603382,635.626129 384.727576,644.208468 C279.660447,653.064002 178.117764,643.202308 73.6968955,631.501542" id="Path" fill="#E5F2FF"></path>
            <path d="M480.860334,395.220696 C480.673785,404.102883 481.859704,413.078357 480.227399,421.813952 C478.595094,430.542883 473.278445,439.378427 464.723835,441.777218 C452.671429,445.155514 437.514314,435.31381 428.340094,443.822853 C421.344503,450.312913 424.395913,462.086976 420.584981,470.835897 C412.849855,488.600272 383.694893,484.30244 372.015586,499.76131 C367.87153,505.245212 366.292525,512.881361 360.542815,516.652792 C353.580535,521.210494 344.459616,517.812208 336.398029,515.746583 C303.651996,507.364143 270.066492,524.029073 241.417878,541.98002 C222.243293,554.000625 203.588382,566.840817 185.519767,580.467278 C181.72216,583.3325 177.771316,586.464254 176.132349,590.928669 C173.527324,597.998438 177.584767,605.734536 182.295132,611.611573 C204.307928,639.057732 249.626039,610.791986 284.730586,613.070837 C345.525611,617.008851 391.030271,606.280927 451.925233,604.335242 C494.838193,602.962601 533.953545,610.865282 576.180271,603.089204 C615.901908,595.772893 664.537928,607.966744 704.922481,607.606925 C723.477456,607.440343 743.518161,610.931915 759.454786,601.43004 C761.593438,600.157349 763.658804,598.604798 764.904685,596.45255 C768.495756,590.249012 763.925302,582.579546 759.101675,577.288881 C739.873791,556.219506 678.192657,563.948942 661.699717,540.674012 C617.68745,478.571996 597.160384,481.250645 548.397777,464.325847 C542.06177,462.126956 535.445938,459.908075 530.688936,455.18379 C525.931933,450.459506 523.733319,442.390242 527.684162,436.972974 C531.341858,431.962167 538.623936,430.989325 542.861266,426.451613 C551.828948,416.836462 541.275598,401.737409 541.348885,388.590706 C541.382198,383.173437 543.334301,377.962732 544.093822,372.605433 C546.572261,355.147571 528.923382,328.14119 509.015926,334.364718 C489.768054,340.361694 481.213445,378.635726 480.860334,395.220696 Z" id="Path" fill="#B3D8FF" opacity="0.27"></path>
            <path d="M476.129981,259.189294 C470.680082,263.260575 465.070283,267.511764 461.799011,273.475423 C457.328495,281.617984 464.017613,288.32127 466.742563,295.590938 C468.374868,299.92875 469.194351,303.000534 468.288256,307.618206 C467.522072,311.51624 462.545208,315.634163 465.510006,319.792067 C469.674049,325.58248 477.162664,322.19752 481.20012,330.300101 C484.504704,336.930091 483.212185,344.712833 487.46284,351.022984 C491.866732,357.566351 499.362009,362.690433 502.120271,370.25995 C505.025107,378.215937 498.595825,389.93003 507.470233,395.507218 C512.200586,398.485716 518.823079,395.960323 522.214276,391.515897 C529.343117,382.167278 529.236518,364.729405 531.015397,353.608347 C531.841543,348.444284 535.445938,341.621058 540.209603,343.77997 C543.201052,345.139284 547.27182,366.708407 553.521215,355.547369 C554.74711,353.355141 554.580548,350.683155 554.380674,348.184415 C554.094188,344.659526 552.908268,340.688196 553.447928,337.14998 C555.406694,324.303125 558.484754,317.393276 554.493936,303.873427 C554.067538,302.420827 553.747739,300.581754 554.926996,299.628901 C555.546606,299.129153 556.399402,299.055857 557.192236,299.009214 C562.162437,298.696038 567.912147,299.02254 570.577135,293.805171 C573.448659,288.181341 566.719565,283.916825 564.814099,279.205867 C565.19386,280.152056 578.512135,283.970131 580.670775,285.1562 C576.593344,275.414446 566.772865,267.891573 556.7725,264.999698" id="Path" fill="#F44E4E"></path>
            <path d="M482.752475,305.81245 C484.184906,310.423458 486.33022,314.594688 489.275031,317.966321 C491.586908,320.611653 494.405132,322.897167 495.91085,326.122208 C497.203369,328.88748 497.389918,332.085867 498.575838,334.904446 C503.159616,345.798952 511.720888,334.171482 514.732324,328.774204 C518.463306,322.104234 522.154314,320.138558 529.176555,320.238508 C529.962727,320.251835 530.842173,320.218518 531.381832,319.618821 C531.88818,319.05244 531.894843,318.179546 531.781581,317.406603 C531.161971,313.115433 526.54488,307.138448 531.062034,303.480292 C532.847576,302.034355 535.172777,301.60124 537.318092,300.848286 C548.077979,297.056865 547.818142,277.286835 547.411732,267.798286 C547.258495,264.226754 545.846052,260.821804 543.920598,257.86996 C533.180699,241.378276 505.471492,241.318306 492.439704,255.284597 C481.859704,266.612218 477.575737,289.120867 482.752475,305.81245 Z" id="Path" fill="#D7384E"></path>
            <path d="M616.887953,272.909042 C611.15823,277.473407 569.51114,246.10256 528.883407,209.940796 L574.947714,173.239304 C600.944666,221.055192 622.104666,268.751139 616.887953,272.909042 Z" id="Path" fill="#007EFF"></path>
            <path d="M414.988508,272.909042 C420.71823,277.473407 462.365321,246.10256 502.993054,209.940796 L456.928747,173.239304 C430.931795,221.055192 409.771795,268.751139 414.988508,272.909042 Z" id="Path" fill="#007EFF"></path>
            <path d="M451.925233,179.995897 C451.925233,234.781603 479.741039,264.833115 514.052752,264.833115 C548.364465,264.833115 576.180271,234.781603 576.180271,179.995897 C576.180271,158.113599 568.99813,124.996966 559.290913,93.106381 L468.334893,93.106381 C458.834213,124.996966 451.925233,158.113599 451.925233,179.995897 Z" id="Path" fill="#66B2FF"></path>
            <path d="M514.053418,0 C502.740547,0 482.613229,45.1638911 468.328897,93.106381 L559.284917,93.106381 C544.687448,45.1638911 524.353594,0 514.053418,0 Z" id="Path" fill="#007EFF"></path>
            <path d="M560.117059,258.289748 L467.988445,258.289748 C460.746341,258.289748 454.823407,252.366069 454.823407,245.123054 L454.823407,245.123054 C454.823407,237.88004 460.746341,231.956361 467.988445,231.956361 L560.117059,231.956361 C567.359162,231.956361 573.282097,237.88004 573.282097,245.123054 L573.282097,245.123054 C573.282097,252.366069 567.359162,258.289748 560.117059,258.289748 Z" id="Path" fill="#007EFF"></path>
            <path d="M555.940358,265.472792 L472.166479,265.472792 C470.194388,265.472792 468.575408,263.853609 468.575408,261.88127 L468.575408,261.88127 C468.575408,259.908931 470.194388,258.289748 472.166479,258.289748 L555.940358,258.289748 C557.912448,258.289748 559.531428,259.908931 559.531428,261.88127 L559.531428,261.88127 C559.531428,263.853609 557.919111,265.472792 555.940358,265.472792 Z" id="Path" fill="#007EFF"></path>
            <path d="M514.052752,130.214335 C496.037437,130.214335 481.439969,144.820302 481.439969,162.83122 C481.439969,163.830716 481.499931,164.810222 481.586543,165.783065 C500.721152,158.006986 519.71585,149.971038 538.330787,141.102177 C532.361215,134.432208 523.706669,130.214335 514.052752,130.214335 Z" id="Path" fill="#FFFFFF"></path>
            <path d="M481.586543,165.783065 C483.078936,182.414677 497.036807,195.448105 514.052752,195.448105 C532.068067,195.448105 546.665535,180.842137 546.665535,162.83122 C546.665535,154.475433 543.4942,146.872601 538.330787,141.102177 C519.71585,149.971038 500.721152,158.006986 481.586543,165.783065 Z" id="Path" fill="#E5F2FF"></path>
        </g>
    </g>
</svg>