<?xml version="1.0" encoding="UTF-8"?>
<svg width="245px" height="259px" viewBox="0 0 245 259" version="1.1" xmlns="http://www.w3.org/2000/svg" xmlns:xlink="http://www.w3.org/1999/xlink">
    <title>Shape</title>
    <g id="Page-1" stroke="none" stroke-width="1" fill="none" fill-rule="evenodd">
        <g id="mobile_path_segment" transform="translate(-140.000000, -236.000000)" fill="#CACCCF" fill-rule="nonzero">
            <g id="Group" transform="translate(139.000000, 236.000000)">
                <path d="M52.3,248.3 C50.5,248.3 48.9,249.5 48.4,251.4 C48.3,251.7 48.3,252 48.3,252.4 C48.3,254.2 49.5,255.8 51.4,256.3 C56.5,257.6 61.9,258.2 67.2,258.2 C69.4,258.2 71.2,256.4 71.2,254.2 C71.2,252 69.4,250.2 67.2,250.2 C62.5,250.2 57.8,249.6 53.3,248.5 C52.9,248.3 52.6,248.3 52.3,248.3 M22.3,231.1 C21.3,231.1 20.3,231.5 19.5,232.2 C18.7,233 18.3,234 18.3,235.1 C18.3,236.1 18.7,237.1 19.4,237.9 C23.1,241.7 27.3,245.1 31.8,247.9 C32.5,248.3 33.2,248.5 33.9,248.5 C35.2,248.5 36.5,247.8 37.3,246.6 C37.7,245.9 37.9,245.2 37.9,244.5 C37.9,243.2 37.2,241.9 36,241.1 C32,238.6 28.4,235.6 25.1,232.3 C24.4,231.5 23.4,231.1 22.3,231.1 M6,200.7 C5.7,200.7 5.4,200.7 5.2,200.8 C3.3,201.2 2,202.9 2,204.7 C2,205 2,205.3 2.1,205.5 C3.2,210.7 5,215.8 7.3,220.6 C8,222 9.4,222.9 10.9,222.9 C11.5,222.9 12.1,222.8 12.6,222.5 C14,221.8 14.9,220.4 14.9,218.9 C14.9,218.3 14.8,217.7 14.5,217.2 C12.5,213 10.9,208.5 9.9,204 C9.5,202 7.9,200.7 6,200.7 M8.4,166.2 C6.8,166.2 5.2,167.2 4.6,168.8 C2.8,173.8 1.6,179 1,184.3 C1,184.4 1,184.6 1,184.7 C1,186.7 2.5,188.4 4.6,188.7 C4.7,188.7 4.9,188.7 5,188.7 C7,188.7 8.8,187.2 9,185.1 C9.5,180.4 10.6,175.8 12.2,171.5 C12.4,171 12.4,170.6 12.4,170.1 C12.4,168.5 11.4,166.9 9.8,166.3 C9.3,166.3 8.8,166.2 8.4,166.2 M28.7,138.3 C27.8,138.3 27,138.6 26.2,139.1 C22,142.4 18.2,146.2 14.9,150.3 C14.3,151 14,151.9 14,152.8 C14,154 14.5,155.2 15.5,155.9 C16.2,156.5 17.1,156.8 18,156.8 C19.2,156.8 20.4,156.3 21.1,155.3 C24,151.6 27.3,148.3 31,145.4 C32,144.6 32.5,143.4 32.5,142.2 C32.5,141.3 32.2,140.5 31.7,139.7 C31,138.8 29.9,138.3 28.7,138.3 M60.7,125.4 C60.6,125.4 60.4,125.4 60.3,125.4 C55,125.9 49.8,127.1 44.8,128.9 C43.2,129.5 42.1,131 42.1,132.7 C42.1,133.1 42.2,133.6 42.3,134.1 C42.9,135.7 44.4,136.8 46.1,136.8 C46.5,136.8 47,136.7 47.4,136.6 C51.8,135 56.4,134 61.1,133.5 C63.2,133.3 64.7,131.5 64.7,129.5 C64.7,129.4 64.7,129.2 64.7,129.1 C64.5,126.9 62.7,125.4 60.7,125.4 M95.7,125 L80.7,125 C78.5,125 76.7,126.8 76.7,129 C76.7,131.2 78.5,133 80.7,133 L95.7,133 C97.9,133 99.7,131.2 99.7,129 C99.7,126.8 97.9,125 95.7,125 M130.7,125 L115.7,125 C113.5,125 111.7,126.8 111.7,129 C111.7,131.2 113.5,133 115.7,133 L130.7,133 C132.9,133 134.7,131.2 134.7,129 C134.7,126.8 132.9,125 130.7,125 M165.7,125 L150.7,125 C148.5,125 146.7,126.8 146.7,129 C146.7,131.2 148.5,133 150.7,133 L165.7,133 C167.9,133 169.7,131.2 169.7,129 C169.7,126.8 167.9,125 165.7,125 M200.3,121.6 C199.9,121.6 199.4,121.7 199,121.8 C194.6,123.3 190,124.3 185.3,124.8 C183.2,125 181.7,126.7 181.7,128.8 C181.7,128.9 181.7,129.1 181.7,129.2 C181.9,131.3 183.6,132.8 185.7,132.8 C185.8,132.8 186,132.8 186.1,132.8 C191.4,132.3 196.6,131.2 201.7,129.4 C203.4,128.8 204.4,127.3 204.4,125.6 C204.4,125.2 204.3,124.7 204.2,124.3 C203.5,122.6 201.9,121.6 200.3,121.6 M228.5,101.6 C227.3,101.6 226.2,102.1 225.4,103.1 C222.5,106.8 219.1,110.1 215.4,112.9 C214.4,113.7 213.8,114.9 213.8,116.1 C213.8,117 214.1,117.8 214.6,118.5 C215.4,119.5 216.6,120.1 217.8,120.1 C218.7,120.1 219.5,119.8 220.2,119.3 C224.4,116.1 228.2,112.3 231.6,108.2 C232.2,107.5 232.5,106.6 232.5,105.7 C232.5,104.5 232,103.4 231,102.6 C230.3,101.9 229.4,101.6 228.5,101.6 M241.8,69.8 C239.8,69.8 238.1,71.3 237.8,73.3 C237.3,78 236.2,82.5 234.5,86.9 C234.3,87.4 234.2,87.8 234.2,88.3 C234.2,89.9 235.2,91.4 236.8,92 C237.3,92.2 237.7,92.3 238.2,92.3 C239.8,92.3 241.4,91.3 241.9,89.7 C243.8,84.7 245,79.5 245.6,74.2 C245.6,74 245.6,73.9 245.6,73.7 C245.6,71.7 244.1,70 242.1,69.7 C242.1,69.8 241.9,69.8 241.8,69.8 M236.2,35.7 C235.6,35.7 235,35.8 234.5,36.1 C233.1,36.8 232.2,38.2 232.2,39.7 C232.2,40.3 232.3,40.9 232.6,41.4 C234.6,45.6 236.1,50.1 237.1,54.7 C237.5,56.6 239.2,57.9 241,57.9 C241.3,57.9 241.5,57.9 241.8,57.8 C243.7,57.4 245,55.7 245,53.9 C245,53.6 245,53.4 244.9,53.1 C243.8,47.9 242.1,42.8 239.8,38 C239.1,36.5 237.7,35.7 236.2,35.7 M213.3,9.8 C212,9.8 210.7,10.5 209.9,11.6 C209.5,12.3 209.3,13 209.3,13.7 C209.3,15 210,16.3 211.1,17.1 C215,19.6 218.7,22.6 221.9,26 C222.7,26.8 223.7,27.2 224.8,27.2 C225.8,27.2 226.8,26.8 227.6,26.1 C228.4,25.3 228.8,24.3 228.8,23.2 C228.8,22.2 228.4,21.2 227.7,20.4 C224,16.6 219.9,13.2 215.4,10.3 C214.8,10 214.1,9.8 213.3,9.8 M180.2,0 L180.2,0 C178,0 176.2,1.8 176.2,4 C176.2,4 176.2,4 176.2,4 C176.2,6.2 178,8 180.2,8 C184.9,8 189.6,8.6 194.1,9.8 C194.4,9.9 194.8,9.9 195.1,9.9 C196.9,9.9 198.5,8.7 199,6.9 C199.1,6.6 199.1,6.2 199.1,5.9 C199.1,4.1 197.9,2.5 196.1,2 C190.9,0.7 185.6,0 180.2,0" id="Shape"></path>
            </g>
        </g>
    </g>
</svg>