<?xml version="1.0" encoding="UTF-8"?>
<svg width="645px" height="459px" viewBox="0 0 645 459" version="1.1" xmlns="http://www.w3.org/2000/svg" xmlns:xlink="http://www.w3.org/1999/xlink">
    <title>2312781</title>
    <defs>
        <polygon id="path-1" points="0 0 284.22336 0 284.22336 103.998689 0 103.998689"></polygon>
        <path d="M279.410801,0.0366885804 C282.401801,-0.30331142 284.345801,1.79968858 282.189801,3.04368858 L282.189801,3.04368858 L116.428801,98.7456886 C115.223801,99.4416886 113.270801,99.4416886 112.065801,98.7456886 L112.065801,98.7456886 L0.906800581,34.5686886 C-0.839199419,33.5606886 0.0698005806,31.8366886 2.49180058,31.5606886 L2.49180058,31.5606886 M204.879801,27.2326886 C206.009801,26.5786886 204.990801,25.4776886 203.422801,25.6556886 L203.422801,25.6556886 L58.2798006,42.1786886 C57.0098006,42.3236886 56.5338006,43.2266886 57.4488006,43.7546886 L57.4488006,43.7546886 L115.711801,77.3926886 C116.342801,77.7576886 117.366801,77.7576886 117.998801,77.3926886 L117.998801,77.3926886" id="path-3"></path>
        <polygon id="path-5" points="0 0 156.81001 0 156.81001 238.392639 0 238.392639"></polygon>
        <path d="M108.007515,82.0753767 C109.014571,82.6580524 109.014571,83.6031483 108.007515,84.185824 L38.4637475,124.421482 C36.7753312,125.398615 33.8980301,124.637733 34.0688699,123.260135 L35.6184164,43.6848585 C35.7772674,42.4103806 38.4507596,41.8327107 40.013294,42.7367591 L108.007515,82.0753767 M3.1688542,2.82247395 L0.014812706,164.740236 C-0.332861175,167.542485 5.52164727,169.09028 8.95642544,167.102976 L150.46469,85.2330383 C152.51177,84.0466626 152.51177,82.1254347 150.46469,80.9410613 L12.1104669,0.893236784 C8.93244793,-0.944894738 3.49055245,0.228465907 3.1688542,2.82247395" id="path-7"></path>
    </defs>
    <g id="2312781" stroke="none" stroke-width="1" fill="none" fill-rule="evenodd">
        <g id="Group-4" transform="translate(12.000000, 286.001311)">
            <mask id="mask-2" fill="white">
                <use xlink:href="#path-1"></use>
            </mask>
            <g id="Clip-2"></g>
            <path d="M118.597,82.1236886 C117.965,82.4886886 116.941,82.4886886 116.31,82.1236886 L58.047,48.4856886 C57.132,47.9576886 57.608,47.0536886 58.878,46.9096886 L204.021,30.3856886 C205.589,30.2076886 206.608,31.3106886 205.478,31.9626886 L118.597,82.1236886 Z M281.74,0.41868858 L1.629,31.9766886 C-0.793,32.2526886 -0.241,38.2906886 1.505,39.2986886 L112.664,103.476689 C113.869,104.172689 115.822,104.172689 117.027,103.476689 L282.789,7.77468858 C284.944,6.53068858 284.731,0.0786885804 281.74,0.41868858 L281.74,0.41868858 Z" id="Fill-1" fill="#AD2824" mask="url(#mask-2)"></path>
            <path d="M118.597,77.3926886 C117.965,77.7576886 116.941,77.7576886 116.31,77.3926886 L58.047,43.7546886 C57.132,43.2266886 57.608,42.3236886 58.878,42.1786886 L204.021,25.6556886 C205.589,25.4776886 206.608,26.5786886 205.478,27.2326886 L118.597,77.3926886 Z M280.009,0.0366885804 L3.09,31.5606886 C0.668,31.8366886 -0.241,33.5606886 1.505,34.5686886 L112.664,98.7456886 C113.869,99.4416886 115.822,99.4416886 117.027,98.7456886 L282.789,3.04368858 C284.944,1.79968858 283,-0.30331142 280.009,0.0366885804 L280.009,0.0366885804 Z" id="Fill-3" fill="#FB3B34" mask="url(#mask-2)"></path>
        </g>
        <g id="Group-44" transform="translate(12.598199, 286.001311)">
            <mask id="mask-4" fill="white">
                <use xlink:href="#path-3"></use>
            </mask>
            <g id="Clip-6"></g>
            <path d="M16.8508006,44.0626886 L27.2758006,38.0446886 C27.5148006,37.9066886 27.5968006,37.6006886 27.4588006,37.3616886 C27.3208006,37.1226886 27.0148006,37.0406886 26.7758006,37.1786886 L16.3508006,43.1966886 C16.1118006,43.3346886 16.0298006,43.6406886 16.1678006,43.8796886 C16.3058006,44.1186886 16.6118006,44.2006886 16.8508006,44.0626886" id="Fill-5" fill="#AD2824" mask="url(#mask-4)"></path>
            <path d="M22.8018006,47.4986886 L30.0698006,43.3026886 C30.3098006,43.1636886 30.3918006,42.8586886 30.2528006,42.6196886 C30.1148006,42.3796886 29.8098006,42.2976886 29.5698006,42.4366886 L22.3018006,46.6326886 C22.0628006,46.7706886 21.9808006,47.0766886 22.1188006,47.3156886 C22.2568006,47.5546886 22.5628006,47.6366886 22.8018006,47.4986886" id="Fill-7" fill="#AD2824" mask="url(#mask-4)"></path>
            <path d="M28.7538006,50.9346886 L39.1778006,44.9166886 C39.4168006,44.7786886 39.4988006,44.4726886 39.3608006,44.2336886 C39.2228006,43.9946886 38.9168006,43.9126886 38.6778006,44.0506886 L28.2538006,50.0686886 C28.0138006,50.2066886 27.9318006,50.5126886 28.0708006,50.7516886 C28.2088006,50.9906886 28.5138006,51.0726886 28.7538006,50.9346886" id="Fill-8" fill="#AD2824" mask="url(#mask-4)"></path>
            <path d="M34.7048006,54.3706886 L41.9728006,50.1746886 C42.2118006,50.0366886 42.2938006,49.7306886 42.1558006,49.4916886 C42.0178006,49.2516886 41.7118006,49.1696886 41.4728006,49.3086886 L34.2048006,53.5046886 C33.9658006,53.6426886 33.8838006,53.9486886 34.0218006,54.1876886 C34.1598006,54.4266886 34.4648006,54.5086886 34.7048006,54.3706886" id="Fill-9" fill="#AD2824" mask="url(#mask-4)"></path>
            <path d="M40.6558006,57.8066886 L51.0808006,51.7886886 C51.3198006,51.6506886 51.4018006,51.3446886 51.2638006,51.1056886 C51.1258006,50.8666886 50.8198006,50.7846886 50.5808006,50.9226886 L40.1558006,56.9406886 C39.9168006,57.0786886 39.8348006,57.3846886 39.9728006,57.6236886 C40.1108006,57.8636886 40.4168006,57.9446886 40.6558006,57.8066886" id="Fill-10" fill="#AD2824" mask="url(#mask-4)"></path>
            <path d="M46.6068006,61.2426886 L53.8758006,57.0466886 C54.1148006,56.9086886 54.1968006,56.6026886 54.0588006,56.3636886 C53.9208006,56.1246886 53.6148006,56.0426886 53.3758006,56.1806886 L46.1078006,60.3766886 C45.8678006,60.5146886 45.7858006,60.8206886 45.9238006,61.0596886 C46.0628006,61.2986886 46.3678006,61.3806886 46.6068006,61.2426886" id="Fill-11" fill="#AD2824" mask="url(#mask-4)"></path>
            <path d="M52.5588006,64.6786886 L62.9828006,58.6606886 C63.2228006,58.5226886 63.3048006,58.2166886 63.1658006,57.9776886 C63.0278006,57.7386886 62.7228006,57.6566886 62.4828006,57.7946886 L52.0588006,63.8126886 C51.8198006,63.9516886 51.7378006,64.2566886 51.8758006,64.4956886 C52.0138006,64.7356886 52.3198006,64.8176886 52.5588006,64.6786886" id="Fill-12" fill="#AD2824" mask="url(#mask-4)"></path>
            <path d="M58.5098006,68.1146886 L65.7778006,63.9186886 C66.0178006,63.7806886 66.0988006,63.4746886 65.9608006,63.2356886 C65.8228006,62.9966886 65.5178006,62.9146886 65.2778006,63.0526886 L58.0098006,67.2486886 C57.7708006,67.3866886 57.6888006,67.6926886 57.8268006,67.9316886 C57.9648006,68.1706886 58.2708006,68.2526886 58.5098006,68.1146886" id="Fill-13" fill="#AD2824" mask="url(#mask-4)"></path>
            <path d="M64.4608006,71.5516886 L74.8858006,65.5326886 C75.1248006,65.3946886 75.2068006,65.0886886 75.0688006,64.8496886 C74.9308006,64.6106886 74.6248006,64.5286886 74.3858006,64.6666886 L63.9608006,70.6856886 C63.7218006,70.8236886 63.6398006,71.1286886 63.7778006,71.3686886 C63.9168006,71.6076886 64.2218006,71.6896886 64.4608006,71.5516886" id="Fill-14" fill="#AD2824" mask="url(#mask-4)"></path>
            <path d="M70.4128006,74.9866886 L77.6808006,70.7906886 C77.9198006,70.6526886 78.0018006,70.3466886 77.8638006,70.1076886 C77.7258006,69.8686886 77.4198006,69.7866886 77.1808006,69.9246886 L69.9128006,74.1206886 C69.6738006,74.2586886 69.5918006,74.5646886 69.7298006,74.8036886 C69.8678006,75.0426886 70.1738006,75.1246886 70.4128006,74.9866886" id="Fill-15" fill="#AD2824" mask="url(#mask-4)"></path>
            <path d="M76.3638006,78.4236886 L86.7888006,72.4036886 C87.0278006,72.2656886 87.1098006,71.9596886 86.9718006,71.7206886 C86.8338006,71.4816886 86.5278006,71.3996886 86.2888006,71.5376886 L75.8638006,77.5576886 C75.6248006,77.6956886 75.5428006,78.0016886 75.6808006,78.2406886 C75.8188006,78.4796886 76.1248006,78.5616886 76.3638006,78.4236886" id="Fill-16" fill="#AD2824" mask="url(#mask-4)"></path>
            <path d="M82.3148006,81.8586886 L89.5838006,77.6626886 C89.8228006,77.5246886 89.9048006,77.2186886 89.7668006,76.9796886 C89.6288006,76.7406886 89.3228006,76.6586886 89.0838006,76.7966886 L81.8158006,80.9926886 C81.5758006,81.1306886 81.4938006,81.4366886 81.6318006,81.6756886 C81.7708006,81.9146886 82.0758006,81.9966886 82.3148006,81.8586886" id="Fill-17" fill="#AD2824" mask="url(#mask-4)"></path>
            <path d="M88.2668006,85.2946886 L98.6908006,79.2766886 C98.9308006,79.1386886 99.0128006,78.8326886 98.8748006,78.5936886 C98.7368006,78.3546886 98.4308006,78.2726886 98.1918006,78.4106886 L87.7668006,84.4286886 C87.5278006,84.5666886 87.4458006,84.8726886 87.5838006,85.1116886 C87.7218006,85.3506886 88.0278006,85.4326886 88.2668006,85.2946886" id="Fill-18" fill="#AD2824" mask="url(#mask-4)"></path>
            <path d="M94.2178006,88.7306886 L101.485801,84.5346886 C101.725801,84.3966886 101.807801,84.0906886 101.668801,83.8516886 C101.530801,83.6126886 101.225801,83.5306886 100.985801,83.6686886 L93.7178006,87.8646886 C93.4788006,88.0026886 93.3968006,88.3086886 93.5348006,88.5476886 C93.6728006,88.7866886 93.9788006,88.8686886 94.2178006,88.7306886" id="Fill-19" fill="#AD2824" mask="url(#mask-4)"></path>
            <path d="M100.169801,92.1666886 L110.593801,86.1476886 C110.832801,86.0096886 110.914801,85.7036886 110.776801,85.4646886 C110.638801,85.2256886 110.333801,85.1436886 110.093801,85.2816886 L99.6698006,91.3006886 C99.4298006,91.4386886 99.3478006,91.7446886 99.4868006,91.9836886 C99.6248006,92.2226886 99.9298006,92.3046886 100.169801,92.1666886" id="Fill-20" fill="#AD2824" mask="url(#mask-4)"></path>
            <path d="M106.120801,95.6026886 L113.388801,91.4066886 C113.627801,91.2686886 113.709801,90.9626886 113.571801,90.7236886 C113.433801,90.4846886 113.127801,90.4026886 112.888801,90.5406886 L105.620801,94.7366886 C105.381801,94.8746886 105.299801,95.1806886 105.437801,95.4196886 C105.575801,95.6586886 105.881801,95.7406886 106.120801,95.6026886" id="Fill-21" fill="#AD2824" mask="url(#mask-4)"></path>
            <path d="M10.8988006,40.6266886 L18.1678006,36.4296886 C18.4068006,36.2916886 18.4888006,35.9866886 18.3508006,35.7466886 C18.2128006,35.5076886 17.9068006,35.4256886 17.6678006,35.5636886 L10.3988006,39.7606886 C10.1598006,39.8986886 10.0778006,40.2046886 10.2158006,40.4436886 C10.3548006,40.6826886 10.6598006,40.7646886 10.8988006,40.6266886" id="Fill-22" fill="#AD2824" mask="url(#mask-4)"></path>
            <path d="M135.208801,88.0056886 L124.784801,81.9866886 C124.545801,81.8486886 124.239801,81.9306886 124.101801,82.1696886 C123.963801,82.4086886 124.045801,82.7146886 124.284801,82.8526886 L134.708801,88.8716886 C134.947801,89.0096886 135.253801,88.9276886 135.391801,88.6886886 C135.529801,88.4496886 135.447801,88.1436886 135.208801,88.0056886" id="Fill-23" fill="#AD2824" mask="url(#mask-4)"></path>
            <path d="M142.296801,83.9126886 L135.028801,79.7166886 C134.789801,79.5786886 134.483801,79.6606886 134.345801,79.8996886 C134.207801,80.1386886 134.289801,80.4446886 134.528801,80.5826886 L141.796801,84.7786886 C142.036801,84.9166886 142.341801,84.8346886 142.479801,84.5956886 C142.618801,84.3566886 142.536801,84.0506886 142.296801,83.9126886" id="Fill-24" fill="#AD2824" mask="url(#mask-4)"></path>
            <path d="M149.385801,79.8206886 L138.961801,73.8026886 C138.721801,73.6646886 138.416801,73.7466886 138.278801,73.9856886 C138.139801,74.2246886 138.221801,74.5306886 138.461801,74.6686886 L148.885801,80.6866886 C149.124801,80.8246886 149.430801,80.7426886 149.568801,80.5036886 C149.706801,80.2646886 149.624801,79.9586886 149.385801,79.8206886" id="Fill-25" fill="#AD2824" mask="url(#mask-4)"></path>
            <path d="M156.473801,75.7276886 L149.205801,71.5316886 C148.966801,71.3936886 148.660801,71.4756886 148.522801,71.7146886 C148.384801,71.9536886 148.466801,72.2596886 148.705801,72.3976886 L155.973801,76.5946886 C156.212801,76.7326886 156.518801,76.6506886 156.656801,76.4106886 C156.794801,76.1716886 156.712801,75.8666886 156.473801,75.7276886" id="Fill-26" fill="#AD2824" mask="url(#mask-4)"></path>
            <path d="M163.561801,71.6356886 L153.137801,65.6166886 C152.898801,65.4786886 152.592801,65.5606886 152.454801,65.7996886 C152.316801,66.0386886 152.398801,66.3446886 152.637801,66.4826886 L163.061801,72.5016886 C163.300801,72.6396886 163.606801,72.5576886 163.744801,72.3186886 C163.882801,72.0796886 163.800801,71.7736886 163.561801,71.6356886" id="Fill-27" fill="#AD2824" mask="url(#mask-4)"></path>
            <path d="M170.650801,67.5436886 L163.381801,63.3476886 C163.142801,63.2096886 162.837801,63.2906886 162.698801,63.5306886 C162.560801,63.7696886 162.642801,64.0756886 162.881801,64.2136886 L170.150801,68.4096886 C170.389801,68.5476886 170.694801,68.4656886 170.833801,68.2266886 C170.971801,67.9876886 170.889801,67.6816886 170.650801,67.5436886" id="Fill-28" fill="#AD2824" mask="url(#mask-4)"></path>
            <path d="M177.738801,63.4506886 L167.314801,57.4326886 C167.074801,57.2946886 166.769801,57.3756886 166.631801,57.6156886 C166.492801,57.8546886 166.574801,58.1606886 166.814801,58.2986886 L177.238801,64.3166886 C177.477801,64.4546886 177.783801,64.3726886 177.921801,64.1336886 C178.059801,63.8946886 177.977801,63.5886886 177.738801,63.4506886" id="Fill-29" fill="#AD2824" mask="url(#mask-4)"></path>
            <path d="M184.826801,59.3576886 L177.558801,55.1616886 C177.319801,55.0236886 177.013801,55.1056886 176.875801,55.3446886 C176.737801,55.5836886 176.819801,55.8896886 177.058801,56.0276886 L184.326801,60.2236886 C184.565801,60.3616886 184.871801,60.2806886 185.009801,60.0406886 C185.147801,59.8016886 185.065801,59.4956886 184.826801,59.3576886" id="Fill-30" fill="#AD2824" mask="url(#mask-4)"></path>
            <path d="M191.914801,55.2666886 L181.490801,49.2476886 C181.251801,49.1096886 180.945801,49.1916886 180.807801,49.4306886 C180.669801,49.6696886 180.751801,49.9756886 180.990801,50.1136886 L191.414801,56.1326886 C191.653801,56.2706886 191.959801,56.1886886 192.097801,55.9496886 C192.235801,55.7096886 192.153801,55.4046886 191.914801,55.2666886" id="Fill-31" fill="#AD2824" mask="url(#mask-4)"></path>
            <path d="M199.003801,51.1736886 L191.734801,46.9776886 C191.495801,46.8386886 191.190801,46.9206886 191.051801,47.1606886 C190.913801,47.3996886 190.995801,47.7046886 191.234801,47.8436886 L198.503801,52.0396886 C198.742801,52.1776886 199.047801,52.0956886 199.186801,51.8566886 C199.324801,51.6176886 199.242801,51.3116886 199.003801,51.1736886" id="Fill-32" fill="#AD2824" mask="url(#mask-4)"></path>
            <path d="M206.091801,47.0816886 L195.667801,41.0626886 C195.427801,40.9246886 195.122801,41.0066886 194.984801,41.2456886 C194.846801,41.4856886 194.927801,41.7906886 195.167801,41.9286886 L205.591801,47.9476886 C205.830801,48.0856886 206.136801,48.0036886 206.274801,47.7646886 C206.412801,47.5256886 206.330801,47.2196886 206.091801,47.0816886" id="Fill-33" fill="#AD2824" mask="url(#mask-4)"></path>
            <path d="M213.179801,42.9886886 L205.911801,38.7926886 C205.672801,38.6546886 205.366801,38.7366886 205.228801,38.9756886 C205.090801,39.2146886 205.172801,39.5206886 205.411801,39.6586886 L212.679801,43.8546886 C212.918801,43.9926886 213.224801,43.9106886 213.362801,43.6716886 C213.500801,43.4326886 213.418801,43.1266886 213.179801,42.9886886" id="Fill-34" fill="#AD2824" mask="url(#mask-4)"></path>
            <path d="M220.268801,38.8956886 L209.843801,32.8776886 C209.604801,32.7396886 209.298801,32.8216886 209.160801,33.0606886 C209.022801,33.2996886 209.104801,33.6056886 209.343801,33.7436886 L219.768801,39.7626886 C220.007801,39.9006886 220.313801,39.8186886 220.451801,39.5786886 C220.589801,39.3396886 220.507801,39.0346886 220.268801,38.8956886" id="Fill-35" fill="#AD2824" mask="url(#mask-4)"></path>
            <path d="M227.356801,34.8046886 L220.088801,30.6076886 C219.848801,30.4696886 219.543801,30.5516886 219.404801,30.7906886 C219.266801,31.0306886 219.348801,31.3356886 219.587801,31.4736886 L226.856801,35.6706886 C227.095801,35.8086886 227.401801,35.7266886 227.539801,35.4876886 C227.677801,35.2486886 227.595801,34.9426886 227.356801,34.8046886" id="Fill-36" fill="#AD2824" mask="url(#mask-4)"></path>
            <path d="M234.444801,30.7116886 L224.020801,24.6926886 C223.780801,24.5546886 223.475801,24.6366886 223.337801,24.8756886 C223.199801,25.1156886 223.280801,25.4206886 223.520801,25.5586886 L233.944801,31.5776886 C234.184801,31.7156886 234.489801,31.6336886 234.627801,31.3946886 C234.766801,31.1556886 234.684801,30.8496886 234.444801,30.7116886" id="Fill-37" fill="#AD2824" mask="url(#mask-4)"></path>
            <path d="M241.532801,26.6196886 L234.264801,22.4226886 C234.025801,22.2846886 233.719801,22.3666886 233.581801,22.6056886 C233.443801,22.8446886 233.525801,23.1506886 233.764801,23.2886886 L241.032801,27.4856886 C241.271801,27.6236886 241.577801,27.5416886 241.715801,27.3026886 C241.853801,27.0636886 241.771801,26.7576886 241.532801,26.6196886" id="Fill-38" fill="#AD2824" mask="url(#mask-4)"></path>
            <path d="M248.620801,22.5266886 L238.196801,16.5086886 C237.957801,16.3706886 237.651801,16.4526886 237.513801,16.6916886 C237.375801,16.9306886 237.457801,17.2366886 237.696801,17.3746886 L248.120801,23.3926886 C248.359801,23.5306886 248.665801,23.4486886 248.803801,23.2096886 C248.941801,22.9706886 248.859801,22.6646886 248.620801,22.5266886" id="Fill-39" fill="#AD2824" mask="url(#mask-4)"></path>
            <path d="M255.709801,18.4346886 L248.441801,14.2376886 C248.201801,14.0996886 247.896801,14.1816886 247.758801,14.4206886 C247.619801,14.6596886 247.701801,14.9656886 247.941801,15.1036886 L255.209801,19.3006886 C255.448801,19.4386886 255.754801,19.3566886 255.892801,19.1176886 C256.030801,18.8776886 255.948801,18.5726886 255.709801,18.4346886" id="Fill-40" fill="#AD2824" mask="url(#mask-4)"></path>
            <path d="M262.797801,14.3426886 L252.373801,8.32368858 C252.134801,8.18568858 251.828801,8.26768858 251.690801,8.50668858 C251.552801,8.74568858 251.634801,9.05168858 251.873801,9.18968858 L262.297801,15.2086886 C262.536801,15.3466886 262.842801,15.2646886 262.980801,15.0256886 C263.118801,14.7866886 263.036801,14.4806886 262.797801,14.3426886" id="Fill-41" fill="#AD2824" mask="url(#mask-4)"></path>
            <path d="M269.885801,10.2496886 L262.617801,6.05368858 C262.378801,5.91568858 262.072801,5.99768858 261.934801,6.23668858 C261.796801,6.47568858 261.878801,6.78168858 262.117801,6.91968858 L269.385801,11.1156886 C269.624801,11.2536886 269.930801,11.1716886 270.068801,10.9326886 C270.206801,10.6936886 270.124801,10.3876886 269.885801,10.2496886" id="Fill-42" fill="#AD2824" mask="url(#mask-4)"></path>
            <path d="M128.120801,92.0986886 L120.852801,87.9006886 C120.613801,87.7626886 120.307801,87.8446886 120.169801,88.0836886 C120.031801,88.3226886 120.112801,88.6286886 120.352801,88.7666886 L127.620801,92.9646886 C127.859801,93.1026886 128.165801,93.0206886 128.303801,92.7816886 C128.441801,92.5426886 128.359801,92.2366886 128.120801,92.0986886" id="Fill-43" fill="#AD2824" mask="url(#mask-4)"></path>
        </g>
        <g id="Group-49" transform="translate(25.247000, 0.864058)">
            <path d="M137.972,7.40594179 L124.571,0.433941789 C123.364,-0.231058211 121.807,-0.156058211 120.102,0.827941789 L6.923,66.1719418 C3.1,68.3799418 0,74.3019418 0,79.4009418 L0,255.215942 C0,258.742942 1.483,260.947942 3.664,261.244942 L15.349,267.472942 L29.59,251.313942 L31.952,246.000942 L120.102,195.106942 C123.926,192.898942 127.026,186.975942 127.026,181.877942 L127.026,32.0399418 L137.972,7.40594179" id="Fill-45" fill="#5C5C5C"></path>
            <line x1="137.972" y1="7.40594179" x2="137.972" y2="7.40594179" id="Fill-47" fill="#6E6E6E"></line>
            <path d="M20.325,73.1439418 L133.504,7.79994179 C135.145,6.85294179 136.649,6.74894179 137.836,7.33494179 L124.571,0.433941789 C123.364,-0.231058211 121.807,-0.156058211 120.102,0.827941789 L6.923,66.1719418 C4.935,67.3199418 3.147,69.4749418 1.885,71.9939418 L14.679,80.3039418 C15.934,77.2219418 17.992,74.4899418 20.325,73.1439418" id="Fill-48" fill="#6E6E6E"></path>
        </g>
        <path d="M158.751,202.943 L45.572,268.287 C41.748,270.495 38.648,268.151 38.648,263.052 L38.648,87.237 C38.648,82.139 41.748,76.216 45.572,74.008 L158.751,8.664 C162.575,6.456 165.675,8.8 165.675,13.898 L165.675,189.714 C165.675,194.812 162.575,200.735 158.751,202.943" id="Fill-50" fill="#999999"></path>
        <path d="M153.64,47.43 L50.683,106.872 C48.039,108.399 45.876,106.764 45.876,103.239 L45.876,90.805 C45.876,87.28 48.039,83.148 50.683,81.622 L153.64,22.179 C156.283,20.653 158.446,22.288 158.446,25.812 L158.446,38.247 C158.446,41.771 156.283,45.904 153.64,47.43" id="Fill-51" fill="#FFFFFF"></path>
        <path d="M153.64,22.179 L152.494,22.841 C152.53,23.133 152.554,23.437 152.554,23.763 L152.554,36.198 C152.554,39.722 150.391,43.854 147.748,45.381 L45.936,104.162 C46.287,107.033 48.284,108.258 50.683,106.872 L153.64,47.43 C156.283,45.904 158.446,41.771 158.446,38.247 L158.446,25.812 C158.446,22.288 156.283,20.653 153.64,22.179" id="Fill-52" fill="#D1D1D1"></path>
        <path d="M63.696,113.789 L49.479,121.996 C47.498,123.141 45.876,125.949 45.876,128.237 L45.876,144.652 C45.876,146.94 47.498,147.876 49.479,146.732 L63.696,138.524 C65.677,137.381 67.298,134.573 67.298,132.285 L67.298,115.869 C67.298,113.581 65.677,112.645 63.696,113.789" id="Fill-53" fill="#6E6E6E"></path>
        <path d="M94.078,96.247 L79.862,104.455 C77.88,105.599 76.259,108.407 76.259,110.695 L76.259,127.111 C76.259,129.399 77.88,130.335 79.862,129.191 L94.078,120.983 C96.059,119.839 97.681,117.031 97.681,114.743 L97.681,98.328 C97.681,96.039 96.059,95.103 94.078,96.247" id="Fill-54" fill="#6E6E6E"></path>
        <path d="M124.461,78.706 L110.245,86.914 C108.263,88.057 106.642,90.866 106.642,93.154 L106.642,109.569 C106.642,111.857 108.263,112.793 110.245,111.649 L124.461,103.442 C126.442,102.298 128.063,99.49 128.063,97.202 L128.063,80.786 C128.063,78.498 126.442,77.562 124.461,78.706" id="Fill-55" fill="#6E6E6E"></path>
        <path d="M154.843,61.164 L140.627,69.372 C138.646,70.517 137.024,73.324 137.024,75.612 L137.024,92.028 C137.024,94.316 138.646,95.252 140.627,94.108 L154.843,85.9 C156.825,84.756 158.446,81.948 158.446,79.66 L158.446,63.245 C158.446,60.956 156.825,60.02 154.843,61.164" id="Fill-56" fill="#6E6E6E"></path>
        <path d="M63.696,150.696 L49.479,158.903 C47.498,160.047 45.876,162.855 45.876,165.143 L45.876,181.559 C45.876,183.847 47.498,184.783 49.479,183.639 L63.696,175.432 C65.677,174.288 67.298,171.479 67.298,169.191 L67.298,152.776 C67.298,150.488 65.677,149.552 63.696,150.696" id="Fill-57" fill="#6E6E6E"></path>
        <path d="M94.078,133.154 L79.862,141.362 C77.88,142.506 76.259,145.314 76.259,147.602 L76.259,164.017 C76.259,166.306 77.88,167.242 79.862,166.098 L94.078,157.89 C96.059,156.746 97.681,153.938 97.681,151.65 L97.681,135.234 C97.681,132.946 96.059,132.01 94.078,133.154" id="Fill-58" fill="#6E6E6E"></path>
        <path d="M124.461,115.613 L110.245,123.821 C108.263,124.965 106.642,127.773 106.642,130.061 L106.642,146.476 C106.642,148.765 108.263,149.7 110.245,148.557 L124.461,140.349 C126.442,139.204 128.063,136.396 128.063,134.108 L128.063,117.693 C128.063,115.405 126.442,114.469 124.461,115.613" id="Fill-59" fill="#6E6E6E"></path>
        <path d="M154.843,98.072 L140.627,106.279 C138.646,107.423 137.024,110.231 137.024,112.519 L137.024,128.935 C137.024,131.223 138.646,132.159 140.627,131.015 L154.843,122.807 C156.825,121.663 158.446,118.855 158.446,116.567 L158.446,100.152 C158.446,97.864 156.825,96.928 154.843,98.072" id="Fill-60" fill="#6E6E6E"></path>
        <path d="M63.696,187.602 L49.479,195.81 C47.498,196.954 45.876,199.763 45.876,202.051 L45.876,218.466 C45.876,220.754 47.498,221.69 49.479,220.546 L63.696,212.338 C65.677,211.194 67.298,208.386 67.298,206.098 L67.298,189.683 C67.298,187.394 65.677,186.458 63.696,187.602" id="Fill-61" fill="#6E6E6E"></path>
        <path d="M94.078,170.061 L79.862,178.269 C77.88,179.413 76.259,182.221 76.259,184.509 L76.259,200.925 C76.259,203.213 77.88,204.149 79.862,203.005 L94.078,194.797 C96.059,193.653 97.681,190.845 97.681,188.557 L97.681,172.141 C97.681,169.853 96.059,168.917 94.078,170.061" id="Fill-62" fill="#6E6E6E"></path>
        <path d="M124.461,152.52 L110.245,160.727 C108.263,161.871 106.642,164.68 106.642,166.968 L106.642,183.383 C106.642,185.671 108.263,186.607 110.245,185.463 L124.461,177.256 C126.442,176.111 128.063,173.304 128.063,171.016 L128.063,154.6 C128.063,152.312 126.442,151.376 124.461,152.52" id="Fill-63" fill="#6E6E6E"></path>
        <path d="M63.696,224.51 L49.479,232.717 C47.498,233.862 45.876,236.669 45.876,238.957 L45.876,255.372 C45.876,257.661 47.498,258.597 49.479,257.453 L63.696,249.246 C65.677,248.101 67.298,245.293 67.298,243.005 L67.298,226.589 C67.298,224.302 65.677,223.366 63.696,224.51" id="Fill-64" fill="#6E6E6E"></path>
        <path d="M94.078,206.968 L79.862,215.176 C77.88,216.32 76.259,219.128 76.259,221.416 L76.259,237.831 C76.259,240.12 77.88,241.055 79.862,239.912 L94.078,231.704 C96.059,230.56 97.681,227.751 97.681,225.464 L97.681,209.048 C97.681,206.76 96.059,205.824 94.078,206.968" id="Fill-65" fill="#6E6E6E"></path>
        <path d="M124.461,189.427 L110.245,197.634 C108.263,198.778 106.642,201.586 106.642,203.874 L106.642,220.29 C106.642,222.578 108.263,223.514 110.245,222.37 L124.461,214.163 C126.442,213.018 128.063,210.21 128.063,207.922 L128.063,191.507 C128.063,189.219 126.442,188.283 124.461,189.427" id="Fill-66" fill="#6E6E6E"></path>
        <path d="M154.843,171.885 L140.627,180.093 C138.646,181.237 137.024,184.045 137.024,186.333 L137.024,202.748 C137.024,205.037 138.646,205.973 140.627,204.829 L154.843,196.621 C156.825,195.477 158.446,192.669 158.446,190.381 L158.446,173.965 C158.446,171.677 156.825,170.741 154.843,171.885" id="Fill-67" fill="#6E6E6E"></path>
        <path d="M70.953,112.327 L70.739,112.149 L70.526,111.97 L70.312,111.792 L70.1,111.613 L69.886,111.434 L69.673,111.256 L69.459,111.078 L69.246,110.899 L69.033,110.721 L68.819,110.542 L68.606,110.364 L68.393,110.185 L67.966,109.829 L67.752,109.65 L67.539,109.472 L67.326,109.293 L67.112,109.115 L66.686,108.757 C66.037,108.019 64.937,107.918 63.696,108.636 L49.479,116.843 C47.498,117.987 45.876,120.795 45.876,123.083 L45.876,139.499 C45.876,140.493 46.195,141.211 46.703,141.636 L46.916,141.814 L47.129,141.993 L47.343,142.171 L47.556,142.35 L47.983,142.706 L48.196,142.885 L48.41,143.063 L48.623,143.242 L48.836,143.42 L49.05,143.599 L49.263,143.777 L49.476,143.956 L49.69,144.134 L49.903,144.313 L50.117,144.491 L50.33,144.669 L50.543,144.848 L50.756,145.027 L50.97,145.205 C51.618,145.943 52.718,146.044 53.96,145.327 L68.176,137.12 C70.158,135.975 71.779,133.167 71.779,130.879 L71.779,114.464 C71.779,113.47 71.461,112.751 70.953,112.327" id="Fill-68" fill="#D1D1D1"></path>
        <path d="M101.335,94.786 L101.122,94.607 L100.909,94.429 L100.695,94.25 L100.482,94.072 L100.268,93.893 L100.055,93.715 L99.842,93.536 L99.628,93.358 L99.415,93.18 L99.202,93.001 L98.988,92.823 L98.562,92.465 L98.349,92.287 L97.921,91.93 L97.708,91.752 L97.282,91.394 L97.068,91.216 C96.42,90.478 95.32,90.377 94.078,91.094 L79.862,99.302 C77.88,100.446 76.259,103.254 76.259,105.542 L76.259,121.957 C76.259,122.951 76.578,123.67 77.085,124.094 L77.299,124.272 L77.512,124.451 L77.725,124.629 L77.939,124.808 L78.152,124.986 L78.366,125.165 L78.579,125.343 L78.792,125.522 L79.219,125.879 L79.432,126.057 L79.646,126.236 L79.859,126.414 L80.072,126.593 L80.286,126.771 L80.499,126.95 L80.712,127.128 L80.926,127.307 L81.352,127.663 C82.001,128.402 83.101,128.503 84.342,127.786 L98.559,119.578 C100.54,118.434 102.162,115.626 102.162,113.338 L102.162,96.922 C102.162,95.929 101.843,95.21 101.335,94.786" id="Fill-69" fill="#D1D1D1"></path>
        <path d="M131.718,77.245 L131.505,77.066 L131.291,76.887 L130.865,76.531 L130.651,76.352 L130.438,76.174 L130.225,75.995 L130.011,75.816 L129.798,75.638 L129.584,75.459 L129.371,75.281 L129.158,75.103 L128.944,74.924 L128.518,74.567 L128.304,74.389 L128.091,74.21 L127.877,74.032 L127.664,73.853 L127.451,73.675 C126.802,72.937 125.703,72.836 124.461,73.553 L110.245,81.761 C108.263,82.904 106.642,85.712 106.642,88 L106.642,104.416 C106.642,105.41 106.96,106.128 107.468,106.553 L107.681,106.731 L107.895,106.91 L108.108,107.088 L108.321,107.267 L108.535,107.445 L108.748,107.623 L108.961,107.802 L109.175,107.98 L109.388,108.159 L109.602,108.337 L109.815,108.516 L110.028,108.694 L110.242,108.873 L110.455,109.051 L110.668,109.23 L110.882,109.408 L111.309,109.766 L111.521,109.944 L111.735,110.122 C112.383,110.86 113.483,110.961 114.725,110.245 L128.941,102.037 C130.923,100.892 132.544,98.084 132.544,95.796 L132.544,79.381 C132.544,78.388 132.226,77.668 131.718,77.245" id="Fill-70" fill="#D1D1D1"></path>
        <path d="M162.101,59.703 L161.887,59.524 L161.674,59.346 L161.46,59.167 L161.247,58.989 L161.034,58.81 L160.821,58.632 L160.607,58.453 L160.394,58.275 L160.181,58.097 L159.967,57.918 L159.754,57.74 L159.541,57.561 L159.327,57.383 L159.114,57.204 L158.9,57.026 L158.687,56.847 L158.474,56.669 L158.26,56.49 L158.047,56.312 L157.833,56.133 C157.185,55.395 156.085,55.294 154.843,56.011 L140.627,64.219 C138.646,65.363 137.024,68.171 137.024,70.459 L137.024,86.874 C137.024,87.868 137.343,88.587 137.851,89.011 L138.064,89.19 L138.277,89.368 L138.491,89.546 L138.917,89.904 L139.131,90.082 L139.344,90.261 L139.558,90.439 L139.984,90.796 L140.197,90.974 L140.411,91.153 L140.624,91.331 L140.837,91.51 L141.051,91.688 L141.264,91.867 L141.478,92.045 L141.691,92.224 L141.904,92.402 L142.118,92.581 C142.766,93.319 143.866,93.42 145.108,92.703 L159.324,84.495 C161.306,83.351 162.927,80.543 162.927,78.255 L162.927,61.839 C162.927,60.846 162.608,60.127 162.101,59.703" id="Fill-71" fill="#D1D1D1"></path>
        <path d="M70.953,149.234 L70.739,149.056 L70.526,148.877 L70.312,148.699 L70.1,148.52 L69.886,148.342 L69.673,148.163 L69.459,147.985 L69.246,147.806 L69.033,147.628 L68.819,147.449 L68.606,147.271 L68.393,147.092 L68.179,146.914 L67.966,146.735 L67.752,146.557 L67.539,146.378 L67.326,146.2 L67.112,146.021 L66.899,145.843 L66.686,145.664 C66.037,144.927 64.937,144.826 63.696,145.542 L49.479,153.75 C47.498,154.894 45.876,157.702 45.876,159.99 L45.876,176.406 C45.876,177.399 46.195,178.119 46.703,178.542 L46.916,178.721 L47.129,178.899 L47.343,179.078 L47.556,179.256 L47.77,179.435 L48.196,179.791 L48.41,179.97 L48.623,180.148 L49.05,180.506 L49.263,180.684 L49.476,180.863 L49.69,181.041 L49.903,181.22 L50.117,181.398 L50.33,181.577 L50.543,181.755 L50.756,181.934 L50.97,182.112 C51.618,182.85 52.718,182.951 53.96,182.234 L68.176,174.026 C70.158,172.882 71.779,170.074 71.779,167.786 L71.779,151.371 C71.779,150.377 71.461,149.658 70.953,149.234" id="Fill-72" fill="#2A3F63"></path>
        <path d="M101.335,131.693 L101.122,131.514 L100.909,131.336 L100.695,131.157 L100.482,130.979 L100.268,130.8 L100.055,130.622 L99.842,130.443 L99.628,130.265 L99.415,130.086 L99.202,129.908 L98.988,129.729 L98.775,129.551 L98.562,129.372 L98.349,129.194 L98.135,129.016 L97.921,128.837 L97.708,128.659 L97.495,128.48 L97.282,128.302 L97.068,128.123 C96.42,127.385 95.32,127.284 94.078,128.001 L79.862,136.209 C77.88,137.353 76.259,140.161 76.259,142.449 L76.259,158.865 C76.259,159.858 76.578,160.577 77.085,161.001 L77.299,161.179 L77.512,161.358 L77.726,161.536 L77.939,161.715 L78.152,161.893 L78.366,162.072 L78.579,162.25 L78.792,162.429 L79.005,162.607 L79.219,162.786 L79.432,162.964 L79.646,163.142 L79.859,163.321 L80.072,163.499 L80.499,163.857 L80.712,164.035 L80.926,164.214 L81.139,164.392 L81.352,164.571 C82.001,165.309 83.101,165.41 84.342,164.693 L98.559,156.485 C100.54,155.341 102.162,152.533 102.162,150.245 L102.162,133.829 C102.162,132.836 101.843,132.117 101.335,131.693" id="Fill-73" fill="#2A3F63"></path>
        <path d="M131.718,114.151 L131.504,113.973 L131.291,113.794 L131.078,113.616 L130.865,113.437 L130.651,113.259 L130.438,113.08 L130.225,112.902 L130.011,112.724 L129.798,112.545 L129.584,112.366 L129.371,112.188 L129.158,112.009 L128.944,111.831 L128.731,111.653 L128.518,111.474 L128.304,111.295 L128.091,111.117 L127.877,110.938 L127.664,110.76 L127.451,110.581 C126.802,109.844 125.703,109.743 124.461,110.459 L110.245,118.667 C108.263,119.811 106.642,122.62 106.642,124.908 L106.642,141.323 C106.642,142.316 106.96,143.036 107.468,143.459 L107.681,143.638 L107.895,143.816 L108.108,143.995 L108.321,144.174 L108.535,144.352 L108.748,144.53 L109.175,144.888 L109.388,145.066 L109.602,145.245 L110.028,145.601 L110.242,145.78 L110.455,145.958 L110.668,146.137 L110.882,146.315 L111.095,146.494 L111.309,146.672 L111.521,146.85 L111.735,147.029 C112.383,147.767 113.483,147.868 114.725,147.151 L128.941,138.943 C130.923,137.799 132.544,134.991 132.544,132.703 L132.544,116.288 C132.544,115.294 132.226,114.575 131.718,114.151" id="Fill-74" fill="#2A3F63"></path>
        <path d="M162.101,96.61 L161.887,96.432 L161.674,96.253 L161.46,96.075 L161.034,95.717 L160.821,95.539 L160.607,95.36 L160.394,95.182 L160.181,95.003 L159.967,94.825 L159.754,94.646 L159.541,94.468 L159.327,94.289 L159.114,94.111 L158.9,93.932 L158.687,93.754 L158.474,93.576 L158.26,93.397 L158.047,93.219 L157.833,93.04 C157.185,92.302 156.085,92.201 154.843,92.918 L140.627,101.126 C138.646,102.27 137.024,105.078 137.024,107.366 L137.024,123.782 C137.024,124.775 137.343,125.494 137.851,125.918 L138.064,126.097 L138.704,126.632 L138.917,126.81 L139.131,126.989 L139.344,127.167 L139.558,127.346 L139.771,127.524 L139.984,127.703 L140.198,127.881 L140.624,128.239 L140.837,128.417 L141.051,128.595 L141.264,128.774 L141.478,128.952 L141.691,129.131 L141.904,129.309 L142.118,129.488 C142.766,130.225 143.866,130.327 145.108,129.61 L159.324,121.402 C161.306,120.258 162.927,117.45 162.927,115.162 L162.927,98.747 C162.927,97.753 162.608,97.034 162.101,96.61" id="Fill-75" fill="#2A3F63"></path>
        <path d="M70.953,186.141 L70.739,185.962 L70.526,185.784 L70.312,185.605 L70.1,185.427 L69.886,185.248 L69.673,185.07 L69.459,184.892 L69.246,184.713 L69.033,184.535 L68.819,184.356 L68.606,184.178 L68.393,183.999 L68.179,183.821 L67.966,183.642 L67.752,183.464 L67.539,183.285 L67.326,183.107 L67.112,182.928 L66.899,182.75 L66.686,182.571 C66.037,181.833 64.937,181.732 63.696,182.449 L49.479,190.657 C47.498,191.801 45.876,194.609 45.876,196.897 L45.876,213.313 C45.876,214.306 46.195,215.025 46.703,215.449 L46.916,215.628 L47.129,215.806 L47.343,215.985 L47.556,216.163 L47.77,216.342 L47.983,216.52 L48.196,216.699 L48.41,216.877 L48.623,217.056 L48.836,217.234 L49.05,217.413 L49.263,217.591 L49.476,217.769 L49.69,217.948 L49.903,218.126 L50.117,218.305 L50.33,218.483 L50.543,218.662 L50.756,218.84 L50.97,219.019 C51.618,219.757 52.718,219.858 53.96,219.141 L68.176,210.933 C70.158,209.789 71.779,206.981 71.779,204.693 L71.779,188.278 C71.779,187.284 71.461,186.565 70.953,186.141" id="Fill-76" fill="#2A3F63"></path>
        <path d="M101.335,168.6 L101.122,168.421 L100.909,168.243 L100.695,168.064 L100.482,167.886 L100.268,167.707 L100.055,167.529 L99.842,167.35 L99.628,167.172 L99.415,166.993 L99.202,166.815 L98.988,166.636 L98.775,166.458 L98.562,166.279 L98.349,166.101 L98.135,165.922 L97.921,165.744 L97.708,165.565 L97.495,165.387 L97.282,165.208 L97.068,165.03 C96.42,164.292 95.32,164.191 94.078,164.908 L79.862,173.116 C77.88,174.26 76.259,177.068 76.259,179.356 L76.259,195.771 C76.259,196.765 76.578,197.484 77.085,197.908 L77.299,198.086 L77.512,198.265 L77.725,198.443 L77.939,198.622 L78.366,198.978 L78.792,199.336 L79.005,199.514 L79.219,199.693 L79.432,199.871 L79.646,200.05 L79.859,200.228 L80.072,200.407 L80.286,200.585 L80.499,200.764 L80.712,200.942 L80.926,201.121 L81.139,201.299 L81.352,201.477 C82.001,202.215 83.101,202.316 84.342,201.6 L98.559,193.392 C100.54,192.248 102.162,189.44 102.162,187.152 L102.162,170.736 C102.162,169.743 101.843,169.024 101.335,168.6" id="Fill-77" fill="#2A3F63"></path>
        <path d="M131.718,151.058 L131.505,150.88 L131.291,150.701 L131.078,150.523 L130.865,150.344 L130.651,150.165 L130.225,149.809 L130.011,149.63 L129.798,149.452 L129.584,149.273 L129.371,149.095 L129.158,148.916 L128.944,148.738 L128.731,148.559 L128.518,148.381 L128.304,148.203 L128.091,148.024 L127.877,147.845 L127.451,147.489 C126.802,146.75 125.703,146.649 124.461,147.367 L110.245,155.574 C108.263,156.718 106.642,159.526 106.642,161.814 L106.642,178.23 C106.642,179.224 106.96,179.942 107.468,180.367 L107.681,180.545 L107.895,180.724 L108.108,180.902 L108.321,181.08 L108.535,181.259 L108.748,181.437 L108.961,181.616 L109.175,181.794 L109.388,181.973 L109.602,182.151 L109.815,182.329 L110.242,182.687 L110.455,182.865 L110.668,183.044 L111.095,183.4 L111.309,183.579 L111.521,183.757 L111.735,183.936 C112.383,184.674 113.483,184.775 114.725,184.058 L128.941,175.85 C130.923,174.706 132.544,171.898 132.544,169.61 L132.544,153.195 C132.544,152.201 132.226,151.482 131.718,151.058" id="Fill-78" fill="#2A3F63"></path>
        <path d="M70.953,223.048 L70.739,222.87 L70.526,222.691 L70.312,222.513 L70.1,222.334 L69.886,222.155 L69.673,221.977 L69.459,221.798 L69.246,221.62 L69.033,221.441 L68.606,221.085 L68.393,220.906 L68.179,220.727 L67.752,220.371 L67.539,220.192 L67.326,220.014 L67.112,219.835 L66.899,219.657 L66.686,219.478 C66.037,218.74 64.937,218.639 63.696,219.356 L49.479,227.564 C47.498,228.708 45.876,231.516 45.876,233.804 L45.876,250.22 C45.876,251.213 46.195,251.932 46.703,252.356 L46.916,252.535 L47.343,252.891 L47.556,253.07 L47.77,253.248 L48.196,253.606 L48.623,253.962 L49.05,254.32 L49.263,254.497 L49.476,254.676 L49.903,255.034 L50.117,255.211 L50.33,255.39 L50.543,255.569 L50.756,255.747 L50.97,255.925 C51.618,256.663 52.718,256.765 53.96,256.047 L68.176,247.84 C70.158,246.696 71.779,243.888 71.779,241.6 L71.779,225.184 C71.779,224.191 71.461,223.472 70.953,223.048" id="Fill-79" fill="#2A3F63"></path>
        <path d="M101.335,205.506 L101.122,205.328 L100.909,205.149 L100.695,204.971 L100.482,204.792 L100.268,204.614 L100.055,204.435 L99.628,204.079 L99.415,203.9 L99.202,203.722 L98.988,203.543 L98.775,203.365 L98.562,203.186 L98.349,203.008 L98.135,202.829 L97.921,202.651 L97.708,202.473 L97.282,202.115 L97.068,201.937 C96.42,201.199 95.32,201.098 94.078,201.815 L79.862,210.022 C77.88,211.166 76.259,213.975 76.259,216.263 L76.259,232.678 C76.259,233.671 76.578,234.391 77.085,234.815 L77.299,234.994 L77.512,235.171 L77.726,235.35 L77.939,235.529 L78.366,235.885 L78.792,236.243 L79.219,236.6 L79.432,236.778 L79.646,236.956 L79.859,237.135 L80.072,237.313 L80.286,237.492 L80.499,237.67 L80.926,238.028 L81.139,238.205 L81.352,238.384 C82.001,239.122 83.101,239.223 84.342,238.506 L98.559,230.298 C100.54,229.155 102.162,226.346 102.162,224.059 L102.162,207.643 C102.162,206.649 101.843,205.931 101.335,205.506" id="Fill-80" fill="#2A3F63"></path>
        <path d="M131.718,187.965 L131.504,187.787 L131.291,187.608 L131.078,187.43 L130.865,187.251 L130.651,187.073 L130.438,186.894 L130.225,186.716 L130.011,186.537 L129.798,186.359 L129.584,186.18 L129.371,186.002 L129.158,185.823 L128.944,185.645 L128.731,185.466 L128.518,185.288 L128.304,185.109 L128.091,184.931 L127.877,184.752 L127.664,184.574 L127.451,184.395 C126.802,183.658 125.703,183.557 124.461,184.273 L110.245,192.481 C108.263,193.625 106.642,196.433 106.642,198.721 L106.642,215.137 C106.642,216.13 106.96,216.849 107.468,217.273 L107.681,217.452 L107.895,217.63 L108.108,217.809 L108.321,217.987 L108.535,218.166 L108.748,218.344 L108.961,218.523 L109.388,218.879 L109.602,219.058 L109.815,219.236 L110.242,219.594 L110.455,219.772 L110.668,219.951 L110.882,220.129 L111.095,220.308 L111.309,220.486 L111.521,220.664 L111.735,220.843 C112.383,221.581 113.483,221.682 114.725,220.965 L128.941,212.757 C130.923,211.613 132.544,208.805 132.544,206.517 L132.544,190.101 C132.544,189.108 132.226,188.389 131.718,187.965" id="Fill-81" fill="#2A3F63"></path>
        <path d="M162.101,134.051 L161.887,133.872 L161.674,133.694 L161.46,133.516 L161.247,133.337 L161.034,133.159 L160.821,132.98 L160.607,132.802 L160.394,132.623 L160.181,132.445 L159.967,132.266 L159.754,132.088 L159.541,131.909 L159.327,131.731 L159.114,131.553 L158.9,131.374 L158.687,131.195 L158.474,131.017 L158.26,130.838 L158.047,130.66 L157.833,130.481 C157.185,129.744 156.085,129.642 154.843,130.359 L140.627,138.567 C138.646,139.711 137.024,142.519 137.024,144.808 L137.024,197.595 C137.024,198.589 137.343,199.308 137.851,199.732 L138.064,199.911 L138.277,200.089 L138.491,200.267 L138.704,200.446 L138.917,200.624 L139.131,200.803 L139.344,200.981 L139.558,201.16 L139.771,201.338 L139.984,201.517 L140.197,201.695 L140.411,201.873 L140.624,202.052 L140.837,202.23 L141.051,202.409 L141.264,202.587 L141.478,202.766 L141.691,202.945 L141.904,203.123 L142.118,203.302 C142.766,204.039 143.866,204.141 145.108,203.424 L159.324,195.216 C161.306,194.072 162.927,191.264 162.927,188.975 L162.927,136.187 C162.927,135.194 162.608,134.475 162.101,134.051" id="Fill-82" fill="#AD2824"></path>
        <path d="M68.176,112.384 L53.96,120.591 C51.979,121.735 50.357,124.543 50.357,126.831 L50.357,143.247 C50.357,145.535 51.979,146.471 53.96,145.327 L68.176,137.12 C70.158,135.975 71.779,133.167 71.779,130.879 L71.779,114.464 C71.779,112.176 70.158,111.24 68.176,112.384" id="Fill-83" fill="#FFFFFF"></path>
        <path d="M98.559,94.842 L84.342,103.05 C82.361,104.194 80.74,107.002 80.74,109.29 L80.74,125.705 C80.74,127.994 82.361,128.93 84.342,127.786 L98.559,119.578 C100.54,118.434 102.162,115.626 102.162,113.338 L102.162,96.922 C102.162,94.634 100.54,93.698 98.559,94.842" id="Fill-84" fill="#FFFFFF"></path>
        <path d="M128.941,77.301 L114.725,85.509 C112.744,86.653 111.122,89.46 111.122,91.749 L111.122,108.164 C111.122,110.452 112.744,111.389 114.725,110.244 L128.941,102.037 C130.923,100.892 132.544,98.084 132.544,95.796 L132.544,79.381 C132.544,77.093 130.923,76.157 128.941,77.301" id="Fill-85" fill="#FFFFFF"></path>
        <path d="M159.324,59.759 L145.108,67.967 C143.126,69.111 141.505,71.919 141.505,74.207 L141.505,90.623 C141.505,92.911 143.126,93.847 145.108,92.703 L159.324,84.495 C161.306,83.351 162.927,80.543 162.927,78.255 L162.927,61.839 C162.927,59.551 161.306,58.615 159.324,59.759" id="Fill-86" fill="#FFFFFF"></path>
        <path d="M68.176,149.29 L53.96,157.498 C51.979,158.642 50.357,161.45 50.357,163.739 L50.357,180.154 C50.357,182.442 51.979,183.378 53.96,182.234 L68.176,174.026 C70.158,172.882 71.779,170.074 71.779,167.786 L71.779,151.371 C71.779,149.082 70.158,148.146 68.176,149.29" id="Fill-87" fill="#39588A"></path>
        <path d="M98.559,131.749 L84.342,139.957 C82.361,141.101 80.74,143.909 80.74,146.197 L80.74,162.613 C80.74,164.9 82.361,165.836 84.342,164.693 L98.559,156.485 C100.54,155.341 102.162,152.533 102.162,150.245 L102.162,133.829 C102.162,131.541 100.54,130.605 98.559,131.749" id="Fill-88" fill="#39588A"></path>
        <path d="M128.941,114.207 L114.725,122.415 C112.744,123.559 111.122,126.368 111.122,128.656 L111.122,145.071 C111.122,147.359 112.744,148.295 114.725,147.151 L128.941,138.943 C130.923,137.799 132.544,134.991 132.544,132.703 L132.544,116.288 C132.544,113.999 130.923,113.064 128.941,114.207" id="Fill-89" fill="#39588A"></path>
        <path d="M159.324,96.666 L145.108,104.874 C143.126,106.018 141.505,108.826 141.505,111.114 L141.505,127.53 C141.505,129.818 143.126,130.754 145.108,129.61 L159.324,121.402 C161.306,120.258 162.927,117.45 162.927,115.162 L162.927,98.747 C162.927,96.458 161.306,95.522 159.324,96.666" id="Fill-90" fill="#39588A"></path>
        <path d="M68.176,186.198 L53.96,194.405 C51.979,195.549 50.357,198.357 50.357,200.645 L50.357,217.061 C50.357,219.349 51.979,220.285 53.96,219.141 L68.176,210.933 C70.158,209.789 71.779,206.981 71.779,204.693 L71.779,188.277 C71.779,185.99 70.158,185.053 68.176,186.198" id="Fill-91" fill="#39588A"></path>
        <path d="M98.559,168.656 L84.342,176.864 C82.361,178.008 80.74,180.816 80.74,183.104 L80.74,199.519 C80.74,201.808 82.361,202.744 84.342,201.6 L98.559,193.392 C100.54,192.248 102.162,189.44 102.162,187.152 L102.162,170.736 C102.162,168.448 100.54,167.512 98.559,168.656" id="Fill-92" fill="#39588A"></path>
        <path d="M128.941,151.115 L114.725,159.322 C112.744,160.466 111.122,163.274 111.122,165.562 L111.122,181.978 C111.122,184.266 112.744,185.202 114.725,184.058 L128.941,175.85 C130.923,174.706 132.544,171.898 132.544,169.61 L132.544,153.195 C132.544,150.907 130.923,149.971 128.941,151.115" id="Fill-93" fill="#39588A"></path>
        <path d="M68.176,223.104 L53.96,231.312 C51.979,232.456 50.357,235.264 50.357,237.552 L50.357,253.968 C50.357,256.256 51.979,257.192 53.96,256.047 L68.176,247.84 C70.158,246.696 71.779,243.888 71.779,241.6 L71.779,225.184 C71.779,222.896 70.158,221.96 68.176,223.104" id="Fill-94" fill="#39588A"></path>
        <path d="M98.559,205.563 L84.342,213.77 C82.361,214.914 80.74,217.723 80.74,220.011 L80.74,236.426 C80.74,238.714 82.361,239.651 84.342,238.506 L98.559,230.298 C100.54,229.155 102.162,226.346 102.162,224.059 L102.162,207.643 C102.162,205.355 100.54,204.419 98.559,205.563" id="Fill-95" fill="#39588A"></path>
        <path d="M128.941,188.021 L114.725,196.229 C112.744,197.373 111.122,200.181 111.122,202.469 L111.122,218.885 C111.122,221.173 112.744,222.109 114.725,220.965 L128.941,212.757 C130.923,211.613 132.544,208.805 132.544,206.517 L132.544,190.101 C132.544,187.813 130.923,186.877 128.941,188.021" id="Fill-96" fill="#39588A"></path>
        <path d="M159.324,134.107 L145.108,142.315 C143.126,143.459 141.505,146.267 141.505,148.556 L141.505,201.344 C141.505,203.632 143.126,204.568 145.108,203.424 L159.324,195.216 C161.306,194.072 162.927,191.264 162.927,188.975 L162.927,136.187 C162.927,133.899 161.306,132.964 159.324,134.107" id="Fill-97" fill="#FB3B34"></path>
        <path d="M455.858,198.312 L345.17,134.407 C342.272,132.734 337.573,132.734 334.674,134.407 L146.25,243.194 C143.352,244.867 143.352,247.58 146.25,249.253 L290.573,332.578 C293.471,334.251 298.17,334.251 301.069,332.578 L454.271,244.126 C454.271,225.823 455.858,216.616 455.858,198.312" id="Fill-98" fill="#E3E3E3"></path>
        <path d="M428.071,221.918 L337.919,169.869 C336.927,169.296 337.052,168.286 338.199,167.624 C339.344,166.963 341.094,166.89 342.086,167.463 L432.238,219.512 C433.23,220.085 433.104,221.095 431.958,221.757 C430.813,222.418 429.063,222.491 428.071,221.918" id="Fill-99" fill="#999999"></path>
        <path d="M417.226,240.918 L305.01,176.13 C304.018,175.557 304.143,174.547 305.29,173.885 C306.435,173.224 308.185,173.151 309.177,173.724 L421.393,238.512 C422.385,239.085 422.26,240.095 421.114,240.757 C419.968,241.418 418.218,241.491 417.226,240.918" id="Fill-100" fill="#999999"></path>
        <path d="M384.317,247.179 L294.165,195.13 C293.173,194.557 293.299,193.547 294.445,192.885 C295.59,192.224 297.34,192.151 298.332,192.724 L388.484,244.773 C389.477,245.346 389.351,246.356 388.206,247.018 C387.059,247.679 385.31,247.752 384.317,247.179" id="Fill-101" fill="#999999"></path>
        <path d="M373.473,266.179 L261.256,201.391 C260.264,200.818 260.39,199.808 261.536,199.146 C262.682,198.485 264.431,198.412 265.423,198.985 L377.64,263.773 C378.632,264.346 378.506,265.356 377.361,266.018 C376.214,266.679 374.465,266.752 373.473,266.179" id="Fill-102" fill="#999999"></path>
        <path d="M340.564,272.44 L250.413,220.391 C249.419,219.818 249.545,218.808 250.691,218.146 C251.837,217.485 253.586,217.413 254.58,217.985 L344.731,270.035 C345.723,270.607 345.597,271.618 344.452,272.279 C343.306,272.941 341.556,273.013 340.564,272.44" id="Fill-103" fill="#999999"></path>
        <path d="M296.81,297.702 L206.659,245.652 C205.666,245.079 205.792,244.069 206.938,243.408 C208.084,242.746 209.833,242.673 210.826,243.246 L300.977,295.295 C301.969,295.869 301.844,296.878 300.698,297.539 C299.552,298.202 297.802,298.274 296.81,297.702" id="Fill-104" fill="#999999"></path>
        <path d="M329.719,291.44 L217.503,226.652 C216.511,226.079 216.636,225.069 217.782,224.407 C218.928,223.746 220.678,223.673 221.67,224.246 L333.886,289.035 C334.878,289.608 334.753,290.618 333.607,291.279 C332.461,291.941 330.711,292.013 329.719,291.44" id="Fill-105" fill="#999999"></path>
        <path d="M455.858,198.312 L422.408,217.497 C418.514,219.746 418.514,223.39 422.408,225.638 L454.271,244.126 C454.271,228.64 455.857,213.799 455.858,198.312" id="Fill-106" fill="#D1D1D1"></path>
        <path d="M334.582,190.12 C333.371,192.297 328.647,193.125 326.034,191.616 L253.839,149.934 C251.226,148.425 252.66,145.699 256.43,144.999 C279.031,140.806 303.746,143.42 320.531,153.111 C337.317,162.803 341.844,177.071 334.582,190.12 Z M354.357,205.928 C374.737,185.672 369.926,159.287 339.88,141.94 C308.717,123.948 260.708,121.623 225.175,134.95 C221.306,132.986 215.414,133.064 211.719,135.197 L200.865,141.463 L194.513,141.463 L194.513,147.03 C194.467,147.349 194.467,147.669 194.513,147.988 L194.513,147.989 C194.702,149.28 195.647,150.542 197.359,151.53 L323.27,224.225 C327.117,226.446 333.353,226.446 337.2,224.225 L351.56,215.934 C353.786,214.649 354.71,212.904 354.357,211.23 L354.357,205.928 L354.357,205.928 Z" id="Fill-107" fill="#008DB5"></path>
        <path d="M256.43,139.344 C279.031,135.15 303.746,137.764 320.531,147.455 C337.317,157.147 341.844,171.415 334.582,184.464 C333.371,186.641 328.647,187.469 326.034,185.96 L253.839,144.279 C251.226,142.77 252.66,140.043 256.43,139.344 Z M351.989,202.509 C375.071,181.995 371.043,154.276 339.88,136.284 C308.717,118.292 260.708,115.967 225.175,129.294 C221.306,127.33 215.414,127.408 211.719,129.541 L197.359,137.832 C193.512,140.053 193.512,143.654 197.359,145.874 L323.27,218.569 C327.117,220.79 333.353,220.79 337.2,218.569 L351.56,210.278 C355.254,208.145 355.39,204.743 351.989,202.509 L351.989,202.509 Z" id="Fill-108" fill="#00BAEF"></path>
        <path d="M200.8,148.15 L211.104,142.201 C211.343,142.063 211.425,141.757 211.287,141.518 C211.149,141.279 210.843,141.197 210.604,141.335 L200.3,147.284 C200.061,147.422 199.979,147.728 200.117,147.967 C200.255,148.206 200.561,148.288 200.8,148.15" id="Fill-109" fill="#008DB5"></path>
        <path d="M208.271,152.463 L222.399,144.306 C222.638,144.168 222.72,143.862 222.582,143.623 C222.444,143.384 222.138,143.302 221.899,143.44 L207.771,151.597 C207.532,151.735 207.45,152.041 207.588,152.28 C207.726,152.519 208.032,152.601 208.271,152.463" id="Fill-110" fill="#008DB5"></path>
        <path d="M215.741,156.776 L226.045,150.827 C226.284,150.689 226.366,150.384 226.228,150.144 C226.09,149.905 225.784,149.823 225.545,149.961 L215.241,155.91 C215.002,156.048 214.92,156.354 215.058,156.593 C215.196,156.832 215.502,156.914 215.741,156.776" id="Fill-111" fill="#008DB5"></path>
        <path d="M223.212,161.089 L237.34,152.932 C237.579,152.794 237.661,152.489 237.523,152.249 C237.385,152.01 237.079,151.928 236.84,152.066 L222.712,160.223 C222.473,160.361 222.391,160.667 222.529,160.906 C222.667,161.145 222.973,161.227 223.212,161.089" id="Fill-112" fill="#008DB5"></path>
        <path d="M230.682,165.402 L240.986,159.453 C241.225,159.315 241.307,159.01 241.169,158.77 C241.031,158.531 240.725,158.449 240.486,158.587 L230.182,164.536 C229.943,164.674 229.861,164.98 229.999,165.219 C230.137,165.458 230.443,165.54 230.682,165.402" id="Fill-113" fill="#008DB5"></path>
        <path d="M238.153,169.716 L252.281,161.558 C252.52,161.42 252.602,161.115 252.464,160.875 C252.326,160.636 252.02,160.554 251.781,160.692 L237.653,168.85 C237.414,168.988 237.332,169.293 237.47,169.533 C237.608,169.772 237.914,169.854 238.153,169.716" id="Fill-114" fill="#008DB5"></path>
        <path d="M245.624,174.029 L255.927,168.08 C256.166,167.942 256.248,167.636 256.11,167.397 C255.972,167.158 255.666,167.076 255.427,167.214 L245.124,173.163 C244.884,173.301 244.802,173.606 244.94,173.846 C245.079,174.085 245.384,174.167 245.624,174.029" id="Fill-115" fill="#008DB5"></path>
        <path d="M253.094,178.342 L267.222,170.185 C267.461,170.047 267.543,169.741 267.405,169.502 C267.267,169.263 266.961,169.181 266.722,169.319 L252.594,177.476 C252.355,177.614 252.273,177.919 252.411,178.159 C252.549,178.398 252.855,178.48 253.094,178.342" id="Fill-116" fill="#008DB5"></path>
        <path d="M260.564,182.655 L270.868,176.706 C271.107,176.568 271.189,176.262 271.051,176.023 C270.913,175.784 270.607,175.702 270.368,175.84 L260.064,181.789 C259.825,181.927 259.743,182.232 259.881,182.472 C260.019,182.711 260.325,182.793 260.564,182.655" id="Fill-117" fill="#008DB5"></path>
        <path d="M268.035,186.968 L282.164,178.811 C282.403,178.673 282.485,178.367 282.347,178.128 C282.208,177.889 281.903,177.807 281.664,177.945 L267.535,186.102 C267.296,186.24 267.214,186.546 267.352,186.785 C267.49,187.024 267.796,187.106 268.035,186.968" id="Fill-118" fill="#008DB5"></path>
        <path d="M275.505,191.281 L285.809,185.332 C286.048,185.194 286.13,184.888 285.992,184.649 C285.854,184.41 285.548,184.328 285.309,184.466 L275.005,190.415 C274.766,190.553 274.684,190.859 274.822,191.098 C274.96,191.337 275.266,191.419 275.505,191.281" id="Fill-119" fill="#008DB5"></path>
        <path d="M282.976,195.594 L297.104,187.437 C297.343,187.299 297.425,186.993 297.287,186.754 C297.149,186.515 296.843,186.433 296.604,186.571 L282.476,194.728 C282.237,194.866 282.155,195.172 282.293,195.411 C282.431,195.65 282.737,195.732 282.976,195.594" id="Fill-120" fill="#008DB5"></path>
        <path d="M290.446,199.907 L300.75,193.958 C300.99,193.82 301.072,193.514 300.933,193.275 C300.795,193.036 300.49,192.954 300.25,193.092 L289.946,199.041 C289.707,199.179 289.625,199.485 289.763,199.724 C289.901,199.963 290.207,200.045 290.446,199.907" id="Fill-121" fill="#008DB5"></path>
        <path d="M320.329,217.159 L330.632,211.211 C330.871,211.073 330.953,210.767 330.815,210.528 C330.677,210.289 330.371,210.207 330.132,210.345 L319.829,216.293 C319.589,216.432 319.507,216.737 319.646,216.976 C319.784,217.216 320.089,217.298 320.329,217.159" id="Fill-122" fill="#008DB5"></path>
        <path d="M297.916,204.22 L312.045,196.063 C312.285,195.925 312.366,195.619 312.228,195.38 C312.09,195.141 311.785,195.059 311.545,195.197 L297.416,203.354 C297.177,203.492 297.095,203.798 297.233,204.037 C297.371,204.276 297.677,204.358 297.916,204.22" id="Fill-123" fill="#008DB5"></path>
        <path d="M305.387,208.533 L315.691,202.584 C315.93,202.446 316.012,202.14 315.874,201.901 C315.736,201.662 315.43,201.58 315.191,201.718 L304.887,207.667 C304.648,207.806 304.566,208.111 304.704,208.35 C304.842,208.59 305.148,208.672 305.387,208.533" id="Fill-124" fill="#008DB5"></path>
        <g id="Group-128" transform="translate(482.107990, 151.755990)">
            <mask id="mask-6" fill="white">
                <use xlink:href="#path-5"></use>
            </mask>
            <g id="Clip-126"></g>
            <path d="M112.18301,152.56801 C113.19101,153.15001 113.19101,154.09301 112.18301,154.67501 L42.5740105,194.86501 C40.8840105,195.83901 38.0040105,195.07901 38.1750105,193.70301 L39.7260105,114.22101 C39.8850105,112.94801 42.5610105,112.37101 44.1250105,113.27501 L112.18301,152.56801 Z M7.24601046,73.4070105 L4.08901046,235.13601 C3.74101046,237.93601 9.60101046,239.48201 13.0390105,237.49601 L154.68001,155.72101 C156.72901,154.53601 158.21701,146.73601 154.68001,145.15701 L16.1960105,71.4800105 C13.0160105,69.6440105 7.56801046,70.8160105 7.24601046,73.4070105 L7.24601046,73.4070105 Z" id="Fill-127" fill="#008DB5" mask="url(#mask-6)"></path>
        </g>
        <path d="M594.291,298.047 C595.299,298.629 595.299,299.573 594.291,300.155 L524.682,340.344 C522.992,341.32 520.112,340.56 520.283,339.184 L521.834,259.701 C521.993,258.428 524.669,257.851 526.233,258.754 L594.291,298.047 Z M489.354,218.886 L486.197,380.616 C485.849,383.415 491.709,384.961 495.147,382.976 L636.788,301.201 C638.837,300.016 638.837,298.097 636.788,296.913 L498.304,216.959 C495.124,215.123 489.676,216.295 489.354,218.886 L489.354,218.886 Z" id="Fill-129" fill="#00BAEF"></path>
        <path d="M515.73,365.381 L504.543,358.923 C504.304,358.785 503.998,358.867 503.86,359.106 C503.722,359.345 503.804,359.651 504.043,359.789 L515.23,366.247 C515.469,366.385 515.775,366.303 515.913,366.064 C516.051,365.825 515.969,365.519 515.73,365.381" id="Fill-130" fill="#008DB5"></path>
        <path d="M523.396,360.955 L515.596,356.452 C515.357,356.314 515.051,356.396 514.913,356.635 C514.775,356.874 514.857,357.18 515.096,357.318 L522.896,361.821 C523.135,361.959 523.441,361.877 523.579,361.638 C523.717,361.399 523.635,361.093 523.396,360.955" id="Fill-131" fill="#008DB5"></path>
        <path d="M531.062,356.529 L519.875,350.071 C519.636,349.933 519.33,350.015 519.192,350.254 C519.054,350.493 519.136,350.799 519.375,350.937 L530.562,357.395 C530.801,357.533 531.107,357.451 531.245,357.212 C531.383,356.973 531.301,356.667 531.062,356.529" id="Fill-132" fill="#008DB5"></path>
        <path d="M538.728,352.104 L530.928,347.601 C530.689,347.463 530.383,347.544 530.245,347.784 C530.107,348.023 530.189,348.329 530.428,348.467 L538.228,352.97 C538.467,353.108 538.773,353.026 538.911,352.787 C539.049,352.547 538.967,352.242 538.728,352.104" id="Fill-133" fill="#008DB5"></path>
        <path d="M546.393,347.678 L535.207,341.219 C534.967,341.081 534.662,341.163 534.523,341.402 C534.385,341.641 534.467,341.947 534.706,342.085 L545.893,348.544 C546.132,348.682 546.438,348.6 546.576,348.361 C546.714,348.122 546.632,347.816 546.393,347.678" id="Fill-134" fill="#008DB5"></path>
        <path d="M554.059,343.252 L546.259,338.749 C546.02,338.611 545.714,338.693 545.576,338.932 C545.438,339.171 545.52,339.477 545.759,339.615 L553.559,344.118 C553.798,344.256 554.104,344.174 554.242,343.935 C554.38,343.696 554.298,343.39 554.059,343.252" id="Fill-135" fill="#008DB5"></path>
        <path d="M561.725,338.826 L550.539,332.367 C550.299,332.229 549.994,332.311 549.856,332.55 C549.717,332.789 549.799,333.095 550.039,333.233 L561.225,339.692 C561.464,339.83 561.77,339.748 561.908,339.509 C562.046,339.27 561.964,338.964 561.725,338.826" id="Fill-136" fill="#008DB5"></path>
        <path d="M569.391,334.4 L561.591,329.897 C561.352,329.759 561.046,329.841 560.908,330.08 C560.77,330.32 560.852,330.625 561.091,330.764 L568.891,335.266 C569.13,335.404 569.436,335.323 569.574,335.083 C569.712,334.844 569.63,334.538 569.391,334.4" id="Fill-137" fill="#008DB5"></path>
        <path d="M577.057,329.975 L565.87,323.516 C565.63,323.378 565.325,323.459 565.187,323.699 C565.048,323.938 565.13,324.244 565.37,324.382 L576.557,330.841 C576.796,330.979 577.102,330.897 577.24,330.658 C577.378,330.418 577.296,330.113 577.057,329.975" id="Fill-138" fill="#008DB5"></path>
        <path d="M584.722,325.549 L576.922,321.046 C576.683,320.908 576.377,320.99 576.239,321.229 C576.101,321.468 576.183,321.774 576.422,321.912 L584.222,326.415 C584.461,326.553 584.767,326.471 584.905,326.232 C585.043,325.993 584.961,325.687 584.722,325.549" id="Fill-139" fill="#008DB5"></path>
        <path d="M592.388,321.123 L581.202,314.664 C580.962,314.526 580.657,314.608 580.519,314.847 C580.381,315.086 580.462,315.392 580.702,315.53 L591.888,321.989 C592.127,322.127 592.433,322.045 592.571,321.806 C592.709,321.567 592.627,321.261 592.388,321.123" id="Fill-140" fill="#008DB5"></path>
        <path d="M622.051,303.419 L610.865,296.961 C610.626,296.823 610.32,296.905 610.182,297.144 C610.044,297.383 610.126,297.689 610.365,297.827 L621.551,304.285 C621.79,304.423 622.096,304.341 622.234,304.102 C622.372,303.863 622.29,303.557 622.051,303.419" id="Fill-144" fill="#008DB5"></path>
        <path d="M629.717,298.993 L621.917,294.49 C621.678,294.352 621.372,294.434 621.234,294.673 C621.096,294.912 621.178,295.218 621.417,295.356 L629.217,299.859 C629.456,299.997 629.762,299.915 629.9,299.676 C630.038,299.437 629.956,299.131 629.717,298.993" id="Fill-145" fill="#008DB5"></path>
        <path d="M508.065,369.807 L500.265,365.304 C500.026,365.166 499.72,365.248 499.582,365.487 C499.444,365.726 499.526,366.032 499.765,366.17 L507.565,370.673 C507.804,370.811 508.11,370.729 508.248,370.49 C508.386,370.251 508.304,369.945 508.065,369.807" id="Fill-146" fill="#008DB5"></path>
        <g id="Group-165" transform="translate(482.000000, 214.000000)">
            <mask id="mask-8" fill="white">
                <use xlink:href="#path-7"></use>
            </mask>
            <g id="Clip-148"></g>
            <path d="M137.261499,73.0628951 L126.246174,79.1242887 C126.010841,79.2538137 125.9301,79.5410212 126.065982,79.7653435 C126.201864,79.9896657 126.503169,80.0666298 126.738501,79.9371049 L137.753826,73.8757113 C137.989159,73.7461863 138.0699,73.4589788 137.934018,73.2346565 C137.798136,73.0103343 137.496831,72.9333702 137.261499,73.0628951" id="Fill-147" fill="#008DB5" mask="url(#mask-8)"></path>
            <path d="M130.232946,68.0730593 L122.255692,72.9825314 C122.011261,73.1329882 121.927397,73.4666099 122.068533,73.7271837 C122.209669,73.9888477 122.522623,74.0771594 122.767054,73.9267025 L130.744308,69.0172305 C130.988739,68.8667736 131.072603,68.5342422 130.931467,68.2725781 C130.790331,68.0120043 130.477377,67.9226025 130.232946,68.0730593" id="Fill-149" fill="#008DB5" mask="url(#mask-8)"></path>
            <path d="M122.261499,64.0628867 L111.246174,70.1244061 C111.010841,70.2539137 110.9301,70.5410828 111.065982,70.7653749 C111.201864,70.9896671 111.503169,71.0666209 111.738501,70.9371133 L122.753826,64.8755939 C122.989159,64.7460863 123.0699,64.4589172 122.934018,64.2346251 C122.798136,64.0103329 122.496831,63.9333791 122.261499,64.0628867" id="Fill-150" fill="#008DB5" mask="url(#mask-8)"></path>
            <path d="M114.233033,59.0730489 L106.255663,63.982914 C106.011259,64.1333494 105.927405,64.4669238 106.068525,64.7274606 C106.209645,64.9879974 106.522564,65.0773866 106.766967,64.9269511 L114.744337,60.017086 C114.988741,59.8666506 115.072595,59.5330762 114.931475,59.2725394 C114.790355,59.0120026 114.477436,58.9226134 114.233033,59.0730489" id="Fill-151" fill="#008DB5" mask="url(#mask-8)"></path>
            <path d="M107.261499,55.0628867 L96.2461738,61.1244061 C96.0108415,61.2539137 95.9300999,61.5410828 96.0659821,61.7653749 C96.2018644,61.9896671 96.5031685,62.0666209 96.7385009,61.9371133 L107.753826,55.8755939 C107.989159,55.7460863 108.0699,55.4589172 107.934018,55.2346251 C107.798136,55.0103329 107.496831,54.9333791 107.261499,55.0628867" id="Fill-152" fill="#008DB5" mask="url(#mask-8)"></path>
            <path d="M99.2329457,50.0730489 L91.2556919,54.982914 C91.0112607,55.1333494 90.9273972,55.4669238 91.0685333,55.7274606 C91.2096693,55.9879974 91.5226231,56.0773866 91.7670543,55.9269511 L99.7443081,51.017086 C99.9887393,50.8666506 100.072603,50.5330762 99.9314667,50.2725394 C99.7903307,50.0120026 99.4773769,49.9226134 99.2329457,50.0730489" id="Fill-153" fill="#008DB5" mask="url(#mask-8)"></path>
            <path d="M91.2614991,46.0635031 L80.2461738,52.1244839 C80.0108415,52.25398 79.9300999,52.5401852 80.0659821,52.7653958 C80.2018644,52.989668 80.5031685,53.066615 80.7385009,52.9371189 L91.7538262,46.8761381 C91.9891585,46.746642 92.0699001,46.4594985 91.9340179,46.2352262 C91.7981356,46.0100156 91.4968315,45.9330687 91.2614991,46.0635031" id="Fill-154" fill="#008DB5" mask="url(#mask-8)"></path>
            <path d="M84.2329457,42.0730489 L76.2556919,46.982914 C76.0112607,47.1333494 75.9273972,47.4669238 76.0685333,47.7274606 C76.2096693,47.9879974 76.5226231,48.0773866 76.7670543,47.9269511 L84.7443081,43.017086 C84.9887393,42.8666506 85.0726028,42.5330762 84.9314667,42.2725394 C84.7903307,42.0120026 84.4773769,41.9226134 84.2329457,42.0730489" id="Fill-155" fill="#008DB5" mask="url(#mask-8)"></path>
            <path d="M76.2614991,38.0628867 L65.2461738,44.1244061 C65.0108415,44.2539137 64.9300999,44.5410828 65.0659821,44.7653749 C65.2018644,44.9896671 65.5031685,45.0666209 65.7385009,44.9371133 L76.7538262,38.8755939 C76.9891585,38.7460863 77.0699001,38.4589172 76.9340179,38.2346251 C76.7981356,38.0103329 76.4968315,37.9333791 76.2614991,38.0628867" id="Fill-156" fill="#008DB5" mask="url(#mask-8)"></path>
            <path d="M68.2329457,33.0730622 L60.2556919,37.9827291 C60.0112607,38.133192 59.9273972,38.4668269 60.0685333,38.727411 C60.2096693,38.9879952 60.5226231,39.0774006 60.7670543,38.9269378 L68.7443081,34.0172709 C68.9887393,33.866808 69.0726028,33.5331731 68.9314667,33.272589 C68.7903307,33.0120048 68.4773769,32.9225994 68.2329457,33.0730622" id="Fill-157" fill="#008DB5" mask="url(#mask-8)"></path>
            <path d="M61.2614991,29.0628811 L50.2461738,35.1238619 C50.0108415,35.2542964 49.9300999,35.5405015 50.0659821,35.7647738 C50.2018644,35.9899844 50.5031685,36.0669313 50.7385009,35.9364969 L61.7538262,29.8755161 C61.9891585,29.74602 62.0699001,29.4598148 61.9340179,29.2346042 C61.7981356,29.010332 61.4968315,28.933385 61.2614991,29.0628811" id="Fill-158" fill="#008DB5" mask="url(#mask-8)"></path>
            <path d="M53.2329457,24.0730622 L45.2556919,28.9827291 C45.0112607,29.133192 44.9273972,29.4657366 45.0685333,29.727411 C45.2096693,29.9879952 45.5226231,30.0774006 45.7670543,29.9269378 L53.7443081,25.0172709 C53.9887393,24.866808 54.0726028,24.5331731 53.9314667,24.272589 C53.7903307,24.0120048 53.4773769,23.9225994 53.2329457,24.0730622" id="Fill-159" fill="#008DB5" mask="url(#mask-8)"></path>
            <path d="M45.2614991,20.0628867 L34.2461738,26.1244061 C34.0108415,26.2539137 33.9300999,26.5410828 34.0659821,26.7653749 C34.2018644,26.9896671 34.5031685,27.0666209 34.7385009,26.9371133 L45.7538262,20.8755939 C45.9891585,20.7460863 46.0699001,20.4589172 45.9340179,20.2346251 C45.7981356,20.0103329 45.4968315,19.9333791 45.2614991,20.0628867" id="Fill-160" fill="#008DB5" mask="url(#mask-8)"></path>
            <path d="M38.2329457,15.0730622 L30.2556919,19.9827291 C30.0112607,20.133192 29.9273972,20.4668269 30.0685333,20.727411 C30.2096693,20.9879952 30.5226231,21.0774006 30.7670543,20.9269378 L38.7443081,16.0172709 C38.9887393,15.866808 39.0726028,15.5331731 38.9314667,15.272589 C38.7903307,15.0120048 38.4773769,14.9225994 38.2329457,15.0730622" id="Fill-161" fill="#008DB5" mask="url(#mask-8)"></path>
            <path d="M30.2614991,11.0628867 L19.2461738,17.1244061 C19.0108415,17.2539137 18.9300999,17.5410828 19.0659821,17.7653749 C19.2018644,17.9896671 19.5031685,18.0666209 19.7385009,17.9371133 L30.7538262,11.8755939 C30.9891585,11.7460863 31.0699001,11.4589172 30.9340179,11.2346251 C30.7981356,11.0103329 30.4968315,10.9333791 30.2614991,11.0628867" id="Fill-162" fill="#008DB5" mask="url(#mask-8)"></path>
            <path d="M22.2329457,6.07377652 L14.2556919,10.9817937 C14.0112607,11.1333296 13.9273972,11.4658363 14.0685333,11.7263907 C14.2096693,11.9880354 14.5226231,12.0774306 14.7670543,11.926985 L22.7443081,7.01787756 C22.9887393,6.8674319 23.0726028,6.53383499 22.9314667,6.27328055 C22.7903307,6.01163592 22.4773769,5.92224067 22.2329457,6.07377652" id="Fill-163" fill="#008DB5" mask="url(#mask-8)"></path>
            <path d="M145.232858,77.0730622 L137.255721,81.9827291 C137.011262,82.133192 136.927389,82.4668269 137.068541,82.727411 C137.209693,82.9879952 137.522682,83.0774006 137.767142,82.9269378 L145.744279,78.0172709 C145.988738,77.866808 146.072611,77.5331731 145.931459,77.272589 C145.790307,77.0120048 145.477318,76.9225994 145.232858,77.0730622" id="Fill-164" fill="#008DB5" mask="url(#mask-8)"></path>
        </g>
        <path d="M412.681,361.734 L437.083,348.439 C437.743,348.08 438.44,347.816 439.163,347.652 L600.003,311.108 C604.447,310.099 609.118,313.83 610.383,319.4 C611.648,324.969 609.048,330.352 604.605,331.362 L443.764,367.906 C443.041,368.069 442.299,368.132 441.549,368.093 L413.797,366.647 C411.574,366.532 410.726,362.799 412.681,361.734" id="Fill-166" fill="#FFBA00"></path>
        <path d="M413.05,363.36 L438.561,354.942 C439.25,354.714 439.962,354.517 440.685,354.353 L601.526,317.81 C605.969,316.8 609.955,317.516 610.383,319.4 C610.811,321.284 607.526,323.651 603.082,324.661 L442.241,361.204 C441.519,361.368 440.791,361.497 440.072,361.59 L413.428,365.022 C411.293,365.296 411.006,364.035 413.05,363.36" id="Fill-167" fill="#E3A500"></path>
        <path d="M605.003,310.108 L591.606,313.152 L596.207,333.406 L609.605,330.362 C614.048,329.352 616.648,323.969 615.383,318.4 C614.118,312.83 609.447,309.099 605.003,310.108" id="Fill-168" fill="#FB3B34"></path>
        <polyline id="Fill-169" fill="#A6A6A6" points="596.945 333.414 568.665 339.839 563.929 318.993 592.208 312.567 596.945 333.414"></polyline>
        <path d="M412.681,361.734 C410.726,362.799 411.574,366.532 413.797,366.647 L441.549,368.093 L441.805,368.089 C441.365,364.785 440.787,361.455 440.025,358.105 C439.264,354.755 438.347,351.501 437.316,348.331 L437.083,348.439 L412.681,361.734" id="Fill-170" fill="#FFE08F"></path>
        <path d="M413.797,366.647 L422.742,367.114 C422.454,365.498 422.129,363.879 421.76,362.255 C421.391,360.63 420.984,359.03 420.546,357.449 L412.681,361.734 C410.726,362.799 411.574,366.532 413.797,366.647" id="Fill-171" fill="#8F6800"></path>
        <path d="M597.382,335.34 L597.382,335.34 C596.17,335.616 594.954,334.849 594.678,333.637 L590.068,313.345 C589.792,312.133 590.559,310.916 591.771,310.641 C592.983,310.366 594.2,311.132 594.475,312.344 L599.085,332.636 C599.361,333.848 598.594,335.065 597.382,335.34" id="Fill-172" fill="#D1D1D1"></path>
        <path d="M587.956,337.482 L587.956,337.482 C586.744,337.757 585.527,336.991 585.251,335.779 L580.641,315.487 C580.366,314.275 581.132,313.058 582.344,312.783 C583.556,312.507 584.773,313.274 585.048,314.486 L589.659,334.778 C589.934,335.99 589.167,337.206 587.956,337.482" id="Fill-173" fill="#D1D1D1"></path>
        <path d="M578.53,339.623 L578.53,339.623 C577.318,339.899 576.1,339.133 575.825,337.921 L571.214,317.628 C570.94,316.416 571.706,315.2 572.917,314.924 C574.129,314.649 575.346,315.415 575.622,316.627 L580.232,336.919 C580.507,338.131 579.742,339.348 578.53,339.623" id="Fill-174" fill="#D1D1D1"></path>
        <path d="M569.103,341.765 L569.103,341.765 C567.891,342.04 566.674,341.275 566.399,340.063 L561.789,319.77 C561.513,318.558 562.279,317.341 563.492,317.066 C564.704,316.79 565.92,317.557 566.196,318.769 L570.806,339.061 C571.082,340.273 570.315,341.49 569.103,341.765" id="Fill-175" fill="#D1D1D1"></path>
        <path d="M306.076,242.242 L276.015,253.545 C275.203,253.851 274.36,254.066 273.5,254.185 L82.1,280.748 C76.812,281.482 71.886,277.756 71.152,272.469 C70.418,267.181 74.143,262.254 79.431,261.521 L270.831,234.957 C271.691,234.838 272.561,234.814 273.425,234.887 L305.428,237.577 C307.993,237.793 308.484,241.336 306.076,242.242" id="Fill-176" fill="#2C446B"></path>
        <path d="M80.733,270.899 L272.133,244.335 C272.993,244.216 273.863,244.193 274.727,244.265 L295.95,246.049 L306.076,242.242 C308.484,241.336 307.993,237.793 305.428,237.577 L273.425,234.887 C272.561,234.814 271.691,234.838 270.831,234.957 L79.431,261.521 C74.144,262.254 70.418,267.181 71.152,272.469 C71.388,274.169 72.062,275.705 73.038,276.987 C74.283,273.827 77.146,271.397 80.733,270.899" id="Fill-177" fill="#39588A"></path>
        <path d="M82.1,280.748 L98.043,278.536 L95.374,259.308 L79.431,261.521 C74.144,262.254 70.418,267.181 71.152,272.469 C71.886,277.756 76.812,281.482 82.1,280.748" id="Fill-178" fill="#39588A"></path>
        <path d="M95.083,257.218 C94.641,254.024 96.871,251.076 100.065,250.632 C103.259,250.189 106.207,252.418 106.651,255.613 C107.094,258.807 104.864,261.756 101.67,262.2 C98.476,262.642 95.527,260.413 95.083,257.218" id="Fill-179" fill="#263B5C"></path>
        <path d="M95.234,257.198 L135.779,251.571 C139.572,251.043 143.106,253.717 143.633,257.51 L144.967,267.123 C145.494,270.917 142.821,274.452 139.028,274.978 L98.482,280.605 C94.689,281.131 91.155,278.458 90.628,274.665 L89.294,265.051 C88.768,261.258 91.441,257.724 95.234,257.198" id="Fill-180" fill="#263B5C"></path>
        <path d="M96.858,268.901 L137.403,263.274 C140.84,262.797 144.057,264.951 145.024,268.181 C145.029,267.831 145.017,267.48 144.967,267.123 L143.633,257.51 C143.106,253.717 139.572,251.043 135.779,251.571 L95.234,257.198 C91.441,257.724 88.768,261.258 89.294,265.051 L90.628,274.665 C90.678,275.021 90.762,275.364 90.862,275.698 C90.912,272.327 93.421,269.378 96.858,268.901" id="Fill-181" fill="#2C446B"></path>
        <path d="M306.076,242.242 C308.484,241.336 307.993,237.793 305.428,237.578 L273.425,234.887 C273.327,234.878 273.227,234.884 273.128,234.878 C273.204,238 273.436,241.154 273.876,244.333 C274.318,247.513 274.954,250.611 275.732,253.635 C275.825,253.602 275.922,253.58 276.015,253.545 L306.076,242.242" id="Fill-182" fill="#8EAAD9"></path>
        <path d="M305.428,237.578 L295.114,236.71 C295.236,238.24 295.398,239.775 295.613,241.317 C295.827,242.859 296.087,244.38 296.387,245.885 L306.076,242.242 C308.484,241.336 307.993,237.793 305.428,237.578" id="Fill-183" fill="#263B5C"></path>
        <path d="M151.771,245.758 C151.417,243.21 153.196,240.859 155.744,240.504 C158.292,240.151 160.645,241.93 160.998,244.478 C161.352,247.026 159.573,249.378 157.025,249.732 C154.477,250.085 152.124,248.306 151.771,245.758" id="Fill-184" fill="#263B5C"></path>
        <path d="M161.983,244.341 L93.928,253.787 C91.981,254.056 90.166,252.684 89.896,250.737 C89.626,248.789 90.998,246.975 92.945,246.705 L161.001,237.26 C162.948,236.99 164.762,238.362 165.032,240.309 C165.303,242.256 163.93,244.071 161.983,244.341" id="Fill-185" fill="#39588A"></path>
        <polyline id="Fill-186" fill="#FFFFFF" points="395.103 60.891 383.424 89.191 395.262 82.357 395.262 60.799 395.103 60.891"></polyline>
        <polyline id="Fill-187" fill="#000000" points="395.103 60.891 394.626 60.694 382.369 90.396 395.778 82.655 395.778 59.906 394.693 60.532 394.626 60.694 395.103 60.891 395.361 61.338 395.52 61.246 395.262 60.799 394.746 60.799 394.746 82.059 384.479 87.987 395.58 61.088 395.103 60.891 395.361 61.338 395.103 60.891"></polyline>
        <polyline id="Fill-188" fill="#BA8800" points="403.866 117.679 395.262 113.455 394.98 106.277 403.866 101.717 403.866 117.679"></polyline>
        <polyline id="Fill-189" fill="#BA8800" points="425.474 74.104 416.871 69.881 409.245 74.284 417.848 78.507 425.474 74.104"></polyline>
        <polyline id="Fill-190" fill="#E3A500" points="417.848 33.924 409.245 29.701 394.467 38.232 403.071 42.456 417.848 33.924"></polyline>
        <polyline id="Fill-191" fill="#BA8800" points="403.866 86.58 395.262 82.357 395.262 60.799 403.866 64.187 403.866 86.58"></polyline>
        <polyline id="Fill-192" fill="#E3A500" points="403.866 86.58 392.028 93.414 383.424 89.191 395.262 82.357 403.866 86.58"></polyline>
        <polyline id="Fill-193" fill="#BA8800" points="371.611 115.201 363.007 110.978 394.467 38.232 403.071 42.456 371.611 115.201"></polyline>
        <polyline id="Fill-194" fill="#E3A500" points="371.611 120.339 371.611 115.201 363.007 110.978 363.007 116.116 371.611 120.339"></polyline>
        <path d="M403.707,65.114 L392.028,93.414 L403.866,86.58 L403.866,65.022 L403.707,65.114 Z M425.474,74.104 L425.474,89.241 L417.848,93.644 L417.848,109.606 L403.866,117.679 L403.866,101.717 L371.611,120.339 L371.611,115.201 L403.071,42.456 L417.848,33.924 L417.848,78.507 L425.474,74.104 L425.474,74.104 Z" id="Fill-195" fill="#FFBA00"></path>
        <path d="M197.402,127.428 C217.44,138.996 220.06,155.716 220.06,164.219 C220.06,169.639 217.628,173.645 214.437,176.57 L218.846,174.024 C224.481,171.242 230.788,166.183 230.788,157.452 C230.788,148.949 228.167,132.229 208.13,120.661 C201.026,116.559 195.973,117.58 192.552,119.952 L192.547,119.95 L183.191,125.9 C186.548,124.175 191.19,123.841 197.402,127.428" id="Fill-196" fill="#E3A500"></path>
        <path d="M197.825,167.641 C191.653,170.89 186.322,172.904 186.322,172.904 L186.322,174.819 C190.12,172.86 194.311,170.406 197.825,167.641" id="Fill-197" fill="#BA8800"></path>
        <polyline id="Fill-198" fill="#E3A500" points="231.85 189.542 210.183 177.033 199.455 183.8 221.122 196.309 231.85 189.542"></polyline>
        <path d="M175.594,179.671 L186.322,172.904 C186.322,172.904 200.666,166.521 206.281,162.56 C211.896,158.598 205.121,175.538 205.121,175.538 L175.594,179.671" id="Fill-199" fill="#BA8800"></path>
        <path d="M186.994,147.254 L175.877,134.622 C175.877,134.622 181.542,118.271 197.402,127.428 C217.44,138.996 220.06,155.716 220.06,164.219 C220.06,179.998 199.455,183.8 199.455,183.8 L221.122,196.309 L221.122,209.799 L175.594,183.514 L175.594,179.671 C175.594,179.671 205.686,168.348 205.686,155.92 C205.686,153.468 205.191,144.924 197.402,140.427 C191.03,136.748 186.994,147.254 186.994,147.254" id="Fill-200" fill="#FFBA00"></path>
        <polyline id="Fill-201" fill="#BA8800" points="221.122 196.309 231.85 189.542 231.85 203.032 221.122 209.799 221.122 196.309"></polyline>
        <path d="M217.038,324.678 C211.062,328.127 206.806,325.576 206.806,318.77 C206.806,311.775 211.389,304.024 217.038,300.762 C222.851,297.407 227.435,299.865 227.435,306.86 C227.435,313.665 223.014,321.227 217.038,324.678 Z M243.669,285.497 L235.627,281.776 C235.333,281.624 235.036,281.484 234.731,281.361 L234.728,281.359 C230.636,279.708 225.633,280.581 221.295,283.086 C218.184,284.882 216.465,287.008 216.465,287.008 L236.358,248.772 L217.365,259.738 L201.484,290.743 C194.443,305.868 190.842,314.28 190.842,327.987 C190.842,335.169 193.574,339.983 198.089,342.08 L207.951,346.502 L206.513,343.082 C209.921,342.608 213.726,341.243 217.774,338.905 C229.973,331.862 242.826,316.407 242.826,297.974 C242.826,293.884 242.198,290.617 241.125,288.06 L243.669,285.497 L243.669,285.497 Z" id="Fill-202" fill="#87201C"></path>
        <path d="M226.225,328.801 C232.201,325.35 236.621,317.788 236.621,310.983 C236.621,303.988 232.037,301.53 226.225,304.885 C220.576,308.147 215.992,315.898 215.992,322.893 C215.992,329.699 220.249,332.25 226.225,328.801 Z M225.652,291.131 C225.652,291.131 227.371,289.005 230.482,287.209 C239.733,281.868 252.012,283.948 252.012,302.097 C252.012,320.53 239.16,335.985 226.961,343.028 C211.817,351.772 200.028,347.045 200.028,332.11 C200.028,318.403 203.63,309.991 210.671,294.866 L226.552,263.861 L245.544,252.895 L225.652,291.131 L225.652,291.131 Z" id="Fill-203" fill="#FB3B34"></path>
        <polyline id="Fill-204" fill="#AD2824" points="236.358 248.772 245.544 252.895 226.552 263.861 217.365 259.738 236.358 248.772"></polyline>
        <path d="M344.838,21.476 C322.472,8.562 286.209,8.563 263.843,21.476 C252.66,27.932 247.069,36.394 247.069,44.857 L247.069,70.118 C247.069,78.581 252.66,87.043 263.843,93.5 C286.209,106.413 322.472,106.413 344.837,93.5 C356.021,87.043 361.613,78.581 361.613,70.118 L361.613,44.857 C361.613,36.394 356.021,27.932 344.838,21.476" id="Fill-205" fill="#BA8800"></path>
        <path d="M344.837,68.238 C342.59,69.536 340.196,70.697 337.696,71.734 L337.696,96.995 C340.196,95.958 342.59,94.797 344.837,93.5 C356.021,87.043 361.613,78.581 361.613,70.118 L361.613,44.857 C361.613,53.319 356.021,61.782 344.837,68.238" id="Fill-206" fill="#008DB5"></path>
        <path d="M264.836,68.784 L264.836,94.045 C284.982,105.14 315.679,106.125 337.696,96.995 L337.696,71.734 C315.679,80.865 284.982,79.879 264.836,68.784" id="Fill-207" fill="#AD2824"></path>
        <path d="M344.837,68.238 C322.472,81.151 286.209,81.151 263.843,68.238 C241.477,55.325 241.477,34.389 263.843,21.476 C286.209,8.563 322.472,8.562 344.838,21.476 C367.205,34.389 367.204,55.325 344.837,68.238" id="Fill-208" fill="#FFBA00"></path>
        <path d="M337.696,71.734 L304.34,44.857 L264.836,68.784 C284.982,79.879 315.679,80.865 337.696,71.734" id="Fill-209" fill="#FB3B34"></path>
        <path d="M350.367,25.178 L304.34,44.857 L337.696,71.734 C340.196,70.697 342.59,69.536 344.837,68.238 C365.175,56.497 367.014,38.123 350.367,25.178" id="Fill-210" fill="#00BAEF"></path>
        <path d="M263.843,21.476 C260.567,23.367 257.786,25.435 255.469,27.62 L304.34,44.857 L350.367,25.178 C348.707,23.886 346.867,22.647 344.838,21.476 C322.472,8.562 286.209,8.563 263.843,21.476" id="Fill-211" fill="#39588A"></path>
        <path d="M304.341,103.184 C289.684,103.184 275.026,99.956 263.843,93.5 C252.66,87.043 247.069,78.581 247.069,70.118 L247.069,59.271 C247.069,67.733 252.66,76.196 263.843,82.652 C264.171,82.841 264.503,83.029 264.836,83.212 L264.836,94.045 C275.889,100.132 290.118,103.176 304.347,103.176 C316.053,103.176 327.759,101.116 337.696,96.995 C340.077,96.007 342.363,94.907 344.517,93.683 C333.375,100.017 318.858,103.184 304.341,103.184" id="Fill-212" fill="#A77A00"></path>
        <path d="M337.696,96.995 L337.696,86.157 C340.198,85.119 342.588,83.951 344.837,82.652 C356.021,76.196 361.613,67.733 361.613,59.271 L361.613,70.118 C361.613,78.581 356.021,87.043 344.837,93.5 C344.731,93.561 344.624,93.622 344.517,93.683 C342.363,94.907 340.077,96.007 337.696,96.995" id="Fill-213" fill="#007FA3"></path>
        <path d="M304.347,103.176 C290.118,103.176 275.889,100.132 264.836,94.045 L264.836,83.212 C275.887,89.296 290.113,92.337 304.341,92.337 C316.049,92.337 327.758,90.277 337.696,86.157 L337.696,96.995 C327.759,101.116 316.053,103.176 304.347,103.176" id="Fill-214" fill="#9B2420"></path>
        <path d="M560.507,1.981 L502.882,76.271 C500.333,79.103 498.402,82.486 497.566,86.203 C495.116,97.093 501.134,108.496 515.624,116.862 C540.412,131.173 580.601,131.173 605.39,116.862 C621.83,107.37 625.794,94.496 621.433,82.03 C620.427,79.156 618.795,76.539 616.75,74.284 L560.507,1.981" id="Fill-215" fill="#39588A"></path>
        <path d="M560.414,1.808 L514.663,60.789 C512.64,63.037 511.107,65.723 510.443,68.674 C508.498,77.321 513.276,86.374 524.78,93.016 C544.46,104.378 576.368,104.378 596.048,93.016 C609.101,85.48 612.248,75.258 608.785,65.362 C607.987,63.079 606.691,61.002 605.068,59.211 L560.414,1.808" id="Fill-216" fill="#00BAEF"></path>
        <path d="M560.323,1.643 L526.235,46.034 C524.727,47.726 523.585,49.747 523.09,51.968 C521.641,58.476 525.202,65.289 533.772,70.288 C548.436,78.84 572.209,78.84 586.872,70.288 C596.598,64.617 598.943,56.923 596.363,49.475 C595.768,47.758 594.803,46.194 593.593,44.846 L560.323,1.643" id="Fill-217" fill="#FB3B34"></path>
        <path d="M560.244,1.491 L536.218,32.464 C535.156,33.645 534.351,35.055 534.002,36.605 C532.98,41.146 535.49,45.9 541.531,49.388 C551.866,55.355 568.622,55.355 578.957,49.388 C585.812,45.43 587.464,40.063 585.646,34.866 C585.227,33.667 584.546,32.577 583.694,31.636 L560.244,1.491" id="Fill-218" fill="#FFBA00"></path>
        <path d="M40.596,325.07 C40.633,324.912 40.672,324.754 40.712,324.597 C40.672,324.754 40.633,324.912 40.596,325.07 M164.433,321.03 C163.435,318.178 161.821,315.58 159.798,313.337 C161.821,315.58 163.435,318.178 164.433,321.03" id="Fill-219" fill="#E5E5E5"></path>
        <path d="M560.507,127.595 C544.262,127.595 528.018,124.018 515.624,116.862 C503.228,109.706 497.032,100.326 497.034,90.946 C497.034,89.361 497.212,87.777 497.566,86.203 C497.569,86.188 497.572,86.174 497.576,86.16 C497.576,86.158 497.576,86.157 497.577,86.155 C497.579,86.143 497.582,86.13 497.585,86.117 C497.586,86.116 497.586,86.114 497.586,86.112 C497.589,86.099 497.592,86.087 497.595,86.074 C497.596,86.073 497.596,86.071 497.596,86.07 C497.633,85.912 497.672,85.754 497.712,85.597 C497.713,85.595 497.714,85.593 497.714,85.591 C497.717,85.58 497.72,85.569 497.723,85.558 C497.724,85.553 497.725,85.549 497.726,85.544 C497.729,85.536 497.731,85.527 497.733,85.518 C497.735,85.513 497.736,85.507 497.738,85.501 C497.739,85.494 497.741,85.487 497.743,85.48 C497.745,85.473 497.747,85.465 497.749,85.458 C497.75,85.454 497.751,85.45 497.752,85.447 C498.535,82.528 499.991,79.831 501.876,77.462 C501.876,77.482 501.172,106.497 542.97,116.408 C549.031,117.845 554.782,118.475 560.19,118.474 C592.091,118.473 611.979,96.548 612.112,89.002 C612.136,87.594 610.832,84.405 608.623,80.043 C610.595,75.318 610.513,70.299 608.785,65.362 C608.354,64.129 607.778,62.956 607.083,61.856 L616.75,74.284 C616.766,74.301 616.782,74.319 616.798,74.337 C618.821,76.58 620.435,79.178 621.433,82.03 C622.51,85.11 623.08,88.215 623.078005,91.287 C623.074,100.651 617.768,109.716 605.39,116.862 C592.995,124.018 576.751,127.595 560.507,127.595" id="Fill-220" fill="#334F7C"></path>
        <path d="M608.623,80.043 C605.828,74.525 601.588,67.131 596.754,59.073 C597.672,55.95 597.476,52.689 596.363,49.475 C595.768,47.758 594.803,46.194 593.593,44.846 L585.363,34.159 C585.268,33.947 585.164,33.739 585.052,33.534 L607.083,61.856 C607.778,62.956 608.354,64.129 608.785,65.362 C610.513,70.299 610.595,75.318 608.623,80.043" id="Fill-221" fill="#00A7D7"></path>
        <path d="M596.754,59.073 C593.346,53.393 589.643,47.383 585.947,41.475 C586.565,39.323 586.42,37.079 585.646,34.866 C585.562,34.626 585.468,34.39 585.363,34.159 L593.593,44.846 C594.803,46.194 595.768,47.758 596.363,49.475 C597.476,52.689 597.672,55.95 596.754,59.073" id="Fill-222" fill="#E1352F"></path>
        <path d="M585.947,41.475 C574.781,23.626 563.672,6.695 560.905,2.493 L585.052,33.534 C585.164,33.739 585.268,33.947 585.363,34.159 C585.468,34.39 585.562,34.626 585.646,34.866 C586.42,37.079 586.565,39.323 585.947,41.475" id="Fill-223" fill="#E5A700"></path>
        <polyline id="Fill-224" fill="#0097C2" points="214.158 106.472 214.158 92.319 173.945 69.102 173.945 83.255 214.158 106.472"></polyline>
        <polyline id="Fill-225" fill="#007799" points="214.158 106.472 238.988 92.136 238.988 77.983 214.158 92.319 214.158 106.472"></polyline>
        <polyline id="Fill-226" fill="#00BAEF" points="214.158 92.319 238.988 77.983 198.775 54.766 173.945 69.102 214.158 92.319"></polyline>
        <polyline id="Fill-227" fill="#00BAEF" points="444.253 265.38 426.788 255.296 444.253 245.212 461.719 255.296 444.253 265.38"></polyline>
        <polyline id="Fill-228" fill="#007596" points="461.719 275.465 444.253 285.549 444.253 265.38 461.719 255.296 461.719 275.465"></polyline>
        <polyline id="Fill-229" fill="#008DB5" points="426.788 275.465 444.253 285.549 444.253 265.38 426.788 255.296 426.788 275.465"></polyline>
        <polyline id="Fill-230" fill="#FFBA00" points="409.677 283.692 392.211 273.608 409.677 263.524 427.144 273.608 409.677 283.692"></polyline>
        <polyline id="Fill-231" fill="#BA8800" points="427.144 293.776 409.677 303.86 409.677 283.692 427.144 273.608 427.144 293.776"></polyline>
        <polyline id="Fill-232" fill="#E3A500" points="392.211 293.776 409.677 303.86 409.677 283.692 392.211 273.608 392.211 293.776"></polyline>
        <polyline id="Fill-233" fill="#FB3B34" points="448.22 300.394 430.754 290.31 448.22 280.226 465.686 290.31 448.22 300.394"></polyline>
        <polyline id="Fill-234" fill="#87201C" points="465.686 310.478 448.22 320.562 448.22 300.394 465.686 290.31 465.686 310.478"></polyline>
        <polyline id="Fill-235" fill="#AD2824" points="430.754 310.478 448.22 320.562 448.22 300.394 430.754 290.31 430.754 310.478"></polyline>
        <polyline id="Fill-236" fill="#FB3B34" points="443.506 132.48 426.04 122.396 443.506 112.312 460.972 122.396 443.506 132.48"></polyline>
        <polyline id="Fill-237" fill="#87201C" points="460.972 142.565 443.506 152.649 443.506 132.48 460.972 122.396 460.972 142.565"></polyline>
        <polyline id="Fill-238" fill="#AD2824" points="426.04 142.565 443.506 152.649 443.506 132.48 426.04 122.396 426.04 142.565"></polyline>
        <polyline id="Fill-239" fill="#FB3B34" points="420.256 146.132 402.79 136.048 420.256 125.964 437.722 136.048 420.256 146.132"></polyline>
        <polyline id="Fill-240" fill="#87201C" points="437.722 156.216 420.256 166.3 420.256 146.132 437.722 136.048 437.722 156.216"></polyline>
        <polyline id="Fill-241" fill="#AD2824" points="402.79 156.216 420.256 166.3 420.256 146.132 402.79 136.048 402.79 156.216"></polyline>
        <polyline id="Fill-242" fill="#00BAEF" points="451.138 151.758 433.672 141.674 451.138 131.59 468.604 141.674 451.138 151.758"></polyline>
        <polyline id="Fill-243" fill="#007596" points="468.604 161.842 451.138 171.927 451.138 151.758 468.604 141.674 468.604 161.842"></polyline>
        <polyline id="Fill-244" fill="#008DB5" points="433.672 161.842 451.138 171.927 451.138 151.758 433.672 141.674 433.672 161.842"></polyline>
        <polyline id="Fill-245" fill="#FFBA00" points="441.388 125.964 423.922 115.88 441.388 105.796 458.854 115.88 441.388 125.964"></polyline>
        <polyline id="Fill-246" fill="#BA8800" points="458.854 136.048 441.388 146.132 441.388 125.964 458.854 115.88 458.854 136.048"></polyline>
        <polyline id="Fill-247" fill="#E3A500" points="423.922 136.048 441.388 146.132 441.388 125.964 423.922 115.88 423.922 136.048"></polyline>
        <path d="M312.858,212.846 L326.986,204.689 C327.225,204.551 327.307,204.245 327.169,204.006 C327.031,203.767 326.725,203.685 326.486,203.823 L312.358,211.98 C312.119,212.119 312.037,212.424 312.175,212.663 C312.313,212.903 312.619,212.985 312.858,212.846" id="Fill-125" fill="#008DB5"></path>
    </g>
</svg>