<?xml version="1.0" encoding="UTF-8"?>
<svg width="564px" height="421px" viewBox="0 0 564 421" version="1.1" xmlns="http://www.w3.org/2000/svg" xmlns:xlink="http://www.w3.org/1999/xlink">
    <title>2342890</title>
    <defs>
        <path d="M27.438,16.773 L3.609,2.925 C2.434,2.242 1.333,1.432 0.313,0.498 L24.142,14.345 C25.161,15.279 26.263,16.09 27.438,16.773" id="path-1"></path>
        <polygon id="path-3" points="0.778612784 0.40813672 197.028 0.40813672 197.028 227.595 0.778612784 227.595"></polygon>
        <polyline id="path-5" points="1.489 0.435 1.457 11.772 1.451 11.958 1.483 0.621 1.489 0.435"></polyline>
        <polygon id="path-7" points="0 0.58 245.901 0.58 245.901 209.884 0 209.884"></polygon>
        <path d="M7.093,9.673 L22.731,0.585 C20.329,1.98 18.055,3.896 15.836,6.134 L0.198,15.222 C2.417,12.983 4.691,11.068 7.093,9.673" id="path-9"></path>
    </defs>
    <g id="2342890" stroke="none" stroke-width="1" fill="none" fill-rule="evenodd">
        <path d="M181.717,345.502003 C180.857,345.502003 179.997,345.274 179.232,344.817 L17.977,248.632 C14.07,246.302 15.232,240.358 19.729,239.671 L27,238.56 L181.107,328.304 L322.375,246.795 L329.56,250.98 L329.464,242.83 L448.517,174.14 L469.095,170.995 C469.377,170.952 469.652,170.931 469.918,170.931 C474.652,170.931 476.653,177.473 472.236,180.001 L184.126,344.861 C183.379,345.289 182.548,345.502003 181.717,345.502003" id="Fill-1" fill="#EEEEEE"></path>
        <polyline id="Fill-2" fill="#C5C5C5" points="169.022 149.397 169.119 157.546 329.56 250.98 329.464 242.83 169.022 149.397"></polyline>
        <polyline id="Fill-3" fill="#AA3967" points="329.464 242.83 329.56 250.98 477.946 165.364 477.85 157.215 329.464 242.83"></polyline>
        <polyline id="Fill-4" fill="#582536" points="169.022 149.397 329.464 242.83 477.85 157.215 317.408 63.782 169.022 149.397"></polyline>
        <polyline id="Fill-5" fill="#893656" points="20.665 234.87 20.761 243.02 181.203 336.453 181.107 328.304 20.665 234.87"></polyline>
        <polyline id="Fill-6" fill="#AA3967" points="181.107 328.304 181.203 336.453 329.589 250.838 329.493 242.689 181.107 328.304"></polyline>
        <polyline id="Fill-7" fill="#582536" points="20.665 234.87 181.107 328.304 329.493 242.689 169.051 149.255 20.665 234.87"></polyline>
        <polyline id="Fill-8" fill="#C5C5C5" points="172.84 117.472 172.936 151.508 325.661 240.263 325.564 206.226 172.84 117.472"></polyline>
        <path d="M325.564,206.226 L325.661,240.263 L469.611,157.152 C469.611,157.152 465.93,147.216 465.541,143.732 C464.4,133.502 469.514,123.116 469.514,123.116 L325.564,206.226" id="Fill-9" fill="#FFE0B8"></path>
        <polyline id="Fill-10" fill="#EDCCA9" points="172.84 117.472 325.564 206.226 469.514 123.116 316.79 34.362 172.84 117.472"></polyline>
        <path d="M234.564,70.308 C193.376,94.088 173.687,116.351 172.651,117.522 L325.376,206.276 C338.448,190.691 358.249,176.581 378.846,164.689 C420.036,140.908 462.181,126.755 464.4,126.01 L311.676,37.257 C280.871,46.439 255.162,58.416 234.564,70.308" id="Fill-11" fill="#F9E8D9"></path>
        <polyline id="Fill-12" fill="#FFE0B8" points="181.722 289.386 181.818 323.422 325.768 240.313 325.672 206.276 181.722 289.386"></polyline>
        <path d="M28.285,200.171 C28.285,200.171 32.906,211.096 32.258,221.142 C31.841,227.613 28.382,234.207 28.382,234.207 L181.818,323.422 C181.818,323.422 182.925,308.873 182.867,304.015 C182.822,300.347 181.722,289.386 181.722,289.386 L28.285,200.171" id="Fill-13" fill="#FFD28E"></path>
        <polyline id="Fill-14" fill="#EDCCA9" points="28.997 200.632 181.722 289.386 325.672 206.276 172.948 117.522 28.997 200.632"></polyline>
        <polyline id="Fill-15" fill="#CEA672" points="29.925 205.148 181.938 293.489 448.105 140.181 447.606 139.314 181.94 292.334 30.427 204.284 29.925 205.148"></polyline>
        <polyline id="Fill-16" fill="#CEA672" points="30.987 210.304 182.416 298.306 449.798 147 449.305 146.13 182.423 297.153 31.49 209.44 30.987 210.304"></polyline>
        <polyline id="Fill-17" fill="#CEA672" points="31.847 215.344 182.897 303.124 448.844 153.172 448.353 152.301 182.904 301.972 32.349 214.479 31.847 215.344"></polyline>
        <polyline id="Fill-18" fill="#CEA672" points="32.065 220.01 182.809 307.611 450.325 157.306 449.835 156.434 182.817 306.459 32.567 219.145 32.065 220.01"></polyline>
        <polyline id="Fill-19" fill="#CEA672" points="31.847 224.421 182.602 312.031 451.441 161.572 450.953 160.699 182.611 310.88 32.349 223.556 31.847 224.421"></polyline>
        <polyline id="Fill-20" fill="#CEA672" points="30.681 228.283 182.341 316.418 468.259 155.197 467.768 154.326 182.349 315.266 31.184 227.418 30.681 228.283"></polyline>
        <polyline id="Fill-21" fill="#CEA672" points="29.322 232.031 182.049 320.787 457.879 163.395 457.384 162.526 182.053 319.633 29.824 231.166 29.322 232.031"></polyline>
        <path d="M95.837,150.635 C54.648,174.416 34.96,196.678 33.924,197.85 L186.648,286.604 C199.721,271.019 219.521,256.908 240.119,245.016 C281.308,221.235 323.454,207.082 325.672,206.338 L172.948,117.584 C142.143,126.766 116.435,138.743 95.837,150.635" id="Fill-22" fill="#FFEDD9"></path>
        <path d="M259.984,168.103 L215.24,142.1 C216.98,141.035 218.754,139.98 220.558,138.939 C244.981,124.838 268.654,116.819 283.04,116.819 C289.475,116.819 294.054,118.425 296.008,121.809 C301.28,130.941 285.785,150.14 259.984,168.103" id="Fill-23" fill="#EADED5"></path>
        <path d="M259.936,168.136 L215.188,142.132 C215.207,142.12 215.221,142.112 215.24,142.1 L259.984,168.103 C259.969,168.113 259.951,168.126 259.936,168.136" id="Fill-24" fill="#E2CCB5"></path>
        <path d="M180.967,200.705 C174.532,200.704 169.952,199.099 167.998,195.715 C162.004,185.331 182.864,161.929 215.188,142.132 L259.936,168.136 C254.817,171.698 249.296,175.21 243.449,178.586 C219.025,192.686 195.353,200.705 180.967,200.705" id="Fill-25" fill="#EEE2D5"></path>
        <g id="Group-28" transform="translate(229.000000, 120.000000)">
            <mask id="mask-2" fill="white">
                <use xlink:href="#path-1"></use>
            </mask>
            <g id="Clip-27"></g>
            <path d="M27.438,16.773 L3.609,2.925 C2.434,2.242 1.333,1.432 0.313,0.498 L24.142,14.345 C25.161,15.279 26.263,16.09 27.438,16.773" id="Fill-26" fill="#4A4A4A" mask="url(#mask-2)"></path>
        </g>
        <path d="M288.223,41.069 C295.734,37.583 304.944,35.98 312.46,40.347 C307.829,37.656 303.198,34.965 298.568,32.273 C295.844,30.691 293.12,29.108 290.396,27.525 C287.703,25.96 284.996,24.609 281.865,24.115 C274.414,22.939 266.866,25.57 260.483,29.255 C263.414,30.959 266.346,32.662 269.276,34.365 C273.634,36.897 277.99,39.429 282.348,41.961 C282.901,42.283 283.461,42.69 284.048,42.949 L284.31,43.103059 C284.455,43.108 284.854,42.794 284.998,42.715 C285.375,42.507 285.754,42.303 286.136,42.104 C286.823,41.743 287.518,41.396 288.223,41.069" id="Fill-29" fill="#EF78BF"></path>
        <path d="M267.368,95.701 C268.555,88.38 268.901,80.824 267.786,73.47 C267.317,70.378 266.583,67.318 265.498,64.382 C265.247,63.703 264.977,63.03 264.688,62.366 C264.538,62.021 264.373,61.397 264.106,61.127 C263.984,61.003 263.751,60.919 263.601,60.833 C257.841,57.485 252.08,54.138 246.32,50.79 C244.312,49.623 242.305,48.457 240.297,47.29 C244.291,55.586 245.057,65.139 244.429,74.208 C243.726,84.369 241.107,94.357 237.38,103.811 C235.487,108.613 233.278,113.282 230.812,117.816 C230.508,118.377 230.2,118.935 229.887,119.491 C229.796,119.652 229.262,120.344 229.316,120.5 L229.538,120.629 C229.917,120.947 230.462,121.165 230.888,121.413 C234.974,123.788 239.061,126.162 243.147,128.537 C245.252,129.76 247.357,130.983 249.462,132.207 C250.214,132.644 250.966,133.081 251.718,133.518 C252.086,133.732 252.56,134.142 252.975,134.249 L253.142,134.345 C258.507,125.048 262.787,115.045 265.471,104.642 C266.232,101.689 266.88,98.712 267.368,95.701" id="Fill-30" fill="#4A4A4A"></path>
        <path d="M265.743,59.158 C271.009,52.878 277.189,47.215 284.311,43.103 C279.874,40.524 275.436,37.945 270.999,35.366 C268.265,33.778 265.532,32.19 262.799,30.601 C262.126,30.21 261.439,29.697 260.721,29.394 C260.297,29.214 260.349,29.328 259.802,29.657 C258.446,30.47 257.125,31.339 255.837,32.255 C249.945,36.445 244.775,41.628 240.297,47.29 C243.153,48.949 246.009,50.609 248.864,52.269 C253.18,54.776 257.494,57.284 261.809,59.792 C262.442,60.159 263.075,60.527 263.709,60.895 C263.796,60.946 263.985,61.111 264.089,61.1161025 C264.22,61.122 264.343,60.863 264.426,60.76 C264.858,60.22 265.299,59.688 265.743,59.158" id="Fill-31" fill="#E259A4"></path>
        <path d="M284.311,43.103 C306.156,30.491 323.928,40.613 323.999213,65.719 C324.07,90.821 306.414,121.397 284.569,134.009 C271.782,141.392 260.395,140.99 253.142,134.345 C262.651,117.869 268.502,99.316 268.454,82.583 C268.43,74.095 266.891,66.884 264.125,61.137 C270.028,53.675 276.93,47.365 284.311,43.103" id="Fill-32" fill="#F18CD0"></path>
        <path d="M264.128,61.132 C266.894,66.879 268.432,74.09 268.456,82.578 C268.504,99.311 262.653,117.863 253.144,134.34 C247.989,129.634 244.914,121.805 244.883787,111.392 C244.837,94.769 252.562,75.745 264.128,61.132" id="Fill-33" fill="#694EC3"></path>
        <path d="M217.693,51.214 C226.15,46.725 236.086,43.761 245.666,45.868 C248.257,46.438 250.77,47.401 253.065,48.734 C247.681,45.606 242.297,42.477 236.913,39.348 C234.472,37.929 232.03,36.51 229.588,35.091 C224.86,32.343 219.56,31.16 214.108,31.355 C206.175,31.639 198.501,34.634 191.694,38.564 C194.55,40.224 197.406,41.883 200.261,43.543 C204.576,46.05 208.891,48.558 213.206,51.066 C213.839,51.434 214.473,51.802 215.105,52.169 C215.206,52.228 215.369,52.371 215.485,52.39 C215.631,52.414 215.818,52.242 215.946,52.17 C216.523,51.842 217.107,51.525 217.693,51.214" id="Fill-34" fill="#FFD773"></path>
        <path d="M162.93,143.506 C162.889,129.165 166.961,114.903 172.947,101.967 C178.965,88.961 187.161,76.797 197.311,66.652 C202.767,61.199 208.83,56.276 215.522,52.412 C212.666,50.752 209.81,49.092 206.955,47.433 C202.616,44.911 198.277,42.39 193.937,39.868 C193.364,39.535 192.791,39.202 192.218,38.869 C191.557,38.485 191.653,38.58 190.847,39.062 C186.539,41.638 182.539,44.654 178.725,47.909 C171.036,54.472 164.442,62.397 158.839,70.786 C153.21,79.215 148.557,88.316 145.112,97.852 C141.627,107.501 139.359,117.668 139.12,127.95 C138.926,136.275 140.123,144.968 144.083,152.398 C146.649,157.211 150.344,161.091 155.055,163.829 C158.8,166.005 162.545,168.181 166.29,170.358 C170.086,172.564 173.883,174.77 177.679,176.976 C177.893,177.101 178.107,177.225 178.321,177.35 C169.859,172.432 165.416,163.124 163.788,153.784 C163.197,150.393 162.939,146.947 162.93,143.506" id="Fill-35" fill="#EAA40A"></path>
        <path d="M215.522,52.412 C237.276,39.852 255.995,44.195 264.13,61.133 C252.565,75.745 244.84,94.769 244.887,111.393 C244.916,121.805 247.992,129.635 253.146,134.34 C243.623,150.839 230.45,165.253 215.866,173.673 C186.725,190.497 163.024,176.991 162.929714,143.506 C162.835,110.021 186.381,69.236 215.522,52.412" id="Fill-36" fill="#F7B53D"></path>
        <path d="M261.039,118.136 C260.412,119.71 259.746,121.277 259.046,122.834 L250.925,131.995 C250.582,131.566 250.252,131.121 249.94,130.656 L261.039,118.136" id="Fill-37" fill="#4AC5B1"></path>
        <path d="M264.869,106.936 C264.514,108.185 264.137,109.426 263.734,110.667 L248.371,127.999 C248.11,127.479 247.858,126.943 247.623,126.394 L264.869,106.936" id="Fill-38" fill="#4AC5B1"></path>
        <path d="M267.048,97.599 C266.856,98.653 266.643,99.71 266.413,100.768 L246.494,123.239 C246.311,122.629 246.144,122 245.992,121.353 L267.048,97.599" id="Fill-39" fill="#4AC5B1"></path>
        <path d="M268.153,89.477 C268.074,90.397 267.981,91.32 267.867,92.251 L245.311,117.696 C245.214,116.987 245.13,116.261 245.062,115.524 L268.153,89.477" id="Fill-40" fill="#4AC5B1"></path>
        <path d="M268.449,82.266 C268.449,82.385 268.454233,82.506 268.454233,82.625 C268.456,83.33 268.445,84.032 268.426,84.744 L244.885884,111.298 C244.884,110.464 244.908,109.626 244.944,108.78 L268.449,82.266" id="Fill-41" fill="#4AC5B1"></path>
        <path d="M267.126,70.001 C267.274,70.656 267.41,71.318 267.533,71.997 L247.072,95.075 C247.38,93.878 247.722,92.677 248.091,91.476 L267.126,70.001" id="Fill-42" fill="#4AC5B1"></path>
        <path d="M265.637,64.804 C265.841,65.391 266.042,65.981 266.225,66.591 L250.755,84.044 C251.433,82.39 252.16,80.753 252.937,79.127 L265.637,64.804" id="Fill-43" fill="#4AC5B1"></path>
        <path d="M268.08,75.805 C268.16,76.534 268.231,77.268 268.285,78.022 L245.371,103.873 C245.494,102.893 245.642,101.907 245.812,100.92 L268.08,75.805" id="Fill-44" fill="#4AC5B1"></path>
        <polyline id="Fill-45" fill="#FF8F83" points="93.353 200.116 87.468 196.696 121.814 176.866 127.7 180.286 93.353 200.116"></polyline>
        <polyline id="Fill-46" fill="#E05446" points="92.173 202.16 86.287 198.739 85.814 31.632 91.7 35.052 92.173 202.16"></polyline>
        <polyline id="Fill-47" fill="#FF8F83" points="91.7 35.052 85.814 31.632 86.997 30.949 92.883 34.369 91.7 35.052"></polyline>
        <polyline id="Fill-48" fill="#FA6551" points="92.883 34.369 93.353 200.116 127.7 180.286 127.704 181.646 92.173 202.16 91.7 35.052 92.883 34.369"></polyline>
        <polyline id="Fill-49" fill="#E05446" points="104.079 43.993 99.379 41.262 99.376 40.176 104.076 42.907 104.079 43.993"></polyline>
        <polyline id="Fill-50" fill="#FF8F83" points="104.076 42.907 99.376 40.176 113.887 31.798 118.586 34.53 104.076 42.907"></polyline>
        <polyline id="Fill-51" fill="#FA6551" points="118.586 34.53 118.59 35.616 104.079 43.993 104.076 42.907 118.586 34.53"></polyline>
        <polyline id="Fill-52" fill="#E05446" points="104.079 56.423 99.379 53.691 99.376 52.606 104.076 55.337 104.079 56.423"></polyline>
        <polyline id="Fill-53" fill="#FF8F83" points="104.076 55.337 99.376 52.606 113.887 44.228 118.586 46.96 104.076 55.337"></polyline>
        <polyline id="Fill-54" fill="#FA6551" points="118.586 46.96 118.59 48.045 104.079 56.423 104.076 55.337 118.586 46.96"></polyline>
        <polyline id="Fill-55" fill="#E05446" points="104.079 68.852 99.379 66.121 99.376 65.03 104.076 67.761 104.079 68.852"></polyline>
        <polyline id="Fill-56" fill="#FF8F83" points="104.076 67.761 99.376 65.03 113.887 56.652 118.586 59.384 104.076 67.761"></polyline>
        <polyline id="Fill-57" fill="#FA6551" points="118.586 59.384 118.59 60.475 104.079 68.852 104.076 67.761 118.586 59.384"></polyline>
        <polyline id="Fill-58" fill="#E05446" points="104.079 81.276 99.379 78.545 99.376 77.459 104.076 80.19 104.079 81.276"></polyline>
        <polyline id="Fill-59" fill="#FF8F83" points="104.076 80.19 99.376 77.459 113.887 69.082 118.586 71.813 104.076 80.19"></polyline>
        <polyline id="Fill-60" fill="#FA6551" points="118.586 71.813 118.59 72.899 104.079 81.276 104.076 80.19 118.586 71.813"></polyline>
        <polyline id="Fill-61" fill="#E05446" points="104.079 93.706 99.379 90.975 99.376 89.889 104.076 92.62 104.079 93.706"></polyline>
        <polyline id="Fill-62" fill="#FF8F83" points="104.076 92.62 99.376 89.889 113.887 81.511 118.586 84.242 104.076 92.62"></polyline>
        <polyline id="Fill-63" fill="#FA6551" points="118.586 84.242 118.59 85.329 104.079 93.706 104.076 92.62 118.586 84.242"></polyline>
        <polyline id="Fill-64" fill="#E05446" points="104.079 106.13 99.379 103.399 99.376 102.313 104.076 105.044 104.079 106.13"></polyline>
        <polyline id="Fill-65" fill="#FF8F83" points="104.076 105.044 99.376 102.313 113.887 93.935 118.586 96.666 104.076 105.044"></polyline>
        <polyline id="Fill-66" fill="#FA6551" points="118.586 96.666 118.59 97.753 104.079 106.13 104.076 105.044 118.586 96.666"></polyline>
        <polyline id="Fill-67" fill="#E05446" points="104.079 118.56 99.379 115.828 99.376 114.742 104.076 117.474 104.079 118.56"></polyline>
        <polyline id="Fill-68" fill="#FF8F83" points="104.076 117.474 99.376 114.742 113.887 106.365 118.586 109.096 104.076 117.474"></polyline>
        <polyline id="Fill-69" fill="#FA6551" points="118.586 109.096 118.59 110.182 104.079 118.56 104.076 117.474 118.586 109.096"></polyline>
        <polyline id="Fill-70" fill="#E05446" points="104.079 130.989 99.379 128.257 99.376 127.166 104.076 129.898 104.079 130.989"></polyline>
        <polyline id="Fill-71" fill="#FF8F83" points="104.076 129.898 99.376 127.166 113.887 118.789 118.586 121.52 104.076 129.898"></polyline>
        <polyline id="Fill-72" fill="#FA6551" points="118.586 121.52 118.59 122.611 104.079 130.989 104.076 129.898 118.586 121.52"></polyline>
        <polyline id="Fill-73" fill="#E05446" points="104.079 143.413 99.379 140.682 99.376 139.595 104.076 142.327 104.079 143.413"></polyline>
        <polyline id="Fill-74" fill="#FF8F83" points="104.076 142.327 99.376 139.595 113.887 131.218 118.586 133.949 104.076 142.327"></polyline>
        <polyline id="Fill-75" fill="#FA6551" points="118.586 133.949 118.59 135.036 104.079 143.413 104.076 142.327 118.586 133.949"></polyline>
        <polyline id="Fill-76" fill="#E05446" points="104.079 155.843 99.379 153.111 99.376 152.025 104.076 154.756 104.079 155.843"></polyline>
        <polyline id="Fill-77" fill="#FF8F83" points="104.076 154.756 99.376 152.025 113.887 143.648 118.586 146.379 104.076 154.756"></polyline>
        <polyline id="Fill-78" fill="#FA6551" points="118.586 146.379 118.59 147.465 104.079 155.843 104.076 154.756 118.586 146.379"></polyline>
        <polyline id="Fill-79" fill="#E05446" points="104.079 168.272 99.379 165.541 99.376 164.449 104.076 167.181 104.079 168.272"></polyline>
        <polyline id="Fill-80" fill="#FF8F83" points="104.076 167.181 99.376 164.449 113.887 156.072 118.586 158.803 104.076 167.181"></polyline>
        <polyline id="Fill-81" fill="#FA6551" points="118.586 158.803 118.59 159.894 104.079 168.272 104.076 167.181 118.586 158.803"></polyline>
        <polyline id="Fill-82" fill="#E05446" points="104.079 180.696 99.379 177.965 99.376 176.879 104.076 179.61 104.079 180.696"></polyline>
        <polyline id="Fill-83" fill="#FF8F83" points="104.076 179.61 99.376 176.879 113.887 168.501 118.586 171.233 104.076 179.61"></polyline>
        <polyline id="Fill-84" fill="#FA6551" points="118.586 171.233 118.59 172.318 104.079 180.696 104.076 179.61 118.586 171.233"></polyline>
        <path d="M339.867,68.089 L340.637,71.253 C340.788,71.877 341.416,72.259 342.04,72.107 L356.73,68.539 C358.227,68.175 359.146,66.666 358.782,65.169 C358.419,63.672 356.91,62.753 355.413,63.116 L340.723,66.686 C340.098,66.837 339.716,67.465 339.867,68.089" id="Fill-85" fill="#E59885"></path>
        <path d="M344.266,70.767 L344.266,70.767 C345.118,69.482 344.767,67.751 343.483,66.899 L327.889,57.961 L326.435,60.153 L340.399,71.549 C341.683,72.401 343.415,72.05 344.266,70.767" id="Fill-86" fill="#E59885"></path>
        <path d="M327.889,57.961 C327.889,57.961 328.046,55.111 327.388,54.425 C326.73,53.74 326.261,55.665 326.261,55.665 C325.989,55.352 325.702,55.045 325.399,54.763 C325.178,54.556 324.973,54.43 324.871,54.13 C324.85,54.07 324.758,53.383 324.86,53.396 C324.348,53.332 323.914,53.802 323.747,54.29 C323.58,54.778 323.58,55.312 323.405,55.797 C323.333,55.999 323.231,56.189 323.162,56.392 C322.968,56.965 323.058,57.629 323.4,58.129 C323.776,58.679 324.253,58.748 324.814,58.985 C325.33,59.203 325.825,59.57 326.333,59.823 L327.889,57.961" id="Fill-87" fill="#E59885"></path>
        <path d="M353.663,120.452 L353.663,120.452 C351.804,120.059 350.615,118.233 351.009,116.373 L356.02,92.685 L366.744,94.954 L357.742,117.798 C357.348,119.657 355.522,120.845 353.663,120.452" id="Fill-88" fill="#513242"></path>
        <path d="M354.556,115.683 L354.556,115.683 C352.675,115.412 350.93,116.716 350.658,118.598 L346.361,148.363 L350.65,148.983 L357.47,119.581 C357.741,117.7 356.436,115.955 354.556,115.683" id="Fill-89" fill="#513242"></path>
        <path d="M373.324,121.352 L373.324,121.352 C371.426,121.452 369.806,119.994 369.707,118.096 L365.384,94.077 L375.31,93.556 L376.58,117.735 C376.68,119.633 375.222,121.253 373.324,121.352" id="Fill-90" fill="#513242"></path>
        <path d="M372.991,116.623 L372.991,116.623 C371.128,116.997 369.922,118.811 370.296,120.674 L376.225,150.158 L380.473,149.304 L377.043,119.317 C376.669,117.454 374.854,116.248 372.991,116.623" id="Fill-91" fill="#513242"></path>
        <path d="M355.195,94.171 C355.195,94.171 361.243,95.171 365.949,94.941 C372.169,94.637 376.113,93.151 376.113,93.151 L374.379,65.275 C374.245,63.123 372.502,61.424 370.348,61.346 C368.493,61.278 366.207,61.235 364.076,61.306 C360.188,61.435 354.289,62.509 354.289,62.509 L355.195,94.171" id="Fill-92" fill="#59CCBD"></path>
        <path d="M346.361,148.363 C346.361,148.363 341.22,147.707 340.532,149.496 L350.371,150.917 L350.65,148.983 L346.361,148.363" id="Fill-93" fill="#F96692"></path>
        <polyline id="Fill-94" fill="#CC8071" points="362.021 62.773 366.085 63.113 366.574 57.272 362.51 56.931 362.021 62.773"></polyline>
        <path d="M376.154,149.46 C376.154,149.46 370.978,149.736 370.623,151.619 L380.556,151.253 L380.485,149.3 L376.154,149.46" id="Fill-95" fill="#F96692"></path>
        <path d="M359.553,52.133 C359.62,54.24 359.886,56.341 360.348,58.398 C360.403,58.646 360.465,58.901 360.617,59.104 C360.94,59.534 361.55,59.599 362.087,59.627 C366.341,59.853 369.713,57.458 370.088,52.982 C370.493,48.132 367.355,45.694 362.966,45.079 C362.056,44.951 361.047,45.163 360.432,45.846 C359.856,46.485 359.724,47.401 359.652,48.258 C359.544,49.547 359.511,50.841 359.553,52.133" id="Fill-96" fill="#E59885"></path>
        <path d="M382.011,81.758 L384.691,79.912 C385.221,79.547 385.308,78.759 384.889,78.151 L375.013,63.809 C374.006,62.347 372.161,61.871 370.892,62.745 C369.623,63.619 369.411,65.512 370.417,66.974 L380.294,81.315 C380.714,81.924 381.481,82.122 382.011,81.758" id="Fill-97" fill="#E59885"></path>
        <path d="M383.584,83.752 L378.96,91.761 C378.188,93.097 376.48,93.555 375.144,92.783 L362.16,85.287 C360.824,84.516 360.366,82.807 361.138,81.471 L365.762,73.462 C366.533,72.126 368.241,71.669 369.577,72.44 L382.561,79.936 C383.897,80.708 384.355,82.416 383.584,83.752" id="Fill-98" fill="#A6A6BA"></path>
        <path d="M384.722,78.125 L384.722,78.125 C384.068,76.73 382.514,76.078 381.25,76.671 L367.034,84.624 L368.15,87.005 L383.617,81.723 C384.881,81.131 385.376,79.52 384.722,78.125" id="Fill-99" fill="#E59885"></path>
        <path d="M368.608,86.358 C368.704,86.823 368.483,87.146 368.178,87.371 C367.87,87.601 367.63,87.91 367.327,88.146 C366.524,88.771 365.362,88.785 364.429,88.38 C364.133,88.252 363.846,88.08 363.646,87.825 C363.446,87.571 363.346,87.224 363.444,86.917 C363.537,86.628 363.781,86.42 363.954,86.172 C364.222,85.787 364.335,85.285 364.702,84.995 C365.062,84.711 365.524,84.73 365.956,84.7 C366.243,84.681 366.897,84.41 367.11,84.443 C367.56,84.511 367.944,85.425 368.221,85.814 C368.317,85.95 368.574,86.191 368.608,86.358" id="Fill-100" fill="#E59885"></path>
        <path d="M364.076,61.306 C365.507,61.258 367.003,61.263 368.395,61.291 C368.067,63.556 366.125,65.298 363.769,65.298 C361.574,65.298 359.739,63.786 359.231,61.749 C360.849,61.539 362.606,61.355 364.076,61.306" id="Fill-101" fill="#2FAE9B"></path>
        <path d="M364.076,61.306 C365.172,61.27 366.307,61.264 367.405,61.276 C367.247,63.143 365.684,64.61 363.775,64.61 C361.99,64.61 360.507,63.325 360.194,61.629 C361.526,61.472 362.894,61.345 364.076,61.306" id="Fill-102" fill="#CC8071"></path>
        <path d="M367.693,57.371 C367.447,57.84 366.957,58.377 366.513,58.665 L366.426,58.74 L366.402,58.815 C366.344,59.117 366.331,59.427 366.363,59.732 C367.672,59.767 369.069,58.895 369.844,57.893 C370.397,57.175 370.744,56.31 370.887,55.418 C370.956,54.983 370.939,54.567 370.942,54.133 C370.945,53.691 371.036,53.252 371.036,52.808 C371.036,51.734 370.74,50.683 370.386,49.67 C370.273,49.349 370.152,49.026 369.951,48.753 C369.75,48.479 369.457,48.255 369.12,48.212 L368.918,48.242 C368.842,48.293 368.819,48.394 368.806,48.485 C368.735,49.003 368.783,49.528 368.802,50.049 C368.854,51.502 368.68,52.963 368.285,54.362 C368.161,54.801 367.953,55.173 367.93,55.648 C367.902,56.191 368.02,56.625 367.795,57.157 L367.693,57.371" id="Fill-103" fill="#4A40A0"></path>
        <path d="M359.231,62.307 C359.231,62.307 353.313,61.27 346.861,65.194 C346.861,65.194 348.979,71.226 353.395,74.524 C353.395,74.524 357.799,70.84 359.535,65.97 C360.194,64.121 359.231,62.307 359.231,62.307" id="Fill-104" fill="#59CCBD"></path>
        <path d="M370.15,61.2699736 C370.15,61.2699736 374.607,61.213 377.277,66.398 L379.155,68.704 C379.155,68.704 377.387,74.642 374.696,75.69 C374.696,75.69 366.447,66.171 370.15,61.2699736" id="Fill-105" fill="#59CCBD"></path>
        <path d="M327.942,49.767 L324.192,51.034 C324.049,51.083 323.952,51.217 323.952992,51.369 L323.998,62.052 C323.999,62.292 324.235,62.461 324.463,62.384 L328.212,61.116 C328.355,61.068 328.452,60.933 328.451008,60.782 L328.406,50.098 C328.405,49.858 328.169,49.689 327.942,49.767" id="Fill-106" fill="#2C1D75"></path>
        <path d="M327.942,49.767 L324.192,51.034 C324.049,51.083 323.952,51.217 323.952992,51.369 L323.998,62.052 C323.999,62.292 324.235,62.461 324.463,62.384 L328.212,61.116 C328.355,61.068 328.452,60.933 328.451008,60.782 L328.406,50.098 C328.405,49.858 328.169,49.689 327.942,49.767" id="Fill-107" fill="#5549AD"></path>
        <path d="M328.212,61.116 C328.355,61.068 328.452,60.933 328.451008,60.782 L328.406,50.168 L324.751,51.403 C324.607,51.452 324.512,51.586 324.512,51.738 L324.556,62.352 L328.212,61.116" id="Fill-108" fill="#2C1D75"></path>
        <path d="M327.856,51.982 C327.858,52.238 327.734,52.446 327.58,52.447 C327.426,52.447 327.301,52.24 327.3,51.983 C327.299,51.727 327.422,51.519 327.576,51.518 C327.73,51.517 327.855,51.725 327.856,51.982" id="Fill-109" fill="#6958DD"></path>
        <path d="M327.737,56.399 C327.475,56.027 327.234,55.589 327.662,55.493 C327.84,55.454 328.021,55.536 328.176,55.632 C328.838,56.043 329.233,56.819 329.388,57.565 C329.469,57.952 329.498,58.706 329.089,58.944 C328.814,59.103 328.228,58.79 328.053,58.563 C327.885,58.347 327.889,58.046 327.931,57.776 C327.966,57.566 328.017,57.359 328.089,57.158 L328.12,57.007 L328.081,56.89 C328.037,56.796 327.884,56.608 327.737,56.399" id="Fill-110" fill="#E59885"></path>
        <path d="M366.118,49.128 C366.118,49.128 361.958,51.807 358.962,51.363 C358.962,51.363 355.689,44.929 360.793,43.986 C365.896,43.043 369,47.425 369,47.425 C369,47.425 371.289,49.536 370.95,51.781 C370.611,54.026 368.059,56.134 368.059,56.134 C368.059,56.134 365.119,50.554 366.118,49.128" id="Fill-111" fill="#4A40A0"></path>
        <g id="Group-115" transform="translate(366.000000, 53.000000)">
            <mask id="mask-4" fill="white">
                <use xlink:href="#path-3"></use>
            </mask>
            <g id="Clip-113"></g>
            <path d="M1.65,0.733 C1.808,0.576 1.997,0.429 2.219,0.41 C2.508,0.386 2.779,0.597 2.9,0.861 C3.02,1.125 3.015,1.429 2.973,1.716 C2.818,2.723 2.187,3.646 1.305,4.153 C1.115,3.527 0.952,2.893 0.813,2.253 C0.743,1.926 0.769,1.726 0.993,1.489 C1.221,1.248 1.413,0.969 1.65,0.733" id="Fill-112" fill="#E59885" mask="url(#mask-4)"></path>
            <path d="M153.003,227.595 C151.82,227.595 150.632,227.505 149.45,227.323 C129.075,224.193 79.111,216.756 55.858,215.407 C54.521,215.329 54.424,213.396 55.746,213.182 L97.109,206.471 C97.958,206.333 98.342,205.329 97.801,204.66 L70.348,177.611 C69.024,176.306 70.027,174.155 71.733,174.155 C71.882,174.155 72.036,174.171 72.194,174.206 L196.141,201.369 C197.12,201.578 197.354,202.868 196.512,203.408 L165.947,223.689 C162.086,226.25 157.582,227.595 153.003,227.595" id="Fill-114" fill="#EEEEEE" mask="url(#mask-4)"></path>
        </g>
        <polyline id="Fill-116" fill="#4AC3BC" points="453.153 217.855 482.581 200.753 524.642 225.037 495.215 242.139 453.153 217.855"></polyline>
        <polyline id="Fill-117" fill="#2E8989" points="453.356 146.284 482.784 129.183 482.581 200.753 453.153 217.855 453.356 146.284"></polyline>
        <polyline id="Fill-118" fill="#4AC3BC" points="440.452 92.203 469.88 75.101 549.47 257.363 520.042 274.465 440.452 92.203"></polyline>
        <path d="M453.356,146.284 L453.153,217.855 L495.215,242.139 L453.356,146.284 M440.452,92.203 L520.042,274.465 L440.066,228.291 L440.452,92.203" id="Fill-119" fill="#3BAFB2"></path>
        <polyline id="Fill-120" fill="#06457E" points="445.548 119.883 445.542 121.828 440.452 118.889 440.457 116.944 445.548 119.883"></polyline>
        <polyline id="Fill-121" fill="#06457E" points="444.096 123.56 444.09 125.509 440.452 123.409 440.457 121.459 444.096 123.56"></polyline>
        <polyline id="Fill-122" fill="#06457E" points="444.096 127.661 444.09 129.61 440.452 127.51 440.457 125.561 444.096 127.661"></polyline>
        <polyline id="Fill-123" fill="#06457E" points="444.096 131.761 444.09 133.706 440.452 131.606 440.457 129.661 444.096 131.761"></polyline>
        <polyline id="Fill-124" fill="#06457E" points="445.548 136.276 445.542 138.226 440.452 135.287 440.457 133.337 445.548 136.276"></polyline>
        <polyline id="Fill-125" fill="#06457E" points="444.096 139.958 444.09 141.908 440.452 139.808 440.457 137.858 444.096 139.958"></polyline>
        <polyline id="Fill-126" fill="#06457E" points="444.096 144.059 444.09 146.004 440.452 143.903 440.457 141.959 444.096 144.059"></polyline>
        <polyline id="Fill-127" fill="#06457E" points="444.096 148.154 444.09 150.105 440.452 148.004 440.457 146.054 444.096 148.154"></polyline>
        <polyline id="Fill-128" fill="#06457E" points="445.548 152.675 445.542 154.625 440.452 151.686 440.457 149.736 445.548 152.675"></polyline>
        <polyline id="Fill-129" fill="#06457E" points="444.096 156.357 444.09 158.301 440.452 156.201 440.457 154.256 444.096 156.357"></polyline>
        <polyline id="Fill-130" fill="#06457E" points="444.096 160.452 444.09 162.402 440.452 160.302 440.457 158.352 444.096 160.452"></polyline>
        <polyline id="Fill-131" fill="#06457E" points="444.096 164.553 444.09 166.503 440.452 164.403 440.457 162.453 444.096 164.553"></polyline>
        <polyline id="Fill-132" fill="#06457E" points="445.548 169.073 445.542 171.018 440.452 168.079 440.457 166.134 445.548 169.073"></polyline>
        <polyline id="Fill-133" fill="#06457E" points="444.096 172.75 444.09 174.699 440.452 172.599 440.457 170.65 444.096 172.75"></polyline>
        <polyline id="Fill-134" fill="#06457E" points="444.096 176.851 444.09 178.8 440.452 176.7 440.457 174.751 444.096 176.851"></polyline>
        <polyline id="Fill-135" fill="#06457E" points="444.096 180.951 444.09 182.896 440.452 180.796 440.457 178.851 444.096 180.951"></polyline>
        <polyline id="Fill-136" fill="#06457E" points="445.548 185.466 445.542 187.416 440.452 184.477 440.457 182.527 445.548 185.466"></polyline>
        <polyline id="Fill-137" fill="#06457E" points="444.096 189.149 444.09 191.098 440.452 188.998 440.457 187.048 444.096 189.149"></polyline>
        <polyline id="Fill-138" fill="#06457E" points="444.096 193.249 444.09 195.193 440.452 193.094 440.457 191.149 444.096 193.249"></polyline>
        <polyline id="Fill-139" fill="#06457E" points="444.096 197.345 444.09 199.294 440.452 197.194 440.457 195.244 444.096 197.345"></polyline>
        <polyline id="Fill-140" fill="#06457E" points="445.548 201.865 445.542 203.815 440.452 200.876 440.457 198.926 445.548 201.865"></polyline>
        <polyline id="Fill-141" fill="#06457E" points="444.096 205.547 444.09 207.491 440.452 205.391 440.457 203.446 444.096 205.547"></polyline>
        <polyline id="Fill-142" fill="#06457E" points="444.096 209.643 444.09 211.592 440.452 209.491 440.457 207.542 444.096 209.643"></polyline>
        <polyline id="Fill-143" fill="#06457E" points="444.096 213.743 444.09 215.693 440.452 213.593 440.457 211.643 444.096 213.743"></polyline>
        <polyline id="Fill-144" fill="#06457E" points="445.548 218.264 445.542 220.208 440.452 217.27 440.457 215.324 445.548 218.264"></polyline>
        <polyline id="Fill-145" fill="#06457E" points="444.096 221.94 444.09 223.89 440.452 221.789 440.457 219.839 444.096 221.94"></polyline>
        <polyline id="Fill-146" fill="#06457E" points="444.096 226.041 444.09 227.99 440.452 225.891 440.457 223.941 444.096 226.041"></polyline>
        <path d="M462.233,243.991 L462.602,244.236 C463.639,244.925 465.038,244.642 465.725,243.605 L474.31,230.664 L473.556,230.164 C471.695,228.929 469.184,229.437 467.95,231.298 L461.601,240.868 C460.913,241.905 461.196,243.303 462.233,243.991" id="Fill-147" fill="#E86042"></path>
        <path d="M479.094,257.796 C479.094,257.796 480.855,268.978 470.354,266.779 C470.354,266.779 462.94,266.469 460.24,262.945 L461.076,253.264 L479.094,257.796" id="Fill-148" fill="#2C1D75"></path>
        <path d="M465.551,243.547 L465.551,243.547 C465.938,242.236 465.188,240.859 463.878,240.473 L448.323,236.968 L447.663,239.205 L462.477,245.221 C463.788,245.608 465.164,244.858 465.551,243.547" id="Fill-149" fill="#E86042"></path>
        <path d="M463.228,253.625 C463.228,253.625 467.462,255.967 471.027,256.938 C475.74,258.222 479.077,257.942 479.077,257.942 L484.75,236.1 C485.555,233 484.114,229.879 481.44,228.942 C480.552,228.632 479.615,228.323 478.706,228.059 C477.443,227.691 475.114,228.266 473.716,228.029 C471.813,227.708 469.91,229.057 469.3,231.15 L463.228,253.625" id="Fill-150" fill="#F66C45"></path>
        <path d="M437.985,263.263 L437.985,263.263 C437.644,261.611 438.706,259.996 440.356,259.654 L461.389,255.304 L471.508,266.072 L441.594,265.633 C439.942,265.975 438.327,264.913 437.985,263.263" id="Fill-151" fill="#241C63"></path>
        <path d="M442.267,262.414 L442.267,262.414 C442.016,260.747 440.462,259.6 438.795,259.851 L412.414,263.822 L412.986,267.623 L439.704,265.888 C441.371,265.636 442.519,264.081 442.267,262.414" id="Fill-152" fill="#241C63"></path>
        <path d="M412.414,263.822 C412.414,263.822 411.655,259.287 409.96,259.161 L411.272,267.882 L412.986,267.623 L412.414,263.822" id="Fill-153" fill="#35248A"></path>
        <path d="M455.44,247.065 L455.44,247.065 C456.648,245.89 458.581,245.916 459.757,247.125 L476.676,260.631 L470.354,266.779 L455.38,251.381 C454.204,250.173 454.231,248.24 455.44,247.065" id="Fill-154" fill="#2C1D75"></path>
        <path d="M458.723,246.361 L458.723,246.361 C457.223,245.594 455.384,246.189 454.616,247.69 L442.467,271.441 L445.889,273.191 L460.051,250.469 C460.818,248.969 460.224,247.129 458.723,246.361" id="Fill-155" fill="#2C1D75"></path>
        <path d="M443.509,270.1 C443.509,270.1 437.614,271.564 437.141,273.196 L445.718,273.998 L445.908,273.039 L443.509,270.1" id="Fill-156" fill="#35248A"></path>
        <path d="M494.972,224.231 L493.12,222.014 C492.755,221.576 492.104,221.519 491.668,221.884 L480.502,231.212 C479.453,232.089 479.312,233.65 480.189,234.698 C481.065,235.747 482.626,235.887 483.676,235.011 L494.842,225.682 C495.278,225.316 495.337,224.667 494.972,224.231" id="Fill-157" fill="#F66C45"></path>
        <path d="M496.214,224.346 L496.214,224.346 C496.654,223.052 495.963,221.646 494.669,221.205 L479.271,217.062 L478.519,219.271 L493.073,225.892 C494.367,226.331 495.773,225.64 496.214,224.346" id="Fill-158" fill="#F66C45"></path>
        <path d="M479.474,217.283 C479.474,217.283 478.965,214.803 478.245,214.363 C477.526,213.923 477.558,215.681 477.558,215.681 C477.558,215.681 474.155,213.363 473.412,214.45 C472.669,215.536 472.053,217.876 478.56,219.232 L479.474,217.283" id="Fill-159" fill="#DAD180"></path>
        <path d="M448.305,237.156 C448.305,237.156 447.207,234.874 446.402,234.623 C445.598,234.371 446.056,236.068 446.056,236.068 C446.056,236.068 442.191,234.649 441.735,235.884 C441.279,237.118 441.251,239.537 447.892,239.269 L448.305,237.156" id="Fill-160" fill="#E09D82"></path>
        <path d="M445.433,229.24 L441.922,231.066 C441.787,231.136 441.713,231.283 441.736,231.433 L443.413,241.984 C443.45,242.221 443.709,242.352 443.922,242.241 L447.434,240.415 C447.568,240.346 447.643,240.197 447.619,240.048 L445.943,229.497 C445.905,229.26 445.646,229.13 445.433,229.24" id="Fill-161" fill="#2C1D75"></path>
        <path d="M445.433,229.24 L441.922,231.066 C441.787,231.136 441.713,231.283 441.736,231.433 L443.413,241.984 C443.45,242.221 443.709,242.352 443.922,242.241 L447.434,240.415 C447.568,240.346 447.643,240.197 447.619,240.048 L445.943,229.497 C445.905,229.26 445.646,229.13 445.433,229.24" id="Fill-162" fill="#5549AD"></path>
        <path d="M447.434,240.415 C447.568,240.346 447.643,240.197 447.619,240.048 L445.954,229.566 L442.53,231.345 C442.396,231.415 442.321,231.563 442.345,231.712 L444.011,242.195 L447.434,240.415" id="Fill-163" fill="#2C1D75"></path>
        <path d="M446.998,239.608 C447.108,239.551 447.169,239.429 447.149,239.306 L445.781,230.691 L442.967,232.153 C442.856,232.21 442.795,232.332 442.815,232.455 L444.183,241.07 L446.998,239.608" id="Fill-164" fill="#54B4CA"></path>
        <path d="M445.412,233.99 C445.145,234.409 445.22,235.012 445.579,235.355 C445.671,235.442 445.779,235.515 445.864,235.609 C446.02,235.785 446.085,236.022 446.151,236.246 C446.347,236.905 446.638,237.584 447.209,237.966 C447.3,238.026 447.42,238.078 447.512,238.021 C447.607,237.96 447.607,237.822 447.596,237.71 C447.543,237.233 447.462,236.758 447.353,236.289 C447.265,235.908 447.199,235.374 446.966,235.056 C446.845,234.89 445.309,234.151 445.412,233.99" id="Fill-165" fill="#E09D82"></path>
        <path d="M480.331,229.174 C480.331,228.953 480.297,228.74 480.237,228.536 C479.726,228.368 479.213,228.206 478.706,228.059 C477.81,227.798 476.383,228.008 475.127,228.069 C474.945,228.402 474.84,228.776 474.84,229.174 C474.84,230.548 476.069,231.662 477.586,231.662 C479.102,231.662 480.331,230.548 480.331,229.174" id="Fill-166" fill="#A86A54"></path>
        <polyline id="Fill-167" fill="#A86A54" points="475.967 229.366 479.575 229.108 479.204 223.921 475.596 224.179 475.967 229.366"></polyline>
        <path d="M472.395,220.59 C472.413,221.262 472.487,221.905 472.603,222.469 C472.773,223.301 472.947,224.143 473.32,224.905 C473.593,225.464 473.969,225.972 474.425,226.395 C474.564,226.524 474.72,226.65 474.906,226.685 C475.057,226.713 475.212,226.68 475.361,226.646 C477.084,226.259 478.734,226.299 479.958,224.846 C481.083,223.51 481.492,221.657 481.369,219.946 C481.131,216.614 478.918,214.058 476.428,214.235 C473.26,214.462 472.324,217.782 472.395,220.59" id="Fill-168" fill="#E09D82"></path>
        <path d="M471.375,215.391 C471.243,215.558 469.746,219.152 475.054,219.152 C480.361,219.152 477.205,224.539 479.314,225.455 C481.423,226.371 485.457,218.303 482.272,215.968 C482.272,215.968 475.173,210.583 471.375,215.391" id="Fill-169" fill="#342D7A"></path>
        <path d="M478.238,221.912 C478.238,221.912 479.3,220.214 479.724,221.275 C480.149,222.337 479.3,224.885 478.238,224.885 L478.238,221.912" id="Fill-170" fill="#E09D82"></path>
        <polyline id="Fill-171" fill="#FFC2B9" points="188.902 311.953 188.551 317.492 191.86 317.905 192.8 312.582 188.902 311.953"></polyline>
        <path d="M161.913,285.617 L161.913,285.617 C160.201,284.35 159.741,281.983 160.856,280.166 L172.499,266.894 L180.794,273.284 L167.461,285.007 C166.055,286.628 163.638,286.895 161.913,285.617" id="Fill-172" fill="#5945B4"></path>
        <path d="M196.055,287.389 L196.055,287.389 C198.12,286.865 199.443,284.85 199.1,282.746 L188.342,268.619 L178.243,271.387 L191.153,284.72 C191.838,286.753 193.974,287.916 196.055,287.389" id="Fill-173" fill="#5945B4"></path>
        <path d="M188.227,314.233 L192.98,315.477 L198.869,284.263 C199.353,281.927 197.741,279.675 195.374,279.38 C192.986,279.082 190.86,280.901 190.785,283.307 L188.227,314.233" id="Fill-174" fill="#5945B4"></path>
        <polyline id="Fill-175" fill="#5945B4" points="186.341 275.092 170.113 276.658 170.113 268.958 188.797 268.958 186.341 275.092"></polyline>
        <path d="M189.957,270.078 C189.957,270.078 184.504,272.362 179.455,271.95 C175.188,271.602 169.817,269.589 169.817,269.589 L172.721,237.002 C172.721,237.002 176.999,235.998 181.752,236.386 C185.168,236.664 191.247,238.515 191.247,238.515 L189.957,270.078" id="Fill-176" fill="#FB93C6"></path>
        <polyline id="Fill-177" fill="#1D1C3A" points="191.86 317.905 197.455 321.449 188.095 319.463 188.551 317.492 191.86 317.905"></polyline>
        <path d="M192.819,260.125 L188.797,237.821 L191.795,238.71 C194.048,239.512 195.664,241.505 195.985,243.874 L198.095,259.462 C198.208,261.062 197.111,262.443 195.645,262.547 C194.281,262.644 193.059,261.597 192.819,260.125" id="Fill-178" fill="#FB93C6"></path>
        <path d="M197.285,263.973 L204.744,262.567 C206.266,262.309 207.245,260.807 206.866,259.31 C206.507,257.893 205.068,257.035 203.652,257.394 L196.366,260.343 L197.285,263.973" id="Fill-179" fill="#FB93C6"></path>
        <path d="M166.05,256.809 L174.229,242.778 L172.722,237.025 C170.629,237.361 168.459,238.722 167.58,240.65 L161.328,254.364 C160.719,255.702 161.308,257.281 162.646,257.891 C163.89,258.458 165.362,257.99 166.05,256.809" id="Fill-180" fill="#FB93C6"></path>
        <path d="M181.825,253.13 L164.028,253.194 C162.484,253.21 161.281,254.539 161.419,256.077 C161.55,257.533 162.836,258.607 164.291,258.476 L182.161,256.86 L181.825,253.13" id="Fill-181" fill="#F9ACD5"></path>
        <polyline id="Fill-182" fill="#D6E2E6" points="193.552 316.411 187.174 314.785 187.602 313.105 193.981 314.731 193.552 316.411"></polyline>
        <polyline id="Fill-183" fill="#FFC2B9" points="194.369 282.195 200.098 280.781 199.717 277.467 193.234 278.053 194.369 282.195"></polyline>
        <path d="M195.859,277.141 L196.427,282.357 L166.388,287.457 C164.048,287.918 161.811,286.284 161.539,283.914 C161.265,281.524 163.106,279.415 165.512,279.364 L195.859,277.141" id="Fill-184" fill="#4A3DA5"></path>
        <polyline id="Fill-185" fill="#1D1C3A" points="200.098 280.781 203.587 286.411 201.693 277.03 199.717 277.467 200.098 280.781"></polyline>
        <polyline id="Fill-186" fill="#D6E2E6" points="196.474 276.32 197.346 282.845 195.626 283.074 194.755 276.55 196.474 276.32"></polyline>
        <path d="M177.075,237.601 C176.971,237.198 176.936,236.795 176.95,236.4 C178.368,236.288 180.028,236.245 181.752,236.386 C182.838,236.475 184.193,236.722 185.536,237.019 C185.336,238.739 184.111,240.243 182.333,240.702 C180.024,241.298 177.67,239.909 177.075,237.601" id="Fill-187" fill="#D3669F"></path>
        <path d="M177.669,237.518 C177.569,237.128 177.541,236.737 177.566,236.357 C178.839,236.279 180.272,236.265 181.752,236.386 C182.677,236.461 183.798,236.652 184.94,236.891 C184.817,238.42 183.747,239.773 182.178,240.178 C180.199,240.689 178.18,239.497 177.669,237.518" id="Fill-188" fill="#F4B7B0"></path>
        <polyline id="Fill-189" fill="#F4B7B0" points="184.002 238.568 178.324 237.896 179.682 231.762 185.503 233.051 184.002 238.568"></polyline>
        <path d="M189.137,230.498 C188.724,231.825 188.039,233.019 187.264,234.4 C187.048,234.783 186.821,235.181 186.461,235.435 C184.889,236.548 181.686,234.093 180.702,232.95 C179.225,231.233 179.078,229.033 179.868,226.963 C181.066,223.821 184.119,222.068 186.688,223.048 C188.748,223.834 189.558,225.733 189.546,227.823 C189.541,228.816 189.39,229.683 189.137,230.498" id="Fill-190" fill="#FFC2B9"></path>
        <polyline id="Fill-191" fill="#BBC1D0" points="184.062 262.261 204.078 258.063 203.816 255.955 179.166 259.019 184.062 262.261"></polyline>
        <polyline id="Fill-192" fill="#393769" points="179.166 259.019 179.271 259.861 184.166 263.104 184.062 262.261 179.166 259.019"></polyline>
        <path d="M182.639,258.908 C182.731,259.066 182.823,259.225 182.914,259.383 C183.003,259.535 183.098,259.695 183.251,259.783 C183.373,259.853 183.519,259.869 183.66,259.872 C184.518,259.893 185.326,259.499 186.094,259.115 C186.341,258.992 186.6,258.858 186.751,258.627 C186.928,258.358 186.923,258.011 186.898,257.689 C186.834,256.852 186.68,256.012 186.338,255.245 C186.047,254.595 185.557,253.821 184.912,253.467 C184.232,253.092 183.224,252.997 182.46,252.858 C181.555,252.694 180.543,252.59 179.786,253.112 C178.679,253.877 178.249,255.066 179.149,256.194 C179.733,256.927 180.55,257.47 181.45,257.727 C181.641,257.78 181.843,257.825 182.001,257.946 C182.142,258.054 182.235,258.211 182.324,258.364 C182.429,258.546 182.534,258.727 182.639,258.908" id="Fill-193" fill="#FFC2B9"></path>
        <path d="M183.505,262.237 L183.559,261.641 L184.795,248.165 C184.868,247.363 185.662,246.58 186.567,246.417 L205.805,242.945 C206.71,242.782 207.385,243.3 207.311,244.103 L206.021,258.175 C205.97,258.735 205.415,259.282 204.782,259.397 L184.557,263.046 C183.925,263.16 183.453,262.798 183.505,262.237" id="Fill-194" fill="#393769"></path>
        <path d="M184.777,262.125 L186.029,248.469 C186.1,247.691 186.87,246.931 187.749,246.772 L206.417,243.403 C207.296,243.245 207.951,243.747 207.879,244.526 L206.628,258.183 C206.578,258.727 206.039,259.257 205.426,259.368 L185.799,262.91 C185.184,263.021 184.727,262.669 184.777,262.125" id="Fill-195" fill="#BBC1D0"></path>
        <path d="M194.823,252.001 C194.888,251.637 194.771,251.331 194.534,251.137 C194.891,250.905 195.301,250.747 195.719,250.701 C196.838,250.579 197.598,251.302 197.415,252.317 C197.232,253.332 196.177,254.254 195.057,254.377 C194.173,254.474 193.515,254.041 193.368,253.356 C194.069,253.227 194.707,252.642 194.823,252.001" id="Fill-196" fill="#FFFFFF"></path>
        <path d="M206.681,257.603 L206.628,258.183 L206.596,258.343 C206.432,258.809 205.953,259.221 205.414,259.318 L185.446,262.921 C185.02,262.868 184.738,262.559 184.777,262.125 L184.83,261.546 L184.839,261.445 L206.69,257.502 L206.681,257.603" id="Fill-197" fill="#C5C3D8"></path>
        <path d="M192.843,259.196 C192.631,259.185 192.407,259.177 192.222,259.281 C191.779,259.531 191.875,260.221 192.187,260.621 C192.245,260.695 192.31,260.77 192.325,260.862 C192.362,261.088 192.102,261.236 191.888,261.315 C190.945,261.656 190.002,261.998 189.059,262.34 C188.628,262.496 188.166,262.676 187.921,263.064 C187.613,263.55 187.769,264.227 188.157,264.651 C188.544,265.077 189.11,265.293 189.671,265.424 C191.596,265.872 193.615,265.47 195.507,264.897 C196.387,264.629 197.335,264.261 197.77,263.449 C199.522,260.182 194.971,259.318 192.843,259.196" id="Fill-198" fill="#FFC2B9"></path>
        <path d="M184.012,226.198 C184.012,226.198 186.803,229.482 189.557,229.186 C189.557,229.186 191.094,224.204 188.538,222.246 C184.951,219.496 181.259,221.761 181.259,221.761 C181.259,221.761 175.591,224.805 179.18,233.54 C179.18,233.54 183.873,229.703 184.012,226.198" id="Fill-199" fill="#AE7282"></path>
        <path d="M183.043,229.724 C183.108,229.232 183.019,228.742 182.658,228.358 L182.648,228.347 C182.014,227.681 180.856,228.011 180.622,228.9 C180.547,229.184 180.517,229.48 180.538,229.772 C180.585,230.413 180.873,231.032 181.326,231.487 C181.857,232.024 182.103,231.698 182.464,231.164 C182.735,230.762 182.974,230.241 183.043,229.724" id="Fill-200" fill="#FFC2B9"></path>
        <path d="M332.306,300.935 C330.069,300.935 327.832,300.354 325.829,299.19 L317.005,294.063 C315.264,293.051 315.504,290.464 317.401,289.789 L340.99,281.405 L356.523,284.472 C358.415,284.845 358.844,287.357 357.183,288.336 L338.857,299.148 C336.837,300.339 334.572,300.935 332.306,300.935" id="Fill-201" fill="#EEEEEE"></path>
        <polyline id="Fill-202" fill="#E259A4" points="331.911 297.765 320.862 291.344 320.792 266.455 331.841 272.876 331.911 297.765"></polyline>
        <polyline id="Fill-203" fill="#EF78BF" points="350.682 240.237 339.634 233.816 361.293 221.312 372.342 227.733 350.682 240.237"></polyline>
        <polyline id="Fill-204" fill="#E259A4" points="310.179 285.383 299.13 278.962 299.068 257.237 310.116 263.658 310.179 285.383"></polyline>
        <polyline id="Fill-205" fill="#EF78BF" points="310.116 263.658 299.068 257.237 320.73 244.731 331.779 251.151 310.116 263.658"></polyline>
        <polyline id="Fill-206" fill="#E259A4" points="331.779 251.151 320.73 244.731 320.66 219.842 331.709 226.263 331.779 251.151"></polyline>
        <polyline id="Fill-207" fill="#EF78BF" points="331.709 226.263 320.66 219.842 339.563 208.929 350.612 215.349 331.709 226.263"></polyline>
        <polyline id="Fill-208" fill="#F18CD0" points="350.612 215.349 350.682 240.237 372.342 227.733 372.403 249.457 350.744 261.962 350.814 286.851 331.911 297.765 331.841 272.876 310.179 285.383 310.116 263.658 331.779 251.151 331.709 226.263 350.612 215.349"></polyline>
        <path d="M261.083,372.945 C258.309,372.944 255.531,372.205 253.059,370.722 L216.033,348.506 C214.009,347.292 214.115,344.323 216.22,343.256 L277.602,312.138 C278.027,311.922 278.492,311.813 278.959,311.813 C279.299,311.813 279.639,311.871 279.966,311.987 L325.963,328.364 C328.309,329.2 328.676,332.365 326.581,333.714 L269.53,370.46 C266.961,372.115 264.024,372.945 261.083,372.945" id="Fill-209" fill="#EEEEEE"></path>
        <path d="M289.567,300.638 C289.438,302.917 287.341,304.607 285.583,305.76 C285.349,305.913 285.112,306.062 284.873,306.206 L284.522,306.428 L284.522,306.629 C284.52,306.984 284.519,307.34 284.518,307.695 C284.512,310.305 284.504,312.914 284.497,315.524 C284.494,316.267 284.492,317.01 284.49,317.752 C286.33,316.683 288.41,315.281 289.245,313.232 C289.588,312.39 289.541,311.52 289.544,310.634 C289.551,308.005 289.558,305.376 289.566,302.747 C289.568,301.982 289.57,301.216 289.572,300.451 L289.567,300.638" id="Fill-210" fill="#CC4029"></path>
        <path d="M279.307,298.275 C278.157,297.61 276.828,297.312 275.506,297.468 C274.274,297.612 273.116,298.084 272.049,298.7 C271.506,299.014 270.964,299.33 270.422,299.646 C267.733,301.208 265.045,302.77 262.356,304.332 C260.133,305.624 257.91,306.916 255.687,308.208 C255.512,308.31 255.335,308.41 255.162,308.515 C254.347,309.009 253.197,309.747 253.155,310.816 C253.121,311.681 253.15,312.551 253.148,313.416 C253.14,316.268 253.132,319.119 253.123,321.971 L253.123,322.153 C253.126,320.989 254.544,320.191 255.415,319.685 C255.827,319.445 256.239,319.206 256.651,318.967 C258.385,317.959 260.118,316.952 261.851,315.944 C263.896,314.756 265.941,313.567 267.986,312.38 C269.261,311.639 270.535,310.899 271.809,310.157 C272.746,309.613 273.723,309.152 274.787,308.919 C275.782,308.699 276.82,308.71 277.803,308.988 C278.728,309.25 279.764,309.732 280.387,310.489 C280.6,310.751 280.756,311.066 280.755,311.41 C280.759,309.906 280.764,308.404 280.767,306.9 C280.773,304.818 280.779,302.736 280.785,300.654 C280.786,300.464 280.792,300.274 280.787,300.083 C280.765,299.232 279.978,298.662 279.307,298.275" id="Fill-211" fill="#B53628"></path>
        <polyline id="Fill-212" fill="#CC4029" points="284.522 306.415 284.49 317.752 268.674 326.943 268.706 315.607 284.522 306.415"></polyline>
        <path d="M255.336,308.412 C252.684,309.953 252.451,311.352 254.636,312.613 C256.818,313.873 259.234,313.735 261.886,312.193 L278.607,302.477 C281.258,300.937 281.49,299.535 279.307,298.275 C277.123,297.014 274.708,297.154 272.057,298.694 L255.336,308.412 M258.747,318.548 C255.361,318.619 252.094,317.742 248.942,315.922 C245.787,314.101 244.263,312.211 244.374,310.25 C244.484,308.289 246.167,306.362 249.421,304.472 L265.237,295.28 C268.489,293.391 271.807,292.41 275.194,292.339 C278.578,292.27 281.848,293.146 285.002,294.967 C288.154,296.786 289.677,298.677 289.567,300.638 C289.456,302.6 287.774,304.525 284.522,306.415 L268.706,315.607 C265.452,317.497 262.132,318.479 258.747,318.548" id="Fill-213" fill="#FA684F"></path>
        <path d="M264.88,328.724 C265.899,328.357 266.889,327.911 267.845,327.402 C268.054,327.292 268.261,327.18 268.466,327.064 L268.674,326.929 L268.675,326.753 C268.677,325.997 268.679,325.241 268.681,324.485 C268.687,322.123 268.694,319.761 268.701,317.399 C268.703,316.801 268.704,316.204 268.706,315.607 C265.275,317.6 261.369,318.734 257.384,318.523 C255.465,318.421 253.561,317.993 251.774,317.289 C249.963,316.575 248.182,315.625 246.68,314.38 C245.496,313.398 244.364,312.062 244.369,310.44 C244.365,311.613 244.362,312.787 244.359,313.962 C244.353,315.941 244.348,317.921 244.342,319.9 C244.34,320.467 244.339,321.034 244.336983,321.602 C244.335,322.366 244.51,323.077 244.895,323.743 C245.686,325.113 247.039,326.115 248.361,326.932 C249.899,327.883 251.553,328.632 253.284,329.155 C256.669,330.178 260.354,330.104 263.733,329.099 C264.119,328.984 264.502,328.859 264.88,328.724" id="Fill-214" fill="#B53628"></path>
        <polyline id="Fill-215" fill="#CC4029" points="313.572 312.508 313.54 323.846 225.62 346.378 225.652 335.04 313.572 312.508"></polyline>
        <g id="Group-219" transform="translate(287.000000, 333.000000)">
            <mask id="mask-6" fill="white">
                <use xlink:href="#path-5"></use>
            </mask>
            <g id="Clip-217"></g>
            <polyline id="Fill-216" fill="#913C2E" mask="url(#mask-6)" points="1.489 0.435 1.457 11.772 1.455 11.864 1.487 0.526 1.489 0.435"></polyline>
            <polyline id="Fill-218" fill="#963E2F" mask="url(#mask-6)" points="1.487 0.526 1.455 11.864 1.451 11.958 1.483 0.621 1.487 0.526"></polyline>
        </g>
        <polyline id="Fill-220" fill="#CC4029" points="225.652 335.04 225.62 346.378 219.253 342.702 219.286 331.364 225.652 335.04"></polyline>
        <polyline id="Fill-221" fill="#FA684F" points="307.204 308.831 313.572 312.508 225.652 335.04 219.286 331.364 307.204 308.831"></polyline>
        <path d="M288.451,344.958 C288.455,343.68 288.459,342.4 288.462,341.122 C288.468,339.092 288.473,337.063 288.479,335.032 C288.48,334.563 288.482,334.092 288.483,333.621 C288.354,335.901 286.257,337.59 284.499,338.744 C284.264,338.898 284.027,339.045 283.788,339.191 L283.437,339.412 L283.436,339.613 C283.435,339.969 283.434,340.324 283.433,340.68 C283.426,343.289 283.419,345.899 283.411,348.508 C283.409,349.251 283.407,349.993 283.405,350.736 C284.583,350.052 285.739,349.275 286.702,348.305 C287.598,347.4 288.377,346.269 288.451,344.958" id="Fill-222" fill="#CC4029"></path>
        <path d="M278.224,331.259 C277.073,330.594 275.744,330.296 274.421,330.451 C273.189,330.596 272.031,331.067 270.963,331.684 C270.42,331.997 269.879,332.315 269.337,332.63 C266.648,334.191 263.96,335.754 261.272,337.316 C259.049,338.608 256.827,339.9 254.603,341.191 C254.443,341.284 254.281,341.377 254.121,341.473 C253.295,341.969 252.113,342.716 252.071,343.801 C252.037,344.665 252.066,345.535 252.063,346.4 C252.055,349.252 252.047,352.104 252.039,354.955 L252.038,355.138 C252.041,353.974 253.461,353.175 254.331,352.668 C254.743,352.429 255.155,352.19 255.567,351.95 C257.308,350.939 259.05,349.926 260.791,348.914 C262.835,347.727 264.878,346.539 266.922,345.352 C268.191,344.613 269.461,343.876 270.73,343.138 C271.68,342.587 272.669,342.127 273.747,341.893 C274.744,341.676 275.788,341.699 276.767,341.985 C277.67,342.249 278.66,342.715 279.278,343.444 C279.504,343.712 279.671,344.036 279.67,344.393 C279.675,342.89 279.679,341.387 279.682,339.884 C279.689,337.802 279.695,335.72 279.701,333.638 C279.701,333.447 279.707,333.256 279.702,333.066 C279.681,332.214 278.894,331.646 278.224,331.259" id="Fill-223" fill="#B53628"></path>
        <polyline id="Fill-224" fill="#CC4029" points="283.437 339.399 283.405 350.736 267.589 359.928 267.621 348.591 283.437 339.399"></polyline>
        <path d="M260.802,345.177 L277.522,335.46 C280.172,333.92 280.407,332.519 278.224,331.259 C276.04,329.997 273.622,330.139 270.972,331.679 L254.252,341.396 C251.6,342.937 251.366,344.336 253.55,345.598 C255.733,346.858 258.15,346.718 260.802,345.177 M288.483,333.621 C288.372,335.582 286.69,337.508 283.437,339.399 L267.621,348.591 C264.367,350.482 261.048,351.461 257.664,351.531 C254.28,351.601 251.009,350.727 247.856,348.906 C244.702,347.085 243.182,345.193 243.291,343.233 C243.4,341.273 245.082,339.347 248.335,337.456 L264.152,328.265 C267.405,326.374 270.724,325.394 274.11,325.322 C277.495,325.253 280.764,326.129 283.918,327.949 C287.07,329.77 288.593,331.66 288.483,333.621" id="Fill-225" fill="#FA684F"></path>
        <path d="M263.797,361.707 C264.791,361.35 265.76,360.918 266.692,360.423 C266.924,360.3 267.153,360.177 267.38,360.048 L267.589,359.913 L267.589,359.737 C267.592,358.982 267.594,358.226 267.596,357.47 C267.602,355.108 267.609,352.745 267.615,350.383 C267.617,349.785 267.619,349.188 267.621,348.591 C264.411,350.456 260.758,351.596 257.025,351.531 C253.344,351.468 249.745,350.24 246.7,348.187 C245.099,347.107 243.28,345.523 243.286,343.42 C243.282,344.585 243.279,345.751 243.276,346.916 C243.27,348.89 243.265,350.864 243.259,352.838 C243.255,354.15 243.112,355.475 243.779,356.668 C244.536,358.024 245.853,359.022 247.143,359.834 C248.669,360.794 250.324,361.571 252.05,362.094 C255.473,363.13 259.14,363.103 262.57,362.106 C262.982,361.986 263.391,361.853 263.797,361.707" id="Fill-226" fill="#B53628"></path>
        <path d="M139.689,20.915 C141.019,20.147 142.088,19.355 142.084011,17.876 C142.079,16.186 140.479,17.11 139.927,17.429 L139.246,17.822 L139.256,21.152 C139.396,21.084 139.537,21.003 139.689,20.915 M142.294,15.626 C142.933,15.768 143.271,16.295 143.274014,17.214 C143.277,18.358 142.792,19.234 142.469,19.721 C141.789,20.735 140.956,21.265 140.221,21.69 L139.259,22.246 L139.269,25.874 L138.166,26.511 L138.14,17.39 L139.86,16.397 C140.714,15.903 141.601,15.454 142.294,15.626" id="Fill-227" fill="#F66550"></path>
        <polyline id="Fill-228" fill="#F66550" points="145.236 17.475 150.686 14.329 150.689 15.348 145.239 18.495 145.236 17.475"></polyline>
        <polyline id="Fill-229" fill="#F66550" points="145.246 21.08 145.243 20.06 150.693 16.913 150.696 17.933 145.246 21.08"></polyline>
        <polyline id="Fill-230" fill="#F66550" points="157.909 5.976 157.912 7.131 154.16 9.298 154.168 12.057 156.871 10.496 156.874 11.652 154.171 13.213 154.182 17.264 153.047 17.919 153.021 8.798 157.909 5.976"></polyline>
        <polyline id="Fill-231" fill="#F66550" points="162.409 3.242 159.862 14.259 158.953 14.783 161.489 3.773 162.409 3.242"></polyline>
        <path d="M165.173,7.956 L167.714,6.489 L166.447,2.566 L166.393,2.548 L166.339,2.64 L165.173,7.956 M167.027,0.712 L169.734,8.285 L168.577,8.953 L168.032,7.363 L164.895,9.174 L164.403,11.363 L163.245,12.031 L165.783,1.43 L167.027,0.712" id="Fill-232" fill="#F66550"></path>
        <polyline id="Fill-233" fill="#694EC3" points="143.894 28.339 143.897 29.495 141.593 30.825 141.616 38.791 140.481 39.446 140.458 31.481 138.143 32.817 138.14 31.662 143.894 28.339"></polyline>
        <polyline id="Fill-234" fill="#694EC3" points="145.538 35.181 145.536 34.163 150.986 31.016 150.989 32.035 145.538 35.181"></polyline>
        <polyline id="Fill-235" fill="#694EC3" points="145.528 31.578 150.978 28.432 150.981 29.45 145.531 32.596 145.528 31.578"></polyline>
        <polyline id="Fill-236" fill="#694EC3" points="158.202 20.079 158.204 21.234 154.452 23.401 154.46 26.16 157.163 24.599 157.167 25.755 154.463 27.316 154.475 31.367 153.34 32.022 153.314 22.901 158.202 20.079"></polyline>
        <polyline id="Fill-237" fill="#694EC3" points="162.7 17.345 160.153 28.362 159.244 28.887 161.781 17.876 162.7 17.345"></polyline>
        <polyline id="Fill-238" fill="#694EC3" points="166.497 15.29 166.499 16.122 165.796 16.528 165.817 24.009 166.521 23.603 166.523 24.411 164.024 25.854 164.022 25.046 164.693 24.658 164.672 17.177 164.001 17.565 163.998 16.732 166.497 15.29"></polyline>
        <path d="M139.112,43.228 L139.123,47.055 L139.21,47.13 C139.264,47.099 139.382,46.806 139.479,46.589 C139.899,45.623 140.418,45.137 140.904,44.857 C141.705,44.394 142.03,44.841 142.033,45.786 L142.047,50.869 L141.085,51.424 L141.07,46.378 C141.069,45.906 140.938,45.671 140.528,45.908 C140.323,46.026 140.106,46.263 139.902,46.569 C139.621,46.992 139.33,47.657 139.126,48.124 L139.139,52.548 L138.165,53.11 L138.14,44.25 L139.112,43.228" id="Fill-239" fill="#AA3967"></path>
        <polyline id="Fill-240" fill="#AA3967" points="144.035 44.766 149.485 41.62 149.488 42.639 144.037 45.786 144.035 44.766"></polyline>
        <polyline id="Fill-241" fill="#AA3967" points="144.045 48.371 144.042 47.351 149.492 44.204 149.495 45.224 144.045 48.371"></polyline>
        <path d="M153.626,34.885 C154.296,34.499 156.06,33.878 156.067,36.065 C156.068,36.426 155.972,37.09 155.692,37.737 C155.445,38.316 155.132,38.92 154.151,40.346 L153.265,41.628 C152.835,42.25 152.598,42.86 152.566,42.952 C152.426,43.294 152.405,43.482 152.373,43.787 L156.103,41.633 L156.107,42.752 L151.176,45.598 C151.224,43.416 151.934,42.122 153.424,39.969 C154.179,38.873 154.998,37.69 154.995,36.658 C154.994,36.037 154.678,35.349 153.683,35.923 C153.12,36.248 152.343,36.982 151.924,38.482 L151.08,38.359 C151.38,37.439 151.671,36.824 152.265,36.082 C152.793,35.429 153.312,35.066 153.626,34.885" id="Fill-242" fill="#AA3967"></path>
        <polyline id="Fill-243" fill="#AA3967" points="163.555 29.315 163.558 30.471 161.254 31.801 161.277 39.767 160.141 40.422 160.119 32.456 157.804 33.793 157.801 32.637 163.555 29.315"></polyline>
        <path d="M167.141,29.734 C167.369,29.603 168.147,29.227 168.592,29.655 C168.799,29.846 168.843,29.909 168.962,30.151 L168.141,31.098 C168.054,30.861 167.836,30.24 167.176,30.622 C166.506,31.008 166,32.11 166.004,33.453 C166.005,33.999 166.039,34.689 166.182,35.055 C166.334,35.439 166.661,35.836 167.276,35.481 C167.871,35.137 168.151,34.39 168.235,33.683 L169.101,33.63 C168.921,34.805 168.242,35.882 167.279,36.438 C165.117,37.686 165.055,34.796 165.054,34.436 C165.052,33.815 165.049,32.784 165.619,31.546 C166.114,30.476 166.751,29.959 167.141,29.734" id="Fill-244" fill="#AA3967"></path>
        <path d="M172.857,32.245 C173.895,31.646 174.075,30.025 174.072,29.093 C174.071,28.657 174.005,28.011 173.873,27.664 C173.742,27.316 173.503,27.18 173.244,27.207 C173.114,27.219 172.973,27.274 172.832,27.356 C171.762,27.974 171.572,29.64 171.575,30.647 C171.576,31.143 171.732,32.895 172.857,32.245 M174.672,26.643 C174.933,27.065 175.098,27.928 175.100031,28.562 C175.106,30.513 174.244,32.416 172.849,33.222 C171.865,33.79 171.452,33.443 171.235,33.257 C170.811,32.893 170.625,32.115 170.621964,30.997 C170.615,28.735 171.618,27.124 172.786,26.449 C173.858,25.831 174.378,26.178 174.672,26.643" id="Fill-245" fill="#AA3967"></path>
        <path d="M178.324,23.315 C178.724,23.084 179.157,22.858 179.839,22.95 L179.561,23.994 C179.139,23.89 178.845,23.811 178.283,24.135 C177.688,24.479 177.441,25.057 177.442,25.479 C177.444,25.964 177.78,26.019 178.126,26.018 L179.036,26.016 C179.349,26.009 180.086,26.007 180.089015,27.111 C180.093,28.268 179.316,29.525 178.235,30.149 C177.413,30.623 176.904,30.544 176.568,30.489 L176.944,29.426 C177.486,29.611 177.811,29.586 178.265,29.323 C178.882,28.967 179.226,28.283 179.225,27.748 C179.223,27.214 178.996,27.183 178.075,27.192 C177.036,27.207 176.644,26.936 176.642,26.078 C176.639,24.947 177.427,23.833 178.324,23.315" id="Fill-246" fill="#AA3967"></path>
        <path d="M184.223,25.621 C185.435,24.922 185.645,22.685 185.64,20.92 C185.632,18.261 185.143,17.684 184.192,18.233 C183.467,18.652 182.982,19.617 182.813,20.736 C182.674,21.637 182.633,22.457 182.635,23.028 C182.636,23.477 182.639,24.482 182.967,25.29 C183.162,25.762 183.521,26.026 184.223,25.621 M185.769,17.024 C186.496,17.526 186.695,18.581 186.7,20.284 C186.704,21.7 186.567,23.037 186.061,24.361 C185.492,25.86 184.67,26.421 184.129,26.733 C183.74,26.958 182.809,27.359 182.222,26.541 C181.657,25.759 181.577,24.237 181.575,23.666 C181.565,20.038 182.762,18.014 184.232,17.165 C184.773,16.853 185.38,16.777 185.769,17.024" id="Fill-247" fill="#AA3967"></path>
        <polyline id="Fill-248" fill="#AA3967" points="191.057 13.299 188.51 24.316 187.601 24.841 190.137 13.83 191.057 13.299"></polyline>
        <path d="M194.455,19.739 C194.93,19.465 195.502,18.648 195.496,16.598 C195.494,15.915 195.403,14.251 194.387,14.837 C193.554,15.318 193.093,16.941 193.095985,18.047 C193.101,19.985 193.849,20.089 194.455,19.739 M196.009,13.988 C196.325,14.477 196.478,15.335 196.48,16.08 C196.487,18.367 195.657,20.003 194.662,20.578 C194.295,20.79 193.754,20.854 193.428,20.457 C193.275,20.271 193.232,20.259 193.188,20.284 L193.135,20.488 L193.143,23.546 L192.192,24.095 L192.168,15.558 L193.022,14.63 L193.026,16.021 C193.026,16.12 193.079,16.139 193.101,16.127 L193.177,16.046 C193.285,15.897 193.529,14.411 194.632,13.774 C195.249,13.418 195.747,13.579 196.009,13.988" id="Fill-249" fill="#AA3967"></path>
        <path d="M201.327,9.958 L201.333,11.797 C201.213,11.842 201.095,11.898 200.975,11.967 C200.305,12.354 199.755,13.194 199.357,14.059 L199.368,17.775 L198.362,18.356 L198.344,12.104 L199.251,11.157 L199.257,13.22 L199.311,13.338 L199.43,13.27 C199.495,13.145 199.71,12.598 199.764,12.48 C200.485,10.818 201.176,10.095 201.327,9.958" id="Fill-250" fill="#AA3967"></path>
        <path d="M204.954,12.98 C205.322,12.768 206.251,11.933 206.24602,10.144 C206.242,8.628 205.645,8.325 204.953,8.724 C203.827,9.374 203.832,11.138 203.834,11.711 C203.835,12.121 203.926,13.574 204.954,12.98 M206.368,7.198 L207.146,6.748 L207.163008,12.601 C207.164,12.961 207.068,13.627 207.036,13.769 C207.025,13.838 206.822,14.728 206.098,15.494 C205.948,15.656 205.515,16.117 204.845,16.504 C204.661,16.61 204.077,16.922 203.515,17.072 L203.511,15.942 L203.911,15.711 C204.063,15.848 204.237,15.983 204.853,15.628 C205.383,15.321 205.718,14.854 205.75,14.811 C206.214,14.17 206.212,13.449 206.211,13.151 L206.209,12.206 L206.165,12.168 C206.089,12.213 206.079,12.244 205.982,12.499 C205.885,12.753 205.486,13.582 204.697,14.037 C203.962,14.462 203.473,14.196 203.201,13.731 C202.897,13.21 202.872,12.489 202.869985,11.818 C202.866,10.266 203.675,8.628 204.658,8.061 C205.523,7.562 205.892,7.871 206.121,8.236 C206.208,8.361 206.208,8.386 206.273,8.385 C206.316,8.335 206.37,8.279 206.37,8.168 L206.368,7.198" id="Fill-251" fill="#AA3967"></path>
        <path d="M391.223,27.874 C391.846,28.234 393.481,29.548 393.475,31.58 C393.474,31.915 393.383,32.427 393.12,32.726 C392.889,32.997 392.596,33.221 391.681,33.49 L390.854,33.73 C390.452,33.845 390.23,34.156 390.199,34.208 C390.068,34.374 390.048,34.524 390.016,34.772 L393.481,36.772 L393.478,37.811 L388.899,35.167 C388.955,33.199 389.62,32.763 391.01,32.363 C391.714,32.157 392.479,31.939 392.482,30.982 C392.483,30.406 392.194,29.429 391.271,28.896 C390.749,28.594 390.025,28.443 389.63,29.381 L388.848,28.364 C389.131,27.834 389.403,27.575 389.957,27.526 C390.45,27.485 390.931,27.706 391.223,27.874" id="Fill-252" fill="#4AC3BC"></path>
        <path d="M406.467,36.641 L406.457,40.195 L406.537,40.357 C406.588,40.386 406.698,40.242 406.789,40.144 C407.181,39.701 407.665,39.806 408.117,40.067 C408.859,40.496 409.159,41.258 409.15701,42.136 L409.143,46.855 L408.251,46.339 L408.264,41.654 C408.264,41.215 408.144,40.857 407.763,40.637 C407.572,40.527 407.371,40.516 407.18,40.578 C406.918,40.67 406.646,40.975 406.454,41.187 L406.442,45.295 L405.539,44.773 L405.562,36.546 L406.467,36.641" id="Fill-253" fill="#4AC3BC"></path>
        <polyline id="Fill-254" fill="#4AC3BC" points="419.718 49.493 419.715 50.462 417.114 48.961 417.117 47.992 419.718 49.493"></polyline>
        <path d="M429.094,62.943 C429.717,63.302 431.352,64.617 431.347,66.647 C431.346,66.982 431.255,67.496 430.991,67.794 C430.759,68.064 430.467,68.29 429.551,68.558 L428.725,68.798 C428.323,68.913 428.1,69.223 428.07,69.274 C427.939,69.443 427.918,69.592 427.888,69.841 L431.352,71.841 L431.349,72.879 L426.77,70.235 C426.826,68.268 427.491,67.832 428.88,67.431 C429.586,67.225 430.35,67.008 430.352,66.051 C430.354,65.474 430.065,64.498 429.141,63.964 C428.62,63.663 427.895,63.511 427.501,64.45 L426.719,63.433 C427.002,62.902 427.274,62.643 427.828,62.593 C428.321,62.554 428.803,62.774 429.094,62.943" id="Fill-255" fill="#4AC3BC"></path>
        <path d="M434.253,52.706 C434.993,54.393 435.702,56.017 435.696,58.001 C435.691,59.975 434.742,61.057 434.419,61.378 L434.249,61.558 L433.334,61.03 L433.707,60.644 C433.828,60.505 434.182,60.005 434.223,59.959 C434.869,58.957 434.872,57.998 434.873,57.537 C434.875,56.961 434.878,55.772 433.819,53.277 C433.749,53.109 433.409,52.335 433.339,52.178 L434.253,52.706" id="Fill-256" fill="#4AC3BC"></path>
        <path d="M396.957,38.363 C397.298,38.56 398.162,38.781 398.167022,37.12 C398.171,35.712 397.621,34.793 396.978,34.422 C395.933,33.819 395.929,35.457 395.92799,35.988 C395.927,36.369 396.003,37.812 396.957,38.363 M398.296,34.524 L399.018,34.942 L399.003,40.377 C399.002,40.711 398.91,41.224 398.88,41.323 C398.87,41.375 398.677,41.979 398.004,41.915 C397.861,41.902 397.46,41.866 396.838,41.507 C396.667,41.408 396.124,41.072 395.602,40.609 L395.605,39.559 L395.976,39.773 C396.117,40.063 396.277,40.375 396.849,40.705 C397.342,40.989 397.653,40.915 397.683,40.909 C398.117,40.812 398.119,40.143 398.119,39.866 L398.122,38.989 L398.082,38.909 C398.012,38.868 398.002,38.886 397.911,39.017 C397.819,39.149 397.446,39.49 396.713,39.066 C396.031,38.672 395.58,37.903 395.33,37.182 C395.051,36.372 395.033,35.679 395.033964,35.057 C395.038,33.614 395.795,32.964 396.71,33.493 C397.513,33.957 397.852,34.638 398.062,35.222 C398.142,35.43 398.142,35.452 398.202,35.522 C398.243,35.522 398.293,35.528 398.293,35.424 L398.296,34.524" id="Fill-257" fill="#4AC3BC"></path>
        <path d="M403.514,34.959 C403.06,35.253 402.526,36.133 402.434,36.301 C402.272,36.612 401.948,37.233 401.945,38.481 C401.939,40.43 402.87,42.458 403.5,43.805 L402.566,43.266 C402.116,42.312 401.656,41.214 401.397,40.141 C401.248,39.558 401.12,38.709 401.121977,38.19 C401.126,36.597 401.461,35.577 402.57,34.414 L403.514,34.959" id="Fill-258" fill="#4AC3BC"></path>
        <polyline id="Fill-259" fill="#4AC3BC" points="436.694 48.928 436.691 49.839 388.57 22.056 383.507 40.249 379.922 26.522 377.64 27.606 377.106 26.626 380.271 25.124 383.413 37.159 387.968 20.796 436.694 48.928"></polyline>
        <polyline id="Fill-260" fill="#4AC3BC" points="413.881 54.309 413.859 61.844 415.295 62.673 415.292 63.608 411.225 61.26 411.227 60.325 412.835 61.253 412.853 54.676 411.136 53.684 411.139 52.726 413.881 54.309"></polyline>
        <path d="M422.313,45.79 L422.303,49.344 L422.383,49.506 C422.432,49.535 422.545,49.391 422.636,49.293 C423.028,48.85 423.512,48.955 423.963,49.215 C424.706,49.645 425.006,50.407 425.003022,51.285 L424.99,56.003 L424.096,55.487 L424.109,50.802 C424.11,50.364 423.991,50.006 423.609,49.786 C423.419,49.676 423.218,49.665 423.026,49.727 C422.764,49.819 422.492,50.124 422.3,50.336 L422.288,54.444 L421.386,53.922 L421.408,45.694 L422.313,45.79" id="Fill-261" fill="#4AC3BC"></path>
        <path d="M354.874,9.778 L352.657,18.257 L350.906,17.246 L348.616,6.166 L350.139,7.045 L351.402,14.118 C351.434,14.286 351.482,14.667 351.53,14.956 C351.561,15.161 351.577,15.468 351.626,15.645 L351.738,15.841 L351.852,15.907 L351.966,15.824 C352.031,15.674 352.049,15.33 352.082,15.145 C352.114,14.939 352.164,14.744 352.197,14.558 L353.463,8.964 L354.874,9.778" id="Fill-262" fill="#4AC3BC"></path>
        <polyline id="Fill-263" fill="#4AC3BC" points="359.516 20.445 359.496 27.535 360.848 28.315 360.846 29.195 357.017 26.985 357.02 26.106 358.532 26.979 358.55 20.789 356.933 19.856 356.936 18.955 359.516 20.445"></polyline>
        <polyline id="Fill-264" fill="#4AC3BC" points="362.97 22.194 362.973 20.668 371.143 25.384 371.139 26.911 362.97 22.194"></polyline>
        <polyline id="Fill-265" fill="#4AC3BC" points="362.984 16.793 371.154 21.51 371.15 23.037 362.98 18.32 362.984 16.793"></polyline>
        <path d="M187.592,183.23 C189.462,182.15 190.799,182.454 191.556,183.938 L190.123,185.744 C189.552,184.769 189.015,184.118 187.597,184.937 C186.847,185.37 185.729,186.514 185.733,187.875 C185.737,189.141 186.673,189.138 187.074,189.118 L189.515,188.976 C189.932,188.965 190.835,189.02 191.355,189.757 C191.506,189.997 191.774,190.379 191.777029,191.415 C191.781,192.737 191.368,194.071 190.585,195.291 C189.586,196.867 188.585,197.444 187.935,197.82 C187.184,198.254 185.982,198.659 185.129,198.325 C184.342,198.031 184.039,197.496 183.754,196.988 L185.219,195.085 C185.573,196.015 186.394,196.942 188.047,195.988 C189.081,195.392 190.198,194.017 190.193,192.483 C190.191,191.831 189.972,191.132 188.684,191.203 L186.513,191.324 C185.761,191.374 184.874,191.175 184.489,190.611 C184.321,190.361 184.119,189.844 184.116,188.867 C184.11,186.739 185.674,184.337 187.592,183.23" id="Fill-266" fill="#643F9E"></path>
        <polyline id="Fill-267" fill="#643F9E" points="199.056 176.9 199.059 178.184 197.975 178.811 198.008 190.352 199.092 189.726 199.096 190.973 195.242 193.198 195.238 191.951 196.273 191.354 196.241 179.812 195.205 180.41 195.202 179.126 199.056 176.9"></polyline>
        <path d="M211.554,169.684 L211.594,183.757 L209.458,184.99 L205.861,177.907 C205.408,176.997 204.952,175.743 204.868,175.483 L204.786,175.493 C204.685,175.647 204.685,175.667 204.685,175.763 C204.686,176.165 204.776,178.225 204.776,178.321 L204.803,187.678 L203.401,188.488 L203.361,174.415 L205.53,173.162 L209.11,180.16 L209.614,181.27 C209.699,181.471 210.052,182.381 210.12,182.572 L210.22,182.534 C210.286,182.419 210.286,182.4 210.286,182.208 C210.285,181.997 210.216,181.077 210.215,180.884 C210.18,180.022 210.178,179.293 210.176,178.815 L210.153,170.494 L211.554,169.684" id="Fill-268" fill="#643F9E"></path>
        <path d="M217.693,172.408 L217.689,170.809 C216.619,171.437 215.657,172.463 215.659993,173.492 C215.661,173.983 215.954,174.24 216.421,173.97 C216.986,173.644 217.432,172.86 217.693,172.408 M218.99,172.42 L219.028,172.398 L219.031,173.192 C218.602,173.417 218.301,173.557 218.036,173.373 C217.958,173.329 217.812,173.189 217.782,172.938 L217.753,172.932 L217.433,173.464 C216.851,174.383 216.473,174.657 216.015,174.921 C215.295,175.337 214.777,174.953 214.77499,174.205 C214.773,173.477 215.074,172.755 215.519,172.117 C216.073,171.327 216.85,170.711 217.687,170.216 L217.685,169.457 C217.684,169.221 217.682,168.651 216.885,169.112 C216.38,169.404 215.855,170.008 215.418,170.574 L215.036,170.045 C215.667,169.289 216.124,168.745 216.941,168.273 C217.301,168.065 217.797,167.891 218.11,167.991 C218.47,168.107 218.579,168.481 218.58,169.062 L218.589,172.013 C218.59,172.305 218.591,172.651 218.99,172.42" id="Fill-269" fill="#643F9E"></path>
        <polyline id="Fill-270" fill="#643F9E" points="220.835 176.348 220.831 174.775 229.24 169.92 229.244 171.492 220.835 176.348"></polyline>
        <polyline id="Fill-271" fill="#643F9E" points="220.82 170.787 229.229 165.932 229.233 167.504 220.824 172.359 220.82 170.787"></polyline>
        <path d="M236.502,166.918 L236.494,164.177 C234.659,165.255 233.009,167.014 233.013989,168.779 C233.016,169.622 233.52,170.062 234.32,169.599 C235.288,169.041 236.054,167.696 236.502,166.918 M238.726,166.941 L238.791,166.902 L238.795,168.264 C238.061,168.65 237.544,168.89 237.092,168.575 C236.957,168.499 236.706,168.26 236.655,167.828 L236.604,167.819 C236.505,167.953 236.139,168.606 236.057,168.732 C235.057,170.306 234.407,170.777 233.623,171.23 C232.389,171.943 231.5,171.284 231.495987,170 C231.493,168.754 232.008,167.516 232.773,166.42 C233.723,165.066 235.057,164.008 236.492,163.16 L236.488,161.856 C236.487,161.453 236.484,160.476 235.116,161.266 C234.247,161.767 233.348,162.805 232.599,163.775 L231.944,162.866 C233.028,161.568 233.809,160.637 235.212,159.827 C235.829,159.471 236.681,159.172 237.216,159.343 C237.835,159.543 238.021,160.184 238.024,161.181 L238.038,166.243 C238.039,166.745 238.041,167.337 238.726,166.941" id="Fill-272" fill="#643F9E"></path>
        <polyline id="Fill-273" fill="#643F9E" points="245.462 149.896 241.533 166.894 240.131 167.704 244.044 150.714 245.462 149.896"></polyline>
        <path d="M249.979,151.34 C250.329,151.138 251.531,150.559 252.219,151.219 C252.536,151.515 252.604,151.61 252.788,151.984 L251.522,153.445 C251.388,153.081 251.05,152.124 250.034,152.711 C248.998,153.309 248.218,155.007 248.223,157.078 C248.226,157.921 248.279,158.986 248.497,159.55 C248.733,160.145 249.236,160.757 250.188,160.208 C251.106,159.677 251.536,158.526 251.667,157.433 L253.004,157.352 C252.725,159.165 251.677,160.826 250.192,161.684 C246.855,163.61 246.759,159.152 246.757,158.597 C246.755,157.638 246.75,156.047 247.63,154.137 C248.394,152.486 249.378,151.687 249.979,151.34" id="Fill-274" fill="#643F9E"></path>
        <path d="M192.892,209.37 L192.885,206.636 C191.056,207.712 189.411,209.465 189.415989,211.224 C189.419,212.065 189.92,212.502 190.719,212.041 C191.683,211.484 192.446,210.146 192.892,209.37 M195.11,209.393 L195.176,209.354 L195.18,210.71 C194.447,211.095 193.932,211.335 193.48,211.022 C193.347,210.945 193.097,210.707 193.046,210.276 L192.996,210.268 C192.895,210.401 192.532,211.052 192.449,211.177 C191.453,212.746 190.805,213.216 190.023,213.668 C188.792,214.378 187.908,213.722 187.903977,212.441 C187.9,211.198 188.413,209.965 189.176,208.873 C190.122,207.524 191.452,206.469 192.882,205.623 L192.878,204.323 C192.877,203.922 192.874,202.947 191.511,203.735 C190.645,204.234 189.749,205.27 189.002,206.236 L188.35,205.33 C189.429,204.037 190.209,203.108 191.606,202.301 C192.222,201.945 193.071,201.647 193.605,201.817 C194.221,202.018 194.407,202.656 194.41,203.65 L194.424,208.695 C194.426,209.196 194.427,209.787 195.11,209.393" id="Fill-275" fill="#643F9E"></path>
        <polyline id="Fill-276" fill="#643F9E" points="202.518 196.575 202.53 200.627 206.04 198.601 206.045 200.168 202.535 202.195 202.546 206.246 201.182 207.033 201.171 202.983 197.662 205.008 197.658 203.441 201.167 201.414 201.155 197.362 202.518 196.575"></polyline>
        <path d="M212.373,199.386 C214.02,198.436 214.011,195.339 214.009,194.689 C214.006,193.427 213.865,190.847 212.285,191.76 C211.702,192.096 210.307,193.61 210.316,196.841 C210.322,198.751 211.109,200.115 212.373,199.386 M212.681,190.153 C214.309,189.213 215.497,190.365 215.507032,193.824 C215.511,195.258 215.138,199.206 212.693,200.618 C211.379,201.376 210.776,200.326 210.541,199.889 C210.457,199.726 210.424,199.689 210.342,199.735 L210.242,199.928 L210.215,202.164 L208.899,202.273 L208.861,188.95 L210.323,187.456 L210.339,193.113 L210.406,193.228 L210.572,193.113 C210.82,192.509 210.92,192.26 211.036,192.041 C211.301,191.525 211.749,190.691 212.681,190.153" id="Fill-277" fill="#643F9E"></path>
        <polyline id="Fill-278" fill="#643F9E" points="222.911 184.801 222.923 188.854 226.432 186.828 226.436 188.396 222.927 190.421 222.938 194.473 221.574 195.26 221.562 191.21 218.053 193.235 218.049 191.668 221.558 189.642 221.546 185.589 222.911 184.801"></polyline>
        <path d="M232.073,178.976 C232.422,178.775 233.621,178.198 234.306,178.855 C234.623,179.15 234.689,179.246 234.875,179.618 L233.611,181.075 C233.477,180.712 233.141,179.757 232.127,180.342 C231.096,180.938 230.317,182.632 230.323,184.696 C230.326,185.537 230.378,186.598 230.597,187.161 C230.832,187.753 231.334,188.362 232.281,187.815 C233.196,187.287 233.626,186.14 233.757,185.049 L235.089,184.969 C234.811,186.775 233.766,188.432 232.285,189.287 C228.959,191.208 228.863,186.765 228.861,186.21 C228.859,185.255 228.854,183.669 229.732,181.764 C230.494,180.117 231.475,179.321 232.073,178.976" id="Fill-279" fill="#643F9E"></path>
        <polyline id="Fill-280" fill="#643F9E" points="237.503 178.445 245.886 173.605 245.89 175.173 237.508 180.013 237.503 178.445"></polyline>
        <g id="Group-284" transform="translate(0.000000, 177.000000)">
            <mask id="mask-8" fill="white">
                <use xlink:href="#path-7"></use>
            </mask>
            <g id="Clip-282"></g>
            <polyline id="Fill-281" fill="#643F9E" mask="url(#mask-8)" points="237.519 6.988 237.515 5.42 245.897 0.58 245.901 2.148 237.519 6.988"></polyline>
            <path d="M106.529,209.884 C104.057,209.884 101.587,209.237 99.381,207.947 L2.733,151.417 C-0.958,149.258 -0.899,143.903 2.839,141.827 L29.653,126.931 C30.487,126.467 31.411,126.236 32.334,126.236 C33.298,126.236 34.261,126.488 35.12,126.991 L136.018,186.007 C139.709,188.166 139.65,193.521 135.912,195.597 L113.403,208.103 C111.264,209.291 108.895,209.884 106.529,209.884" id="Fill-283" fill="#EEEEEE" mask="url(#mask-8)"></path>
        </g>
        <g id="Group-287" transform="translate(2.000000, 212.000000)">
            <mask id="mask-10" fill="white">
                <use xlink:href="#path-9"></use>
            </mask>
            <g id="Clip-286"></g>
            <path d="M7.093,9.673 L22.731,0.585 C20.329,1.981 18.055,3.896 15.836,6.134 L0.198,15.222 C2.417,12.983 4.691,11.068 7.093,9.673" id="Fill-285" fill="#2E8989" mask="url(#mask-10)"></path>
        </g>
        <path d="M57.687,290.908 C58.721,282.564 59.737,274.217 60.743,265.868 C61.761,257.424 62.772,248.98 63.784,240.534 C64.352,235.8 64.921,231.065 65.492,226.33 C62.252,228.213 59.013,230.096 55.774,231.978 C54.044,232.983 52.315,233.988 50.586,234.993 C50.397,235.103 50.163,235.199 49.993,235.337 C49.713,235.566 49.795,235.907 49.749,236.286 C49.443,238.824 49.138,241.363 48.833,243.902 C47.608,254.095 46.39,264.288 45.162,274.481 C43.927,284.732 42.679,294.981 41.399,305.226 C41.079,307.786 40.757,310.347 40.433,312.907 C40.271,314.188 40.109,315.468 39.946,316.748 C39.868,317.355 39.865,318.054 39.662,318.63 C39.47,319.174 39.209,319.698 39.007,320.241 C38.251,322.276 37.714,324.391 37.394,326.537 C37.314,327.077 37.297,327.619 37.054,328.111 C36.795,328.635 36.521,329.15 36.223,329.653 C35.681,330.571 35.067,331.444 34.357,332.24 C33.663,333.019 32.862,333.725 31.957,334.25 C33.354,333.438 34.752,332.626 36.149,331.815 C38.702,330.33 41.257,328.846 43.811,327.361 C45.322,326.483 46.961,325.69 48.37,324.647 C49.36,323.914 50.196,323 50.921,322.009 C51.293,321.499 51.631,320.966 51.947,320.42 C52.256,319.888 52.638,319.304 52.839,318.72 C53.038,318.144 53.029,317.432 53.132,316.825 C53.243,316.167 53.373,315.511 53.525,314.86 C53.834,313.541 54.232,312.234 54.718,310.969 C54.956,310.348 55.321,309.715 55.405,309.056 C55.502,308.301 55.598,307.545 55.695,306.79 C55.887,305.277 56.078,303.766 56.269,302.253 C56.651,299.228 57.032,296.201 57.407,293.175 C57.5,292.419 57.594,291.663 57.687,290.908" id="Fill-288" fill="#53C9C0"></path>
        <path d="M135.185,345.726 C135.192,343.984 135.129,342.241 135.009,340.503 C131.524,342.528 128.039,344.554 124.554,346.579 C122.925,347.525 121.296,348.473 119.667,349.419 L119.372,349.59 C119.32,349.678 119.398,350.025 119.405,350.133 C119.425,350.463 119.444,350.793 119.46,351.123 C119.493,351.778 119.517,352.435 119.532,353.09 C119.587,355.605 119.512,358.132 119.201,360.629 C118.578,365.611 116.979,371.4 112.333,374.1 C115.547,372.232 118.762,370.363 121.976,368.495 C123.719,367.483 125.461,366.47 127.204,365.457 C127.625,365.212 128.058,364.977 128.464,364.705 C130.163,363.566 131.462,361.961 132.404,360.158 C134.688,355.785 135.162,350.583 135.185,345.726" id="Fill-289" fill="#53C9C0"></path>
        <path d="M114.226,350.782 C115.701,350.12 117.072,349.46 118.731,349.533 C119.289,349.558 119.329,349.615 119.753,349.369 C120.843,348.735 121.933,348.103 123.023,347.469 C126.213,345.615 129.404,343.761 132.595,341.906 C133.399,341.439 134.204,340.971 135.009,340.503 C134.132,340.381 133.241,340.43 132.385,340.658 C131.416,340.916 130.544,341.413 129.626,341.8 C128.561,342.247 127.421,342.359 126.283,342.488 C125.084,342.624 123.883,342.733 122.679,342.82 C120.25,342.997 117.816,343.099 115.383,343.223 C114.766,343.254 114.15,343.286 113.534,343.322 C113.271,343.338 112.917,343.295 112.671,343.388 C112.543,343.437 112.418,343.535 112.301,343.604 C108.526,345.797 104.751,347.99 100.976,350.185 C99.669,350.943 98.363,351.702 97.057,352.462 C100.077,352.267 103.103,352.169 106.123,351.972 C107.548,351.878 108.968,351.752 110.388,351.604 C111.706,351.466 113.007,351.331 114.226,350.782" id="Fill-290" fill="#4AC3BC"></path>
        <path d="M95.092,347.431 C95.783,349.093 96.458,350.764 97.057,352.462 C100.146,350.666 103.236,348.871 106.325,347.076 C108.104,346.042 109.883,345.009 111.661,343.975 C111.891,343.841 112.121,343.707 112.351,343.573 L112.683,343.381 C112.732,343.283 112.533,342.921 112.485,342.791 C112.288,342.25 112.085,341.712 111.876,341.175 C111.466,340.121 111.036,339.075 110.6,338.031 C108.866,333.882 106.926,329.756 105.738,325.405 C105.184,323.377 104.94,321.414 104.934,319.316 C104.927,316.825 104.938,314.334 104.959,311.843 C105.04,302.068 105.365,292.297 105.76,282.53 C106.158,272.68 106.626,262.831 107.013,252.981 C107.06,251.756 107.107,250.531 107.153,249.307 C104.202,251.022 101.252,252.736 98.302,254.451 C96.499,255.498 94.697,256.546 92.894,257.593 C92.5,257.822 91.965,258.027 91.623,258.331 C91.356,258.569 91.489,259.094 91.475,259.448 C91.429,260.674 91.382,261.9 91.333,263.125 C90.956,272.565 90.511,282.001 90.129,291.44 C89.746,300.893 89.434,310.35 89.331,319.81 C89.305,322.178 89.293,324.547 89.2939424,326.915 C89.2939424,328.89 89.281,330.808 89.677,332.748 C90.488,336.729 92.175,340.521 93.749,344.244 C94.198,345.306 94.649,346.366 95.092,347.431" id="Fill-291" fill="#53C9C0"></path>
        <polyline id="Fill-292" fill="#53C9C0" points="121.236 253.494 136.874 244.406 136.811 266.431 121.173 275.519 121.236 253.494"></polyline>
        <path d="M121.236,253.494 L121.173,275.519 L91.514,258.395 C90.62,282.643 89.167,305.645 89.301,329.546 C89.334,335.742 94.335,344.746 97.057,352.462 C102.248,352.126 107.564,352.081 112.578,351.317 C114.693,350.992 116.171,349.146 119.371,349.591 C120.314,363.3 117.643,374.629 107.702,375.516 C103.288,375.91 97.177,374.053 91.466,370.755 C88.658,369.135 85.949,367.166 83.584,364.947 C72.415,354.458 69.621,339.984 70.479,327.614 C72.246,302.175 74.349,276.963 76.388,250.737 L49.854,235.418 C46.442,263.691 43.22,291.195 39.722,318.492 C38.506,321.217 37.617,324.298 37.23,327.746 C34.166,334.248 29.552,337.215 23.658,333.813 C21.281,332.44 18.697,330.032 15.921,326.403 C7.086,314.849 7.687,306.786 14.19,301.589 C32.083,287.29 37.733,261.562 37.07,229.234 C33.865,226.231 30.901,223.985 28.138,222.39 C17.207,216.078 9.418,219.941 2.198,227.222 C3.347,206.213 11.079,196.609 25.431,203.562 C57.024,218.863 88.764,236.436 121.236,253.494" id="Fill-293" fill="#3BAFB2"></path>
        <path d="M37.785,209.652 C46.349,213.941 54.859,218.336 63.343,222.781 C71.806,227.216 80.242,231.705 88.674,236.201 C97.126,240.708 105.578,245.217 114.043,249.7 C116.181,250.833 118.321,251.962 120.462,253.088 C120.759,253.243 121.034,253.535 121.345,253.431 C121.512,253.374 121.682,253.234 121.834,253.147 C123.387,252.244 124.939,251.342 126.491,250.44 C129.885,248.468 133.279,246.495 136.672,244.523 L136.874,244.406 C131.738,241.708 126.612,238.99 121.489,236.268 C116.351,233.537 111.218,230.797 106.083,228.058 C100.897,225.292 95.709,222.527 90.515,219.775 C85.388,217.058 80.255,214.349 75.109,211.668 C70.002,209.008 64.887,206.365 59.754,203.757 C54.571,201.124 49.369,198.528 44.147,195.973 C39.691,193.792 34.825,191.262 29.718,192.609 C27.834,193.107 26.164,194.245 24.495,195.215 C22.073,196.622 19.652,198.029 17.231,199.437 C15.427,200.484 13.623,201.533 11.819,202.581 C11.724,202.637 11.629,202.691 11.534,202.747 C14.546,200.997 18.101,201.063 21.368,201.983 C23.084,202.468 24.7,203.206 26.299,203.983 C28.118,204.866 29.933,205.757 31.747,206.652 C33.763,207.647 35.776,208.646 37.785,209.652" id="Fill-294" fill="#4AC3BC"></path>
    </g>
</svg>