<svg width="174" height="144" viewBox="0 0 174 144" fill="none" xmlns="http://www.w3.org/2000/svg">
<g clip-path="url(#clip0)">
<path d="M32.3236 130.111C32.3236 134.552 29.482 137.713 25.6103 137.713C23.337 137.713 21.5965 136.612 20.5308 134.942V144H17.5471V122.83H20.5308V125.316C21.5965 123.647 23.337 122.51 25.6458 122.51C29.4465 122.51 32.3236 125.636 32.3236 130.111ZM29.3044 130.111C29.3044 127.341 27.4929 125.387 24.9709 125.387C22.4134 125.387 20.4953 127.341 20.4953 130.111C20.4953 132.918 22.4134 134.836 24.9709 134.836C27.4929 134.836 29.3044 132.918 29.3044 130.111Z" fill="#6496DC"/>
<path d="M49.0182 122.83V137.393H46.0345V134.942C44.9689 136.612 43.2284 137.713 40.9551 137.713C37.0478 137.713 34.2417 134.552 34.2417 130.111C34.2417 125.671 37.1189 122.51 40.9551 122.51C43.2639 122.51 45.0044 123.647 46.07 125.316V122.83H49.0182ZM46.07 130.111C46.07 127.341 44.1519 125.387 41.5945 125.387C39.037 125.387 37.261 127.341 37.261 130.111C37.261 132.918 39.0725 134.836 41.5945 134.836C44.1164 134.836 46.07 132.918 46.07 130.111Z" fill="#6496DC"/>
<path d="M65.4998 122.83L55.8737 144H52.6769L56.5131 135.511L50.7588 122.794H53.9556L58.076 132.278L62.3029 122.794L65.4998 122.83Z" fill="#6496DC"/>
<path d="M89.0854 128.016V137.358H86.1016V128.655C86.1016 126.488 85.2136 125.352 83.2245 125.352C80.8801 125.352 79.6369 127.163 79.6369 129.827L79.6724 137.358H76.6532V128.655C76.6532 126.488 75.7652 125.352 73.776 125.352C71.4317 125.352 70.224 127.163 70.224 129.827V137.358H67.2403V122.794H70.224V125.139C71.2186 123.469 72.6749 122.475 74.7351 122.475C76.9729 122.475 78.5358 123.576 79.2462 125.529C80.2408 123.647 81.8747 122.475 84.1835 122.475C87.2383 122.51 89.0854 124.57 89.0854 128.016Z" fill="#6496DC"/>
<path d="M106.171 130.928H94.3424C94.591 133.593 96.4736 135.084 98.889 135.084C100.63 135.084 102.086 134.338 102.796 132.918H105.887C104.75 136.186 101.979 137.713 98.8535 137.713C94.4489 137.713 91.2876 134.552 91.2876 130.147C91.2876 125.742 94.4134 122.51 98.818 122.51C103.507 122.51 106.455 126.133 106.171 130.928ZM94.52 128.478H103.009C102.548 126.488 101.056 125.103 98.8535 125.103C96.5447 125.103 95.0173 126.524 94.52 128.478Z" fill="#6496DC"/>
<path d="M121.551 128.193V137.393H118.567V128.797C118.567 126.559 117.573 125.352 115.406 125.352C112.849 125.352 111.463 127.021 111.463 129.827V137.358H108.48V122.794H111.463V125.21C112.493 123.505 114.056 122.475 116.33 122.475C119.562 122.51 121.551 124.641 121.551 128.193Z" fill="#6496DC"/>
<path d="M135.084 136.647C134.303 137.109 132.598 137.713 130.928 137.713C127.945 137.713 125.6 135.83 125.6 131.816V125.636H122.901V122.83H125.6V119.526L128.584 118.852V122.83H134.552V125.636H128.584V131.639C128.584 133.77 129.579 134.907 131.461 134.907C132.385 134.907 133.415 134.587 134.552 134.196L135.084 136.647Z" fill="#6496DC"/>
<path d="M136.114 132.704H139.169C139.631 134.303 140.803 135.049 143.325 135.049C145.243 135.049 146.451 134.481 146.451 133.379C146.451 132.172 145.066 131.959 142.65 131.39C138.565 130.396 136.86 129.579 136.86 127.128C136.86 124.18 139.347 122.51 143.005 122.51C146.735 122.51 148.831 124.286 149.364 126.915H146.344C145.918 125.707 144.817 125.139 142.97 125.139C141.052 125.139 139.915 125.814 139.915 126.808C139.915 127.732 140.803 127.98 143.361 128.584C147.303 129.508 149.577 130.183 149.577 133.024C149.577 136.15 146.771 137.677 143.325 137.677C139.418 137.677 136.683 135.83 136.114 132.704Z" fill="#6496DC"/>
<path d="M8.27627 72.4973C11.0113 58.4312 23.3725 47.9526 38.149 47.9526C44.3651 47.9526 50.368 49.8707 55.3764 53.2807L61.2373 47.4198C56.6552 44.0099 51.3271 41.63 45.7148 40.4933C47.3843 22.2713 62.7647 8.16971 81.2708 8.16971C88.5881 8.16971 95.6211 10.372 101.624 14.5279C106.81 18.1154 110.93 22.9817 113.594 28.6295C106.455 30.5121 99.8481 33.9931 94.3069 38.8239L100.097 44.6137C107.201 38.6108 116.259 35.2008 125.742 35.2008C146.842 35.2008 164.105 51.5402 165.383 72.4973H173.553C172.949 60.2782 167.728 48.8407 158.883 40.3513C149.932 31.7908 138.175 27.0311 125.742 27.0311C124.464 27.0311 123.185 27.1021 121.906 27.2087C118.674 19.3587 113.275 12.6453 106.277 7.8145C98.9245 2.69956 90.2575 0 81.2708 0C58.5022 0 39.6053 17.334 37.5451 39.8185C18.5417 40.1026 2.80612 54.0622 0 72.4973H8.27627Z" fill="#6496DC"/>
<path d="M16.2684 95.0528C16.2684 86.812 22.3779 80.5604 30.7607 80.5604C37.5451 80.5604 43.5481 84.6453 44.6137 91.7139H37.1899C36.3374 88.6946 33.7089 87.2028 30.7607 87.2028C26.3562 87.2028 23.5501 90.4351 23.5856 95.0173C23.5501 99.6705 26.4627 102.832 30.6897 102.832C33.6734 102.832 36.3019 101.304 37.1544 98.2852H44.5782C43.4771 105.602 37.3675 109.51 30.6897 109.51C22.3779 109.545 16.2684 103.294 16.2684 95.0528Z" fill="#393962"/>
<path d="M47.9882 72.5328H55.1988V108.941H47.9882V72.5328Z" fill="#393962"/>
<path d="M87.9842 95.0528C87.9842 103.436 81.6261 109.545 73.4919 109.545C65.3932 109.545 59.035 103.4 59.035 95.0528C59.035 86.67 65.4998 80.5604 73.4919 80.5604C81.5195 80.5604 87.9842 86.67 87.9842 95.0528ZM66.3167 95.0528C66.3167 99.6349 69.4425 102.69 73.4919 102.69C77.5412 102.69 80.667 99.6705 80.667 95.0528C80.667 90.5062 77.5412 87.4159 73.4919 87.4159C69.4781 87.4159 66.3167 90.5062 66.3167 95.0528Z" fill="#393962"/>
<path d="M117.253 81.1643V108.941H110.042V105.105C108.018 107.947 105.283 109.545 101.446 109.545C95.3369 109.545 91.5363 105.354 91.5363 98.5693V81.1288H98.7469V96.9709C98.7469 100.594 100.097 102.619 103.862 102.619C107.84 102.619 110.007 100.239 110.007 95.6922V81.0932H117.253V81.1643Z" fill="#393962"/>
<path d="M150.074 72.5328V108.941H142.863V105.212C140.945 107.84 138.033 109.545 134.125 109.545C126.915 109.545 121.444 103.578 121.444 95.0528C121.444 86.4568 126.95 80.5604 134.054 80.5604C137.997 80.5604 140.91 82.372 142.828 85.0715V72.5683H150.074V72.5328ZM142.828 95.0528C142.828 90.5062 139.738 87.4159 135.724 87.4159C131.674 87.4159 128.691 90.5062 128.691 95.0528C128.691 99.6349 131.71 102.69 135.724 102.69C139.773 102.69 142.828 99.6349 142.828 95.0528Z" fill="#393962"/>
</g>
<defs>
<clipPath id="clip0">
<rect width="173.553" height="144" fill="white"/>
</clipPath>
</defs>
</svg>
