<svg width="71" height="44" viewBox="0 0 71 44" fill="none" xmlns="http://www.w3.org/2000/svg">
<path d="M46.0666 4.69866H24.9424V39.2007H46.0666V4.69866Z" fill="#FF5F00"/>
<path d="M27.1182 21.9528C27.1129 15.2212 30.2031 8.86096 35.4984 4.70476C26.5025 -2.36506 13.584 -1.33528 5.82172 7.07039C-1.94057 15.4761 -1.94057 28.4355 5.82172 36.8412C13.584 45.2469 26.5025 46.2767 35.4984 39.2068C30.2014 35.0493 27.111 28.6865 27.1182 21.9528Z" fill="#EB001B"/>
<path d="M71 21.9527C71 30.3533 66.2031 38.0163 58.6471 41.6873C51.0911 45.3583 42.1023 44.3928 35.4984 39.2007C40.7914 35.041 43.8818 28.6817 43.8818 21.9497C43.8818 15.2177 40.7914 8.8584 35.4984 4.69866C42.1023 -0.493347 51.0911 -1.4589 58.6471 2.21209C66.2031 5.88307 71 13.5461 71 21.9467V21.9527Z" fill="#F79E1B"/>
</svg>
