<svg width="96" height="32" viewBox="0 0 96 32" fill="none" xmlns="http://www.w3.org/2000/svg">
<path d="M62.6348 0C55.0323 0.0459771 49.6885 4.23908 49.648 10.2345C49.5986 14.6897 53.4965 17.1724 56.4378 18.6575C59.46 20.1747 60.4749 21.1448 60.4614 22.5012C60.4389 24.5793 58.0499 25.4942 55.8181 25.531C51.9203 25.5908 49.657 24.4414 47.8518 23.5724L46.4462 30.3586C48.256 31.2138 51.6015 31.9632 55.0727 32C63.2231 32 68.5535 27.8483 68.5759 21.4115C68.6118 13.246 57.6368 12.7908 57.7087 9.14023C57.7356 8.03218 58.7595 6.85057 61.0003 6.55172C62.1094 6.4046 65.1765 6.28506 68.6478 7.93563L70.0129 1.37471C68.1673 0.68046 65.8052 0.0183909 62.8639 0H62.6348ZM83.1165 0.565519C81.6256 0.565519 80.3727 1.45747 79.8159 2.83678L68.1718 31.5172H76.3177L77.9388 26.8965H87.89L88.824 31.5172H96L89.7356 0.565519H83.1165ZM84.2526 8.92874L86.6012 20.5517H80.1706L84.2526 8.92874ZM39.7777 0.565519L33.3606 31.5172H41.1159L47.533 0.565519H39.7777ZM28.2997 0.565519L20.2301 21.6322L16.961 3.72414C16.5793 1.71954 15.066 0.565519 13.3865 0.565519H0.184114L0 1.46207C2.71232 2.07356 5.78838 3.05287 7.65198 4.10115C8.79708 4.73563 9.1204 5.29655 9.49761 6.81379L15.6812 31.5172H23.881L36.4502 0.565519H28.2997Z" fill="#00579F"/>
</svg>
