<svg width="266" height="311" viewBox="0 0 266 311" fill="none" xmlns="http://www.w3.org/2000/svg">
<path d="M265.8 0H0V311H265.8V0Z" fill="#F5F6F7"/>
<g filter="url(#filter0_d)">
<path d="M210 54H26C21.5817 54 18 57.5817 18 62V286C18 290.418 21.5817 294 26 294H210C214.418 294 218 290.418 218 286V62C218 57.5817 214.418 54 210 54Z" fill="white"/>
</g>
<path d="M210 53H26C21.5817 53 18 56.5817 18 61V189C18 193.418 21.5817 197 26 197H210C214.418 197 218 193.418 218 189V61C218 56.5817 214.418 53 210 53Z" fill="#E5E7FA"/>
<g filter="url(#filter1_d)">
<path d="M210 54H26C21.5817 54 18 57.5817 18 62V286C18 290.418 21.5817 294 26 294H210C214.418 294 218 290.418 218 286V62C218 57.5817 214.418 54 210 54Z" fill="white"/>
</g>
<path d="M210 53H26C21.5817 53 18 56.5817 18 61V189C18 193.418 21.5817 197 26 197H210C214.418 197 218 193.418 218 189V61C218 56.5817 214.418 53 210 53Z" fill="#E5E7FA"/>
<g filter="url(#filter2_d)">
<path d="M223 36H39C34.5817 36 31 39.5817 31 44V268C31 272.418 34.5817 276 39 276H223C227.418 276 231 272.418 231 268V44C231 39.5817 227.418 36 223 36Z" fill="white"/>
</g>
<path d="M223 35H39C34.5817 35 31 38.5817 31 43V171C31 175.418 34.5817 179 39 179H223C227.418 179 231 175.418 231 171V43C231 38.5817 227.418 35 223 35Z" fill="#E5E7FA"/>
<g filter="url(#filter3_d)">
<path d="M236 18H52C47.5817 18 44 21.5817 44 26V250C44 254.418 47.5817 258 52 258H236C240.418 258 244 254.418 244 250V26C244 21.5817 240.418 18 236 18Z" fill="white"/>
</g>
<path d="M71.2656 193.293C71.1602 194.195 70.8262 194.893 70.2637 195.385C69.7051 195.873 68.9609 196.117 68.0312 196.117C67.0234 196.117 66.2148 195.756 65.6055 195.033C65 194.311 64.6973 193.344 64.6973 192.133V191.312C64.6973 190.52 64.8379 189.822 65.1191 189.221C65.4043 188.619 65.8066 188.158 66.3262 187.838C66.8457 187.514 67.4473 187.352 68.1309 187.352C69.0371 187.352 69.7637 187.605 70.3105 188.113C70.8574 188.617 71.1758 189.316 71.2656 190.211H70.1348C70.0371 189.531 69.8242 189.039 69.4961 188.734C69.1719 188.43 68.7168 188.277 68.1309 188.277C67.4121 188.277 66.8477 188.543 66.4375 189.074C66.0312 189.605 65.8281 190.361 65.8281 191.342V192.168C65.8281 193.094 66.0215 193.83 66.4082 194.377C66.7949 194.924 67.3359 195.197 68.0312 195.197C68.6562 195.197 69.1348 195.057 69.4668 194.775C69.8027 194.49 70.0254 193.996 70.1348 193.293H71.2656ZM72.3496 192.771C72.3496 192.15 72.4707 191.592 72.7129 191.096C72.959 190.6 73.2988 190.217 73.7324 189.947C74.1699 189.678 74.668 189.543 75.2266 189.543C76.0898 189.543 76.7871 189.842 77.3184 190.439C77.8535 191.037 78.1211 191.832 78.1211 192.824V192.9C78.1211 193.518 78.002 194.072 77.7637 194.564C77.5293 195.053 77.1914 195.434 76.75 195.707C76.3125 195.98 75.8086 196.117 75.2383 196.117C74.3789 196.117 73.6816 195.818 73.1465 195.221C72.6152 194.623 72.3496 193.832 72.3496 192.848V192.771ZM73.4395 192.9C73.4395 193.604 73.6016 194.168 73.9258 194.594C74.2539 195.02 74.6914 195.232 75.2383 195.232C75.7891 195.232 76.2266 195.018 76.5508 194.588C76.875 194.154 77.0371 193.549 77.0371 192.771C77.0371 192.076 76.8711 191.514 76.5391 191.084C76.2109 190.65 75.7734 190.434 75.2266 190.434C74.6914 190.434 74.2598 190.646 73.9316 191.072C73.6035 191.498 73.4395 192.107 73.4395 192.9ZM82.9668 191.395C82.9668 191.098 82.8535 190.863 82.627 190.691C82.4004 190.516 82.0898 190.428 81.6953 190.428C81.3125 190.428 80.9922 190.527 80.7344 190.727C80.4805 190.926 80.3535 191.16 80.3535 191.43H79.2754C79.2754 190.879 79.5059 190.428 79.9668 190.076C80.4277 189.725 81.0039 189.549 81.6953 189.549C82.4375 189.549 83.0156 189.709 83.4297 190.029C83.8438 190.346 84.0508 190.799 84.0508 191.389C84.0508 191.674 83.9648 191.936 83.793 192.174C83.6211 192.412 83.377 192.602 83.0605 192.742C83.7988 192.992 84.168 193.484 84.168 194.219C84.168 194.801 83.9434 195.262 83.4941 195.602C83.0449 195.941 82.4453 196.111 81.6953 196.111C80.9648 196.111 80.3613 195.934 79.8848 195.578C79.4121 195.219 79.1758 194.734 79.1758 194.125H80.2539C80.2539 194.434 80.3906 194.699 80.6641 194.922C80.9414 195.141 81.2852 195.25 81.6953 195.25C82.1094 195.25 82.4434 195.154 82.6973 194.963C82.9512 194.771 83.0781 194.523 83.0781 194.219C83.0781 193.863 82.9707 193.609 82.7559 193.457C82.5449 193.301 82.2148 193.223 81.7656 193.223H80.6816V192.309H81.8594C82.5977 192.289 82.9668 191.984 82.9668 191.395ZM85.5215 195.115L85.8965 194.652C86.3184 194.105 86.5586 193.285 86.6172 192.191L86.7168 189.66H90.8008V195.115H91.6152V197.863H90.5312V196H86.1074V197.863H85.0234L85.0293 195.115H85.5215ZM86.8047 195.115H89.7168V190.662H87.7656L87.7012 192.174C87.6348 193.436 87.3359 194.416 86.8047 195.115ZM96.7305 196C96.668 195.875 96.6172 195.652 96.5781 195.332C96.0742 195.855 95.4727 196.117 94.7734 196.117C94.1484 196.117 93.6348 195.941 93.2324 195.59C92.834 195.234 92.6348 194.785 92.6348 194.242C92.6348 193.582 92.8848 193.07 93.3848 192.707C93.8887 192.34 94.5957 192.156 95.5059 192.156H96.5605V191.658C96.5605 191.279 96.4473 190.979 96.2207 190.756C95.9941 190.529 95.6602 190.416 95.2188 190.416C94.832 190.416 94.5078 190.514 94.2461 190.709C93.9844 190.904 93.8535 191.141 93.8535 191.418H92.7637C92.7637 191.102 92.875 190.797 93.0977 190.504C93.3242 190.207 93.6289 189.973 94.0117 189.801C94.3984 189.629 94.8223 189.543 95.2832 189.543C96.0137 189.543 96.5859 189.727 97 190.094C97.4141 190.457 97.6289 190.959 97.6445 191.6V194.518C97.6445 195.1 97.7188 195.562 97.8672 195.906V196H96.7305ZM94.9316 195.174C95.2715 195.174 95.5938 195.086 95.8984 194.91C96.2031 194.734 96.4238 194.506 96.5605 194.225V192.924H95.7109C94.3828 192.924 93.7188 193.312 93.7188 194.09C93.7188 194.43 93.832 194.695 94.0586 194.887C94.2852 195.078 94.5762 195.174 94.9316 195.174ZM103.961 190.539H101.834V196H100.75V190.539H98.6641V189.66H103.961V190.539ZM106.199 191.846H107.846C108.564 191.854 109.133 192.041 109.551 192.408C109.969 192.775 110.178 193.273 110.178 193.902C110.178 194.535 109.963 195.043 109.533 195.426C109.104 195.809 108.525 196 107.799 196H105.115V189.66H106.199V191.846ZM106.199 192.73V195.115H107.811C108.217 195.115 108.531 195.012 108.754 194.805C108.977 194.594 109.088 194.307 109.088 193.943C109.088 193.592 108.979 193.305 108.76 193.082C108.545 192.855 108.242 192.738 107.852 192.73H106.199ZM119.688 196H118.604V193.293H115.691V196H114.602V189.66H115.691V192.408H118.604V189.66H119.688V196ZM121.146 192.771C121.146 192.15 121.268 191.592 121.51 191.096C121.756 190.6 122.096 190.217 122.529 189.947C122.967 189.678 123.465 189.543 124.023 189.543C124.887 189.543 125.584 189.842 126.115 190.439C126.65 191.037 126.918 191.832 126.918 192.824V192.9C126.918 193.518 126.799 194.072 126.561 194.564C126.326 195.053 125.988 195.434 125.547 195.707C125.109 195.98 124.605 196.117 124.035 196.117C123.176 196.117 122.479 195.818 121.943 195.221C121.412 194.623 121.146 193.832 121.146 192.848V192.771ZM122.236 192.9C122.236 193.604 122.398 194.168 122.723 194.594C123.051 195.02 123.488 195.232 124.035 195.232C124.586 195.232 125.023 195.018 125.348 194.588C125.672 194.154 125.834 193.549 125.834 192.771C125.834 192.076 125.668 191.514 125.336 191.084C125.008 190.65 124.57 190.434 124.023 190.434C123.488 190.434 123.057 190.646 122.729 191.072C122.4 191.498 122.236 192.107 122.236 192.9ZM128.377 196V189.66H130.85C131.693 189.66 132.34 189.809 132.789 190.105C133.242 190.398 133.469 190.83 133.469 191.4C133.469 191.693 133.381 191.959 133.205 192.197C133.029 192.432 132.77 192.611 132.426 192.736C132.809 192.826 133.115 193.002 133.346 193.264C133.58 193.525 133.697 193.838 133.697 194.201C133.697 194.783 133.482 195.229 133.053 195.537C132.627 195.846 132.023 196 131.242 196H128.377ZM129.461 193.217V195.127H131.254C131.707 195.127 132.045 195.043 132.268 194.875C132.494 194.707 132.607 194.471 132.607 194.166C132.607 193.533 132.143 193.217 131.213 193.217H129.461ZM129.461 192.35H130.861C131.877 192.35 132.385 192.053 132.385 191.459C132.385 190.865 131.904 190.559 130.943 190.539H129.461V192.35ZM136.316 191.846H137.963C138.682 191.854 139.25 192.041 139.668 192.408C140.086 192.775 140.295 193.273 140.295 193.902C140.295 194.535 140.08 195.043 139.65 195.426C139.221 195.809 138.643 196 137.916 196H135.232V189.66H136.316V191.846ZM142.557 196H141.467V189.66H142.557V196ZM136.316 192.73V195.115H137.928C138.334 195.115 138.648 195.012 138.871 194.805C139.094 194.594 139.205 194.307 139.205 193.943C139.205 193.592 139.096 193.305 138.877 193.082C138.662 192.855 138.359 192.738 137.969 192.73H136.316ZM148.551 189.66H149.635V196H148.551V191.377L145.627 196H144.543V189.66H145.627V194.289L148.551 189.66ZM148.844 187.352C148.844 187.824 148.682 188.205 148.357 188.494C148.037 188.779 147.615 188.922 147.092 188.922C146.568 188.922 146.145 188.777 145.82 188.488C145.496 188.199 145.334 187.82 145.334 187.352H146.219C146.219 187.625 146.293 187.84 146.441 187.996C146.59 188.148 146.807 188.225 147.092 188.225C147.365 188.225 147.578 188.148 147.73 187.996C147.887 187.844 147.965 187.629 147.965 187.352H148.844ZM159.303 193.299H158.512V196H157.422V189.66H158.512V192.344H159.221L161.354 189.66H162.666L160.158 192.707L162.877 196H161.5L159.303 193.299ZM165.883 194.412L167.359 189.66H168.52L165.971 196.979C165.576 198.033 164.949 198.561 164.09 198.561L163.885 198.543L163.48 198.467V197.588L163.773 197.611C164.141 197.611 164.426 197.537 164.629 197.389C164.836 197.24 165.006 196.969 165.139 196.574L165.379 195.93L163.117 189.66H164.301L165.883 194.412ZM174.848 192.9C174.848 193.865 174.627 194.643 174.186 195.232C173.744 195.822 173.146 196.117 172.393 196.117C171.623 196.117 171.018 195.873 170.576 195.385V198.438H169.492V189.66H170.482L170.535 190.363C170.977 189.816 171.59 189.543 172.375 189.543C173.137 189.543 173.738 189.83 174.18 190.404C174.625 190.979 174.848 191.777 174.848 192.801V192.9ZM173.764 192.777C173.764 192.062 173.611 191.498 173.307 191.084C173.002 190.67 172.584 190.463 172.053 190.463C171.396 190.463 170.904 190.754 170.576 191.336V194.365C170.9 194.943 171.396 195.232 172.064 195.232C172.584 195.232 172.996 195.027 173.301 194.617C173.609 194.203 173.764 193.59 173.764 192.777ZM178.773 195.232C179.16 195.232 179.498 195.115 179.787 194.881C180.076 194.646 180.236 194.354 180.268 194.002H181.293C181.273 194.365 181.148 194.711 180.918 195.039C180.688 195.367 180.379 195.629 179.992 195.824C179.609 196.02 179.203 196.117 178.773 196.117C177.91 196.117 177.223 195.83 176.711 195.256C176.203 194.678 175.949 193.889 175.949 192.889V192.707C175.949 192.09 176.062 191.541 176.289 191.061C176.516 190.58 176.84 190.207 177.262 189.941C177.688 189.676 178.189 189.543 178.768 189.543C179.479 189.543 180.068 189.756 180.537 190.182C181.01 190.607 181.262 191.16 181.293 191.84H180.268C180.236 191.43 180.08 191.094 179.799 190.832C179.521 190.566 179.178 190.434 178.768 190.434C178.217 190.434 177.789 190.633 177.484 191.031C177.184 191.426 177.033 191.998 177.033 192.748V192.953C177.033 193.684 177.184 194.246 177.484 194.641C177.785 195.035 178.215 195.232 178.773 195.232ZM185.436 195.115L185.811 194.652C186.232 194.105 186.473 193.285 186.531 192.191L186.631 189.66H190.715V195.115H191.529V197.863H190.445V196H186.021V197.863H184.938L184.943 195.115H185.436ZM186.719 195.115H189.631V190.662H187.68L187.615 192.174C187.549 193.436 187.25 194.416 186.719 195.115ZM197.928 189.66V196H196.838V190.557H194.682L194.553 192.93C194.482 194.02 194.299 194.799 194.002 195.268C193.709 195.736 193.242 195.98 192.602 196H192.168V195.045L192.479 195.021C192.83 194.982 193.082 194.779 193.234 194.412C193.387 194.045 193.484 193.365 193.527 192.373L193.645 189.66H197.928ZM204.514 189.66V196H203.424V193.533H201.789L200.295 196H199.123L200.717 193.369C200.311 193.221 199.998 192.992 199.779 192.684C199.564 192.371 199.457 192.008 199.457 191.594C199.457 191.016 199.674 190.551 200.107 190.199C200.541 189.844 201.121 189.664 201.848 189.66H204.514ZM200.547 191.605C200.547 191.914 200.652 192.164 200.863 192.355C201.074 192.543 201.354 192.639 201.701 192.643H203.424V190.539H201.865C201.463 190.539 201.143 190.639 200.904 190.838C200.666 191.033 200.547 191.289 200.547 191.605ZM66.8945 208.412L68.3711 203.66H69.5312L66.9824 210.979C66.5879 212.033 65.9609 212.561 65.1016 212.561L64.8965 212.543L64.4922 212.467V211.588L64.7852 211.611C65.1523 211.611 65.4375 211.537 65.6406 211.389C65.8477 211.24 66.0176 210.969 66.1504 210.574L66.3906 209.93L64.1289 203.66H65.3125L66.8945 208.412ZM75.291 210H74.2012V207.703C73.7246 207.828 73.2363 207.891 72.7363 207.891C71.9434 207.891 71.3379 207.688 70.9199 207.281C70.5059 206.875 70.2949 206.297 70.2871 205.547V203.654H71.3711V205.582C71.3906 206.527 71.8457 207 72.7363 207C73.2363 207 73.7246 206.938 74.2012 206.812V203.66H75.291V210ZM79.6621 210.117C78.8027 210.117 78.1035 209.836 77.5645 209.273C77.0254 208.707 76.7559 207.951 76.7559 207.006V206.807C76.7559 206.178 76.875 205.617 77.1133 205.125C77.3555 204.629 77.6914 204.242 78.1211 203.965C78.5547 203.684 79.0234 203.543 79.5273 203.543C80.3516 203.543 80.9922 203.814 81.4492 204.357C81.9062 204.9 82.1348 205.678 82.1348 206.689V207.141H77.8398C77.8555 207.766 78.0371 208.271 78.3848 208.658C78.7363 209.041 79.1816 209.232 79.7207 209.232C80.1035 209.232 80.4277 209.154 80.6934 208.998C80.959 208.842 81.1914 208.635 81.3906 208.377L82.0527 208.893C81.5215 209.709 80.7246 210.117 79.6621 210.117ZM79.5273 204.434C79.0898 204.434 78.7227 204.594 78.4258 204.914C78.1289 205.23 77.9453 205.676 77.875 206.25H81.0508V206.168C81.0195 205.617 80.8711 205.191 80.6055 204.891C80.3398 204.586 79.9805 204.434 79.5273 204.434ZM88.5742 210H87.4902V207.293H84.5781V210H83.4883V203.66H84.5781V206.408H87.4902V203.66H88.5742V210ZM94.4219 203.66H95.5059V210H94.4219V205.377L91.498 210H90.4141V203.66H91.498V208.289L94.4219 203.66ZM99.2207 207.299H98.4297V210H97.3398V203.66H98.4297V206.344H99.1387L101.271 203.66H102.584L100.076 206.707L102.795 210H101.418L99.2207 207.299ZM103.311 206.771C103.311 206.15 103.432 205.592 103.674 205.096C103.92 204.6 104.26 204.217 104.693 203.947C105.131 203.678 105.629 203.543 106.188 203.543C107.051 203.543 107.748 203.842 108.279 204.439C108.814 205.037 109.082 205.832 109.082 206.824V206.9C109.082 207.518 108.963 208.072 108.725 208.564C108.49 209.053 108.152 209.434 107.711 209.707C107.273 209.98 106.77 210.117 106.199 210.117C105.34 210.117 104.643 209.818 104.107 209.221C103.576 208.623 103.311 207.832 103.311 206.848V206.771ZM104.4 206.9C104.4 207.604 104.562 208.168 104.887 208.594C105.215 209.02 105.652 209.232 106.199 209.232C106.75 209.232 107.188 209.018 107.512 208.588C107.836 208.154 107.998 207.549 107.998 206.771C107.998 206.076 107.832 205.514 107.5 205.084C107.172 204.65 106.734 204.434 106.188 204.434C105.652 204.434 105.221 204.646 104.893 205.072C104.564 205.498 104.4 206.107 104.4 206.9ZM110.541 210V203.66H113.014C113.857 203.66 114.504 203.809 114.953 204.105C115.406 204.398 115.633 204.83 115.633 205.4C115.633 205.693 115.545 205.959 115.369 206.197C115.193 206.432 114.934 206.611 114.59 206.736C114.973 206.826 115.279 207.002 115.51 207.264C115.744 207.525 115.861 207.838 115.861 208.201C115.861 208.783 115.646 209.229 115.217 209.537C114.791 209.846 114.188 210 113.406 210H110.541ZM111.625 207.217V209.127H113.418C113.871 209.127 114.209 209.043 114.432 208.875C114.658 208.707 114.771 208.471 114.771 208.166C114.771 207.533 114.307 207.217 113.377 207.217H111.625ZM111.625 206.35H113.025C114.041 206.35 114.549 206.053 114.549 205.459C114.549 204.865 114.068 204.559 113.107 204.539H111.625V206.35ZM122.816 209.232C123.203 209.232 123.541 209.115 123.83 208.881C124.119 208.646 124.279 208.354 124.311 208.002H125.336C125.316 208.365 125.191 208.711 124.961 209.039C124.73 209.367 124.422 209.629 124.035 209.824C123.652 210.02 123.246 210.117 122.816 210.117C121.953 210.117 121.266 209.83 120.754 209.256C120.246 208.678 119.992 207.889 119.992 206.889V206.707C119.992 206.09 120.105 205.541 120.332 205.061C120.559 204.58 120.883 204.207 121.305 203.941C121.73 203.676 122.232 203.543 122.811 203.543C123.521 203.543 124.111 203.756 124.58 204.182C125.053 204.607 125.305 205.16 125.336 205.84H124.311C124.279 205.43 124.123 205.094 123.842 204.832C123.564 204.566 123.221 204.434 122.811 204.434C122.26 204.434 121.832 204.633 121.527 205.031C121.227 205.426 121.076 205.998 121.076 206.748V206.953C121.076 207.684 121.227 208.246 121.527 208.641C121.828 209.035 122.258 209.232 122.816 209.232ZM126.268 206.771C126.268 206.15 126.389 205.592 126.631 205.096C126.877 204.6 127.217 204.217 127.65 203.947C128.088 203.678 128.586 203.543 129.145 203.543C130.008 203.543 130.705 203.842 131.236 204.439C131.771 205.037 132.039 205.832 132.039 206.824V206.9C132.039 207.518 131.92 208.072 131.682 208.564C131.447 209.053 131.109 209.434 130.668 209.707C130.23 209.98 129.727 210.117 129.156 210.117C128.297 210.117 127.6 209.818 127.064 209.221C126.533 208.623 126.268 207.832 126.268 206.848V206.771ZM127.357 206.9C127.357 207.604 127.52 208.168 127.844 208.594C128.172 209.02 128.609 209.232 129.156 209.232C129.707 209.232 130.145 209.018 130.469 208.588C130.793 208.154 130.955 207.549 130.955 206.771C130.955 206.076 130.789 205.514 130.457 205.084C130.129 204.65 129.691 204.434 129.145 204.434C128.609 204.434 128.178 204.646 127.85 205.072C127.521 205.498 127.357 206.107 127.357 206.9ZM135.941 209.232C136.328 209.232 136.666 209.115 136.955 208.881C137.244 208.646 137.404 208.354 137.436 208.002H138.461C138.441 208.365 138.316 208.711 138.086 209.039C137.855 209.367 137.547 209.629 137.16 209.824C136.777 210.02 136.371 210.117 135.941 210.117C135.078 210.117 134.391 209.83 133.879 209.256C133.371 208.678 133.117 207.889 133.117 206.889V206.707C133.117 206.09 133.23 205.541 133.457 205.061C133.684 204.58 134.008 204.207 134.43 203.941C134.855 203.676 135.357 203.543 135.936 203.543C136.646 203.543 137.236 203.756 137.705 204.182C138.178 204.607 138.43 205.16 138.461 205.84H137.436C137.404 205.43 137.248 205.094 136.967 204.832C136.689 204.566 136.346 204.434 135.936 204.434C135.385 204.434 134.957 204.633 134.652 205.031C134.352 205.426 134.201 205.998 134.201 206.748V206.953C134.201 207.684 134.352 208.246 134.652 208.641C134.953 209.035 135.383 209.232 135.941 209.232ZM144.391 204.539H142.264V210H141.18V204.539H139.094V203.66H144.391V204.539ZM144.912 206.771C144.912 206.15 145.033 205.592 145.275 205.096C145.521 204.6 145.861 204.217 146.295 203.947C146.732 203.678 147.23 203.543 147.789 203.543C148.652 203.543 149.35 203.842 149.881 204.439C150.416 205.037 150.684 205.832 150.684 206.824V206.9C150.684 207.518 150.564 208.072 150.326 208.564C150.092 209.053 149.754 209.434 149.312 209.707C148.875 209.98 148.371 210.117 147.801 210.117C146.941 210.117 146.244 209.818 145.709 209.221C145.178 208.623 144.912 207.832 144.912 206.848V206.771ZM146.002 206.9C146.002 207.604 146.164 208.168 146.488 208.594C146.816 209.02 147.254 209.232 147.801 209.232C148.352 209.232 148.789 209.018 149.113 208.588C149.438 208.154 149.6 207.549 149.6 206.771C149.6 206.076 149.434 205.514 149.102 205.084C148.773 204.65 148.336 204.434 147.789 204.434C147.254 204.434 146.822 204.646 146.494 205.072C146.166 205.498 146.002 206.107 146.002 206.9ZM156.889 203.66V210H155.799V207.533H154.164L152.67 210H151.498L153.092 207.369C152.686 207.221 152.373 206.992 152.154 206.684C151.939 206.371 151.832 206.008 151.832 205.594C151.832 205.016 152.049 204.551 152.482 204.199C152.916 203.844 153.496 203.664 154.223 203.66H156.889ZM152.922 205.605C152.922 205.914 153.027 206.164 153.238 206.355C153.449 206.543 153.729 206.639 154.076 206.643H155.799V204.539H154.24C153.838 204.539 153.518 204.639 153.279 204.838C153.041 205.033 152.922 205.289 152.922 205.605ZM159.748 203.66V209.115H162.068V203.66H163.152V209.115H165.467V203.66H166.557V209.115H167.447L167.342 211.881H166.369V210H158.658V203.66H159.748ZM172.656 203.66H173.74V210H172.656V205.377L169.732 210H168.648V203.66H169.732V208.289L172.656 203.66ZM179.582 203.66H180.666V210H179.582V205.377L176.658 210H175.574V203.66H176.658V208.289L179.582 203.66ZM179.875 201.352C179.875 201.824 179.713 202.205 179.389 202.494C179.068 202.779 178.646 202.922 178.123 202.922C177.6 202.922 177.176 202.777 176.852 202.488C176.527 202.199 176.365 201.82 176.365 201.352H177.25C177.25 201.625 177.324 201.84 177.473 201.996C177.621 202.148 177.838 202.225 178.123 202.225C178.396 202.225 178.609 202.148 178.762 201.996C178.918 201.844 178.996 201.629 178.996 201.352H179.875ZM189.484 203.66H190.568V210H189.484V205.377L186.561 210H185.477V203.66H186.561V208.289L189.484 203.66ZM195.795 205.395C195.795 205.098 195.682 204.863 195.455 204.691C195.229 204.516 194.918 204.428 194.523 204.428C194.141 204.428 193.82 204.527 193.562 204.727C193.309 204.926 193.182 205.16 193.182 205.43H192.104C192.104 204.879 192.334 204.428 192.795 204.076C193.256 203.725 193.832 203.549 194.523 203.549C195.266 203.549 195.844 203.709 196.258 204.029C196.672 204.346 196.879 204.799 196.879 205.389C196.879 205.674 196.793 205.936 196.621 206.174C196.449 206.412 196.205 206.602 195.889 206.742C196.627 206.992 196.996 207.484 196.996 208.219C196.996 208.801 196.771 209.262 196.322 209.602C195.873 209.941 195.273 210.111 194.523 210.111C193.793 210.111 193.189 209.934 192.713 209.578C192.24 209.219 192.004 208.734 192.004 208.125H193.082C193.082 208.434 193.219 208.699 193.492 208.922C193.77 209.141 194.113 209.25 194.523 209.25C194.938 209.25 195.271 209.154 195.525 208.963C195.779 208.771 195.906 208.523 195.906 208.219C195.906 207.863 195.799 207.609 195.584 207.457C195.373 207.301 195.043 207.223 194.594 207.223H193.51V206.309H194.688C195.426 206.289 195.795 205.984 195.795 205.395ZM68.9219 217.66H70.0059V224H68.9219V219.377L65.998 224H64.9141V217.66H65.998V222.289L68.9219 217.66ZM76.9258 224H75.8418V221.293H72.9297V224H71.8398V217.66H72.9297V220.408H75.8418V217.66H76.9258V224ZM83.3828 218.539H81.2559V224H80.1719V218.539H78.0859V217.66H83.3828V218.539ZM86.5996 224.117C85.7402 224.117 85.041 223.836 84.502 223.273C83.9629 222.707 83.6934 221.951 83.6934 221.006V220.807C83.6934 220.178 83.8125 219.617 84.0508 219.125C84.293 218.629 84.6289 218.242 85.0586 217.965C85.4922 217.684 85.9609 217.543 86.4648 217.543C87.2891 217.543 87.9297 217.814 88.3867 218.357C88.8438 218.9 89.0723 219.678 89.0723 220.689V221.141H84.7773C84.793 221.766 84.9746 222.271 85.3223 222.658C85.6738 223.041 86.1191 223.232 86.6582 223.232C87.041 223.232 87.3652 223.154 87.6309 222.998C87.8965 222.842 88.1289 222.635 88.3281 222.377L88.9902 222.893C88.459 223.709 87.6621 224.117 86.5996 224.117ZM86.4648 218.434C86.0273 218.434 85.6602 218.594 85.3633 218.914C85.0664 219.23 84.8828 219.676 84.8125 220.25H87.9883V220.168C87.957 219.617 87.8086 219.191 87.543 218.891C87.2773 218.586 86.918 218.434 86.4648 218.434ZM95.6875 220.9C95.6875 221.865 95.4668 222.643 95.0254 223.232C94.584 223.822 93.9863 224.117 93.2324 224.117C92.4629 224.117 91.8574 223.873 91.416 223.385V226.438H90.332V217.66H91.3223L91.375 218.363C91.8164 217.816 92.4297 217.543 93.2148 217.543C93.9766 217.543 94.5781 217.83 95.0195 218.404C95.4648 218.979 95.6875 219.777 95.6875 220.801V220.9ZM94.6035 220.777C94.6035 220.062 94.4512 219.498 94.1465 219.084C93.8418 218.67 93.4238 218.463 92.8926 218.463C92.2363 218.463 91.7441 218.754 91.416 219.336V222.365C91.7402 222.943 92.2363 223.232 92.9043 223.232C93.4238 223.232 93.8359 223.027 94.1406 222.617C94.4492 222.203 94.6035 221.59 94.6035 220.777ZM100.984 224C100.922 223.875 100.871 223.652 100.832 223.332C100.328 223.855 99.7266 224.117 99.0273 224.117C98.4023 224.117 97.8887 223.941 97.4863 223.59C97.0879 223.234 96.8887 222.785 96.8887 222.242C96.8887 221.582 97.1387 221.07 97.6387 220.707C98.1426 220.34 98.8496 220.156 99.7598 220.156H100.814V219.658C100.814 219.279 100.701 218.979 100.475 218.756C100.248 218.529 99.9141 218.416 99.4727 218.416C99.0859 218.416 98.7617 218.514 98.5 218.709C98.2383 218.904 98.1074 219.141 98.1074 219.418H97.0176C97.0176 219.102 97.1289 218.797 97.3516 218.504C97.5781 218.207 97.8828 217.973 98.2656 217.801C98.6523 217.629 99.0762 217.543 99.5371 217.543C100.268 217.543 100.84 217.727 101.254 218.094C101.668 218.457 101.883 218.959 101.898 219.6V222.518C101.898 223.1 101.973 223.562 102.121 223.906V224H100.984ZM99.1855 223.174C99.5254 223.174 99.8477 223.086 100.152 222.91C100.457 222.734 100.678 222.506 100.814 222.225V220.924H99.9648C98.6367 220.924 97.9727 221.312 97.9727 222.09C97.9727 222.43 98.0859 222.695 98.3125 222.887C98.5391 223.078 98.8301 223.174 99.1855 223.174ZM105.572 221.299H104.781V224H103.691V217.66H104.781V220.344H105.49L107.623 217.66H108.936L106.428 220.707L109.146 224H107.77L105.572 221.299ZM114.789 218.539H112.662V224H111.578V218.539H109.492V217.66H114.789V218.539ZM119.945 217.66H121.029V224H119.945V219.377L117.021 224H115.938V217.66H117.021V222.289L119.945 217.66ZM122.869 224V217.66H125.342C126.186 217.66 126.832 217.809 127.281 218.105C127.734 218.398 127.961 218.83 127.961 219.4C127.961 219.693 127.873 219.959 127.697 220.197C127.521 220.432 127.262 220.611 126.918 220.736C127.301 220.826 127.607 221.002 127.838 221.264C128.072 221.525 128.189 221.838 128.189 222.201C128.189 222.783 127.975 223.229 127.545 223.537C127.119 223.846 126.516 224 125.734 224H122.869ZM123.953 221.217V223.127H125.746C126.199 223.127 126.537 223.043 126.76 222.875C126.986 222.707 127.1 222.471 127.1 222.166C127.1 221.533 126.635 221.217 125.705 221.217H123.953ZM123.953 220.35H125.354C126.369 220.35 126.877 220.053 126.877 219.459C126.877 218.865 126.396 218.559 125.436 218.539H123.953V220.35ZM134.805 224H133.721V221.293H130.809V224H129.719V217.66H130.809V220.408H133.721V217.66H134.805V224ZM137.734 219.846H139.381C140.1 219.854 140.668 220.041 141.086 220.408C141.504 220.775 141.713 221.273 141.713 221.902C141.713 222.535 141.498 223.043 141.068 223.426C140.639 223.809 140.061 224 139.334 224H136.65V217.66H137.734V219.846ZM143.975 224H142.885V217.66H143.975V224ZM137.734 220.73V223.115H139.346C139.752 223.115 140.066 223.012 140.289 222.805C140.512 222.594 140.623 222.307 140.623 221.943C140.623 221.592 140.514 221.305 140.295 221.082C140.08 220.855 139.777 220.738 139.387 220.73H137.734ZM147.994 219.975L149.4 217.66H150.666L148.592 220.795L150.73 224H149.477L148.012 221.627L146.547 224H145.287L147.426 220.795L145.352 217.66H146.605L147.994 219.975ZM156.871 222.412L158.348 217.66H159.508L156.959 224.979C156.564 226.033 155.938 226.561 155.078 226.561L154.873 226.543L154.469 226.467V225.588L154.762 225.611C155.129 225.611 155.414 225.537 155.617 225.389C155.824 225.24 155.994 224.969 156.127 224.574L156.367 223.93L154.105 217.66H155.289L156.871 222.412ZM165.666 224H164.582V218.557H161.664V224H160.574V217.66H165.666V224ZM172.762 220.9C172.762 221.865 172.541 222.643 172.1 223.232C171.658 223.822 171.061 224.117 170.307 224.117C169.537 224.117 168.932 223.873 168.49 223.385V226.438H167.406V217.66H168.396L168.449 218.363C168.891 217.816 169.504 217.543 170.289 217.543C171.051 217.543 171.652 217.83 172.094 218.404C172.539 218.979 172.762 219.777 172.762 220.801V220.9ZM171.678 220.777C171.678 220.062 171.525 219.498 171.221 219.084C170.916 218.67 170.498 218.463 169.967 218.463C169.311 218.463 168.818 218.754 168.49 219.336V222.365C168.814 222.943 169.311 223.232 169.979 223.232C170.498 223.232 170.91 223.027 171.215 222.617C171.523 222.203 171.678 221.59 171.678 220.777ZM178.059 224C177.996 223.875 177.945 223.652 177.906 223.332C177.402 223.855 176.801 224.117 176.102 224.117C175.477 224.117 174.963 223.941 174.561 223.59C174.162 223.234 173.963 222.785 173.963 222.242C173.963 221.582 174.213 221.07 174.713 220.707C175.217 220.34 175.924 220.156 176.834 220.156H177.889V219.658C177.889 219.279 177.775 218.979 177.549 218.756C177.322 218.529 176.988 218.416 176.547 218.416C176.16 218.416 175.836 218.514 175.574 218.709C175.312 218.904 175.182 219.141 175.182 219.418H174.092C174.092 219.102 174.203 218.797 174.426 218.504C174.652 218.207 174.957 217.973 175.34 217.801C175.727 217.629 176.15 217.543 176.611 217.543C177.342 217.543 177.914 217.727 178.328 218.094C178.742 218.457 178.957 218.959 178.973 219.6V222.518C178.973 223.1 179.047 223.562 179.195 223.906V224H178.059ZM176.26 223.174C176.6 223.174 176.922 223.086 177.227 222.91C177.531 222.734 177.752 222.506 177.889 222.225V220.924H177.039C175.711 220.924 175.047 221.312 175.047 222.09C175.047 222.43 175.16 222.695 175.387 222.887C175.613 223.078 175.904 223.174 176.26 223.174ZM185.729 221.246H184.967V224H183.883V221.246H183.121L181.346 224H179.975L182.242 220.719L180.191 217.66H181.504L183.139 220.285H183.883V217.66H184.967V220.285H185.705L187.352 217.66H188.664L186.607 220.725L188.875 224H187.504L185.729 221.246ZM195.039 224H193.955V221.293H191.043V224H189.953V217.66H191.043V220.408H193.955V217.66H195.039V224ZM199.416 224.117C198.557 224.117 197.857 223.836 197.318 223.273C196.779 222.707 196.51 221.951 196.51 221.006V220.807C196.51 220.178 196.629 219.617 196.867 219.125C197.109 218.629 197.445 218.242 197.875 217.965C198.309 217.684 198.777 217.543 199.281 217.543C200.105 217.543 200.746 217.814 201.203 218.357C201.66 218.9 201.889 219.678 201.889 220.689V221.141H197.594C197.609 221.766 197.791 222.271 198.139 222.658C198.49 223.041 198.936 223.232 199.475 223.232C199.857 223.232 200.182 223.154 200.447 222.998C200.713 222.842 200.945 222.635 201.145 222.377L201.807 222.893C201.275 223.709 200.479 224.117 199.416 224.117ZM199.281 218.434C198.844 218.434 198.477 218.594 198.18 218.914C197.883 219.23 197.699 219.676 197.629 220.25H200.805V220.168C200.773 219.617 200.625 219.191 200.359 218.891C200.094 218.586 199.734 218.434 199.281 218.434ZM208.328 224H207.244V221.293H204.332V224H203.242V217.66H204.332V220.408H207.244V217.66H208.328V224ZM214.176 217.66H215.26V224H214.176V219.377L211.252 224H210.168V217.66H211.252V222.289L214.176 217.66ZM221.102 217.66H222.186V224H221.102V219.377L218.178 224H217.094V217.66H218.178V222.289L221.102 217.66ZM221.395 215.352C221.395 215.824 221.232 216.205 220.908 216.494C220.588 216.779 220.166 216.922 219.643 216.922C219.119 216.922 218.695 216.777 218.371 216.488C218.047 216.199 217.885 215.82 217.885 215.352H218.77C218.77 215.625 218.844 215.84 218.992 215.996C219.141 216.148 219.357 216.225 219.643 216.225C219.916 216.225 220.129 216.148 220.281 215.996C220.438 215.844 220.516 215.629 220.516 215.352H221.395Z" fill="black"/>
<path d="M236 17H52C47.5817 17 44 20.5817 44 25V153C44 157.418 47.5817 161 52 161H236C240.418 161 244 157.418 244 153V25C244 20.5817 240.418 17 236 17Z" fill="#E5E7FA"/>
<path d="M65.3418 140.613H63.6133V147H61.7383V132.781H63.6133V139.051H65.0781L70.0488 132.781H72.3828L66.9531 139.676L72.7832 147H70.4883L65.3418 140.613ZM77.2852 144.354L79.7461 136.434H81.6797L77.4316 148.631C76.7741 150.389 75.7292 151.268 74.2969 151.268L73.9551 151.238L73.2812 151.111V149.646L73.7695 149.686C74.3815 149.686 74.8568 149.562 75.1953 149.314C75.5404 149.067 75.8236 148.615 76.0449 147.957L76.4453 146.883L72.6758 136.434H74.6484L77.2852 144.354ZM92.2266 141.834C92.2266 143.442 91.8587 144.738 91.123 145.721C90.3874 146.704 89.3913 147.195 88.1348 147.195C86.8522 147.195 85.8431 146.788 85.1074 145.975V151.062H83.3008V136.434H84.9512L85.0391 137.605C85.7747 136.694 86.7969 136.238 88.1055 136.238C89.375 136.238 90.3776 136.717 91.1133 137.674C91.8555 138.631 92.2266 139.962 92.2266 141.668V141.834ZM90.4199 141.629C90.4199 140.438 90.166 139.497 89.6582 138.807C89.1504 138.117 88.4538 137.771 87.5684 137.771C86.4746 137.771 85.6543 138.257 85.1074 139.227V144.275C85.6478 145.239 86.4746 145.721 87.5879 145.721C88.4538 145.721 89.1406 145.379 89.6484 144.695C90.1628 144.005 90.4199 142.983 90.4199 141.629ZM98.7695 145.721C99.4141 145.721 99.9772 145.525 100.459 145.135C100.941 144.744 101.208 144.256 101.26 143.67H102.969C102.936 144.275 102.728 144.852 102.344 145.398C101.96 145.945 101.445 146.382 100.801 146.707C100.163 147.033 99.4857 147.195 98.7695 147.195C97.3307 147.195 96.1849 146.717 95.332 145.76C94.4857 144.796 94.0625 143.481 94.0625 141.814V141.512C94.0625 140.483 94.2513 139.568 94.6289 138.768C95.0065 137.967 95.5469 137.345 96.25 136.902C96.9596 136.46 97.7962 136.238 98.7598 136.238C99.9447 136.238 100.928 136.593 101.709 137.303C102.497 138.012 102.917 138.934 102.969 140.066H101.26C101.208 139.383 100.947 138.823 100.479 138.387C100.016 137.944 99.4434 137.723 98.7598 137.723C97.8418 137.723 97.1289 138.055 96.6211 138.719C96.1198 139.376 95.8691 140.33 95.8691 141.58V141.922C95.8691 143.139 96.1198 144.077 96.6211 144.734C97.1224 145.392 97.8385 145.721 98.7695 145.721ZM114.199 145.721C114.844 145.721 115.407 145.525 115.889 145.135C116.37 144.744 116.637 144.256 116.689 143.67H118.398C118.366 144.275 118.158 144.852 117.773 145.398C117.389 145.945 116.875 146.382 116.23 146.707C115.592 147.033 114.915 147.195 114.199 147.195C112.76 147.195 111.615 146.717 110.762 145.76C109.915 144.796 109.492 143.481 109.492 141.814V141.512C109.492 140.483 109.681 139.568 110.059 138.768C110.436 137.967 110.977 137.345 111.68 136.902C112.389 136.46 113.226 136.238 114.189 136.238C115.374 136.238 116.357 136.593 117.139 137.303C117.926 138.012 118.346 138.934 118.398 140.066H116.689C116.637 139.383 116.377 138.823 115.908 138.387C115.446 137.944 114.873 137.723 114.189 137.723C113.271 137.723 112.559 138.055 112.051 138.719C111.549 139.376 111.299 140.33 111.299 141.58V141.922C111.299 143.139 111.549 144.077 112.051 144.734C112.552 145.392 113.268 145.721 114.199 145.721ZM131.201 139.324C131.201 138.829 131.012 138.439 130.635 138.152C130.257 137.859 129.74 137.713 129.082 137.713C128.444 137.713 127.91 137.879 127.48 138.211C127.057 138.543 126.846 138.934 126.846 139.383H125.049C125.049 138.465 125.433 137.713 126.201 137.127C126.969 136.541 127.93 136.248 129.082 136.248C130.319 136.248 131.283 136.515 131.973 137.049C132.663 137.576 133.008 138.331 133.008 139.314C133.008 139.79 132.865 140.226 132.578 140.623C132.292 141.02 131.885 141.336 131.357 141.57C132.588 141.987 133.203 142.807 133.203 144.031C133.203 145.001 132.829 145.77 132.08 146.336C131.331 146.902 130.332 147.186 129.082 147.186C127.865 147.186 126.859 146.889 126.064 146.297C125.277 145.698 124.883 144.891 124.883 143.875H126.68C126.68 144.389 126.908 144.832 127.363 145.203C127.826 145.568 128.398 145.75 129.082 145.75C129.772 145.75 130.329 145.59 130.752 145.271C131.175 144.952 131.387 144.539 131.387 144.031C131.387 143.439 131.208 143.016 130.85 142.762C130.498 142.501 129.948 142.371 129.199 142.371H127.393V140.848H129.355C130.586 140.815 131.201 140.307 131.201 139.324ZM142.07 147C141.966 146.792 141.882 146.421 141.816 145.887C140.977 146.759 139.974 147.195 138.809 147.195C137.767 147.195 136.911 146.902 136.24 146.316C135.576 145.724 135.244 144.975 135.244 144.07C135.244 142.97 135.661 142.117 136.494 141.512C137.334 140.9 138.512 140.594 140.029 140.594H141.787V139.764C141.787 139.132 141.598 138.631 141.221 138.26C140.843 137.882 140.286 137.693 139.551 137.693C138.906 137.693 138.366 137.856 137.93 138.182C137.493 138.507 137.275 138.901 137.275 139.363H135.459C135.459 138.836 135.645 138.328 136.016 137.84C136.393 137.345 136.901 136.954 137.539 136.668C138.184 136.382 138.89 136.238 139.658 136.238C140.876 136.238 141.829 136.544 142.52 137.156C143.21 137.762 143.568 138.598 143.594 139.666V144.529C143.594 145.499 143.717 146.271 143.965 146.844V147H142.07ZM139.072 145.623C139.639 145.623 140.176 145.477 140.684 145.184C141.191 144.891 141.559 144.51 141.787 144.041V141.873H140.371C138.158 141.873 137.051 142.521 137.051 143.816C137.051 144.383 137.24 144.826 137.617 145.145C137.995 145.464 138.48 145.623 139.072 145.623ZM155.059 147H153.252V142.488H148.398V147H146.582V136.434H148.398V141.014H153.252V136.434H155.059V147ZM166.045 136.434V147H164.229V142.889H161.504L159.014 147H157.061L159.717 142.615C159.04 142.368 158.519 141.987 158.154 141.473C157.796 140.952 157.617 140.346 157.617 139.656C157.617 138.693 157.979 137.918 158.701 137.332C159.424 136.74 160.391 136.44 161.602 136.434H166.045ZM159.434 139.676C159.434 140.19 159.609 140.607 159.961 140.926C160.312 141.238 160.778 141.398 161.357 141.404H164.229V137.898H161.631C160.96 137.898 160.426 138.064 160.029 138.396C159.632 138.722 159.434 139.148 159.434 139.676ZM176.797 137.898H173.252V147H171.445V137.898H167.969V136.434H176.797V137.898ZM185.391 136.434H187.197V147H185.391V139.295L180.518 147H178.711V136.434H180.518V144.148L185.391 136.434ZM198.174 136.434V147H196.357V142.889H193.633L191.143 147H189.189L191.846 142.615C191.169 142.368 190.648 141.987 190.283 141.473C189.925 140.952 189.746 140.346 189.746 139.656C189.746 138.693 190.107 137.918 190.83 137.332C191.553 136.74 192.52 136.44 193.73 136.434H198.174ZM191.562 139.676C191.562 140.19 191.738 140.607 192.09 140.926C192.441 141.238 192.907 141.398 193.486 141.404H196.357V137.898H193.76C193.089 137.898 192.555 138.064 192.158 138.396C191.761 138.722 191.562 139.148 191.562 139.676ZM207.158 144.607L210.752 136.434H213.008V147H211.201V139.314L207.783 147H206.533L203.047 139.148V147H201.24V136.434H203.584L207.158 144.607ZM222.754 136.434H224.561V147H222.754V139.295L217.881 147H216.074V136.434H217.881V144.148L222.754 136.434Z" fill="black"/>
<path d="M138.84 41.8431C129.518 43.8378 122.147 51.5122 120.543 60.9211C118.982 69.8531 122.494 78.7419 129.692 84.2053C131.903 85.8962 133.16 88.411 133.16 91.1862L139.279 93.6108L133.16 97.69V99.8579C133.16 100.595 133.247 101.332 133.377 102.026L139.664 106.362L144 102.026L148.336 106.362L154.623 102.026C154.753 101.332 154.84 100.595 154.84 99.8579V97.69L148.764 93.6396L154.84 91.186C154.84 88.411 156.097 85.8961 158.309 84.2052C164.292 79.6957 167.848 72.5846 167.848 65.1704C167.848 50.2649 154.239 38.616 138.84 41.8431V41.8431ZM144 97.69L140.342 94.0317L144.103 95.522L147.567 94.1231L144 97.69Z" fill="url(#paint0_linear)"/>
<path d="M133.16 97.69H139.664C140.878 97.69 141.832 98.6437 141.832 99.8579C141.832 101.072 140.878 102.026 139.664 102.026H133.377C134.374 106.969 138.754 110.698 144 110.698C149.571 110.698 153.771 106.57 154.623 102.026H148.336C147.122 102.026 146.168 101.072 146.168 99.8579C146.168 98.6437 147.122 97.69 148.336 97.69H154.84V91.186H133.16V97.69ZM114.739 73.5142L110.663 74.9984C109.537 75.407 108.957 76.6518 109.368 77.7761C109.78 78.913 111.034 79.4776 112.145 79.0719L116.221 77.5877C117.347 77.1791 117.927 75.9342 117.517 74.8099C117.106 73.6856 115.855 73.1034 114.739 73.5142V73.5142ZM173.261 56.8268L177.337 55.3426C178.463 54.934 179.043 53.6891 178.632 52.5648C178.224 51.4385 176.975 50.8627 175.855 51.2691L171.779 52.7533C170.653 53.1619 170.073 54.4067 170.483 55.5311C170.896 56.6679 172.15 57.2325 173.261 56.8268ZM116.221 52.7533L112.145 51.2693C111.023 50.8649 109.776 51.4386 109.368 52.565C108.957 53.6891 109.537 54.9341 110.663 55.3427L114.739 56.8269C115.848 57.232 117.103 56.6697 117.517 55.5312C117.927 54.4069 117.347 53.1619 116.221 52.7533ZM177.337 74.9983L173.261 73.5141C172.141 73.1055 170.892 73.6856 170.483 74.8098C170.073 75.9339 170.653 77.1789 171.779 77.5875L175.855 79.0717C176.964 79.4768 178.219 78.9145 178.632 77.776C179.043 76.6518 178.463 75.4068 177.337 74.9983V74.9983ZM115.816 65.1704C115.816 63.9721 114.847 63.0024 113.648 63.0024H109.168C107.97 63.0024 107 63.9721 107 65.1704C107 66.3687 107.97 67.3384 109.168 67.3384H113.648C114.847 67.3384 115.816 66.3687 115.816 65.1704ZM178.832 63.0024H174.352C173.153 63.0024 172.184 63.9721 172.184 65.1704C172.184 66.3687 173.153 67.3384 174.352 67.3384H178.832C180.03 67.3384 181 66.3687 181 65.1704C181 63.9721 180.03 63.0024 178.832 63.0024ZM153.083 63.14C152.4 62.5116 151.615 58.6665 148.336 58.6665C145.912 58.6665 144.858 60.7731 144.229 62.0328C144.161 62.1684 144.083 62.3271 144 62.4837C143.917 62.3271 143.839 62.1682 143.771 62.0328C143.142 60.7731 142.088 58.6665 139.664 58.6665C136.601 58.6665 135.747 61.9867 135.013 63.0257C133.965 63.1782 133.16 64.0801 133.16 65.1704C133.16 66.3687 134.13 67.3384 135.328 67.3384C137.752 67.3384 138.807 65.2318 139.435 63.9721C139.503 63.8365 139.582 63.6778 139.664 63.5212C139.747 63.6778 139.825 63.8367 139.893 63.9721C140.283 64.7549 140.886 65.8181 141.832 66.5464V78.1782C141.832 79.3765 142.802 80.3462 144 80.3462C145.198 80.3462 146.168 79.3765 146.168 78.1782V66.5464C147.114 65.8181 147.717 64.755 148.107 63.9721C148.175 63.8365 148.253 63.6778 148.336 63.5212C148.418 63.6778 148.497 63.8367 148.565 63.9721C149.193 65.2318 150.248 67.3384 152.672 67.3384C153.87 67.3384 155.045 66.4365 155.045 65.2402C155.045 64.0421 154.281 63.14 153.083 63.14V63.14Z" fill="url(#paint1_linear)"/>
<defs>
<filter id="filter0_d" x="14" y="54" width="208" height="248" filterUnits="userSpaceOnUse" color-interpolation-filters="sRGB">
<feFlood flood-opacity="0" result="BackgroundImageFix"/>
<feColorMatrix in="SourceAlpha" type="matrix" values="0 0 0 0 0 0 0 0 0 0 0 0 0 0 0 0 0 0 127 0"/>
<feOffset dy="4"/>
<feGaussianBlur stdDeviation="2"/>
<feColorMatrix type="matrix" values="0 0 0 0 0 0 0 0 0 0 0 0 0 0 0 0 0 0 0.25 0"/>
<feBlend mode="normal" in2="BackgroundImageFix" result="effect1_dropShadow"/>
<feBlend mode="normal" in="SourceGraphic" in2="effect1_dropShadow" result="shape"/>
</filter>
<filter id="filter1_d" x="14" y="54" width="208" height="248" filterUnits="userSpaceOnUse" color-interpolation-filters="sRGB">
<feFlood flood-opacity="0" result="BackgroundImageFix"/>
<feColorMatrix in="SourceAlpha" type="matrix" values="0 0 0 0 0 0 0 0 0 0 0 0 0 0 0 0 0 0 127 0"/>
<feOffset dy="4"/>
<feGaussianBlur stdDeviation="2"/>
<feColorMatrix type="matrix" values="0 0 0 0 0 0 0 0 0 0 0 0 0 0 0 0 0 0 0.25 0"/>
<feBlend mode="normal" in2="BackgroundImageFix" result="effect1_dropShadow"/>
<feBlend mode="normal" in="SourceGraphic" in2="effect1_dropShadow" result="shape"/>
</filter>
<filter id="filter2_d" x="27" y="36" width="208" height="248" filterUnits="userSpaceOnUse" color-interpolation-filters="sRGB">
<feFlood flood-opacity="0" result="BackgroundImageFix"/>
<feColorMatrix in="SourceAlpha" type="matrix" values="0 0 0 0 0 0 0 0 0 0 0 0 0 0 0 0 0 0 127 0"/>
<feOffset dy="4"/>
<feGaussianBlur stdDeviation="2"/>
<feColorMatrix type="matrix" values="0 0 0 0 0 0 0 0 0 0 0 0 0 0 0 0 0 0 0.25 0"/>
<feBlend mode="normal" in2="BackgroundImageFix" result="effect1_dropShadow"/>
<feBlend mode="normal" in="SourceGraphic" in2="effect1_dropShadow" result="shape"/>
</filter>
<filter id="filter3_d" x="40" y="18" width="208" height="248" filterUnits="userSpaceOnUse" color-interpolation-filters="sRGB">
<feFlood flood-opacity="0" result="BackgroundImageFix"/>
<feColorMatrix in="SourceAlpha" type="matrix" values="0 0 0 0 0 0 0 0 0 0 0 0 0 0 0 0 0 0 127 0"/>
<feOffset dy="4"/>
<feGaussianBlur stdDeviation="2"/>
<feColorMatrix type="matrix" values="0 0 0 0 0 0 0 0 0 0 0 0 0 0 0 0 0 0 0.25 0"/>
<feBlend mode="normal" in2="BackgroundImageFix" result="effect1_dropShadow"/>
<feBlend mode="normal" in="SourceGraphic" in2="effect1_dropShadow" result="shape"/>
</filter>
<linearGradient id="paint0_linear" x1="144.012" y1="106.362" x2="144.012" y2="41.3022" gradientUnits="userSpaceOnUse">
<stop stop-color="#FD5900"/>
<stop offset="1" stop-color="#FFDE00"/>
</linearGradient>
<linearGradient id="paint1_linear" x1="144" y1="80.3462" x2="144" y2="51.1389" gradientUnits="userSpaceOnUse">
<stop stop-color="#FFE59A"/>
<stop offset="1" stop-color="#FFFFD5"/>
</linearGradient>
</defs>
</svg>
