<svg width="266" height="311" viewBox="0 0 266 311" fill="none" xmlns="http://www.w3.org/2000/svg">
<path d="M265.8 0H0V311H265.8V0Z" fill="#F5F6F7"/>
<g filter="url(#filter0_d)">
<path d="M226 30H42C37.5817 30 34 33.5817 34 38V262C34 266.418 37.5817 270 42 270H226C230.418 270 234 266.418 234 262V38C234 33.5817 230.418 30 226 30Z" fill="white"/>
</g>
<path d="M54.2656 205.293C54.1602 206.195 53.8262 206.893 53.2637 207.385C52.7051 207.873 51.9609 208.117 51.0312 208.117C50.0234 208.117 49.2148 207.756 48.6055 207.033C48 206.311 47.6973 205.344 47.6973 204.133V203.312C47.6973 202.52 47.8379 201.822 48.1191 201.221C48.4043 200.619 48.8066 200.158 49.3262 199.838C49.8457 199.514 50.4473 199.352 51.1309 199.352C52.0371 199.352 52.7637 199.605 53.3105 200.113C53.8574 200.617 54.1758 201.316 54.2656 202.211H53.1348C53.0371 201.531 52.8242 201.039 52.4961 200.734C52.1719 200.43 51.7168 200.277 51.1309 200.277C50.4121 200.277 49.8477 200.543 49.4375 201.074C49.0312 201.605 48.8281 202.361 48.8281 203.342V204.168C48.8281 205.094 49.0215 205.83 49.4082 206.377C49.7949 206.924 50.3359 207.197 51.0312 207.197C51.6562 207.197 52.1348 207.057 52.4668 206.775C52.8027 206.49 53.0254 205.996 53.1348 205.293H54.2656ZM55.3496 204.771C55.3496 204.15 55.4707 203.592 55.7129 203.096C55.959 202.6 56.2988 202.217 56.7324 201.947C57.1699 201.678 57.668 201.543 58.2266 201.543C59.0898 201.543 59.7871 201.842 60.3184 202.439C60.8535 203.037 61.1211 203.832 61.1211 204.824V204.9C61.1211 205.518 61.002 206.072 60.7637 206.564C60.5293 207.053 60.1914 207.434 59.75 207.707C59.3125 207.98 58.8086 208.117 58.2383 208.117C57.3789 208.117 56.6816 207.818 56.1465 207.221C55.6152 206.623 55.3496 205.832 55.3496 204.848V204.771ZM56.4395 204.9C56.4395 205.604 56.6016 206.168 56.9258 206.594C57.2539 207.02 57.6914 207.232 58.2383 207.232C58.7891 207.232 59.2266 207.018 59.5508 206.588C59.875 206.154 60.0371 205.549 60.0371 204.771C60.0371 204.076 59.8711 203.514 59.5391 203.084C59.2109 202.65 58.7734 202.434 58.2266 202.434C57.6914 202.434 57.2598 202.646 56.9316 203.072C56.6035 203.498 56.4395 204.107 56.4395 204.9ZM65.9668 203.395C65.9668 203.098 65.8535 202.863 65.627 202.691C65.4004 202.516 65.0898 202.428 64.6953 202.428C64.3125 202.428 63.9922 202.527 63.7344 202.727C63.4805 202.926 63.3535 203.16 63.3535 203.43H62.2754C62.2754 202.879 62.5059 202.428 62.9668 202.076C63.4277 201.725 64.0039 201.549 64.6953 201.549C65.4375 201.549 66.0156 201.709 66.4297 202.029C66.8438 202.346 67.0508 202.799 67.0508 203.389C67.0508 203.674 66.9648 203.936 66.793 204.174C66.6211 204.412 66.377 204.602 66.0605 204.742C66.7988 204.992 67.168 205.484 67.168 206.219C67.168 206.801 66.9434 207.262 66.4941 207.602C66.0449 207.941 65.4453 208.111 64.6953 208.111C63.9648 208.111 63.3613 207.934 62.8848 207.578C62.4121 207.219 62.1758 206.734 62.1758 206.125H63.2539C63.2539 206.434 63.3906 206.699 63.6641 206.922C63.9414 207.141 64.2852 207.25 64.6953 207.25C65.1094 207.25 65.4434 207.154 65.6973 206.963C65.9512 206.771 66.0781 206.523 66.0781 206.219C66.0781 205.863 65.9707 205.609 65.7559 205.457C65.5449 205.301 65.2148 205.223 64.7656 205.223H63.6816V204.309H64.8594C65.5977 204.289 65.9668 203.984 65.9668 203.395ZM68.5215 207.115L68.8965 206.652C69.3184 206.105 69.5586 205.285 69.6172 204.191L69.7168 201.66H73.8008V207.115H74.6152V209.863H73.5312V208H69.1074V209.863H68.0234L68.0293 207.115H68.5215ZM69.8047 207.115H72.7168V202.662H70.7656L70.7012 204.174C70.6348 205.436 70.3359 206.416 69.8047 207.115ZM79.7305 208C79.668 207.875 79.6172 207.652 79.5781 207.332C79.0742 207.855 78.4727 208.117 77.7734 208.117C77.1484 208.117 76.6348 207.941 76.2324 207.59C75.834 207.234 75.6348 206.785 75.6348 206.242C75.6348 205.582 75.8848 205.07 76.3848 204.707C76.8887 204.34 77.5957 204.156 78.5059 204.156H79.5605V203.658C79.5605 203.279 79.4473 202.979 79.2207 202.756C78.9941 202.529 78.6602 202.416 78.2188 202.416C77.832 202.416 77.5078 202.514 77.2461 202.709C76.9844 202.904 76.8535 203.141 76.8535 203.418H75.7637C75.7637 203.102 75.875 202.797 76.0977 202.504C76.3242 202.207 76.6289 201.973 77.0117 201.801C77.3984 201.629 77.8223 201.543 78.2832 201.543C79.0137 201.543 79.5859 201.727 80 202.094C80.4141 202.457 80.6289 202.959 80.6445 203.6V206.518C80.6445 207.1 80.7188 207.562 80.8672 207.906V208H79.7305ZM77.9316 207.174C78.2715 207.174 78.5938 207.086 78.8984 206.91C79.2031 206.734 79.4238 206.506 79.5605 206.225V204.924H78.7109C77.3828 204.924 76.7188 205.312 76.7188 206.09C76.7188 206.43 76.832 206.695 77.0586 206.887C77.2852 207.078 77.5762 207.174 77.9316 207.174ZM86.9609 202.539H84.834V208H83.75V202.539H81.6641V201.66H86.9609V202.539ZM89.1992 203.846H90.8457C91.5645 203.854 92.1328 204.041 92.5508 204.408C92.9688 204.775 93.1777 205.273 93.1777 205.902C93.1777 206.535 92.9629 207.043 92.5332 207.426C92.1035 207.809 91.5254 208 90.7988 208H88.1152V201.66H89.1992V203.846ZM89.1992 204.73V207.115H90.8105C91.2168 207.115 91.5312 207.012 91.7539 206.805C91.9766 206.594 92.0879 206.307 92.0879 205.943C92.0879 205.592 91.9785 205.305 91.7598 205.082C91.5449 204.855 91.2422 204.738 90.8516 204.73H89.1992ZM102.688 208H101.604V205.293H98.6914V208H97.6016V201.66H98.6914V204.408H101.604V201.66H102.688V208ZM104.146 204.771C104.146 204.15 104.268 203.592 104.51 203.096C104.756 202.6 105.096 202.217 105.529 201.947C105.967 201.678 106.465 201.543 107.023 201.543C107.887 201.543 108.584 201.842 109.115 202.439C109.65 203.037 109.918 203.832 109.918 204.824V204.9C109.918 205.518 109.799 206.072 109.561 206.564C109.326 207.053 108.988 207.434 108.547 207.707C108.109 207.98 107.605 208.117 107.035 208.117C106.176 208.117 105.479 207.818 104.943 207.221C104.412 206.623 104.146 205.832 104.146 204.848V204.771ZM105.236 204.9C105.236 205.604 105.398 206.168 105.723 206.594C106.051 207.02 106.488 207.232 107.035 207.232C107.586 207.232 108.023 207.018 108.348 206.588C108.672 206.154 108.834 205.549 108.834 204.771C108.834 204.076 108.668 203.514 108.336 203.084C108.008 202.65 107.57 202.434 107.023 202.434C106.488 202.434 106.057 202.646 105.729 203.072C105.4 203.498 105.236 204.107 105.236 204.9ZM111.377 208V201.66H113.85C114.693 201.66 115.34 201.809 115.789 202.105C116.242 202.398 116.469 202.83 116.469 203.4C116.469 203.693 116.381 203.959 116.205 204.197C116.029 204.432 115.77 204.611 115.426 204.736C115.809 204.826 116.115 205.002 116.346 205.264C116.58 205.525 116.697 205.838 116.697 206.201C116.697 206.783 116.482 207.229 116.053 207.537C115.627 207.846 115.023 208 114.242 208H111.377ZM112.461 205.217V207.127H114.254C114.707 207.127 115.045 207.043 115.268 206.875C115.494 206.707 115.607 206.471 115.607 206.166C115.607 205.533 115.143 205.217 114.213 205.217H112.461ZM112.461 204.35H113.861C114.877 204.35 115.385 204.053 115.385 203.459C115.385 202.865 114.904 202.559 113.943 202.539H112.461V204.35ZM117.846 204.771C117.846 204.15 117.967 203.592 118.209 203.096C118.455 202.6 118.795 202.217 119.229 201.947C119.666 201.678 120.164 201.543 120.723 201.543C121.586 201.543 122.283 201.842 122.814 202.439C123.35 203.037 123.617 203.832 123.617 204.824V204.9C123.617 205.518 123.498 206.072 123.26 206.564C123.025 207.053 122.688 207.434 122.246 207.707C121.809 207.98 121.305 208.117 120.734 208.117C119.875 208.117 119.178 207.818 118.643 207.221C118.111 206.623 117.846 205.832 117.846 204.848V204.771ZM118.936 204.9C118.936 205.604 119.098 206.168 119.422 206.594C119.75 207.02 120.188 207.232 120.734 207.232C121.285 207.232 121.723 207.018 122.047 206.588C122.371 206.154 122.533 205.549 122.533 204.771C122.533 204.076 122.367 203.514 122.035 203.084C121.707 202.65 121.27 202.434 120.723 202.434C120.188 202.434 119.756 202.646 119.428 203.072C119.1 203.498 118.936 204.107 118.936 204.9ZM127.607 208.117C126.748 208.117 126.049 207.836 125.51 207.273C124.971 206.707 124.701 205.951 124.701 205.006V204.807C124.701 204.178 124.82 203.617 125.059 203.125C125.301 202.629 125.637 202.242 126.066 201.965C126.5 201.684 126.969 201.543 127.473 201.543C128.297 201.543 128.938 201.814 129.395 202.357C129.852 202.9 130.08 203.678 130.08 204.689V205.141H125.785C125.801 205.766 125.982 206.271 126.33 206.658C126.682 207.041 127.127 207.232 127.666 207.232C128.049 207.232 128.373 207.154 128.639 206.998C128.904 206.842 129.137 206.635 129.336 206.377L129.998 206.893C129.467 207.709 128.67 208.117 127.607 208.117ZM127.473 202.434C127.035 202.434 126.668 202.594 126.371 202.914C126.074 203.23 125.891 203.676 125.82 204.25H128.996V204.168C128.965 203.617 128.816 203.191 128.551 202.891C128.285 202.586 127.926 202.434 127.473 202.434ZM137.803 203.395C137.803 203.098 137.689 202.863 137.463 202.691C137.236 202.516 136.926 202.428 136.531 202.428C136.148 202.428 135.828 202.527 135.57 202.727C135.316 202.926 135.189 203.16 135.189 203.43H134.111C134.111 202.879 134.342 202.428 134.803 202.076C135.264 201.725 135.84 201.549 136.531 201.549C137.273 201.549 137.852 201.709 138.266 202.029C138.68 202.346 138.887 202.799 138.887 203.389C138.887 203.674 138.801 203.936 138.629 204.174C138.457 204.412 138.213 204.602 137.896 204.742C138.635 204.992 139.004 205.484 139.004 206.219C139.004 206.801 138.779 207.262 138.33 207.602C137.881 207.941 137.281 208.111 136.531 208.111C135.801 208.111 135.197 207.934 134.721 207.578C134.248 207.219 134.012 206.734 134.012 206.125H135.09C135.09 206.434 135.227 206.699 135.5 206.922C135.777 207.141 136.121 207.25 136.531 207.25C136.945 207.25 137.279 207.154 137.533 206.963C137.787 206.771 137.914 206.523 137.914 206.219C137.914 205.863 137.807 205.609 137.592 205.457C137.381 205.301 137.051 205.223 136.602 205.223H135.518V204.309H136.695C137.434 204.289 137.803 203.984 137.803 203.395ZM144.324 208C144.262 207.875 144.211 207.652 144.172 207.332C143.668 207.855 143.066 208.117 142.367 208.117C141.742 208.117 141.229 207.941 140.826 207.59C140.428 207.234 140.229 206.785 140.229 206.242C140.229 205.582 140.479 205.07 140.979 204.707C141.482 204.34 142.189 204.156 143.1 204.156H144.154V203.658C144.154 203.279 144.041 202.979 143.814 202.756C143.588 202.529 143.254 202.416 142.812 202.416C142.426 202.416 142.102 202.514 141.84 202.709C141.578 202.904 141.447 203.141 141.447 203.418H140.357C140.357 203.102 140.469 202.797 140.691 202.504C140.918 202.207 141.223 201.973 141.605 201.801C141.992 201.629 142.416 201.543 142.877 201.543C143.607 201.543 144.18 201.727 144.594 202.094C145.008 202.457 145.223 202.959 145.238 203.6V206.518C145.238 207.1 145.312 207.562 145.461 207.906V208H144.324ZM142.525 207.174C142.865 207.174 143.188 207.086 143.492 206.91C143.797 206.734 144.018 206.506 144.154 206.225V204.924H143.305C141.977 204.924 141.312 205.312 141.312 206.09C141.312 206.43 141.426 206.695 141.652 206.887C141.879 207.078 142.17 207.174 142.525 207.174ZM152.117 208H151.033V205.293H148.121V208H147.031V201.66H148.121V204.408H151.033V201.66H152.117V208ZM158.709 201.66V208H157.619V205.533H155.984L154.49 208H153.318L154.912 205.369C154.506 205.221 154.193 204.992 153.975 204.684C153.76 204.371 153.652 204.008 153.652 203.594C153.652 203.016 153.869 202.551 154.303 202.199C154.736 201.844 155.316 201.664 156.043 201.66H158.709ZM154.742 203.605C154.742 203.914 154.848 204.164 155.059 204.355C155.27 204.543 155.549 204.639 155.896 204.643H157.619V202.539H156.061C155.658 202.539 155.338 202.639 155.1 202.838C154.861 203.033 154.742 203.289 154.742 203.605ZM165.16 202.539H163.033V208H161.949V202.539H159.863V201.66H165.16V202.539ZM170.316 201.66H171.4V208H170.316V203.377L167.393 208H166.309V201.66H167.393V206.289L170.316 201.66ZM175.771 208.117C174.912 208.117 174.213 207.836 173.674 207.273C173.135 206.707 172.865 205.951 172.865 205.006V204.807C172.865 204.178 172.984 203.617 173.223 203.125C173.465 202.629 173.801 202.242 174.23 201.965C174.664 201.684 175.133 201.543 175.637 201.543C176.461 201.543 177.102 201.814 177.559 202.357C178.016 202.9 178.244 203.678 178.244 204.689V205.141H173.949C173.965 205.766 174.146 206.271 174.494 206.658C174.846 207.041 175.291 207.232 175.83 207.232C176.213 207.232 176.537 207.154 176.803 206.998C177.068 206.842 177.301 206.635 177.5 206.377L178.162 206.893C177.631 207.709 176.834 208.117 175.771 208.117ZM175.637 202.434C175.199 202.434 174.832 202.594 174.535 202.914C174.238 203.23 174.055 203.676 173.984 204.25H177.16V204.168C177.129 203.617 176.98 203.191 176.715 202.891C176.449 202.586 176.09 202.434 175.637 202.434ZM182.428 207.115L182.803 206.652C183.225 206.105 183.465 205.285 183.523 204.191L183.623 201.66H187.707V207.115H188.521V209.863H187.438V208H183.014V209.863H181.93L181.936 207.115H182.428ZM183.711 207.115H186.623V202.662H184.672L184.607 204.174C184.541 205.436 184.242 206.416 183.711 207.115ZM194.92 201.66V208H193.83V202.557H191.674L191.545 204.93C191.475 206.02 191.291 206.799 190.994 207.268C190.701 207.736 190.234 207.98 189.594 208H189.16V207.045L189.471 207.021C189.822 206.982 190.074 206.779 190.227 206.412C190.379 206.045 190.477 205.365 190.52 204.373L190.637 201.66H194.92ZM201.506 201.66V208H200.416V205.533H198.781L197.287 208H196.115L197.709 205.369C197.303 205.221 196.99 204.992 196.771 204.684C196.557 204.371 196.449 204.008 196.449 203.594C196.449 203.016 196.666 202.551 197.1 202.199C197.533 201.844 198.113 201.664 198.84 201.66H201.506ZM197.539 203.605C197.539 203.914 197.645 204.164 197.855 204.355C198.066 204.543 198.346 204.639 198.693 204.643H200.416V202.539H198.857C198.455 202.539 198.135 202.639 197.896 202.838C197.658 203.033 197.539 203.289 197.539 203.605ZM49.8945 220.412L51.3711 215.66H52.5312L49.9824 222.979C49.5879 224.033 48.9609 224.561 48.1016 224.561L47.8965 224.543L47.4922 224.467V223.588L47.7852 223.611C48.1523 223.611 48.4375 223.537 48.6406 223.389C48.8477 223.24 49.0176 222.969 49.1504 222.574L49.3906 221.93L47.1289 215.66H48.3125L49.8945 220.412ZM58.291 222H57.2012V219.703C56.7246 219.828 56.2363 219.891 55.7363 219.891C54.9434 219.891 54.3379 219.688 53.9199 219.281C53.5059 218.875 53.2949 218.297 53.2871 217.547V215.654H54.3711V217.582C54.3906 218.527 54.8457 219 55.7363 219C56.2363 219 56.7246 218.938 57.2012 218.812V215.66H58.291V222ZM62.6621 222.117C61.8027 222.117 61.1035 221.836 60.5645 221.273C60.0254 220.707 59.7559 219.951 59.7559 219.006V218.807C59.7559 218.178 59.875 217.617 60.1133 217.125C60.3555 216.629 60.6914 216.242 61.1211 215.965C61.5547 215.684 62.0234 215.543 62.5273 215.543C63.3516 215.543 63.9922 215.814 64.4492 216.357C64.9062 216.9 65.1348 217.678 65.1348 218.689V219.141H60.8398C60.8555 219.766 61.0371 220.271 61.3848 220.658C61.7363 221.041 62.1816 221.232 62.7207 221.232C63.1035 221.232 63.4277 221.154 63.6934 220.998C63.959 220.842 64.1914 220.635 64.3906 220.377L65.0527 220.893C64.5215 221.709 63.7246 222.117 62.6621 222.117ZM62.5273 216.434C62.0898 216.434 61.7227 216.594 61.4258 216.914C61.1289 217.23 60.9453 217.676 60.875 218.25H64.0508V218.168C64.0195 217.617 63.8711 217.191 63.6055 216.891C63.3398 216.586 62.9805 216.434 62.5273 216.434ZM71.5742 222H70.4902V219.293H67.5781V222H66.4883V215.66H67.5781V218.408H70.4902V215.66H71.5742V222ZM77.4219 215.66H78.5059V222H77.4219V217.377L74.498 222H73.4141V215.66H74.498V220.289L77.4219 215.66ZM82.2207 219.299H81.4297V222H80.3398V215.66H81.4297V218.344H82.1387L84.2715 215.66H85.584L83.0762 218.707L85.7949 222H84.418L82.2207 219.299ZM86.3105 218.771C86.3105 218.15 86.4316 217.592 86.6738 217.096C86.9199 216.6 87.2598 216.217 87.6934 215.947C88.1309 215.678 88.6289 215.543 89.1875 215.543C90.0508 215.543 90.748 215.842 91.2793 216.439C91.8145 217.037 92.082 217.832 92.082 218.824V218.9C92.082 219.518 91.9629 220.072 91.7246 220.564C91.4902 221.053 91.1523 221.434 90.7109 221.707C90.2734 221.98 89.7695 222.117 89.1992 222.117C88.3398 222.117 87.6426 221.818 87.1074 221.221C86.5762 220.623 86.3105 219.832 86.3105 218.848V218.771ZM87.4004 218.9C87.4004 219.604 87.5625 220.168 87.8867 220.594C88.2148 221.02 88.6523 221.232 89.1992 221.232C89.75 221.232 90.1875 221.018 90.5117 220.588C90.8359 220.154 90.998 219.549 90.998 218.771C90.998 218.076 90.832 217.514 90.5 217.084C90.1719 216.65 89.7344 216.434 89.1875 216.434C88.6523 216.434 88.2207 216.646 87.8926 217.072C87.5645 217.498 87.4004 218.107 87.4004 218.9ZM93.541 222V215.66H96.0137C96.8574 215.66 97.5039 215.809 97.9531 216.105C98.4062 216.398 98.6328 216.83 98.6328 217.4C98.6328 217.693 98.5449 217.959 98.3691 218.197C98.1934 218.432 97.9336 218.611 97.5898 218.736C97.9727 218.826 98.2793 219.002 98.5098 219.264C98.7441 219.525 98.8613 219.838 98.8613 220.201C98.8613 220.783 98.6465 221.229 98.2168 221.537C97.791 221.846 97.1875 222 96.4062 222H93.541ZM94.625 219.217V221.127H96.418C96.8711 221.127 97.209 221.043 97.4316 220.875C97.6582 220.707 97.7715 220.471 97.7715 220.166C97.7715 219.533 97.3066 219.217 96.377 219.217H94.625ZM94.625 218.35H96.0254C97.041 218.35 97.5488 218.053 97.5488 217.459C97.5488 216.865 97.0684 216.559 96.1074 216.539H94.625V218.35ZM100.262 223.699L99.6465 223.277C100.014 222.766 100.205 222.238 100.221 221.695V220.717H101.281V221.566C101.281 221.961 101.184 222.355 100.988 222.75C100.797 223.145 100.555 223.461 100.262 223.699ZM109.725 216.557H106.801V222H105.711V215.66H109.725V216.557ZM110.287 221.115L110.662 220.652C111.084 220.105 111.324 219.285 111.383 218.191L111.482 215.66H115.566V221.115H116.381V223.863H115.297V222H110.873V223.863H109.789L109.795 221.115H110.287ZM111.57 221.115H114.482V216.662H112.531L112.467 218.174C112.4 219.436 112.102 220.416 111.57 221.115ZM120.213 222.117C119.354 222.117 118.654 221.836 118.115 221.273C117.576 220.707 117.307 219.951 117.307 219.006V218.807C117.307 218.178 117.426 217.617 117.664 217.125C117.906 216.629 118.242 216.242 118.672 215.965C119.105 215.684 119.574 215.543 120.078 215.543C120.902 215.543 121.543 215.814 122 216.357C122.457 216.9 122.686 217.678 122.686 218.689V219.141H118.391C118.406 219.766 118.588 220.271 118.936 220.658C119.287 221.041 119.732 221.232 120.271 221.232C120.654 221.232 120.979 221.154 121.244 220.998C121.51 220.842 121.742 220.635 121.941 220.377L122.604 220.893C122.072 221.709 121.275 222.117 120.213 222.117ZM120.078 216.434C119.641 216.434 119.273 216.594 118.977 216.914C118.68 217.23 118.496 217.676 118.426 218.25H121.602V218.168C121.57 217.617 121.422 217.191 121.156 216.891C120.891 216.586 120.531 216.434 120.078 216.434ZM130.572 220.564L132.729 215.66H134.082V222H132.998V217.389L130.947 222H130.197L128.105 217.289V222H127.021V215.66H128.428L130.572 220.564ZM135.541 218.771C135.541 218.15 135.662 217.592 135.904 217.096C136.15 216.6 136.49 216.217 136.924 215.947C137.361 215.678 137.859 215.543 138.418 215.543C139.281 215.543 139.979 215.842 140.51 216.439C141.045 217.037 141.312 217.832 141.312 218.824V218.9C141.312 219.518 141.193 220.072 140.955 220.564C140.721 221.053 140.383 221.434 139.941 221.707C139.504 221.98 139 222.117 138.43 222.117C137.57 222.117 136.873 221.818 136.338 221.221C135.807 220.623 135.541 219.832 135.541 218.848V218.771ZM136.631 218.9C136.631 219.604 136.793 220.168 137.117 220.594C137.445 221.02 137.883 221.232 138.43 221.232C138.98 221.232 139.418 221.018 139.742 220.588C140.066 220.154 140.229 219.549 140.229 218.771C140.229 218.076 140.062 217.514 139.73 217.084C139.402 216.65 138.965 216.434 138.418 216.434C137.883 216.434 137.451 216.646 137.123 217.072C136.795 217.498 136.631 218.107 136.631 218.9ZM147.6 219.246H146.838V222H145.754V219.246H144.992L143.217 222H141.846L144.113 218.719L142.062 215.66H143.375L145.01 218.285H145.754V215.66H146.838V218.285H147.576L149.223 215.66H150.535L148.479 218.725L150.746 222H149.375L147.6 219.246ZM156.91 222H155.826V219.293H152.914V222H151.824V215.66H152.914V218.408H155.826V215.66H156.91V222ZM158.369 218.771C158.369 218.15 158.49 217.592 158.732 217.096C158.979 216.6 159.318 216.217 159.752 215.947C160.189 215.678 160.688 215.543 161.246 215.543C162.109 215.543 162.807 215.842 163.338 216.439C163.873 217.037 164.141 217.832 164.141 218.824V218.9C164.141 219.518 164.021 220.072 163.783 220.564C163.549 221.053 163.211 221.434 162.77 221.707C162.332 221.98 161.828 222.117 161.258 222.117C160.398 222.117 159.701 221.818 159.166 221.221C158.635 220.623 158.369 219.832 158.369 218.848V218.771ZM159.459 218.9C159.459 219.604 159.621 220.168 159.945 220.594C160.273 221.02 160.711 221.232 161.258 221.232C161.809 221.232 162.246 221.018 162.57 220.588C162.895 220.154 163.057 219.549 163.057 218.771C163.057 218.076 162.891 217.514 162.559 217.084C162.23 216.65 161.793 216.434 161.246 216.434C160.711 216.434 160.279 216.646 159.951 217.072C159.623 217.498 159.459 218.107 159.459 218.9ZM171.02 221.232C171.406 221.232 171.744 221.115 172.033 220.881C172.322 220.646 172.482 220.354 172.514 220.002H173.539C173.52 220.365 173.395 220.711 173.164 221.039C172.934 221.367 172.625 221.629 172.238 221.824C171.855 222.02 171.449 222.117 171.02 222.117C170.156 222.117 169.469 221.83 168.957 221.256C168.449 220.678 168.195 219.889 168.195 218.889V218.707C168.195 218.09 168.309 217.541 168.535 217.061C168.762 216.58 169.086 216.207 169.508 215.941C169.934 215.676 170.436 215.543 171.014 215.543C171.725 215.543 172.314 215.756 172.783 216.182C173.256 216.607 173.508 217.16 173.539 217.84H172.514C172.482 217.43 172.326 217.094 172.045 216.832C171.768 216.566 171.424 216.434 171.014 216.434C170.463 216.434 170.035 216.633 169.73 217.031C169.43 217.426 169.279 217.998 169.279 218.748V218.953C169.279 219.684 169.43 220.246 169.73 220.641C170.031 221.035 170.461 221.232 171.02 221.232ZM174.471 218.771C174.471 218.15 174.592 217.592 174.834 217.096C175.08 216.6 175.42 216.217 175.854 215.947C176.291 215.678 176.789 215.543 177.348 215.543C178.211 215.543 178.908 215.842 179.439 216.439C179.975 217.037 180.242 217.832 180.242 218.824V218.9C180.242 219.518 180.123 220.072 179.885 220.564C179.65 221.053 179.312 221.434 178.871 221.707C178.434 221.98 177.93 222.117 177.359 222.117C176.5 222.117 175.803 221.818 175.268 221.221C174.736 220.623 174.471 219.832 174.471 218.848V218.771ZM175.561 218.9C175.561 219.604 175.723 220.168 176.047 220.594C176.375 221.02 176.812 221.232 177.359 221.232C177.91 221.232 178.348 221.018 178.672 220.588C178.996 220.154 179.158 219.549 179.158 218.771C179.158 218.076 178.992 217.514 178.66 217.084C178.332 216.65 177.895 216.434 177.348 216.434C176.812 216.434 176.381 216.646 176.053 217.072C175.725 217.498 175.561 218.107 175.561 218.9ZM184.385 216.023C185.182 216.023 185.818 216.291 186.295 216.826C186.775 217.357 187.016 218.059 187.016 218.93V219.029C187.016 219.627 186.9 220.162 186.67 220.635C186.439 221.104 186.107 221.469 185.674 221.73C185.244 221.988 184.748 222.117 184.186 222.117C183.334 222.117 182.648 221.834 182.129 221.268C181.609 220.697 181.35 219.934 181.35 218.977V218.449C181.35 217.117 181.596 216.059 182.088 215.273C182.584 214.488 183.314 214.01 184.279 213.838C184.826 213.74 185.195 213.621 185.387 213.48C185.578 213.34 185.674 213.146 185.674 212.9H186.564C186.564 213.389 186.453 213.77 186.23 214.043C186.012 214.316 185.66 214.51 185.176 214.623L184.367 214.805C183.723 214.957 183.238 215.215 182.914 215.578C182.594 215.938 182.385 216.418 182.287 217.02C182.861 216.355 183.561 216.023 184.385 216.023ZM184.174 216.914C183.643 216.914 183.221 217.094 182.908 217.453C182.596 217.809 182.439 218.303 182.439 218.936V219.029C182.439 219.709 182.596 220.248 182.908 220.646C183.225 221.041 183.65 221.238 184.186 221.238C184.725 221.238 185.15 221.039 185.463 220.641C185.775 220.242 185.932 219.66 185.932 218.895C185.932 218.297 185.773 217.818 185.457 217.459C185.145 217.096 184.717 216.914 184.174 216.914ZM192.23 215.66H193.314V222H192.23V217.377L189.307 222H188.223V215.66H189.307V220.289L192.23 215.66ZM200.41 218.9C200.41 219.865 200.189 220.643 199.748 221.232C199.307 221.822 198.709 222.117 197.955 222.117C197.186 222.117 196.58 221.873 196.139 221.385V224.438H195.055V215.66H196.045L196.098 216.363C196.539 215.816 197.152 215.543 197.938 215.543C198.699 215.543 199.301 215.83 199.742 216.404C200.188 216.979 200.41 217.777 200.41 218.801V218.9ZM199.326 218.777C199.326 218.062 199.174 217.498 198.869 217.084C198.564 216.67 198.146 216.463 197.615 216.463C196.959 216.463 196.467 216.754 196.139 217.336V220.365C196.463 220.943 196.959 221.232 197.627 221.232C198.146 221.232 198.559 221.027 198.863 220.617C199.172 220.203 199.326 219.59 199.326 218.777ZM205.707 222C205.645 221.875 205.594 221.652 205.555 221.332C205.051 221.855 204.449 222.117 203.75 222.117C203.125 222.117 202.611 221.941 202.209 221.59C201.811 221.234 201.611 220.785 201.611 220.242C201.611 219.582 201.861 219.07 202.361 218.707C202.865 218.34 203.572 218.156 204.482 218.156H205.537V217.658C205.537 217.279 205.424 216.979 205.197 216.756C204.971 216.529 204.637 216.416 204.195 216.416C203.809 216.416 203.484 216.514 203.223 216.709C202.961 216.904 202.83 217.141 202.83 217.418H201.74C201.74 217.102 201.852 216.797 202.074 216.504C202.301 216.207 202.605 215.973 202.988 215.801C203.375 215.629 203.799 215.543 204.26 215.543C204.99 215.543 205.562 215.727 205.977 216.094C206.391 216.457 206.605 216.959 206.621 217.6V220.518C206.621 221.1 206.695 221.562 206.844 221.906V222H205.707ZM203.908 221.174C204.248 221.174 204.57 221.086 204.875 220.91C205.18 220.734 205.4 220.506 205.537 220.225V218.924H204.688C203.359 218.924 202.695 219.312 202.695 220.09C202.695 220.43 202.809 220.695 203.035 220.887C203.262 221.078 203.553 221.174 203.908 221.174ZM212.938 216.539H210.811V222H209.727V216.539H207.641V215.66H212.938V216.539ZM215.176 217.846H216.822C217.541 217.854 218.109 218.041 218.527 218.408C218.945 218.775 219.154 219.273 219.154 219.902C219.154 220.535 218.939 221.043 218.51 221.426C218.08 221.809 217.502 222 216.775 222H214.092V215.66H215.176V217.846ZM215.176 218.73V221.115H216.787C217.193 221.115 217.508 221.012 217.73 220.805C217.953 220.594 218.064 220.307 218.064 219.943C218.064 219.592 217.955 219.305 217.736 219.082C217.521 218.855 217.219 218.738 216.828 218.73H215.176ZM50.8965 236V229.66H53.3691C54.2129 229.66 54.8594 229.809 55.3086 230.105C55.7617 230.398 55.9883 230.83 55.9883 231.4C55.9883 231.693 55.9004 231.959 55.7246 232.197C55.5488 232.432 55.2891 232.611 54.9453 232.736C55.3281 232.826 55.6348 233.002 55.8652 233.264C56.0996 233.525 56.2168 233.838 56.2168 234.201C56.2168 234.783 56.002 235.229 55.5723 235.537C55.1465 235.846 54.543 236 53.7617 236H50.8965ZM51.9805 233.217V235.127H53.7734C54.2266 235.127 54.5645 235.043 54.7871 234.875C55.0137 234.707 55.127 234.471 55.127 234.166C55.127 233.533 54.6621 233.217 53.7324 233.217H51.9805ZM51.9805 232.35H53.3809C54.3965 232.35 54.9043 232.053 54.9043 231.459C54.9043 230.865 54.4238 230.559 53.4629 230.539H51.9805V232.35ZM60.3418 232.771C60.3418 232.15 60.4629 231.592 60.7051 231.096C60.9512 230.6 61.291 230.217 61.7246 229.947C62.1621 229.678 62.6602 229.543 63.2188 229.543C64.082 229.543 64.7793 229.842 65.3105 230.439C65.8457 231.037 66.1133 231.832 66.1133 232.824V232.9C66.1133 233.518 65.9941 234.072 65.7559 234.564C65.5215 235.053 65.1836 235.434 64.7422 235.707C64.3047 235.98 63.8008 236.117 63.2305 236.117C62.3711 236.117 61.6738 235.818 61.1387 235.221C60.6074 234.623 60.3418 233.832 60.3418 232.848V232.771ZM61.4316 232.9C61.4316 233.604 61.5938 234.168 61.918 234.594C62.2461 235.02 62.6836 235.232 63.2305 235.232C63.7812 235.232 64.2188 235.018 64.543 234.588C64.8672 234.154 65.0293 233.549 65.0293 232.771C65.0293 232.076 64.8633 231.514 64.5312 231.084C64.2031 230.65 63.7656 230.434 63.2188 230.434C62.6836 230.434 62.252 230.646 61.9238 231.072C61.5957 231.498 61.4316 232.107 61.4316 232.9ZM70.2559 230.023C71.0527 230.023 71.6895 230.291 72.166 230.826C72.6465 231.357 72.8867 232.059 72.8867 232.93V233.029C72.8867 233.627 72.7715 234.162 72.541 234.635C72.3105 235.104 71.9785 235.469 71.5449 235.73C71.1152 235.988 70.6191 236.117 70.0566 236.117C69.2051 236.117 68.5195 235.834 68 235.268C67.4805 234.697 67.2207 233.934 67.2207 232.977V232.449C67.2207 231.117 67.4668 230.059 67.959 229.273C68.4551 228.488 69.1855 228.01 70.1504 227.838C70.6973 227.74 71.0664 227.621 71.2578 227.48C71.4492 227.34 71.5449 227.146 71.5449 226.9H72.4355C72.4355 227.389 72.3242 227.77 72.1016 228.043C71.8828 228.316 71.5312 228.51 71.0469 228.623L70.2383 228.805C69.5938 228.957 69.1094 229.215 68.7852 229.578C68.4648 229.938 68.2559 230.418 68.1582 231.02C68.7324 230.355 69.4316 230.023 70.2559 230.023ZM70.0449 230.914C69.5137 230.914 69.0918 231.094 68.7793 231.453C68.4668 231.809 68.3105 232.303 68.3105 232.936V233.029C68.3105 233.709 68.4668 234.248 68.7793 234.646C69.0957 235.041 69.5215 235.238 70.0566 235.238C70.5957 235.238 71.0215 235.039 71.334 234.641C71.6465 234.242 71.8027 233.66 71.8027 232.895C71.8027 232.297 71.6445 231.818 71.3281 231.459C71.0156 231.096 70.5879 230.914 70.0449 230.914ZM79.3555 232.9C79.3555 233.865 79.1348 234.643 78.6934 235.232C78.252 235.822 77.6543 236.117 76.9004 236.117C76.1309 236.117 75.5254 235.873 75.084 235.385V238.438H74V229.66H74.9902L75.043 230.363C75.4844 229.816 76.0977 229.543 76.8828 229.543C77.6445 229.543 78.2461 229.83 78.6875 230.404C79.1328 230.979 79.3555 231.777 79.3555 232.801V232.9ZM78.2715 232.777C78.2715 232.062 78.1191 231.498 77.8145 231.084C77.5098 230.67 77.0918 230.463 76.5605 230.463C75.9043 230.463 75.4121 230.754 75.084 231.336V234.365C75.4082 234.943 75.9043 235.232 76.5723 235.232C77.0918 235.232 77.5039 235.027 77.8086 234.617C78.1172 234.203 78.2715 233.59 78.2715 232.777ZM84.6523 236C84.5898 235.875 84.5391 235.652 84.5 235.332C83.9961 235.855 83.3945 236.117 82.6953 236.117C82.0703 236.117 81.5566 235.941 81.1543 235.59C80.7559 235.234 80.5566 234.785 80.5566 234.242C80.5566 233.582 80.8066 233.07 81.3066 232.707C81.8105 232.34 82.5176 232.156 83.4277 232.156H84.4824V231.658C84.4824 231.279 84.3691 230.979 84.1426 230.756C83.916 230.529 83.582 230.416 83.1406 230.416C82.7539 230.416 82.4297 230.514 82.168 230.709C81.9062 230.904 81.7754 231.141 81.7754 231.418H80.6855C80.6855 231.102 80.7969 230.797 81.0195 230.504C81.2461 230.207 81.5508 229.973 81.9336 229.801C82.3203 229.629 82.7441 229.543 83.2051 229.543C83.9355 229.543 84.5078 229.727 84.9219 230.094C85.3359 230.457 85.5508 230.959 85.5664 231.6V234.518C85.5664 235.1 85.6406 235.562 85.7891 235.906V236H84.6523ZM82.8535 235.174C83.1934 235.174 83.5156 235.086 83.8203 234.91C84.125 234.734 84.3457 234.506 84.4824 234.225V232.924H83.6328C82.3047 232.924 81.6406 233.312 81.6406 234.09C81.6406 234.43 81.7539 234.695 81.9805 234.887C82.207 235.078 82.498 235.174 82.8535 235.174ZM90.752 231.395C90.752 231.098 90.6387 230.863 90.4121 230.691C90.1855 230.516 89.875 230.428 89.4805 230.428C89.0977 230.428 88.7773 230.527 88.5195 230.727C88.2656 230.926 88.1387 231.16 88.1387 231.43H87.0605C87.0605 230.879 87.291 230.428 87.752 230.076C88.2129 229.725 88.7891 229.549 89.4805 229.549C90.2227 229.549 90.8008 229.709 91.2148 230.029C91.6289 230.346 91.8359 230.799 91.8359 231.389C91.8359 231.674 91.75 231.936 91.5781 232.174C91.4062 232.412 91.1621 232.602 90.8457 232.742C91.584 232.992 91.9531 233.484 91.9531 234.219C91.9531 234.801 91.7285 235.262 91.2793 235.602C90.8301 235.941 90.2305 236.111 89.4805 236.111C88.75 236.111 88.1465 235.934 87.6699 235.578C87.1973 235.219 86.9609 234.734 86.9609 234.125H88.0391C88.0391 234.434 88.1758 234.699 88.4492 234.922C88.7266 235.141 89.0703 235.25 89.4805 235.25C89.8945 235.25 90.2285 235.154 90.4824 234.963C90.7363 234.771 90.8633 234.523 90.8633 234.219C90.8633 233.863 90.7559 233.609 90.541 233.457C90.3301 233.301 90 233.223 89.5508 233.223H88.4668V232.309H89.6445C90.3828 232.289 90.752 231.984 90.752 231.395ZM93.0723 232.771C93.0723 232.15 93.1934 231.592 93.4355 231.096C93.6816 230.6 94.0215 230.217 94.4551 229.947C94.8926 229.678 95.3906 229.543 95.9492 229.543C96.8125 229.543 97.5098 229.842 98.041 230.439C98.5762 231.037 98.8438 231.832 98.8438 232.824V232.9C98.8438 233.518 98.7246 234.072 98.4863 234.564C98.252 235.053 97.9141 235.434 97.4727 235.707C97.0352 235.98 96.5312 236.117 95.9609 236.117C95.1016 236.117 94.4043 235.818 93.8691 235.221C93.3379 234.623 93.0723 233.832 93.0723 232.848V232.771ZM94.1621 232.9C94.1621 233.604 94.3242 234.168 94.6484 234.594C94.9766 235.02 95.4141 235.232 95.9609 235.232C96.5117 235.232 96.9492 235.018 97.2734 234.588C97.5977 234.154 97.7598 233.549 97.7598 232.771C97.7598 232.076 97.5938 231.514 97.2617 231.084C96.9336 230.65 96.4961 230.434 95.9492 230.434C95.4141 230.434 94.9824 230.646 94.6543 231.072C94.3262 231.498 94.1621 232.107 94.1621 232.9ZM100.303 236V229.66H102.775C103.619 229.66 104.266 229.809 104.715 230.105C105.168 230.398 105.395 230.83 105.395 231.4C105.395 231.693 105.307 231.959 105.131 232.197C104.955 232.432 104.695 232.611 104.352 232.736C104.734 232.826 105.041 233.002 105.271 233.264C105.506 233.525 105.623 233.838 105.623 234.201C105.623 234.783 105.408 235.229 104.979 235.537C104.553 235.846 103.949 236 103.168 236H100.303ZM101.387 233.217V235.127H103.18C103.633 235.127 103.971 235.043 104.193 234.875C104.42 234.707 104.533 234.471 104.533 234.166C104.533 233.533 104.068 233.217 103.139 233.217H101.387ZM101.387 232.35H102.787C103.803 232.35 104.311 232.053 104.311 231.459C104.311 230.865 103.83 230.559 102.869 230.539H101.387V232.35ZM110.973 236C110.91 235.875 110.859 235.652 110.82 235.332C110.316 235.855 109.715 236.117 109.016 236.117C108.391 236.117 107.877 235.941 107.475 235.59C107.076 235.234 106.877 234.785 106.877 234.242C106.877 233.582 107.127 233.07 107.627 232.707C108.131 232.34 108.838 232.156 109.748 232.156H110.803V231.658C110.803 231.279 110.689 230.979 110.463 230.756C110.236 230.529 109.902 230.416 109.461 230.416C109.074 230.416 108.75 230.514 108.488 230.709C108.227 230.904 108.096 231.141 108.096 231.418H107.006C107.006 231.102 107.117 230.797 107.34 230.504C107.566 230.207 107.871 229.973 108.254 229.801C108.641 229.629 109.064 229.543 109.525 229.543C110.256 229.543 110.828 229.727 111.242 230.094C111.656 230.457 111.871 230.959 111.887 231.6V234.518C111.887 235.1 111.961 235.562 112.109 235.906V236H110.973ZM109.174 235.174C109.514 235.174 109.836 235.086 110.141 234.91C110.445 234.734 110.666 234.506 110.803 234.225V232.924H109.953C108.625 232.924 107.961 233.312 107.961 234.09C107.961 234.43 108.074 234.695 108.301 234.887C108.527 235.078 108.818 235.174 109.174 235.174ZM118.203 230.539H116.076V236H114.992V230.539H112.906V229.66H118.203V230.539ZM121.42 236.117C120.561 236.117 119.861 235.836 119.322 235.273C118.783 234.707 118.514 233.951 118.514 233.006V232.807C118.514 232.178 118.633 231.617 118.871 231.125C119.113 230.629 119.449 230.242 119.879 229.965C120.312 229.684 120.781 229.543 121.285 229.543C122.109 229.543 122.75 229.814 123.207 230.357C123.664 230.9 123.893 231.678 123.893 232.689V233.141H119.598C119.613 233.766 119.795 234.271 120.143 234.658C120.494 235.041 120.939 235.232 121.479 235.232C121.861 235.232 122.186 235.154 122.451 234.998C122.717 234.842 122.949 234.635 123.148 234.377L123.811 234.893C123.279 235.709 122.482 236.117 121.42 236.117ZM121.285 230.434C120.848 230.434 120.48 230.594 120.184 230.914C119.887 231.23 119.703 231.676 119.633 232.25H122.809V232.168C122.777 231.617 122.629 231.191 122.363 230.891C122.098 230.586 121.738 230.434 121.285 230.434ZM130.35 229.66V236H129.26V230.557H127.104L126.975 232.93C126.904 234.02 126.721 234.799 126.424 235.268C126.131 235.736 125.664 235.98 125.023 236H124.59V235.045L124.9 235.021C125.252 234.982 125.504 234.779 125.656 234.412C125.809 234.045 125.906 233.365 125.949 232.373L126.066 229.66H130.35ZM133.273 231.846H134.92C135.639 231.854 136.207 232.041 136.625 232.408C137.043 232.775 137.252 233.273 137.252 233.902C137.252 234.535 137.037 235.043 136.607 235.426C136.178 235.809 135.6 236 134.873 236H132.189V229.66H133.273V231.846ZM133.273 232.73V235.115H134.885C135.291 235.115 135.605 235.012 135.828 234.805C136.051 234.594 136.162 234.307 136.162 233.943C136.162 233.592 136.053 233.305 135.834 233.082C135.619 232.855 135.316 232.738 134.926 232.73H133.273ZM143.785 236H142.701V233.293H139.789V236H138.699V229.66H139.789V232.408H142.701V229.66H143.785V236ZM146.715 231.846H148.361C149.08 231.854 149.648 232.041 150.066 232.408C150.484 232.775 150.693 233.273 150.693 233.902C150.693 234.535 150.479 235.043 150.049 235.426C149.619 235.809 149.041 236 148.314 236H145.631V229.66H146.715V231.846ZM152.955 236H151.865V229.66H152.955V236ZM146.715 232.73V235.115H148.326C148.732 235.115 149.047 235.012 149.27 234.805C149.492 234.594 149.604 234.307 149.604 233.943C149.604 233.592 149.494 233.305 149.275 233.082C149.061 232.855 148.758 232.738 148.367 232.73H146.715ZM158.949 229.66H160.033V236H158.949V231.377L156.025 236H154.941V229.66H156.025V234.289L158.949 229.66ZM159.242 227.352C159.242 227.824 159.08 228.205 158.756 228.494C158.436 228.779 158.014 228.922 157.49 228.922C156.967 228.922 156.543 228.777 156.219 228.488C155.895 228.199 155.732 227.82 155.732 227.352H156.617C156.617 227.625 156.691 227.84 156.84 227.996C156.988 228.148 157.205 228.225 157.49 228.225C157.764 228.225 157.977 228.148 158.129 227.996C158.285 227.844 158.363 227.629 158.363 227.352H159.242ZM166.725 233.299H165.934V236H164.844V229.66H165.934V232.344H166.643L168.775 229.66H170.088L167.58 232.707L170.299 236H168.922L166.725 233.299ZM173.305 234.412L174.781 229.66H175.941L173.393 236.979C172.998 238.033 172.371 238.561 171.512 238.561L171.307 238.543L170.902 238.467V237.588L171.195 237.611C171.562 237.611 171.848 237.537 172.051 237.389C172.258 237.24 172.428 236.969 172.561 236.574L172.801 235.93L170.539 229.66H171.723L173.305 234.412ZM182.27 232.9C182.27 233.865 182.049 234.643 181.607 235.232C181.166 235.822 180.568 236.117 179.814 236.117C179.045 236.117 178.439 235.873 177.998 235.385V238.438H176.914V229.66H177.904L177.957 230.363C178.398 229.816 179.012 229.543 179.797 229.543C180.559 229.543 181.16 229.83 181.602 230.404C182.047 230.979 182.27 231.777 182.27 232.801V232.9ZM181.186 232.777C181.186 232.062 181.033 231.498 180.729 231.084C180.424 230.67 180.006 230.463 179.475 230.463C178.818 230.463 178.326 230.754 177.998 231.336V234.365C178.322 234.943 178.818 235.232 179.486 235.232C180.006 235.232 180.418 235.027 180.723 234.617C181.031 234.203 181.186 233.59 181.186 232.777ZM186.195 235.232C186.582 235.232 186.92 235.115 187.209 234.881C187.498 234.646 187.658 234.354 187.689 234.002H188.715C188.695 234.365 188.57 234.711 188.34 235.039C188.109 235.367 187.801 235.629 187.414 235.824C187.031 236.02 186.625 236.117 186.195 236.117C185.332 236.117 184.645 235.83 184.133 235.256C183.625 234.678 183.371 233.889 183.371 232.889V232.707C183.371 232.09 183.484 231.541 183.711 231.061C183.938 230.58 184.262 230.207 184.684 229.941C185.109 229.676 185.611 229.543 186.189 229.543C186.9 229.543 187.49 229.756 187.959 230.182C188.432 230.607 188.684 231.16 188.715 231.84H187.689C187.658 231.43 187.502 231.094 187.221 230.832C186.943 230.566 186.6 230.434 186.189 230.434C185.639 230.434 185.211 230.633 184.906 231.031C184.605 231.426 184.455 231.998 184.455 232.748V232.953C184.455 233.684 184.605 234.246 184.906 234.641C185.207 235.035 185.637 235.232 186.195 235.232Z" fill="black"/>
<path d="M226 29H42C37.5817 29 34 32.5817 34 37V165C34 169.418 37.5817 173 42 173H226C230.418 173 234 169.418 234 165V37C234 32.5817 230.418 29 226 29Z" fill="#E5E7FA"/>
<path d="M103.945 145.6C103.945 144.844 103.669 144.245 103.115 143.803C102.568 143.354 101.797 143.129 100.801 143.129C99.9674 143.129 99.2676 143.36 98.7012 143.822C98.1413 144.278 97.8613 144.844 97.8613 145.521H95.9863C95.9863 144.766 96.1914 144.089 96.6016 143.49C97.0182 142.891 97.5977 142.426 98.3398 142.094C99.082 141.755 99.9023 141.586 100.801 141.586C102.389 141.586 103.623 141.944 104.502 142.66C105.381 143.37 105.82 144.359 105.82 145.629C105.82 146.286 105.618 146.885 105.215 147.426C104.811 147.966 104.248 148.393 103.525 148.705C105.199 149.265 106.035 150.375 106.035 152.035C106.035 153.311 105.56 154.324 104.609 155.072C103.659 155.821 102.389 156.195 100.801 156.195C99.8568 156.195 98.9974 156.029 98.2227 155.697C97.4544 155.359 96.8555 154.88 96.4258 154.262C95.9961 153.643 95.7812 152.908 95.7812 152.055H97.6562C97.6562 152.803 97.9525 153.428 98.5449 153.93C99.1374 154.424 99.8893 154.672 100.801 154.672C101.823 154.672 102.637 154.434 103.242 153.959C103.854 153.484 104.16 152.855 104.16 152.074C104.16 150.408 103.128 149.558 101.064 149.525H99.3066V147.982H101.055C102.005 147.963 102.725 147.748 103.213 147.338C103.701 146.928 103.945 146.348 103.945 145.6ZM114.766 156C114.661 155.792 114.577 155.421 114.512 154.887C113.672 155.759 112.669 156.195 111.504 156.195C110.462 156.195 109.606 155.902 108.936 155.316C108.271 154.724 107.939 153.975 107.939 153.07C107.939 151.97 108.356 151.117 109.189 150.512C110.029 149.9 111.208 149.594 112.725 149.594H114.482V148.764C114.482 148.132 114.294 147.631 113.916 147.26C113.538 146.882 112.982 146.693 112.246 146.693C111.602 146.693 111.061 146.856 110.625 147.182C110.189 147.507 109.971 147.901 109.971 148.363H108.154C108.154 147.836 108.34 147.328 108.711 146.84C109.089 146.345 109.596 145.954 110.234 145.668C110.879 145.382 111.585 145.238 112.354 145.238C113.571 145.238 114.525 145.544 115.215 146.156C115.905 146.762 116.263 147.598 116.289 148.666V153.529C116.289 154.499 116.413 155.271 116.66 155.844V156H114.766ZM111.768 154.623C112.334 154.623 112.871 154.477 113.379 154.184C113.887 153.891 114.255 153.51 114.482 153.041V150.873H113.066C110.853 150.873 109.746 151.521 109.746 152.816C109.746 153.383 109.935 153.826 110.312 154.145C110.69 154.464 111.175 154.623 111.768 154.623ZM127.754 156H125.947V151.488H121.094V156H119.277V145.434H121.094V150.014H125.947V145.434H127.754V156ZM138.74 145.434V156H136.924V151.889H134.199L131.709 156H129.756L132.412 151.615C131.735 151.368 131.214 150.987 130.85 150.473C130.492 149.952 130.312 149.346 130.312 148.656C130.312 147.693 130.674 146.918 131.396 146.332C132.119 145.74 133.086 145.44 134.297 145.434H138.74ZM132.129 148.676C132.129 149.19 132.305 149.607 132.656 149.926C133.008 150.238 133.473 150.398 134.053 150.404H136.924V146.898H134.326C133.656 146.898 133.122 147.064 132.725 147.396C132.327 147.722 132.129 148.148 132.129 148.676ZM149.492 146.898H145.947V156H144.141V146.898H140.664V145.434H149.492V146.898ZM158.086 145.434H159.893V156H158.086V148.295L153.213 156H151.406V145.434H153.213V153.148L158.086 145.434ZM170.869 145.434V156H169.053V151.889H166.328L163.838 156H161.885L164.541 151.615C163.864 151.368 163.343 150.987 162.979 150.473C162.62 149.952 162.441 149.346 162.441 148.656C162.441 147.693 162.803 146.918 163.525 146.332C164.248 145.74 165.215 145.44 166.426 145.434H170.869ZM164.258 148.676C164.258 149.19 164.434 149.607 164.785 149.926C165.137 150.238 165.602 150.398 166.182 150.404H169.053V146.898H166.455C165.785 146.898 165.251 147.064 164.854 147.396C164.456 147.722 164.258 148.148 164.258 148.676Z" fill="black"/>
<g clip-path="url(#clip0)">
<path d="M123.84 46.8431C114.518 48.8378 107.147 56.5122 105.543 65.9211C103.982 74.8531 107.494 83.7419 114.692 89.2053C116.903 90.8962 118.16 93.411 118.16 96.1862L124.279 98.6108L118.16 102.69V104.858C118.16 105.595 118.247 106.332 118.377 107.026L124.664 111.362L129 107.026L133.336 111.362L139.623 107.026C139.753 106.332 139.84 105.595 139.84 104.858V102.69L133.764 98.6396L139.84 96.186C139.84 93.411 141.097 90.8961 143.309 89.2052C149.292 84.6957 152.848 77.5846 152.848 70.1704C152.848 55.2649 139.239 43.616 123.84 46.8431V46.8431ZM129 102.69L125.342 99.0317L129.103 100.522L132.567 99.1231L129 102.69Z" fill="url(#paint0_linear)"/>
<path d="M118.16 102.69H124.664C125.878 102.69 126.832 103.644 126.832 104.858C126.832 106.072 125.878 107.026 124.664 107.026H118.377C119.374 111.969 123.754 115.698 129 115.698C134.571 115.698 138.771 111.57 139.623 107.026H133.336C132.122 107.026 131.168 106.072 131.168 104.858C131.168 103.644 132.122 102.69 133.336 102.69H139.84V96.186H118.16V102.69ZM99.7388 78.5142L95.6633 79.9984C94.537 80.407 93.9568 81.6518 94.3676 82.7761C94.7802 83.913 96.0343 84.4776 97.1453 84.0719L101.221 82.5877C102.347 82.1791 102.927 80.9342 102.517 79.8099C102.106 78.6856 100.855 78.1034 99.7388 78.5142V78.5142ZM158.261 61.8268L162.337 60.3426C163.463 59.934 164.043 58.6891 163.632 57.5648C163.224 56.4385 161.975 55.8627 160.855 56.2691L156.779 57.7533C155.653 58.1619 155.073 59.4067 155.483 60.5311C155.896 61.6679 157.15 62.2325 158.261 61.8268ZM101.221 57.7533L97.1453 56.2693C96.0232 55.8649 94.7762 56.4386 94.3676 57.565C93.9568 58.6891 94.537 59.9341 95.6633 60.3427L99.7388 61.8269C100.848 62.232 102.103 61.6697 102.517 60.5312C102.927 59.4069 102.347 58.1619 101.221 57.7533ZM162.337 79.9983L158.261 78.5141C157.141 78.1055 155.892 78.6856 155.483 79.8098C155.073 80.9339 155.653 82.1789 156.779 82.5875L160.855 84.0717C161.964 84.4768 163.219 83.9145 163.632 82.776C164.043 81.6518 163.463 80.4068 162.337 79.9983V79.9983ZM100.816 70.1704C100.816 68.9721 99.8467 68.0024 98.6484 68.0024H94.168C92.9697 68.0024 92 68.9721 92 70.1704C92 71.3687 92.9697 72.3384 94.168 72.3384H98.6484C99.8467 72.3384 100.816 71.3687 100.816 70.1704ZM163.832 68.0024H159.352C158.153 68.0024 157.184 68.9721 157.184 70.1704C157.184 71.3687 158.153 72.3384 159.352 72.3384H163.832C165.03 72.3384 166 71.3687 166 70.1704C166 68.9721 165.03 68.0024 163.832 68.0024ZM138.083 68.14C137.4 67.5116 136.615 63.6665 133.336 63.6665C130.912 63.6665 129.858 65.7731 129.229 67.0328C129.161 67.1684 129.083 67.3271 129 67.4837C128.917 67.3271 128.839 67.1682 128.771 67.0328C128.142 65.7731 127.088 63.6665 124.664 63.6665C121.601 63.6665 120.747 66.9867 120.013 68.0257C118.965 68.1782 118.16 69.0801 118.16 70.1704C118.16 71.3687 119.13 72.3384 120.328 72.3384C122.752 72.3384 123.807 70.2318 124.435 68.9721C124.503 68.8365 124.582 68.6778 124.664 68.5212C124.747 68.6778 124.825 68.8367 124.893 68.9721C125.283 69.7549 125.886 70.8181 126.832 71.5464V83.1782C126.832 84.3765 127.802 85.3462 129 85.3462C130.198 85.3462 131.168 84.3765 131.168 83.1782V71.5464C132.114 70.8181 132.717 69.755 133.107 68.9721C133.175 68.8365 133.253 68.6778 133.336 68.5212C133.418 68.6778 133.497 68.8367 133.565 68.9721C134.193 70.2318 135.248 72.3384 137.672 72.3384C138.87 72.3384 140.045 71.4365 140.045 70.2402C140.045 69.0421 139.281 68.14 138.083 68.14V68.14Z" fill="url(#paint1_linear)"/>
</g>
<defs>
<filter id="filter0_d" x="30" y="30" width="208" height="248" filterUnits="userSpaceOnUse" color-interpolation-filters="sRGB">
<feFlood flood-opacity="0" result="BackgroundImageFix"/>
<feColorMatrix in="SourceAlpha" type="matrix" values="0 0 0 0 0 0 0 0 0 0 0 0 0 0 0 0 0 0 127 0"/>
<feOffset dy="4"/>
<feGaussianBlur stdDeviation="2"/>
<feColorMatrix type="matrix" values="0 0 0 0 0 0 0 0 0 0 0 0 0 0 0 0 0 0 0.25 0"/>
<feBlend mode="normal" in2="BackgroundImageFix" result="effect1_dropShadow"/>
<feBlend mode="normal" in="SourceGraphic" in2="effect1_dropShadow" result="shape"/>
</filter>
<linearGradient id="paint0_linear" x1="129.012" y1="111.362" x2="129.012" y2="46.3022" gradientUnits="userSpaceOnUse">
<stop stop-color="#FD5900"/>
<stop offset="1" stop-color="#FFDE00"/>
</linearGradient>
<linearGradient id="paint1_linear" x1="129" y1="85.3462" x2="129" y2="56.1389" gradientUnits="userSpaceOnUse">
<stop stop-color="#FFE59A"/>
<stop offset="1" stop-color="#FFFFD5"/>
</linearGradient>
<clipPath id="clip0">
<rect width="74" height="74" fill="white" transform="translate(92 44)"/>
</clipPath>
</defs>
</svg>
